<svg xmlns="http://www.w3.org/2000/svg" width="30%" height="30%" viewBox="0 0 94 42" fill="none">
<rect width="94" height="42" rx="21" fill="#FFC107"/>
<path d="M31.0059 14.956H32.6139V26.068H31.0059V14.956ZM32.2539 19.096H34.2219V20.416H32.2539V19.096ZM24.2379 15.832H25.8219V18.532H28.0539V15.832H29.6379V23.5H24.2379V15.832ZM25.8219 19.768V22.216H28.0539V19.768H25.8219ZM35.9529 23.548H46.0089V24.844H35.9529V23.548ZM40.1649 21.448H41.7609V24.076H40.1649V21.448ZM37.0809 15.676H44.8809V19.372H38.6889V21.244H37.1049V18.124H43.2969V16.936H37.0809V15.676ZM37.1049 20.608H45.1329V21.892H37.1049V20.608ZM55.084 14.944H56.692V26.056H55.084V14.944ZM56.272 19.192H58.228V20.5H56.272V19.192ZM52.168 16.096H53.728C53.728 19.432 52.456 22.288 48.76 24.148L47.872 22.936C50.788 21.424 52.168 19.384 52.168 16.372V16.096ZM48.484 16.096H52.984V17.38H48.484V16.096ZM67.6751 14.956H69.2831V26.068H67.6751V14.956ZM64.3991 16.108H65.9831C65.9831 19.504 64.8311 22.288 60.8831 24.196L60.0551 22.924C63.2471 21.388 64.3991 19.372 64.3991 16.396V16.108ZM60.6431 16.108H65.1551V17.368H60.6431V16.108Z" fill="white"/>
</svg>