<svg xmlns="http://www.w3.org/2000/svg" width="20" height="20" viewBox="0 0 18 18" fill="none">
<path d="M17.0781 18C16.957 18.0002 16.8369 17.9765 16.725 17.9301C16.6131 17.8837 16.5114 17.8156 16.4259 17.7297L0.281653 1.58603C0.193542 1.50093 0.123272 1.39915 0.0749227 1.2866C0.0265739 1.17405 0.00109926 1.05302 3.4827e-05 0.930528C-0.0010296 0.808039 0.0223153 0.686589 0.0687008 0.573218C0.115086 0.459846 0.183604 0.356801 0.270222 0.270185C0.356841 0.183569 0.459833 0.115111 0.573209 0.0687266C0.686584 0.0223426 0.808066 -0.00102961 0.930559 3.47863e-05C1.05305 0.00109918 1.17412 0.026573 1.28667 0.0749202C1.39922 0.123267 1.50101 0.193563 1.58611 0.281671L17.7304 16.4254C17.8592 16.5544 17.9469 16.7187 17.9824 16.8976C18.0178 17.0764 17.9995 17.2618 17.9297 17.4302C17.86 17.5986 17.7418 17.7426 17.5902 17.8439C17.4387 17.9453 17.2605 17.9999 17.0781 18Z" fill="#319AFD"/>
<path d="M0.923455 18C0.7408 18 0.562264 17.9458 0.410403 17.8443C0.258543 17.7428 0.140179 17.5986 0.0702853 17.4298C0.000391234 17.2611 -0.017881 17.0754 0.0177426 16.8963C0.0533663 16.7171 0.141312 16.5526 0.270449 16.4234L16.4347 0.259363C16.6089 0.091111 16.8422 -0.0020696 17.0844 3.48872e-05C17.3265 0.00213937 17.5582 0.0992715 17.7294 0.270525C17.9007 0.441779 17.9979 0.673508 18 0.915689C18.0021 1.15787 17.9089 1.39116 17.7407 1.56536L1.57649 17.7294C1.49088 17.8154 1.3891 17.8835 1.27702 17.93C1.16494 17.9764 1.04478 18.0002 0.923455 18Z" fill="#319AFD"/>
</svg>