<svg xmlns="http://www.w3.org/2000/svg" width="28" height="28" viewBox="0 0 30 30" fill="none">
<path d="M15 23.4375C14.4875 23.4375 14.0625 23.0125 14.0625 22.5V18.75C14.0625 18.2375 14.4875 17.8125 15 17.8125C15.5125 17.8125 15.9375 18.2375 15.9375 18.75V22.5C15.9375 23.0125 15.5125 23.4375 15 23.4375Z" fill="#2B74B9"/>
<path d="M22 28.1999H7.99995C5.72495 28.1999 3.64995 26.4499 3.27495 24.2124L1.61245 14.2499C1.33745 12.6999 2.09995 10.7124 3.33745 9.7249L12 2.7874C13.675 1.4374 16.3125 1.4499 18 2.7999L26.6624 9.7249C27.8874 10.7124 28.6374 12.6999 28.3874 14.2499L26.7249 24.1999C26.3499 26.4124 24.225 28.1999 22 28.1999ZM14.9875 3.6624C14.325 3.6624 13.6625 3.8624 13.175 4.2499L4.51245 11.1999C3.81245 11.7624 3.31245 13.0624 3.46245 13.9499L5.12495 23.8999C5.34995 25.2124 6.66245 26.3249 7.99995 26.3249H22C23.3375 26.3249 24.6499 25.2124 24.8749 23.8874L26.5374 13.9374C26.6749 13.0624 26.1749 11.7374 25.4874 11.1874L16.825 4.2624C16.325 3.8624 15.65 3.6624 14.9875 3.6624Z" fill="#2B74B9"/>
</svg>