<svg width="28" height="28" viewBox="0 0 28 28" fill="none" xmlns="http://www.w3.org/2000/svg">
<rect width="28" height="28" rx="14" fill="#2B74B9"/>
<path fill-rule="evenodd" clip-rule="evenodd" d="M9 11.0909C9 10.8016 9.11288 10.5241 9.31381 10.3195C9.51475 10.1149 9.78727 10 10.0714 10H17.9286C18.2127 10 18.4853 10.1149 18.6862 10.3195C18.8871 10.5241 19 10.8016 19 11.0909V16.9091C19 17.1984 18.8871 17.4759 18.6862 17.6805C18.4853 17.8851 18.2127 18 17.9286 18H10.0714C9.78727 18 9.51475 17.8851 9.31381 17.6805C9.11288 17.4759 9 17.1984 9 16.9091V11.0909ZM9.71429 15.9685V16.9091C9.71429 17.1098 9.87429 17.2727 10.0714 17.2727H17.9286C18.0233 17.2727 18.1141 17.2344 18.1811 17.1662C18.2481 17.098 18.2857 17.0055 18.2857 16.9091V15.9685L17.0048 14.6647C16.8708 14.5285 16.6893 14.452 16.5 14.452C16.3107 14.452 16.1292 14.5285 15.9952 14.6647L15.5762 15.0909L16.0381 15.5612C16.0732 15.5945 16.1013 15.6346 16.1208 15.6793C16.1404 15.7239 16.1509 15.772 16.1517 15.8208C16.1526 15.8697 16.1437 15.9182 16.1258 15.9634C16.1078 16.0087 16.0811 16.0499 16.0472 16.0844C16.0132 16.1189 15.9728 16.1461 15.9284 16.1644C15.8839 16.1827 15.8363 16.1917 15.7883 16.1908C15.7404 16.19 15.6931 16.1793 15.6493 16.1594C15.6055 16.1395 15.566 16.1109 15.5333 16.0752L13.0762 13.5738C12.9423 13.4376 12.7607 13.3611 12.5714 13.3611C12.3821 13.3611 12.2006 13.4376 12.0667 13.5738L9.71429 15.969V15.9685ZM14.5357 12.1818C14.5357 12.0372 14.5922 11.8984 14.6926 11.7961C14.7931 11.6938 14.9293 11.6364 15.0714 11.6364C15.2135 11.6364 15.3498 11.6938 15.4502 11.7961C15.5507 11.8984 15.6071 12.0372 15.6071 12.1818C15.6071 12.3265 15.5507 12.4652 15.4502 12.5675C15.3498 12.6698 15.2135 12.7273 15.0714 12.7273C14.9293 12.7273 14.7931 12.6698 14.6926 12.5675C14.5922 12.4652 14.5357 12.3265 14.5357 12.1818Z" fill="white"/>
</svg>
