<svg xmlns="http://www.w3.org/2000/svg" width="75" height="63" viewBox="0 0 75 63" fill="none">
<g clip-path="url(#clip0_790_3697)">
<path d="M47.0482 30.2474C49.1123 25.7142 53.9597 22.673 58.8786 22.8249C63.7974 22.9768 68.509 26.3128 70.3784 30.9672C72.2477 35.6215 71.1686 41.3312 67.7451 44.9014C64.3216 48.4716 58.7466 49.7017 54.1389 47.9024C52.9255 51.4784 49.9438 54.3667 46.3746 55.4341C42.8055 56.5014 38.7399 55.7207 35.7696 53.3974C31.8788 57.3841 26.1485 58.4786 21.3215 56.6788C16.4948 54.8798 12.7727 50.2613 11.9841 45.0927C11.1955 39.9241 13.3727 34.4222 17.4465 31.2882C19.9084 29.3937 23.0456 28.3473 26.1313 28.6574C29.2171 28.9675 32.2021 30.7045 33.8499 33.1613C34.862 30.871 36.9781 29.1285 39.3903 28.5982C41.8025 28.068 44.4541 28.7623 47.0482 30.2474Z" fill="#F9B23C"/>
<path d="M24.7053 37.2895C23.8577 36.9167 23.0129 37.2717 22.3578 37.844C22.0655 38.0815 21.808 38.3506 21.5769 38.6407C21.5892 38.4847 21.605 38.3288 21.6165 38.1729C21.6171 37.8144 21.7757 37.3876 21.5044 37.0918C21.1706 36.6973 20.4813 36.9445 20.4716 37.4655C20.3622 38.9968 20.2152 40.5239 20.0853 42.0535C20.0578 42.1798 20.0311 42.306 20.0078 42.4314C19.8701 43.2352 19.8125 44.0537 19.8243 44.8704C19.8378 45.1251 19.8088 45.4212 19.9706 45.6347C20.1341 45.9049 20.5169 45.9669 20.7715 45.8046C20.8366 45.8831 20.9238 45.947 21.0356 45.9833C21.2839 46.0693 21.5324 45.943 21.7691 45.8754C22.1857 45.7277 22.5965 45.5652 23.0006 45.3881C24.5069 44.8072 25.4213 43.328 25.921 41.8329C26.4599 40.4015 26.2396 37.9969 24.7052 37.2886L24.7053 37.2895ZM24.9935 39.9539C25.1086 40.6751 24.6986 42.0971 23.9489 43.1375C23.557 43.9084 22.032 44.5558 21.0873 44.8247C21.084 44.8254 21.0807 44.8262 21.0765 44.8271C21.1199 43.9555 21.1909 43.086 21.2654 42.2166C21.4674 41.2954 21.8056 40.4542 22.3458 39.6065C22.868 38.8126 23.8913 38.187 24.0839 38.3617C24.1747 38.3856 24.2641 38.4152 24.3519 38.4496C24.3641 38.4576 24.3745 38.4652 24.3847 38.4719C24.7875 38.9227 24.8303 39.0872 24.9935 39.9539Z" fill="#FFFDF7"/>
<path d="M35.8205 37.1647C35.563 37.0201 35.2233 37.1324 35.0678 37.3766C34.9268 37.6115 34.9745 37.9069 34.9339 38.1698C34.8753 38.8271 34.8131 39.4843 34.7357 40.1395C34.5287 41.6119 34.1048 43.6717 33.3225 44.3902C31.4006 45.9737 30.0994 43.6857 30.0874 40.8301C30.0799 40.1212 30.1103 39.4103 30.2055 38.7084C30.2203 38.3272 30.4317 37.9264 30.3184 37.5543C30.1275 36.9379 29.1855 37.0787 29.1691 37.7215C28.7679 39.9983 28.6172 42.9045 29.9684 44.9008C31.2708 46.938 34.1519 46.1755 34.9482 44.1051C35.6322 42.4942 35.901 40.732 36.0562 38.99C36.0919 38.6203 36.1259 38.251 36.1554 37.8808C36.2038 37.6019 36.0973 37.273 35.8212 37.1637L35.8205 37.1647Z" fill="#FFFDF7"/>
<path d="M44.5116 37.6154C42.1273 35.8787 39.5918 37.6759 38.8744 40.2088C38.5825 41.343 38.354 42.6881 39.0225 43.7382C40.1348 45.3309 42.3188 45.5252 44.0554 45.1883C44.4348 45.0825 44.9374 45.1051 45.1846 44.7526C45.3921 44.4382 45.2246 43.9772 44.8696 43.8628C44.43 43.7802 43.9867 44.0103 43.5461 44.0438C42.5554 44.1694 42.1643 44.1734 41.2998 43.9282C40.4338 43.6637 39.9861 43.187 39.8702 42.771C39.566 41.4972 40.0925 39.7039 41.0409 38.8182C41.551 38.2213 42.5835 38.0554 42.9246 38.1506C43.1608 38.2008 43.3682 38.3795 43.8722 38.6371C44.0036 38.7235 44.1688 38.7562 44.3209 38.7213C44.8252 38.6312 44.954 37.8873 44.5113 37.6181L44.5116 37.6154Z" fill="#FFFDF7"/>
<path d="M54.4154 41.0393C53.714 40.2639 53.4531 39.9195 52.7236 39.48C52.2834 39.2584 51.7925 39.137 51.3822 39.0774C51.633 38.8454 51.87 38.5986 52.0729 38.3191C52.5606 37.5916 53.2411 36.5137 52.8435 35.8022C53.0624 36.3065 52.8409 35.1681 52.7331 34.9856C52.7085 34.925 52.6828 34.8628 52.6481 34.8079C52.6667 34.7932 52.5733 34.6165 52.4851 34.5403C52.1732 34.2426 51.6668 34.6595 51.8779 35.0362C51.8997 35.084 51.9215 35.1319 51.9441 35.1796C51.9776 35.3497 52.0373 35.2671 52.0901 35.6461C52.1001 35.6921 52.1132 35.8123 52.1202 35.8767C52.126 35.9753 52.1313 36.0241 52.1443 36.0115C52.1279 36.1247 52.1457 36.2465 52.1237 36.3619C52.1111 36.5491 51.8477 37.136 51.4826 37.6488C51.4223 37.833 50.4174 38.7159 50.3205 38.7361C50.1134 38.8837 49.8955 39.014 49.6771 39.1418C49.5457 38.5499 49.4268 37.9552 49.3322 37.3562C49.2235 36.9127 49.302 36.2983 49.0878 35.9161C48.7428 35.3698 47.8734 35.7596 48.024 36.3874C48.1816 38.2271 48.6525 40.0182 49.0873 41.8074C49.1991 42.2529 49.2983 42.7011 49.4208 43.1434C49.4805 43.3497 49.5352 43.5768 49.7309 43.6938C49.9888 43.8721 50.3711 43.7871 50.5328 43.5193C50.6884 43.2795 50.5981 43.0049 50.5376 42.747C50.4062 42.1792 50.2631 41.6139 50.1259 41.0474C50.062 40.7858 49.9989 40.524 49.9358 40.2623C49.9465 40.2591 49.9575 40.2576 49.968 40.2535C50.071 40.2373 50.1231 40.2242 50.1418 40.2139C50.1614 40.2114 50.1798 40.2119 50.2006 40.2073C50.8342 40.0374 52.1846 40.3052 52.6289 40.8423C52.9177 41.1183 53.1831 41.4189 53.4453 41.7211C53.6089 41.9191 53.7753 42.1584 54.0539 42.1628C54.6639 42.1897 54.8704 41.4173 54.4151 41.0421L54.4154 41.0393Z" fill="#FFFDF7"/>
<path d="M64.544 31.4499C64.1306 30.1598 63.1692 30.1515 62.7491 30.5478C62.2916 30.9772 61.9146 31.9971 61.7254 33.3702C61.2324 32.8704 60.5467 32.2868 60.0224 32.1084C59.3758 31.8453 58.3341 31.9169 58.2533 32.7894C58.2201 33.0864 58.3273 33.3742 58.4331 33.648C58.4692 33.7374 58.5341 33.8953 58.5633 33.9451C58.5631 33.9443 58.5627 33.9426 58.5634 33.9415C58.6144 34.0677 58.6927 34.1907 58.7506 34.3046C59.0481 34.8248 59.3555 35.3427 59.7252 35.8141C60.0634 36.2406 60.4732 36.6115 60.9347 36.8944C61.0376 36.938 61.2069 37.0982 61.4985 37.1381C61.3956 37.1427 61.6164 37.2106 61.7609 37.2772C62.1035 37.3907 62.4423 37.5996 62.8017 37.6222C62.9868 37.6184 63.1072 37.4977 63.1559 37.3481C63.2288 37.3019 63.2906 37.2331 63.3323 37.1438C63.4323 36.9732 63.4865 36.7572 63.5603 36.5825C63.8058 35.8854 64.1321 35.2224 64.3875 34.5303C64.7441 33.5531 64.8525 32.4624 64.5427 31.452L64.544 31.4499Z" fill="#FFFDF7"/>
<path d="M58.4409 33.6666C58.4387 33.6606 58.4365 33.6547 58.4343 33.6487C58.4301 33.6377 58.4263 33.6284 58.4227 33.62C58.4273 33.6328 58.4331 33.6471 58.4409 33.6666Z" fill="#FFFDF7"/>
<path d="M58.4231 33.621C58.4028 33.5694 58.407 33.5804 58.4231 33.621V33.621Z" fill="#FFFDF7"/>
<path d="M23.9653 53.0388C23.6944 52.7973 23.2907 52.7915 22.9688 52.6404C21.3151 51.9822 20.5248 51.8127 19.4664 51.0535C19.429 51.0179 19.3837 50.9743 19.3533 50.939C19.343 50.9279 19.3342 50.9155 19.3246 50.9033C19.2619 50.8038 19.0884 50.5562 18.9801 50.5441C18.4122 50.2371 17.8486 51.0257 18.2924 51.4962C18.5564 52.192 20.5613 53.036 21.6955 53.4132C22.2179 53.5911 22.7444 53.7636 23.2876 53.8647C23.54 53.8811 23.6528 54.0464 23.9808 53.7281C24.1541 53.5415 24.1336 53.2268 23.9663 53.0394L23.9653 53.0388Z" fill="#FFFDF7"/>
<path d="M28.2523 53.0313C27.973 52.8513 27.6455 52.9832 27.3412 52.9933C27.125 52.9949 26.9079 53.0804 26.7931 53.2748C26.5031 53.7035 26.9282 54.3251 27.4247 54.1992C27.7032 54.143 28.0363 54.2096 28.274 54.034C28.624 53.8205 28.5977 53.2423 28.2513 53.0306L28.2523 53.0313Z" fill="#FFFDF7"/>
<path d="M60.7765 25.8803C59.7817 25.8266 58.7839 25.9475 57.8143 26.162C57.3991 26.3041 56.8289 26.2276 56.55 26.619C56.2608 27.0475 56.6843 27.6694 57.1816 27.5434C58.3996 27.2587 59.4539 27.0685 60.33 27.0624C60.6797 27.0122 61.1027 27.1546 61.3895 26.8996C61.8465 26.3919 61.38 25.8292 60.7765 25.8803Z" fill="#FFFDF7"/>
<path d="M53.7979 27.6459C53.5322 27.8089 53.1647 27.9058 53.0647 28.2405C52.8903 28.7349 53.4628 29.2272 53.9114 28.97C54.1687 28.7963 54.5316 28.6942 54.6329 28.3655C54.8046 27.8788 54.2405 27.3926 53.7981 27.6467L53.7979 27.6459Z" fill="#FFFDF7"/>
</g>
<path d="M59.8551 2.60942L69.3615 2.56726C70.3732 2.56726 71.2164 2.75697 71.2164 3.7055C71.3007 5.11776 70.2257 5.11776 69.2772 5.05452L66.1154 5.09668L66.1365 5.89766C66.1365 6.12953 66.0943 6.46678 66.1365 6.69865C66.2208 7.01482 66.4948 7.18345 66.6845 7.41531C67.5066 8.36385 68.6448 9.03836 69.7198 9.96581C70.2468 10.5139 71.0899 11.3148 70.6683 12.1369C70.2046 13.0222 68.961 12.7271 68.2654 12.2844C66.9164 11.4202 65.7992 10.4295 64.661 9.35454C64.5977 9.31238 62.785 10.83 61.984 11.4624C61.0776 12.158 59.3703 13.8653 58.3163 12.4109C57.5997 11.2938 58.6958 10.5139 59.5178 9.96581C60.6139 9.22806 61.7311 8.17414 62.6796 7.22561C63.059 6.84619 62.9536 6.53002 62.9536 6.00306V5.05452H59.6232C59.6232 5.05452 57.7472 5.24423 57.6418 3.95844C57.5575 3.03099 58.1266 2.69373 58.8222 2.6305C59.0119 2.60942 59.6021 2.60942 59.8551 2.60942ZM58.3585 17.3011C57.4732 17.2168 56.5457 17.0271 56.5457 15.931C56.5457 15.6359 56.6511 15.383 56.8198 15.1933C57.2624 14.7506 58.2953 14.7717 58.3374 14.7717L70.0781 14.7928C70.7948 14.7928 71.4272 14.7085 71.8909 15.109C72.1649 15.3619 72.3335 15.6781 72.3335 16.0153C72.3335 16.4369 72.0595 16.8163 71.6379 16.9639C71.0688 17.1747 70.4576 17.259 69.8674 17.28C67.8227 17.3644 65.5884 17.3011 63.7124 17.3011C61.6889 17.3011 59.6232 17.3644 58.3585 17.3011Z" fill="#2B74B9"/>
<path d="M54.9856 13.4571C54.4165 13.6678 53.8052 13.6889 53.215 13.71H53.1096C51.7184 13.7522 50.4327 13.7522 49.0204 13.7522C49.0415 14.2159 49.0625 14.7007 49.0204 15.5228L50.9175 16.7453C51.9503 17.462 52.7724 18.0311 53.7631 18.811C54.1003 19.085 54.6062 19.4012 54.6905 19.8649C54.7748 20.2443 54.6062 20.687 54.3111 20.9399C53.8474 21.3193 53.4047 21.2139 52.8988 20.9821L48.6621 18.4527C48.3248 18.263 48.0719 18.0943 47.6292 18.01C47.2498 18.0311 46.9547 18.1997 46.6807 18.4105C45.5635 19.1483 44.1091 20.1811 43.287 20.6027C42.6547 20.9399 41.7062 21.3404 41.0106 20.9821C40.5679 20.7713 40.3571 20.2443 40.4836 19.7806C40.6312 19.3169 41.2424 19.0218 41.5797 18.7478C42.6547 17.9257 43.5189 17.3777 44.615 16.5978C45.0155 16.3027 45.5003 16.0708 46.0905 15.6914C46.0694 15.1223 46.1116 14.258 46.1116 13.7522C44.8258 13.7522 43.5821 13.7522 42.4017 13.71C41.9169 13.6889 41.2003 13.6889 40.7576 13.6468C40.6733 13.6468 40.5679 13.6257 40.4836 13.6257C40.041 13.5835 39.8302 13.5625 39.4718 13.2252C39.2821 13.0566 39.1978 12.7404 39.1978 12.4453C39.1978 12.1713 39.3032 11.8973 39.4718 11.7286C39.8934 11.286 40.9263 11.3071 40.9684 11.3071H53.0253C53.4469 11.3071 53.8684 11.3071 54.2689 11.3281C54.6483 11.3492 55.0699 11.4124 55.365 11.6865C55.6601 11.9183 55.6601 12.1924 55.6601 12.5296C55.6601 12.9512 55.4072 13.3095 54.9856 13.4571ZM41.8115 7.30214C40.8841 7.21783 39.8723 6.88057 40.1674 5.80557C40.2728 5.384 40.589 5.00459 40.9895 4.7938C41.6429 4.43547 42.3807 4.43547 43.0973 4.43547C43.3292 4.41439 43.5611 4.41439 43.7929 4.41439C44.0248 4.39331 44.2567 4.39331 44.5096 4.39331C44.9522 4.39331 49.4209 4.41439 49.8425 4.43547C50.2851 4.45655 50.7277 4.47762 51.1704 4.47762C51.8449 4.47762 52.4983 4.54086 53.1518 4.73057C53.7631 4.92027 53.8263 5.384 53.8474 5.95312C53.9106 7.19675 53.9528 7.72371 53.8263 8.96734C53.7631 9.51538 53.6998 10.0002 53.1518 10.2321C52.7091 10.4007 51.9292 10.5061 51.5709 10.1056C51.2758 9.7894 51.2758 9.40999 51.2336 8.98842C51.1915 8.60901 51.339 7.89234 51.1072 7.59724C50.7067 7.11244 49.716 7.25998 49.189 7.25998H43.4135C43.2449 7.25998 43.013 7.28106 42.7812 7.30214C42.5282 7.32322 42.1699 7.32322 41.8115 7.30214Z" fill="#2B74B9"/>
<path d="M26.0722 9.91374L35.5786 9.87158C36.5904 9.87158 37.4335 10.0613 37.4335 11.0098C37.5179 12.4221 36.4429 12.4221 35.4943 12.3588L32.3325 12.401L32.3536 13.202C32.3536 13.4338 32.3115 13.7711 32.3536 14.003C32.4379 14.3191 32.712 14.4878 32.9017 14.7196C33.7237 15.6682 34.862 16.3427 35.937 17.2701C36.4639 17.8182 37.3071 18.6192 36.8855 19.4412C36.4218 20.3265 35.1781 20.0314 34.4826 19.5888C33.1335 18.7245 32.0164 17.7339 30.8781 16.6589C30.8149 16.6167 29.0021 18.1343 28.2012 18.7667C27.2948 19.4623 25.5874 21.1697 24.5335 19.7152C23.8168 18.5981 24.9129 17.8182 25.735 17.2701C26.8311 16.5324 27.9482 15.4785 28.8968 14.5299C29.2762 14.1505 29.1708 13.8343 29.1708 13.3074V12.3588H25.8404C25.8404 12.3588 23.9644 12.5485 23.859 11.2628C23.7747 10.3353 24.3438 9.99805 25.0394 9.93482C25.2291 9.91374 25.8193 9.91374 26.0722 9.91374ZM24.5757 24.6054C23.6904 24.5211 22.7629 24.3314 22.7629 23.2353C22.7629 22.9402 22.8683 22.6873 23.0369 22.4976C23.4796 22.0549 24.5124 22.076 24.5546 22.076L36.2953 22.0971C37.012 22.0971 37.6443 22.0128 38.108 22.4133C38.3821 22.6662 38.5507 22.9824 38.5507 23.3197C38.5507 23.7412 38.2767 24.1206 37.8551 24.2682C37.286 24.479 36.6747 24.5633 36.0845 24.5844C34.0399 24.6687 31.8056 24.6054 29.9296 24.6054C27.9061 24.6054 25.8404 24.6687 24.5757 24.6054Z" fill="#2B74B9"/>
<path d="M21.2028 15.2832C20.6336 15.494 20.0224 15.5151 19.4322 15.5362H19.3268C17.9356 15.5783 16.6498 15.5783 15.2376 15.5783C15.2586 16.0421 15.2797 16.5269 15.2376 17.3489L17.1346 18.5715C18.1675 19.2881 18.9895 19.8573 19.9802 20.6372C20.3175 20.9112 20.8234 21.2274 20.9077 21.6911C20.992 22.0705 20.8234 22.5132 20.5283 22.7661C20.0645 23.1455 19.6219 23.0401 19.116 22.8083L14.8792 20.2788C14.542 20.0891 14.289 19.9205 13.8464 19.8362C13.467 19.8573 13.1719 20.0259 12.8978 20.2367C11.7807 20.9744 10.3263 22.0073 9.50421 22.4288C8.87185 22.7661 7.92332 23.1666 7.22773 22.8083C6.78508 22.5975 6.57429 22.0705 6.70077 21.6068C6.84832 21.1431 7.45959 20.848 7.79685 20.5739C8.87185 19.7519 9.73607 19.2038 10.8321 18.4239C11.2326 18.1288 11.7174 17.897 12.3076 17.5176C12.2866 16.9484 12.3287 16.0842 12.3287 15.5783C11.0429 15.5783 9.7993 15.5783 8.61891 15.5362C8.1341 15.5151 7.41743 15.5151 6.97479 15.4729C6.89047 15.4729 6.78508 15.4519 6.70077 15.4519C6.25812 15.4097 6.04733 15.3886 5.689 15.0514C5.49929 14.8827 5.41498 14.5666 5.41498 14.2715C5.41498 13.9974 5.52037 13.7234 5.689 13.5548C6.11057 13.1121 7.14341 13.1332 7.18557 13.1332H19.2425C19.664 13.1332 20.0856 13.1332 20.4861 13.1543C20.8655 13.1754 21.2871 13.2386 21.5822 13.5126C21.8773 13.7445 21.8773 14.0185 21.8773 14.3558C21.8773 14.7773 21.6243 15.1357 21.2028 15.2832ZM8.02871 9.12831C7.10126 9.044 6.08949 8.70674 6.38459 7.63174C6.48998 7.21017 6.80616 6.83076 7.20665 6.61997C7.86008 6.26164 8.59783 6.26164 9.3145 6.26164C9.54636 6.24056 9.77823 6.24056 10.0101 6.24056C10.242 6.21948 10.4738 6.21948 10.7268 6.21948C11.1694 6.21948 15.638 6.24056 16.0596 6.26164C16.5023 6.28272 16.9449 6.3038 17.3876 6.3038C18.0621 6.3038 18.7155 6.36703 19.3689 6.55674C19.9802 6.74644 20.0434 7.21017 20.0645 7.77929C20.1278 9.02292 20.1699 9.54988 20.0435 10.7935C19.9802 11.3416 19.917 11.8264 19.3689 12.0582C18.9263 12.2269 18.1464 12.3322 17.7881 11.9318C17.493 11.6156 17.493 11.2362 17.4508 10.8146C17.4086 10.4352 17.5562 9.71851 17.3243 9.42341C16.9238 8.93861 15.9331 9.08616 15.4062 9.08616H9.63068C9.46205 9.08616 9.23018 9.10724 8.99832 9.12831C8.74538 9.14939 8.38705 9.14939 8.02871 9.12831Z" fill="#2B74B9"/>
<g clip-path="url(#clip1_790_3697)">
<path d="M3.64561 0.617798C3.34261 2.31358 2.07867 3.80924 0.443909 4.40785C2.01437 4.49834 3.38049 5.93571 3.37344 7.48966C3.83321 5.85479 5.04431 4.44265 6.60068 3.72484C5.35435 3.16538 4.31149 2.17436 3.64649 0.617798H3.64561Z" fill="#FDEAC6"/>
<path d="M3.40597 8.55725C3.3998 8.55725 3.39364 8.55725 3.38835 8.55725C3.20779 8.54768 3.0651 8.40238 3.0607 8.22402C3.04572 7.53404 3.03075 6.82145 2.80703 6.18108C2.62646 5.66512 2.26534 5.06999 0.255358 4.53489C0.110027 4.49661 0.00697332 4.36871 -7.30589e-05 4.21992C-0.00623864 4.07114 0.0853642 3.93541 0.226292 3.88407C1.79587 3.31678 3.01313 1.90204 3.32582 0.279348C3.35752 0.114033 3.50109 -0.0182182 3.67813 0.00266359C3.84901 0.00875413 3.98906 0.137525 4.00843 0.30545C4.17755 1.78284 5.47936 3.08969 6.97231 3.28024C7.12734 3.30025 7.24888 3.41945 7.27002 3.57259C7.29116 3.72572 7.20573 3.87276 7.06216 3.9328C5.28911 4.6741 3.98817 6.37162 3.7486 8.25882C3.72658 8.43022 3.57948 8.55725 3.40597 8.55725ZM1.29734 4.13901C2.71983 4.64452 3.20955 5.24052 3.46058 5.95747C3.51078 6.1019 3.55218 6.24894 3.58653 6.39685C4.10092 5.30491 4.93679 4.36262 5.97349 3.72572C4.95089 3.33158 4.10004 2.52676 3.64907 1.54009C3.16815 2.62159 2.33316 3.54823 1.29822 4.13988L1.29734 4.13901Z" fill="#2B74B9"/>
</g>
<defs>
<clipPath id="clip0_790_3697">
<rect width="60.2613" height="31.0437" fill="white" transform="translate(9.06717 31.8157) rotate(-12.2767)"/>
</clipPath>
<clipPath id="clip1_790_3697">
<rect width="7.27362" height="8.5572" fill="white"/>
</clipPath>
</defs>
</svg>