<svg xmlns="http://www.w3.org/2000/svg" width="40" height="41" viewBox="0 0 40 41" fill="none">
<g filter="url(#filter0_b_790_3735)">
<rect y="0.0748291" width="40" height="40" rx="20" fill="white" fill-opacity="0.1"/>
<path d="M30.2078 29.2234H9.79276C9.5683 29.2237 9.34848 29.1595 9.15936 29.0387C8.97024 28.9178 8.81976 28.7452 8.72575 28.5413C8.63174 28.3375 8.59816 28.111 8.62897 27.8887C8.65979 27.6663 8.75372 27.4575 8.89961 27.2869C10.433 25.4901 11.2099 23.0324 11.2099 19.9833V17.4981C11.2077 16.3244 11.4236 15.1605 11.8467 14.0657C11.9011 13.9204 11.9838 13.7873 12.09 13.6741C12.1963 13.5609 12.3239 13.4699 12.4655 13.4064C12.6071 13.3429 12.76 13.3081 12.9151 13.3041C13.0703 13.3 13.2247 13.3268 13.3695 13.3828C13.5142 13.4388 13.6464 13.523 13.7584 13.6305C13.8704 13.738 13.96 13.8666 14.0219 14.0089C14.0839 14.1513 14.117 14.3045 14.1193 14.4597C14.1216 14.6149 14.0931 14.769 14.0355 14.9131C13.7177 15.7368 13.5555 16.6123 13.5572 17.4951V19.9804C13.6191 22.3707 13.0857 24.739 12.0051 26.872H27.9949C26.9143 24.739 26.3809 22.3707 26.4428 19.9804V17.4951C26.4428 13.7324 23.5526 10.6721 20 10.6721C19.121 10.6737 18.2524 10.8615 17.4512 11.2232C16.6501 11.5849 15.9348 12.1123 15.3523 12.7706C15.2498 12.8882 15.1248 12.9842 14.9848 13.053C14.8447 13.1217 14.6923 13.1619 14.5365 13.171C14.3807 13.1802 14.2247 13.1582 14.0775 13.1063C13.9304 13.0544 13.795 12.9737 13.6794 12.8689C13.5638 12.7641 13.4702 12.6373 13.4042 12.4959C13.3382 12.3546 13.301 12.2014 13.2949 12.0455C13.2888 11.8896 13.3138 11.734 13.3685 11.5879C13.4232 11.4417 13.5066 11.308 13.6136 11.1944C14.4149 10.292 15.3984 9.56963 16.4992 9.07501C17.6 8.58038 18.7932 8.3247 20 8.32483C24.8466 8.32483 28.7901 12.4385 28.7901 17.4951V19.9804C28.7901 23.0318 29.5676 25.4871 31.1004 27.284C31.2463 27.4545 31.3402 27.6633 31.371 27.8856C31.4018 28.1079 31.3683 28.3343 31.2744 28.5381C31.1804 28.7419 31.03 28.9145 30.841 29.0355C30.652 29.1564 30.4322 29.2206 30.2078 29.2205" fill="#2B74B9"/>
<path d="M20.001 31.8247C19.5339 31.8247 19.0751 31.7011 18.6712 31.4665C18.2672 31.2318 17.9326 30.8944 17.7013 30.4886C17.4699 30.0828 17.35 29.623 17.3538 29.1559C17.3577 28.6888 17.485 28.231 17.723 27.829C17.9214 27.4943 18.2446 27.2522 18.6215 27.1558C18.9984 27.0594 19.3982 27.1166 19.7329 27.3149C19.8233 27.3687 19.9079 27.4319 19.9852 27.5033C20.0608 27.4299 20.1443 27.365 20.234 27.3097C20.398 27.2084 20.5802 27.1405 20.7705 27.1097C20.9607 27.0789 21.1551 27.0859 21.3426 27.1302C21.5301 27.1746 21.707 27.2554 21.8633 27.3682C22.0196 27.4809 22.1521 27.6234 22.2533 27.7873C22.5009 28.1883 22.637 28.6481 22.6475 29.1193C22.658 29.5905 22.5425 30.0559 22.3129 30.4675C22.0833 30.879 21.7479 31.2218 21.3415 31.4604C20.9351 31.699 20.4723 31.8248 20.001 31.8247Z" fill="#2B74B9"/>
</g>
<defs>
<filter id="filter0_b_790_3735" x="-4" y="-3.92517" width="48" height="48" filterUnits="userSpaceOnUse" color-interpolation-filters="sRGB">
<feFlood flood-opacity="0" result="BackgroundImageFix"/>
<feGaussianBlur in="BackgroundImageFix" stdDeviation="2"/>
<feComposite in2="SourceAlpha" operator="in" result="effect1_backgroundBlur_790_3735"/>
<feBlend mode="normal" in="SourceGraphic" in2="effect1_backgroundBlur_790_3735" result="shape"/>
</filter>
</defs>
</svg>