<svg width="91" height="97" viewBox="0 0 91 97" fill="none" xmlns="http://www.w3.org/2000/svg">
  <g clipPath="url(#clip0_312_1328)">
    <path
      d="M78.5649 94.7106C83.6046 93.7139 93.6271 90.2722 90.3575 83.8713C87.4902 78.2573 68.6562 74.4291 59.8766 73.7454C43.5896 72.4772 23.4558 72.2717 8.68359 77.6876C-4.71255 82.5988 -2.63314 92.8481 15.0841 96.0704C35.1915 95.6732 56.0244 99.167 78.5649 94.7106Z"
      fill="#E3EEF1"
    />
  </g>
  <g clipPath="url(#clip1_312_1328)">
    <path
      d="M61.4098 3.77154C61.1011 5.27474 60.2475 6.65938 58.8853 7.75812C51.8947 6.37048 44.2547 8.92814 39.511 14.2449C34.7673 19.5616 33.094 27.44 35.0342 34.4737C28.7886 36.2335 22.543 37.9934 16.2987 39.7534C14.5471 40.2466 12.5309 40.9903 12.0214 42.7366C11.6749 43.924 12.2009 45.2337 13.0681 46.1138C13.9352 46.9953 15.0965 47.5189 16.2532 47.9554C20.0852 49.4012 24.2016 50.0898 28.1147 49.7393C24.3128 53.1088 21.05 57.0334 17.8041 60.9408C16.8077 62.1394 15.7691 63.4377 15.6126 64.9868C15.3977 67.1071 16.8739 68.9867 18.4802 70.9844C27.4574 79.5944 40.2899 84.0291 52.6706 82.7986C57.2862 82.3391 62.1018 80.9692 65.191 77.5093C67.4438 74.985 68.5323 71.5933 68.8425 68.2238C69.1526 64.8557 68.7453 61.4665 68.4124 58.2601C72.0248 61.1586 75.7451 64.1157 80.1542 65.5362C81.6166 66.0079 83.5245 66.161 84.3976 64.8961C84.9452 64.1028 84.8491 63.0354 84.6068 62.1029C84.0429 59.9351 82.83 57.9996 81.5968 56.1286C78.8776 52.0008 75.9777 47.9924 72.5717 43.8773C75.0781 42.7772 77.0984 40.7307 78.4589 38.3565C79.8193 35.9823 80.5523 33.2904 80.9219 30.5791C81.1764 28.709 81.2633 26.8077 81.0362 24.9338C80.2263 18.2598 75.0783 12.3208 68.0954 10.1992C68.5932 9.18793 68.6803 7.98164 68.3344 6.90917C67.9871 5.83662 67.21 4.90996 66.2136 4.3817C65.5886 5.69498 64.7405 6.90229 63.7159 7.93444C63.8933 6.44471 63.0259 4.88805 61.4101 3.76761L61.4098 3.77154Z"
      fill="#FFD26F"
    />
    <path
      d="M8.86746 82.0108C10.3032 80.022 12.1417 78.3265 14.2398 77.0539C14.5124 79.8864 15.9152 82.5942 18.0696 84.4527C16.6047 83.8624 14.8413 84.0823 13.5655 85.0145C12.5803 83.409 10.6518 82.4332 8.86746 82.0108Z"
      fill="#F58359"
    />
    <path
      d="M63.6475 80.2515C63.6121 82.0746 63.5766 83.8977 63.6386 86.3803C66.4054 84.9162 68.8707 82.8894 70.8419 80.4591C70.2535 80.7298 69.5295 80.4754 69.0679 80.0216C68.6063 79.5665 68.3479 78.9501 68.1015 78.3516C67.0182 79.6088 65.3653 80.3548 63.6461 80.2527L63.6475 80.2515Z"
      fill="#F58359"
    />
    <path
      d="M81.2605 29.7215C81.7414 31.152 82.7388 32.4042 84.0256 33.193C84.6323 33.5645 85.3393 33.8757 85.6746 34.5039C85.9678 35.0529 85.8987 35.7418 85.6226 36.2983C85.3466 36.8547 84.8897 37.3015 84.4087 37.6966C82.3142 39.4196 79.6017 40.3754 76.8901 40.3468C78.9496 37.5277 80.4268 34.2861 81.2592 29.7214L81.2605 29.7215Z"
      fill="#F58359"
    />
    <path
      d="M69.4761 31.4387C67.5213 30.4045 64.9264 30.751 63.3136 32.2644C61.7009 33.7766 61.1871 36.3425 62.0931 38.3598C63.0004 40.3759 65.261 41.6954 67.4643 41.4921C69.6664 41.2887 71.6493 39.5793 72.1716 37.4312C72.6951 35.2831 71.8211 32.6797 69.4761 31.4387Z"
      fill="#F58359"
    />
    <path
      d="M72.8315 25.8198C71.9095 25.4756 70.7796 25.8096 70.1928 26.599C69.606 27.3884 69.6117 28.5668 70.2064 29.3494C70.801 30.1334 71.9337 30.4564 72.8529 30.1041C73.7721 29.7519 74.3981 28.7533 74.3145 27.7736C74.2451 26.9529 73.6508 26.1255 72.8315 25.8198Z"
      fill="#531139"
    />
    <path
      d="M26.5146 51.9577C24.5509 54.1792 22.5671 56.4269 21.1844 59.0497C19.8018 61.6725 19.0575 64.7453 19.736 67.6304C20.6049 71.3193 23.5774 74.0823 26.4041 76.6063C22.8562 75.0087 19.697 72.5529 17.2756 69.5075C16.3779 68.3792 15.5498 67.0779 15.5383 65.6359C15.5243 63.8436 16.7551 62.3135 17.9218 60.9527C20.3997 58.0607 22.8776 55.1673 26.5147 51.9564L26.5146 51.9577Z"
      fill="#D1A037"
    />
    <path
      d="M66.4981 52.7866C71.062 58.3293 76.9024 62.8149 83.436 65.7957C79.5891 65.0741 75.6583 64.2309 72.3711 62.1087C69.084 59.9864 66.5314 56.2938 66.4981 52.7866Z"
      fill="#D1A037"
    />
    <path
      d="M13.714 46.2393C19.373 48.0802 25.4441 48.6407 31.3461 47.8697C30.4088 49.1302 28.8157 49.7697 27.249 49.9043C25.6837 50.039 24.1167 49.7313 22.576 49.4241C19.7141 48.8548 16.6841 48.2018 13.714 46.2393Z"
      fill="#D1A037"
    />
    <path
      d="M78.7501 37.3246C80.3338 38.3942 82.507 38.5192 84.2033 37.638C82.2983 39.8489 79.19 40.9516 76.3178 40.4369C77.4743 39.5164 78.4173 38.3287 78.7501 37.3246Z"
      fill="#D1704B"
    />
    <path
      d="M64.971 32.7336C63.6438 33.22 64.205 35.0205 65.5275 34.5258C65.9029 34.2722 66.4384 34.1611 66.5881 33.6804C66.8815 32.6552 65.7483 32.1256 64.971 32.7336Z"
      fill="#FECA8B"
    />
    <path
      d="M68.3255 32.6795C67.4721 32.6242 67.3854 33.9226 68.2369 33.9857C69.0903 34.0409 69.177 32.7425 68.3255 32.6795Z"
      fill="#FECA8B"
    />
    <path
      d="M84.1721 34.0018C83.4023 33.0257 81.9621 34.2073 82.756 35.1588C83.5302 36.1287 84.9633 34.9545 84.1721 34.0018Z"
      fill="#FECA8B"
    />
    <path
      d="M12.3534 79.4359C12.0753 79.7895 11.6817 80.1576 11.8023 80.6515C11.9066 81.2285 12.589 81.5538 13.1072 81.2889C13.3986 81.1467 13.5482 80.8436 13.7551 80.6089C13.8724 80.4708 13.9867 80.3193 14.0006 80.1333C14.2416 79.1809 12.8815 78.6188 12.3521 79.4358L12.3534 79.4359Z"
      fill="#FECA8B"
    />
    <path
      d="M65.9887 81.2184C65.4904 80.6068 64.4111 80.9706 64.384 81.7584C64.3116 82.1458 64.2461 82.5875 64.5423 82.8998C64.916 83.349 65.6687 83.296 65.9899 82.8124C66.2152 82.3631 66.3506 81.6286 65.9888 81.2171L65.9887 81.2184Z"
      fill="#FECA8B"
    />
    <path
      d="M65.9316 59.333C65.8626 58.8742 65.9047 58.3124 65.4588 58.0334C64.8164 57.566 63.8623 58.2002 64.0455 58.9747C64.2268 60.494 64.3116 60.8552 64.3193 62.139C64.4126 62.8205 64.0195 63.9192 64.764 64.2974C66.0822 64.8172 66.0201 62.9769 66.1131 62.1501C66.1586 61.2068 66.0486 60.2662 65.9316 59.333Z"
      fill="#FFE0A3"
    />
    <path
      d="M63.9445 67.7613C63.5517 69.1258 65.511 69.6089 65.7206 68.2082C66.1476 66.842 64.1453 66.3534 63.9445 67.7613Z"
      fill="#FFE0A3"
    />
    <path
      d="M49.9894 11.6718C49.6121 11.5475 49.2209 11.725 48.8487 11.7958C48.5483 11.8386 46.8643 12.4404 47.421 12.2689C46.7534 12.4842 46.1761 12.9202 45.6005 13.3115C45.1452 13.6768 44.5609 14.0807 44.4001 14.6647C44.1605 15.6159 45.5178 16.1805 46.0486 15.3623C46.544 14.7746 47.6674 14.0519 48.6855 13.6972C49.3224 13.4692 49.1983 13.5135 50.08 13.2087C50.0113 13.2317 49.9439 13.2561 49.8751 13.279C50.1901 13.2162 50.4818 12.953 50.5224 12.6267C50.6309 12.2313 50.3634 11.8077 49.988 11.673L49.9894 11.6718Z"
      fill="#FFE0A3"
    />
    <path
      d="M54.0507 11.1944C52.9814 11.139 52.8763 12.7271 53.9405 12.819C55.0097 12.8745 55.1148 11.2864 54.0507 11.1944Z"
      fill="#FFE0A3"
    />
    <path
      d="M45.6909 83.5202C40.0253 83.1359 34.0747 81.4398 28.2395 78.4879C23.3591 76.0194 19.7024 73.2692 17.059 70.0811C16.1438 68.9766 14.9406 67.2853 15.0685 65.3618C15.1879 63.5628 16.4489 62.0729 17.3707 60.9837C18.0835 60.141 18.7745 59.2903 19.464 58.4421C22.8672 54.2545 26.3853 49.9246 32.2892 47.0689C32.5452 46.9428 32.8525 47.0518 32.9773 47.3078C33.1009 47.5636 32.9944 47.8722 32.7385 47.9957C27.0413 50.7536 23.7502 54.804 20.2638 59.0925C19.57 59.9457 18.8747 60.8015 18.1576 61.6492C17.084 62.9188 16.1877 64.0794 16.0974 65.4303C15.9944 66.9869 17.0495 68.455 17.8527 69.4242C20.4036 72.5008 23.9529 75.1646 28.7048 77.5679C38.164 82.3529 47.911 83.7695 56.1506 81.554C60.4151 80.4086 63.4939 78.5379 65.2991 75.9938C67.2191 73.2903 71.1174 65.6063 65.8715 52.6874C65.7643 52.4235 65.8913 52.1241 66.1553 52.017C66.4193 51.9099 66.7188 52.0368 66.826 52.3007C70.6549 61.7303 70.4046 70.5831 66.1381 76.5903C64.189 79.3339 60.9181 81.3391 56.4162 82.5486C53.0434 83.4557 49.4287 83.7738 45.6896 83.5201L45.6909 83.5202Z"
      fill="#531139"
    />
    <path
      d="M82.6116 66.2451C78.8306 65.9887 71.3185 62.3703 67.7781 58.3145C67.5912 58.1004 67.6132 57.7755 67.8274 57.5873C68.0416 57.3992 68.3666 57.4225 68.5548 57.6367C72.4459 62.0927 81.2937 65.8372 83.6756 65.1564C84.065 65.0447 84.0944 64.8637 84.1082 64.7765C84.7286 60.949 80.5983 53.8273 72.164 44.1813C72.0638 44.0666 72.0202 43.9136 72.0435 43.7639C72.0669 43.6128 72.1549 43.4805 72.2853 43.4025C77.9281 39.9894 81.4582 32.6108 80.6774 25.8571C79.8751 18.9151 74.6353 12.6803 67.9326 10.6962C67.7868 10.6534 67.6675 10.5479 67.6071 10.4096C67.5455 10.2698 67.5497 10.1109 67.6169 9.97459C68.3985 8.39028 67.8561 6.25417 66.4938 5.14172C66.0128 6.50688 65.1467 7.72614 64.0073 8.62677C63.8237 8.77095 63.5667 8.77588 63.3788 8.63415C63.1921 8.49382 63.1234 8.24566 63.2106 8.02783C63.4935 7.33102 63.437 6.49535 63.054 5.73626C62.7651 5.16255 62.3308 4.71322 61.8222 4.44708C61.4795 5.7716 60.6018 7.00719 59.3466 7.90655C59.2332 7.98704 59.0953 8.02112 58.9575 7.99466C51.9736 6.76016 44.4372 9.40118 39.7585 14.7302C35.0272 20.1176 33.4879 27.98 35.9273 34.2934C35.9799 34.4299 35.9721 34.5833 35.9054 34.7131C35.8387 34.8428 35.7201 34.9401 35.5781 34.9765C29.2489 36.6491 22.7024 38.3807 16.3147 40.3138C13.8709 41.0536 12.6493 41.9816 12.4708 43.2343C12.3879 43.817 12.6165 44.4261 13.1499 45.0441C14.9148 47.092 20.3512 49.3232 28.1177 49.3841C28.4047 49.3851 28.6311 49.619 28.6289 49.9031C28.6268 50.1873 28.394 50.4163 28.1098 50.4141C21.0693 50.363 14.7435 48.4716 12.3696 45.7164C11.6446 44.8748 11.3271 43.9662 11.4511 43.0888C11.7682 40.8596 14.2089 39.8749 16.0156 39.3275C22.2366 37.4448 28.5985 35.756 34.7669 34.1252C32.4802 27.5602 34.139 19.5664 38.9831 14.0498C43.8457 8.51344 51.6445 5.73095 58.917 6.9416C60.0422 6.07685 60.7686 4.89813 60.9222 3.68187C60.9414 3.53444 61.0214 3.40299 61.1442 3.3205C61.2656 3.23792 61.4175 3.21137 61.5612 3.24744C62.5784 3.5086 63.4579 4.2461 63.9743 5.2709C64.2215 5.76018 64.3655 6.27799 64.4071 6.79018C65.0192 6.03541 65.4664 5.14837 65.7018 4.20089C65.74 4.04554 65.8474 3.91857 65.9926 3.85471C66.1379 3.78955 66.3047 3.7956 66.4456 3.87228C68.5136 4.98522 69.5083 7.67322 68.769 9.87638C75.5933 12.1438 80.8757 18.5855 81.7019 25.7371C82.5025 32.6645 79.0041 40.2177 73.3352 43.9568C81.8295 53.7463 85.7956 60.8042 85.1253 64.9415C85.0287 65.5312 84.6151 65.9599 83.9573 66.1469C83.5961 66.2501 83.1399 66.2797 82.6117 66.2438L82.6116 66.2451Z"
      fill="#531139"
    />
    <path
      d="M71.8576 30.9184C71.5654 30.8986 71.2763 30.8316 71.0012 30.7143C69.6386 30.1309 68.9476 28.419 69.5221 27.0536C70.0979 25.6883 71.8032 24.9853 73.175 25.5496C73.8513 25.8284 74.3841 26.3779 74.6738 27.0964C74.9623 27.8123 74.9627 28.602 74.673 29.2628C74.1992 30.3468 73.0109 30.998 71.8575 30.9198L71.8576 30.9184ZM72.2938 26.3901C71.556 26.34 70.7564 26.7728 70.4707 27.4523C70.1192 28.2853 70.5748 29.4113 71.4051 29.7677C72.2406 30.1244 73.365 29.6782 73.728 28.8499C73.907 28.4422 73.9027 27.9431 73.7168 27.4817C73.5342 27.0283 73.1924 26.6722 72.78 26.502C72.625 26.4376 72.4616 26.4015 72.2938 26.3901Z"
      fill="#531139"
    />
    <path
      d="M67.9808 20.5643C67.9205 20.5602 67.8596 20.5455 67.801 20.5179C67.5431 20.399 67.4295 20.0939 67.5484 19.8347C67.8667 19.1416 68.4977 18.5922 69.2782 18.3253C70.0585 18.0597 70.8938 18.1098 71.5689 18.4636C71.8207 18.5951 71.918 18.9071 71.7864 19.1588C71.6548 19.4105 71.3467 19.508 71.091 19.3762C70.6651 19.1525 70.1245 19.125 69.6109 19.3008C69.0974 19.4765 68.6865 19.8277 68.4856 20.2655C68.3943 20.466 68.1905 20.5785 67.9821 20.5644L67.9808 20.5643Z"
      fill="#531139"
    />
    <path
      d="M63.4514 87.2192C63.3753 87.214 63.3005 87.1918 63.2307 87.1529C63.0685 87.0603 62.9684 86.8863 62.9705 86.6996C62.983 85.6804 62.9771 84.7587 62.9723 83.8976C62.9641 82.5427 62.9567 81.3721 63.018 80.1759C63.0258 80.0224 63.1026 79.8802 63.226 79.7885C63.3494 79.6969 63.507 79.6641 63.6571 79.7033C65.0916 80.0612 66.714 79.396 67.5204 78.1253C67.6251 77.96 67.8142 77.8504 68.0091 77.8886C68.204 77.9084 68.3691 78.0368 68.4382 78.2205C68.7069 78.9376 68.9482 79.5147 69.3974 79.8597C69.6202 80.0301 69.9517 80.1131 70.2264 80.062C70.3317 80.0428 70.4678 79.9968 70.5623 79.8847C70.5811 79.8597 70.5987 79.8333 70.6162 79.8081C70.7765 79.5795 71.0874 79.5189 71.3218 79.673C71.5551 79.8257 71.6235 80.1371 71.4771 80.3732C71.4476 80.4199 71.417 80.4639 71.3838 80.5064C69.6971 82.8757 67.1995 85.049 63.7513 87.1448C63.6593 87.2004 63.5536 87.2261 63.4487 87.219L63.4514 87.2192ZM64.0245 80.8075C63.9913 81.7831 63.9965 82.7733 64.0036 83.8925C64.0066 84.4876 64.0105 85.1104 64.0089 85.7737C66.379 84.2576 68.2381 82.7043 69.6421 81.0661C69.3265 81.0026 69.0221 80.8701 68.7718 80.678C68.3238 80.3344 68.0299 79.8722 67.8113 79.4073C66.83 80.4042 65.3864 80.9564 64.0245 80.8088L64.0245 80.8075Z"
      fill="#531139"
    />
    <path
      d="M13.4193 85.6561L13.4061 85.6552C13.2086 85.6365 13.0384 85.5065 12.9694 85.3202C12.375 83.6978 10.4999 82.5953 8.79396 82.8613C8.59838 82.8915 8.40397 82.8072 8.29117 82.6456C8.17846 82.4826 8.16909 82.2714 8.26637 82.099C9.5699 79.788 11.6136 77.901 14.0212 76.7824C14.1626 76.717 14.3257 76.7188 14.4659 76.7875C14.606 76.8563 14.7066 76.9842 14.741 77.1379C15.344 79.8349 16.6043 82.121 18.5959 84.1277C18.7622 84.2956 18.7933 84.5557 18.6703 84.758C18.5473 84.9602 18.304 85.0529 18.0771 84.9823C17.2957 84.7384 16.4847 84.486 15.6957 84.5114C15.0716 84.5309 14.2728 84.7769 13.897 85.4068C13.7974 85.5738 13.6131 85.6705 13.4192 85.6574L13.4193 85.6561ZM9.6611 81.8014C11.2502 81.9184 12.7683 82.8492 13.5839 84.2194C14.1235 83.7756 14.8621 83.5046 15.6629 83.4799C16.0153 83.4683 16.3647 83.4999 16.7043 83.5585C15.3674 81.8976 14.4386 80.0617 13.8901 77.9962C12.2003 78.8977 10.735 80.2171 9.6611 81.8014Z"
      fill="#531139"
    />
    <path
      d="M76.9423 40.9347C76.8008 40.9251 76.6581 40.9128 76.5157 40.8965C76.2334 40.8655 76.0282 40.6108 76.0605 40.3287C76.0915 40.0465 76.351 39.8311 76.6285 39.8736C79.6967 40.216 82.8667 38.999 84.9268 36.7157C85.4479 36.1377 85.923 35.267 85.5495 34.7165C85.389 34.4819 85.0801 34.3201 84.7532 34.1505L84.593 34.0659C82.9144 33.1729 81.5698 31.7221 80.8058 29.9803C80.6918 29.7198 80.8098 29.4159 81.0704 29.3019C81.3336 29.1869 81.6348 29.3073 81.7489 29.5665C82.4193 31.0966 83.602 32.3719 85.0774 33.1564L85.2287 33.2351C85.6357 33.447 86.0961 33.6862 86.4026 34.136C87.1113 35.1791 86.5011 36.5079 85.6925 37.4033C83.5099 39.8245 80.1914 41.1538 76.9424 40.9334L76.9423 40.9347Z"
      fill="#531139"
    />
    <path
      d="M63.1012 86.9862C60.2284 86.7913 57.5555 84.9884 56.3324 82.3665C56.2117 82.1083 56.3233 81.8026 56.5816 81.6819C56.84 81.5612 57.147 81.6742 57.2665 81.9311C58.3838 84.326 61.0138 85.9851 63.6544 85.9734C63.9482 85.9696 64.1709 86.2006 64.1727 86.485C64.1744 86.7694 63.9454 87.0013 63.6609 87.0031C63.4739 87.0035 63.2873 86.9988 63.1025 86.9862L63.1012 86.9862Z"
      fill="#531139"
    />
    <path
      d="M14.3571 78.0029C14.327 78.0009 14.2957 77.9961 14.2647 77.9874C13.989 77.9174 13.8223 77.6376 13.8924 77.362C14.546 74.7911 16.3227 72.4925 18.6476 71.2142C18.8966 71.0771 19.2103 71.1681 19.3475 71.417C19.4847 71.6658 19.3936 71.9795 19.1447 72.1166C17.0658 73.2602 15.4755 75.3161 14.8916 77.6154C14.8289 77.8599 14.6009 78.0194 14.3584 78.003L14.3571 78.0029Z"
      fill="#531139"
    />
  </g>
  <defs>
    <clipPath id="clip0_312_1328">
      <rect
        width="91"
        height="24"
        fill="white"
        transform="matrix(1 0 0 -1 0 97)"
      />
    </clipPath>
    <clipPath id="clip1_312_1328">
      <rect
        width="75.5937"
        height="85.4845"
        fill="white"
        transform="translate(13.7855) rotate(3.88071)"
      />
    </clipPath>
  </defs>
</svg>