<svg xmlns="http://www.w3.org/2000/svg" width="25" height="24" viewBox="0 0 25 24" fill="none">
<path d="M12.614 22.81C11.924 22.81 11.274 22.46 10.814 21.85L9.31401 19.85C9.28401 19.81 9.16401 19.76 9.11401 19.75H8.61401C4.44401 19.75 1.86401 18.62 1.86401 13V8C1.86401 3.58 4.19401 1.25 8.61401 1.25H16.614C21.034 1.25 23.364 3.58 23.364 8V13C23.364 17.42 21.034 19.75 16.614 19.75H16.114C16.034 19.75 15.964 19.79 15.914 19.85L14.414 21.85C13.954 22.46 13.304 22.81 12.614 22.81ZM8.61401 2.75C5.03401 2.75 3.36401 4.42 3.36401 8V13C3.36401 17.52 4.91401 18.25 8.61401 18.25H9.11401C9.62401 18.25 10.204 18.54 10.514 18.95L12.014 20.95C12.364 21.41 12.864 21.41 13.214 20.95L14.714 18.95C15.044 18.51 15.564 18.25 16.114 18.25H16.614C20.194 18.25 21.864 16.58 21.864 13V8C21.864 4.42 20.194 2.75 16.614 2.75H8.61401Z" fill="white"/>
<path d="M12.614 12C12.054 12 11.614 11.55 11.614 11C11.614 10.45 12.064 10 12.614 10C13.164 10 13.614 10.45 13.614 11C13.614 11.55 13.174 12 12.614 12Z" fill="white"/>
<path d="M16.614 12C16.054 12 15.614 11.55 15.614 11C15.614 10.45 16.064 10 16.614 10C17.164 10 17.614 10.45 17.614 11C17.614 11.55 17.174 12 16.614 12Z" fill="white"/>
<path d="M8.61401 12C8.05401 12 7.61401 11.55 7.61401 11C7.61401 10.45 8.06401 10 8.61401 10C9.16401 10 9.61401 10.45 9.61401 11C9.61401 11.55 9.17401 12 8.61401 12Z" fill="white"/>
</svg>