<svg xmlns="http://www.w3.org/2000/svg" width="25" height="24" viewBox="0 0 25 24" fill="none">
<path fill-rule="evenodd" clip-rule="evenodd" d="M11.6134 11.212L10.5664 14.559L13.9124 13.511L14.9604 10.164L11.6134 11.212ZM9.4224 16.452C9.2264 16.452 9.0344 16.375 8.8914 16.233C8.6944 16.035 8.6224 15.744 8.7064 15.479L10.2994 10.39C10.3724 10.154 10.5564 9.97101 10.7904 9.89801L15.8794 8.30501C16.1464 8.22001 16.4364 8.29301 16.6344 8.49001C16.8314 8.68801 16.9034 8.97901 16.8194 9.24401L15.2274 14.333C15.1544 14.568 14.9694 14.752 14.7354 14.825L9.6464 16.418C9.5724 16.441 9.4964 16.452 9.4224 16.452Z" fill="white"/>
<mask id="mask0_790_2276" style="mask-type:alpha" maskUnits="userSpaceOnUse" x="2" y="2" width="22" height="21">
<path fill-rule="evenodd" clip-rule="evenodd" d="M2.40201 2H23.1238V22.7217H2.40201V2Z" fill="white"/>
</mask>
<g mask="url(#mask0_790_2276)">
<path fill-rule="evenodd" clip-rule="evenodd" d="M12.7628 3.5C7.87679 3.5 3.90179 7.476 3.90179 12.361C3.90179 17.247 7.87679 21.222 12.7628 21.222C17.6488 21.222 21.6238 17.247 21.6238 12.361C21.6238 7.476 17.6488 3.5 12.7628 3.5ZM12.7628 22.722C7.04979 22.722 2.40179 18.074 2.40179 12.361C2.40179 6.648 7.04979 2 12.7628 2C18.4758 2 23.1238 6.648 23.1238 12.361C23.1238 18.074 18.4758 22.722 12.7628 22.722Z" fill="white"/>
</g>
</svg>