<svg xmlns="http://www.w3.org/2000/svg" width="25" height="24" viewBox="0 0 25 24" fill="none">
<path d="M12.796 18.75C12.386 18.75 12.046 18.41 12.046 18V15C12.046 14.59 12.386 14.25 12.796 14.25C13.206 14.25 13.546 14.59 13.546 15V18C13.546 18.41 13.206 18.75 12.796 18.75Z" fill="white"/>
<path d="M18.396 22.5601H7.19601C5.37601 22.5601 3.71601 21.1601 3.41601 19.3701L2.08601 11.4001C1.86601 10.1601 2.47601 8.57007 3.46601 7.78007L10.396 2.23007C11.736 1.15007 13.846 1.16007 15.196 2.24007L22.126 7.78007C23.106 8.57007 23.706 10.1601 23.506 11.4001L22.176 19.3601C21.876 21.1301 20.176 22.5601 18.396 22.5601ZM12.786 2.93007C12.256 2.93007 11.726 3.09007 11.336 3.40007L4.40601 8.96007C3.84601 9.41007 3.44601 10.4501 3.56601 11.1601L4.89601 19.1201C5.07601 20.1701 6.12601 21.0601 7.19601 21.0601H18.396C19.466 21.0601 20.516 20.1701 20.696 19.1101L22.026 11.1501C22.136 10.4501 21.736 9.39007 21.186 8.95007L14.256 3.41007C13.856 3.09007 13.316 2.93007 12.786 2.93007Z" fill="white"/>
</svg>