<svg xmlns="http://www.w3.org/2000/svg" width="24" height="24" viewBox="0 0 24 24" fill="none">
<path d="M20.8887 4.63813C20.3756 4.1188 19.7663 3.70682 19.0958 3.42575C18.4252 3.14467 17.7065 3 16.9807 3C16.2548 3 15.5361 3.14467 14.8656 3.42575C14.195 3.70682 13.5858 4.1188 13.0726 4.63813L12.0077 5.71544L10.9428 4.63813C9.90634 3.5896 8.50058 3.00054 7.03478 3.00054C5.56899 3.00054 4.16323 3.5896 3.12675 4.63813C2.09028 5.68667 1.508 7.10878 1.508 8.59163C1.508 10.0745 2.09028 11.4966 3.12675 12.5451L4.19167 13.6224L12.0077 21.5294L19.8238 13.6224L20.8887 12.5451C21.4021 12.026 21.8093 11.4097 22.0871 10.7313C22.365 10.053 22.508 9.32591 22.508 8.59163C22.508 7.85735 22.365 7.13026 22.0871 6.45191C21.8093 5.77356 21.4021 5.15723 20.8887 4.63813V4.63813Z" stroke="white" stroke-width="1.5" stroke-linecap="round" stroke-linejoin="round"/>
</svg>