<svg xmlns="http://www.w3.org/2000/svg" width="25" height="24" viewBox="0 0 25 24" fill="none">
<path d="M12.22 12.75C9.05 12.75 6.47 10.17 6.47 7C6.47 3.83 9.05 1.25 12.22 1.25C15.39 1.25 17.97 3.83 17.97 7C17.97 10.17 15.39 12.75 12.22 12.75ZM12.22 2.75C9.88 2.75 7.97 4.66 7.97 7C7.97 9.34 9.88 11.25 12.22 11.25C14.56 11.25 16.47 9.34 16.47 7C16.47 4.66 14.56 2.75 12.22 2.75Z" fill="white"/>
<path d="M20.8102 22.75C20.4002 22.75 20.0602 22.41 20.0602 22C20.0602 18.55 16.5402 15.75 12.2202 15.75C7.90015 15.75 4.38016 18.55 4.38016 22C4.38016 22.41 4.04016 22.75 3.63016 22.75C3.22016 22.75 2.88016 22.41 2.88016 22C2.88016 17.73 7.07015 14.25 12.2202 14.25C17.3702 14.25 21.5602 17.73 21.5602 22C21.5602 22.41 21.2201 22.75 20.8102 22.75Z" fill="white"/>
</svg>