<svg width="128" height="128" viewBox="0 0 128 128" fill="none" xmlns="http://www.w3.org/2000/svg">
<mask id="mask0_578_3412" style="mask-type:alpha" maskUnits="userSpaceOnUse" x="0" y="0" width="128" height="128">
<rect width="128" height="128" rx="64" fill="#FFE6BD"/>
</mask>
<g mask="url(#mask0_578_3412)">
<rect x="-20" y="-15" width="197" height="171" fill="#ECECEC"/>
<path d="M59.9701 8.67027C63.9337 6.96132 66.1764 5.8368 70.4897 4.69289C72.3133 4.18325 71.55 1.41073 69.7181 1.8982C65.7656 2.94517 61.9296 4.41592 58.3935 6.47662C56.803 7.55128 58.3824 9.70062 59.9701 8.6675L59.9701 8.67027Z" fill="#FFE0A3"/>
<path d="M120.718 54.7424C120.956 54.5873 121.076 54.518 121.034 54.5291C121.201 54.4515 121.364 54.3684 121.531 54.2853C121.556 54.2743 121.584 54.2632 121.609 54.2521C121.686 54.2216 121.797 54.1801 121.928 54.133C122.475 53.8948 123.16 53.9918 123.613 53.5624C125.159 52.4739 123.879 49.9534 122.078 50.488C121.539 50.5628 120.718 50.7207 119.416 51.4713C119.294 51.6236 118.625 51.7427 118.206 52.8146C117.764 54.2272 119.463 55.529 120.718 54.7424Z" fill="#FECA8B"/>
<path d="M149.104 129.545C150.711 117.873 148.754 105.736 143.561 95.1559C138.368 84.5754 129.958 75.5931 119.982 69.5245C126.519 56.9 127.407 41.489 122.364 28.1997C117.32 14.9104 106.423 3.95322 92.7671 -1.67217C95.8092 -4.85739 95.7925 -10.4606 91.8844 -14.258C92.2535 -10.023 88.9117 -5.79634 85.234 -5.73818C85.0869 -9.83465 82.8247 -13.7954 78.6946 -16.3048C79.3163 -14.1832 79.9436 -12.0034 79.7826 -9.79865C79.6216 -7.59392 78.5031 -5.31994 76.4879 -4.40315C74.7809 -3.62762 72.8074 -3.9406 70.9339 -3.88798C67.1146 -3.77995 63.5368 -2.10425 60.0894 -0.459014C55.5097 1.72356 50.9298 3.9089 46.3889 6.70082C37.604 12.1545 30.7205 20.5967 27.1593 30.2909C24.1922 38.373 23.5343 47.3831 25.8964 55.6619C28.2585 63.9407 33.7459 71.4052 41.3484 75.5128C42.0062 75.9227 42.6668 76.3298 43.3246 76.7398C39.5165 78.6398 36.0053 81.1326 32.3414 84.977C22.821 94.1754 16.598 106.706 15.027 119.837C14.7078 122.507 14.7133 125.579 16.6702 127.426C18.3744 129.036 21.0945 129.138 23.2845 128.293C25.4745 127.449 27.2564 125.828 29.5241 123.831C27.2231 132.858 27.5757 142.538 30.5234 151.374C33.4711 160.209 39.0057 168.17 46.6332 174.166C54.491 179.282 63.8255 182.11 74.0759 182.575C87.0853 183.603 100.358 181.124 111.922 175.177C121.106 172.036 129.397 166.336 135.609 158.891C141.821 151.446 147.319 142.541 149.107 129.548L149.104 129.545Z" fill="#FFD26F"/>
<path d="M104.142 65.6026C103.675 64.3285 102.412 63.5032 101.122 63.0794C99.8311 62.6528 98.4599 62.5365 97.1498 62.1709C91.9593 60.7168 88.5259 55.6121 83.4714 53.7425C79.8187 52.3909 75.683 52.906 72.0608 54.338C68.4386 55.77 65.2327 58.0578 62.0657 60.3207C58.907 62.5781 55.7456 64.8382 52.5869 67.0955C52.0013 67.5138 51.3601 68.0234 51.3018 68.7408C51.2408 69.4692 51.7265 70.1949 52.351 70.5771C60.1672 75.3577 68.1333 80.4264 77.0958 79.5567C97.1387 77.6123 104.608 66.874 104.142 65.6026Z" fill="#F58359"/>
<path d="M24.7639 46.5329C30.8009 45.9872 36.9934 49.5547 39.5442 55.0416C42.095 60.5285 40.8209 67.5498 36.5076 71.7959C31.9861 69.965 28.7081 65.8353 26.8345 61.34C24.9582 56.8447 24.3059 51.9477 24.7639 46.5329Z" fill="#F58359"/>
<path d="M125.85 47.1671C119.879 46.5966 113.781 50.6127 111.961 56.3157C110.143 62.0186 112.79 68.8156 117.992 71.7931C123.824 65.3395 126.752 56.3655 125.85 47.1671Z" fill="#F58359"/>
<path d="M108.56 41.154C109.343 38.3953 107.542 35.1741 104.777 34.3902C102.013 33.6092 98.7847 35.4067 97.9992 38.1654C97.2165 40.9241 99.0178 44.1453 101.782 44.9292C104.547 45.7102 107.775 43.9127 108.56 41.154Z" fill="#531139"/>
<path d="M57.1722 44.2535C57.7829 42.0349 57.1334 39.4922 55.4708 37.8996C53.8054 36.307 51.1769 35.7752 49.0563 36.6782C46.9357 37.5811 45.4896 39.9077 45.7061 42.2011C45.9476 44.7382 48.1931 46.8764 50.7244 47.2088C53.2558 47.5412 56.5588 46.4886 57.1722 44.2535Z" fill="#531139"/>
<path d="M89.2253 76.5709C80.4488 82.8167 68.2415 83.8913 58.5046 79.2769C56.3895 78.2743 54.3467 76.9863 52.9311 75.1278C51.5155 73.2693 50.8133 70.7516 51.5544 68.5358C60.6224 78.4044 76.0189 81.8749 89.2253 76.5709Z" fill="#D1A037"/>
<path d="M73.9399 54.4849C69.2935 56.3351 65.13 59.9413 63.6672 64.7164C62.2045 69.4915 64.0503 75.3634 68.5052 77.6373C63.1399 76.3189 58.0355 73.9646 53.5556 70.7379C52.4676 69.954 51.3018 68.8572 51.4822 67.5305C51.7292 65.7412 54.0136 65.2537 55.7428 64.7192C59.3484 63.6057 62.0241 60.6615 64.8663 58.1853C67.7114 55.7064 71.3752 53.4961 73.9371 54.4877L73.9399 54.4849Z" fill="#D1704B"/>
<path d="M120.129 54.7757C120.299 54.6233 120.784 54.2272 120.954 54.0888C121.067 54.0112 121.101 53.9863 121.092 53.9835C121.323 53.8589 121.537 53.7038 121.77 53.5847C121.928 53.4406 121.97 53.6484 122.841 53.0972C124.334 52.0447 123.096 49.6073 121.356 50.1252C119.868 50.5324 118.911 51.4769 118.605 51.7622C118.12 52.3189 117.44 52.8701 117.451 53.6678C117.404 55.0166 119.205 55.7589 120.129 54.7757Z" fill="#FECA8B"/>
<path d="M117.595 57.767C117.589 55.9639 114.839 55.9667 114.828 57.767C114.833 59.5701 117.584 59.5674 117.595 57.767Z" fill="#FECA8B"/>
<path d="M35.4085 53.2578C34.9838 52.5127 34.0956 52.2884 33.3739 51.92C32.7383 51.6153 32.0611 51.2442 31.3366 51.4769C29.7268 51.8619 29.4187 54.2217 30.8731 55.0111C31.7557 55.3324 32.5607 55.9556 33.4822 56.1245C35.0171 56.4375 36.2218 54.5596 35.4057 53.2578L35.4085 53.2578Z" fill="#FECA8B"/>
<path d="M91.1044 62.6999C89.3446 61.2901 87.51 59.7695 85.2339 59.3457C83.7767 58.8998 82.6442 60.8441 83.749 61.8939C85.1395 62.7774 85.0396 62.3537 86.1443 62.9935C87.9985 63.9186 87.9901 64.2565 89.4473 65.1622C90.9046 65.874 92.2896 63.7967 91.1072 62.7027L91.1044 62.6999Z" fill="#FECA8B"/>
<path d="M80.6431 60.2958C80.6376 58.4927 77.8869 58.4955 77.8758 60.2958C77.8814 62.0989 80.632 62.0962 80.6431 60.2958Z" fill="#FECA8B"/>
<path d="M60.442 9.34052C62.582 8.50682 64.6832 7.58172 66.8343 6.77849C67.9973 6.18853 69.6044 6.12205 70.3732 4.98091C71.267 3.5628 69.7931 1.64612 68.186 2.14191C65.9488 3.01161 63.6811 3.8287 61.5439 4.92829C60.4836 5.63735 58.8904 6.03342 58.4102 7.31028C58.0577 8.50128 59.2485 9.70058 60.4448 9.34052L60.442 9.34052Z" fill="#FFE0A3"/>
<path d="M52.7867 13.4205C54.602 11.8001 52.115 9.13564 50.358 10.8086C48.5539 12.44 51.027 15.0878 52.7867 13.4205Z" fill="#FFE0A3"/>
<path d="M30.1236 102.316C31.7585 100.056 33.3323 97.7541 34.87 95.4275C35.3862 94.6159 36.1856 93.7739 35.8581 92.738C35.4695 91.1316 33.1102 90.8241 32.3192 92.2755C30.6455 94.843 28.9829 97.4162 27.4618 100.078C25.7853 102.103 28.5748 104.474 30.1209 102.313L30.1236 102.316Z" fill="#FFE0A3"/>
<path d="M27.4258 135.592C27.4258 125.698 29.4382 116.763 30.6789 111.268C30.8093 110.683 31.3922 110.315 31.9807 110.445C32.5663 110.575 32.9299 111.163 32.8022 111.744C30.2237 123.186 24.1894 149.981 41.0736 168.073C55.5097 183.542 83.0829 183.716 98.0519 178.9C98.6237 178.717 99.2371 179.03 99.4231 179.601C99.6035 180.174 99.2926 180.783 98.7209 180.969C92.3896 183.007 81.4925 184.711 69.9014 183.384C60.9555 182.359 48.4152 179.127 39.4832 169.555C30.0599 159.459 27.4286 146.901 27.4286 135.595L27.4258 135.592Z" fill="#531139"/>
<path d="M119.111 69.5191C119.111 69.3142 119.169 69.1092 119.288 68.9236C119.619 68.4223 120.293 68.281 120.795 68.6106C142.69 82.9303 153.204 104.479 150.411 129.299C150.342 129.894 149.806 130.324 149.207 130.257C148.607 130.191 148.177 129.648 148.246 129.055C150.95 105.091 140.774 84.2736 119.602 70.4248C119.283 70.2171 119.111 69.8681 119.111 69.5164L119.111 69.5191Z" fill="#531139"/>
<path d="M14 122.613C14 122.222 14.0139 121.834 14.0305 121.447C14.9409 102.579 26.3266 84.6502 43.0359 75.7704C43.5661 75.4879 44.2267 75.6901 44.507 76.2191C44.7874 76.7509 44.5875 77.4073 44.0574 77.6898C28.0114 86.2151 17.0782 103.432 16.2038 121.552C16.1233 123.258 16.1678 125.008 17.056 126.222C18.355 127.994 21.1806 128.088 23.1596 127.155C25.4495 126.078 27.1898 123.887 28.722 121.953C29.0939 121.483 29.7795 121.402 30.2513 121.776C30.7232 122.147 30.8009 122.831 30.429 123.302C28.7469 125.421 26.8401 127.822 24.0894 129.119C21.3499 130.409 17.3391 130.282 15.299 127.504C14.247 126.069 14 124.344 14 122.613Z" fill="#531139"/>
<path d="M50.458 68.3642C50.458 68.2119 50.4718 68.0567 50.4968 67.9016C50.7772 66.2176 52.4398 65.4421 53.3335 65.0266C56.0148 63.7719 58.3935 61.9273 60.9138 59.9718C65.6268 56.3157 70.5008 52.5322 77.7175 52.5322C82.2751 52.5322 86.6772 55.0776 90.9351 57.54C94.2797 59.4733 97.4384 61.2985 100.589 61.9439C101.541 62.1378 102.648 62.3649 103.492 63.1404C104.641 64.1985 104.949 66.0875 104.247 67.7244C103.689 69.0289 102.657 70.0067 101.624 70.8681C94.9653 76.427 86.5246 79.7313 77.8535 80.1744C67.7169 80.6924 57.8023 75.1086 52.7923 71.7322C51.2407 70.6853 50.458 69.5524 50.458 68.3586L50.458 68.3642ZM102.44 65.8991C102.44 65.4532 102.312 65.0183 102.01 64.7386C101.616 64.373 100.933 64.2345 100.211 64.0877C96.6501 63.3592 93.1889 61.3567 89.8415 59.4206C85.8307 57.1023 81.6866 54.7065 77.7147 54.7065C71.2447 54.7065 66.8759 58.0967 62.2489 61.6863C59.7452 63.6279 57.1584 65.636 54.255 66.9932C53.5056 67.3421 52.7257 67.7659 52.6452 68.2562C52.5869 68.6938 53.0587 69.2921 54.0136 69.9346C58.796 73.1586 68.2387 78.496 77.7453 78.0085C85.9445 77.5875 93.93 74.4604 100.228 69.2034C100.997 68.5608 101.849 67.8019 102.246 66.8741C102.371 66.5832 102.443 66.237 102.443 65.8963L102.44 65.8991Z" fill="#531139"/>
<path d="M22.8737 45.4637C22.8737 33.3433 28.6303 20.8073 38.4783 11.645C47.4047 3.33846 59.6176 -2.43927 73.7955 -5.05946C73.9315 -5.08439 74.0675 -5.08439 74.2036 -5.05946C75.2861 -4.84896 76.2381 -5.01237 77.0291 -5.54694C78.0062 -6.20891 78.7278 -7.4276 79.0054 -8.89281C79.5133 -11.5989 78.6723 -14.3991 77.8813 -16.5373C77.7175 -16.9805 77.8591 -17.4791 78.231 -17.7699C78.6029 -18.0607 79.1247 -18.0773 79.5161 -17.8114C83.2188 -15.2937 85.7002 -11.0006 86.1305 -6.54682C88.9144 -8.18098 90.7602 -11.5075 90.4938 -14.7176C90.4549 -15.1497 90.6825 -15.5624 91.0656 -15.7674C91.4486 -15.9723 91.9204 -15.928 92.2591 -15.6566C96.2726 -12.4436 97.3829 -6.23107 94.9514 -1.75236C109.468 5.54319 120.362 17.7218 124.939 31.8254C130.091 47.6989 126.233 65.6331 115.336 76.4463C114.908 76.8701 114.22 76.8673 113.795 76.4407C113.371 76.0142 113.373 75.3273 113.801 74.9035C124.129 64.6526 127.773 47.6103 122.866 32.493C118.422 18.8048 107.225 6.53476 92.9141 -0.334245C92.6227 -0.472732 92.4089 -0.73586 92.3312 -1.04884C92.2535 -1.36183 92.3173 -1.69143 92.5061 -1.95456C94.6572 -4.90712 94.5406 -9.20579 92.5172 -12.1999C91.8177 -8.46349 89.0976 -5.12316 85.4587 -3.86292C85.1229 -3.74659 84.7482 -3.80199 84.4595 -4.01249C84.1709 -4.22299 84.0237 -4.56644 84.0126 -4.91543C84.1042 -7.9871 82.9745 -11.0588 81.0483 -13.4601C81.3563 -11.8952 81.4674 -10.2057 81.1426 -8.4995C80.7596 -6.47204 79.7021 -4.7437 78.2504 -3.75767C77.0347 -2.93505 75.5691 -2.63869 74.0009 -2.89627C60.3142 -0.334247 48.5483 5.23851 39.9633 13.2237C30.1569 22.3501 24.5724 34.9303 25.0831 46.9123C25.6132 59.9025 33.8013 72.0507 44.9955 76.4518C45.5534 76.6706 45.8282 77.2994 45.6089 77.8616C45.3869 78.4184 44.7568 78.6926 44.1961 78.4738C32.2248 73.7652 23.4677 60.8221 22.907 47.001C22.8848 46.4858 22.8764 45.9706 22.8764 45.4554L22.8737 45.4637Z" fill="#531139"/>
<path d="M104.619 137.938C104.619 137.605 104.772 137.276 105.06 137.063C107.875 134.991 109.79 131.686 110.184 128.219C110.251 127.623 110.792 127.194 111.389 127.263C111.986 127.332 112.419 127.873 112.346 128.465C111.886 132.523 109.643 136.39 106.351 138.813C105.868 139.17 105.185 139.068 104.83 138.583C104.686 138.389 104.616 138.165 104.616 137.941L104.619 137.938Z" fill="#531139"/>
<path d="M96.8888 39.6749C96.8888 38.9963 96.9999 38.3288 97.2247 37.7028C98.3322 34.6146 102.065 32.7865 105.213 33.7919C108.347 34.7918 110.326 38.3454 109.546 41.5556C109.171 43.0845 108.122 44.3807 106.592 45.2034C104.858 46.1368 102.718 46.339 101.011 45.7324C99.5285 45.2061 98.26 44.0262 97.5355 42.4945C97.1081 41.5944 96.8916 40.6249 96.8916 39.6777L96.8888 39.6749ZM107.539 40.1125C107.539 38.2734 106.301 36.4232 104.55 35.8637C102.507 35.2101 99.992 36.4371 99.2731 38.4368C98.9289 39.3952 99.0122 40.5363 99.5007 41.5639C99.9809 42.5776 100.8 43.3504 101.741 43.6855C102.87 44.0871 104.369 43.932 105.56 43.2922C106.54 42.766 107.203 41.9655 107.431 41.0404C107.506 40.7357 107.542 40.4228 107.542 40.1125L107.539 40.1125Z" fill="#531139"/>
<path d="M45.1343 41.3368C45.1343 40.6582 45.2453 39.9907 45.4701 39.3647C46.5776 36.2764 50.3109 34.4484 53.4584 35.4538C56.5921 36.4565 58.5767 40.0101 57.7912 43.2174C57.4165 44.7464 56.3673 46.0426 54.8379 46.8652C53.1031 47.7986 50.9631 48.0008 49.2561 47.3942C47.7739 46.868 46.5055 45.6881 45.781 44.1564C45.3536 43.2562 45.137 42.2868 45.137 41.3395L45.1343 41.3368ZM55.7844 41.7716C55.7844 39.9325 54.5465 38.0823 52.7951 37.5228C50.7522 36.8692 48.2375 38.0962 47.5186 40.0959C47.1744 41.057 47.2549 42.1954 47.7462 43.223C48.2263 44.2367 49.0452 45.0095 49.9861 45.3446C51.1158 45.7462 52.6146 45.5911 53.8054 44.9513C54.7852 44.4251 55.4486 43.6246 55.6762 42.6995C55.7511 42.3948 55.7872 42.0818 55.7872 41.7689L55.7844 41.7716Z" fill="#531139"/>
<path d="M101.979 24.5797C101.979 24.5548 101.979 24.5271 101.982 24.5021C102.024 23.9039 102.546 23.4524 103.145 23.4967C106.004 23.6989 108.774 25.1558 110.556 27.3938C110.928 27.8619 110.853 28.546 110.381 28.9199C109.909 29.2938 109.226 29.2163 108.852 28.7454C107.442 26.9755 105.252 25.8233 102.992 25.6627C102.418 25.6211 101.979 25.1447 101.979 24.5797Z" fill="#531139"/>
<path d="M43.1691 29.2469C43.1691 29.0225 43.2385 28.7954 43.3829 28.6015C45.2925 26.0312 48.4706 24.4857 51.6765 24.566C52.276 24.5798 52.7617 25.095 52.7367 25.6794C52.7229 26.2805 52.2233 26.7541 51.6209 26.7375C49.1118 26.6738 46.6248 27.8841 45.1288 29.895C44.7707 30.3769 44.0879 30.4766 43.6077 30.1193C43.319 29.9061 43.1664 29.5792 43.1664 29.2469L43.1691 29.2469Z" fill="#531139"/>
</g>
</svg>
