<svg xmlns="http://www.w3.org/2000/svg" width="120" height="74" viewBox="0 0 120 74" fill="none">
<path d="M47.1419 30.872C42.6004 30.0494 37.9378 29.2269 33.3989 30.0654C28.8599 30.9038 24.4005 33.7792 23.0304 38.1859C22.5063 39.8714 22.45 41.6965 21.746 43.316C20.0526 47.2122 15.3581 48.6407 11.2208 49.604C7.08221 50.5674 2.38775 51.942 0.623351 55.8052C-0.990446 59.3403 0.710285 63.698 3.64769 66.2429C6.5851 68.7877 10.4776 69.8943 14.2721 70.7389C34.2927 75.1945 55.0933 74.3046 75.5364 72.6374C87.2395 71.6826 98.923 70.4806 110.576 69.0337C113.03 68.729 115.598 68.3691 117.597 66.9137C119.595 65.4582 120.753 62.5315 119.443 60.4359C117.805 57.8139 113.321 57.6952 112.394 54.7451C111.717 52.5908 113.459 50.5123 114.185 48.3738C115.351 44.9415 113.741 41.0392 111.093 38.5653C108.444 36.0915 104.932 34.7768 101.471 33.6996C84.5433 28.43 66.3042 27.4238 47.1431 30.8745L47.1419 30.872Z" fill="#1FAEFF"/>
<path d="M28.3602 62.8741C27.7076 62.4738 27.0501 62.0833 26.4024 61.6757C26.1734 61.5631 25.5428 61.0894 25.3518 60.9706C25.2661 60.8923 25.1669 60.8176 25.1167 60.7809C23.4393 59.4295 22.8417 58.3939 22.6997 56.9373C22.7193 57.0585 22.7291 56.7929 22.696 56.5468C22.7095 56.5395 22.7156 56.4513 22.7205 56.2506C22.7462 55.7928 23.0609 54.3251 23.4833 53.3153C23.3095 53.6862 23.8311 52.5612 23.9707 52.3495C24.0919 52.1071 24.7506 51.1792 24.6772 51.2698C25.5183 50.1008 26.7011 49.2893 27.4933 48.3382C27.7994 47.7151 26.9056 47.1141 26.433 47.6233C24.5314 49.2611 22.7242 51.1352 21.8499 53.5344C21.4838 54.4818 21.1924 55.4696 21.1055 56.4844C21.0235 56.7904 21.1116 57.023 21.0712 57.0683C21.0981 57.6289 21.1728 58.1944 21.3773 58.7195C21.7581 59.7625 22.4511 60.6646 23.258 61.415C23.8188 61.9364 24.9012 62.7064 26.2432 63.4175C26.7942 63.7101 27.3525 63.9904 27.928 64.2315C28.2537 64.4372 28.7214 64.3527 28.9137 64.0063C29.2002 63.5118 28.7961 63.076 28.3578 62.8741H28.3602Z" fill="#D4DDE3"/>
<path d="M34.4874 64.8227C34.0283 64.8643 33.4748 64.7126 33.1185 65.0834C32.581 65.5853 32.9875 66.5658 33.7222 66.5413C34.1789 66.5132 34.7311 66.6184 35.085 66.2659C35.6176 65.7689 35.2147 64.7982 34.4874 64.8227Z" fill="#D4DDE3"/>
<path d="M14.9076 63.6343C13.2375 62.6379 13.1897 62.7591 12.1502 61.6268C10.5364 59.9988 11.3776 57.1026 13.3207 55.608C13.6501 55.2677 14.1864 54.9985 14.1741 54.4623C14.1986 53.7389 13.2326 53.3374 12.7367 53.8674C12.5212 54.0743 11.6322 54.8259 11.6702 54.8711C11.0972 55.3559 10.6502 55.9948 10.2976 56.6534C8.25648 60.7173 10.8572 63.7714 14.6076 65.2794C15.3655 65.5414 16.0732 66.1608 16.5373 65.1546C16.743 64.2084 15.4843 64.059 14.9064 63.6355L14.9076 63.6343Z" fill="#D4DDE3"/>
<path d="M49.4045 69.259C48.9674 68.9114 48.327 69.1623 47.8091 69.1268C45.0725 69.2811 42.3347 69.4573 39.592 69.4206C36.9154 69.3068 34.6391 69.0203 32.4168 68.647C29.4304 68.1035 26.4575 67.4021 23.6658 66.189C22.7989 65.9626 22.4267 67.2577 23.2997 67.5172C27.7089 69.4157 32.4915 70.2897 37.2496 70.7463C41.2119 71.0523 45.2072 70.7377 49.1425 70.2481C49.5674 70.1452 49.7253 69.5565 49.4045 69.2566V69.259Z" fill="#D4DDE3"/>
<path d="M71.4122 68.6162C70.3236 68.6505 69.2351 68.6848 68.1478 68.7215C66.1067 68.79 64.0558 68.8329 62.0208 68.6272C61.0694 68.6297 60.8784 70.0019 61.7992 70.2601C64.1036 70.5405 66.4349 70.4511 68.7503 70.3862C69.7151 70.3495 70.6861 70.3605 71.6411 70.2002C72.0513 70.1573 72.5093 70.0239 72.6244 69.5759C72.786 68.779 72.0856 68.5097 71.4122 68.6162Z" fill="#D4DDE3"/>
<path d="M30.2351 37.4794C29.9596 37.5553 29.7771 37.7916 29.5531 37.9544C28.8074 38.6704 27.6589 39.3253 27.3393 40.3425C27.1813 41.2165 28.4413 41.6413 28.8698 40.8713C28.9237 40.6767 30.0416 39.6766 30.6906 39.1062C30.9538 38.8798 31.2648 38.6337 31.2477 38.2506C31.2599 37.7365 30.7273 37.3399 30.2363 37.4794H30.2351Z" fill="#D4DDE3"/>
<path d="M104.37 60.7847C103.983 60.6655 103.641 61.0087 103.29 61.1187C99.6923 62.861 96.739 64.6512 93.0892 65.4635C90.4291 65.9747 87.837 66.7793 85.1791 67.2913C84.3143 67.2292 84.4527 68.8169 85.3114 68.7031C86.979 68.4734 88.5853 67.9501 90.2245 67.5888C91.9169 67.211 93.6336 66.9269 95.2968 66.4303C97.4848 65.7584 99.5583 64.7312 101.605 63.655C102.624 63.0525 103.75 62.5996 104.665 61.8029C104.879 61.4953 104.707 60.9234 104.372 60.7856L104.37 60.7847Z" fill="#D4DDE3"/>
<path d="M105.286 42.4478C102.955 40.0217 100.347 37.9383 97.6361 36.9762C97.1353 36.8329 96.621 36.5661 96.0982 36.5024C96.1019 36.5024 96.1068 36.5012 96.1105 36.5012C92.9869 35.7668 89.8304 35.0972 86.642 34.7165C86.3456 34.7055 86.0101 34.6871 85.791 34.9234C85.349 35.3396 85.6796 36.1499 86.2918 36.1303C88.0966 36.2074 90.5295 36.8146 92.8167 37.2638C93.7449 37.4597 94.6669 37.6812 95.5827 37.9285C95.6268 37.9444 95.6476 37.9469 95.6599 37.9456C95.7701 37.9909 95.8864 38.0276 95.9954 38.0595C96.8059 38.3116 97.0043 38.4157 97.4451 38.5919C98.7393 39.1183 100.566 40.3522 101.892 41.493C102.689 42.1405 103.674 42.9301 104.056 43.2263C104.119 43.2765 104.155 43.3034 104.167 43.3132C104.356 43.4662 104.541 43.6363 104.799 43.6253C105.39 43.6449 105.722 42.8554 105.286 42.4478Z" fill="#D4DDE3"/>
<path d="M109.203 46.0627C108.669 45.0418 107.15 45.8767 107.709 46.8792C108.256 47.8915 109.758 47.0652 109.203 46.0627Z" fill="#D4DDE3"/>
<path d="M100.512 46.1584C99.9944 45.7006 99.441 45.2832 98.863 44.9062C98.7969 44.8523 98.7259 44.807 98.6512 44.7691C98.0035 44.37 97.3533 43.9746 96.6835 43.6111C96.3297 43.4116 95.9746 43.2145 95.6232 43.0101C95.3612 42.8326 95.0526 42.6796 94.7306 42.7799C94.0302 42.9513 93.8931 43.9759 94.5286 44.3223C95.344 44.8192 96.1974 45.2513 97.0105 45.7508C97.2688 45.9087 97.5284 46.0678 97.7868 46.2257C97.8382 46.2624 97.8908 46.2979 97.9435 46.3285C98.5471 46.7361 98.5704 46.7496 98.8349 46.9553C99.4655 47.3751 101.211 49.2296 101.29 50.1281C101.983 53.0634 100.22 55.5005 96.7644 57.1922C96.3346 57.4297 96.2587 58.0576 96.6089 58.3979C97.2039 58.819 97.3803 58.557 97.7108 58.4505C100.11 57.3685 101.755 56.1407 102.811 53.482C103.693 50.6116 102.77 48.0643 100.511 46.1572L100.512 46.1584Z" fill="#D4DDE3"/>
<path d="M85.3932 45.8812C80.8726 51.2671 74.53 53.9405 67.5643 54.9112C60.5997 55.8806 53.5225 55.1352 46.5298 54.3885C43.8446 54.697 41.6309 54.6651 39.5334 54.0764C37.436 53.4876 35.4499 52.2929 34.2427 50.4812C32.6142 48.038 32.6129 44.7918 33.5337 42.0045C34.4533 39.2161 36.1858 36.7814 38.0592 34.3541C33.2643 30.8875 30.9196 24.3595 32.4942 18.3505C34.0088 12.295 38.211 6.96542 43.7467 4.07905C47.2302 2.26253 51.1618 1.40078 55.0873 1.2343C58.0615 1.10822 61.0723 1.37874 63.913 2.26742C67.0439 3.24791 69.936 4.98119 72.8893 7.52482C76.052 10.2912 78.2413 14.1483 78.9943 18.2808C79.7486 22.4132 79.0617 26.7942 76.8271 30.7247C79.0188 32.0406 81.7811 32.3662 84.2177 31.5938C85.2634 31.2621 86.5368 30.7847 87.3388 31.5326C87.8163 31.9781 87.8996 32.693 87.9326 33.3454C88.1469 37.7068 87.8457 42.9593 85.3919 45.8812H85.3932Z" fill="#FFD26F"/>
<path d="M55.2084 27.2494C54.2962 26.3093 52.7767 26.2003 51.5388 26.6288C50.3009 27.0572 49.2736 27.9263 48.2647 28.7623C47.2557 29.5984 46.1966 30.4393 44.9355 30.793C44.1788 31.006 43.2739 31.0978 42.8552 31.7625C42.5895 32.1836 42.6115 32.7418 42.8086 33.1984C43.0058 33.6549 43.3584 34.0295 43.7318 34.36C45.1203 35.589 46.8762 36.3516 48.6834 36.7678C50.4907 37.1839 52.3579 37.2696 54.213 37.2733C56.761 37.2782 59.516 37.0505 61.4506 35.3919C61.9954 34.9255 62.4827 34.1911 62.1999 33.5313C62.0309 33.1359 61.633 32.8972 61.2657 32.6745C58.9772 31.2876 57.1834 29.2838 55.2096 27.2494H55.2084Z" fill="#E58863"/>
<path d="M51.1581 50.1581C51.0516 49.8313 50.9438 49.4923 50.9891 49.152C51.0344 48.8117 51.2793 48.4714 51.6209 48.4359C51.8817 48.4089 52.1352 48.5656 52.2932 48.7749C52.4523 48.9843 52.5356 49.2389 52.6152 49.4886C52.8662 49.2193 53.127 48.9426 53.4588 48.7823C53.7906 48.6219 54.218 48.6011 54.5081 48.8288C54.7873 49.0467 54.8755 49.4421 54.8192 49.7921C54.7628 50.141 54.5841 50.458 54.409 50.7653C53.4698 50.365 52.4731 50.1018 51.1593 50.1594L51.1581 50.1581Z" fill="#E58863"/>
<path d="M32.832 26.5653C34.916 25.6742 37.5657 26.3792 38.9321 28.1872C40.2986 29.9951 40.2521 32.7358 38.8893 34.5536C35.936 32.9929 33.672 30.18 32.832 26.5653Z" fill="#E58863"/>
<path d="M78.5179 24.717C76.5503 24.2519 74.4014 24.2286 72.588 25.1197C70.7746 26.0109 69.402 27.9645 69.6151 29.9744C69.7706 31.4396 70.711 32.72 71.8387 33.6675C72.3003 34.0555 72.8329 34.4141 73.4353 34.4435C74.421 34.4913 75.2156 33.665 75.774 32.851C77.4563 30.4004 78.3453 27.4149 78.5191 24.717H78.5179Z" fill="#E58863"/>
<path d="M41.8194 23.0693C41.0248 22.7706 40.0379 23.0558 39.5555 23.7547C39.073 24.4537 39.1759 25.5064 39.8077 26.0731C40.4395 26.6399 41.528 26.613 42.1047 25.9887C42.461 25.6031 42.6043 25.051 42.5529 24.5296C42.5015 24.0081 42.4121 23.292 41.8194 23.0693Z" fill="#4B1738"/>
<path d="M65.3136 25.5556C64.5654 25.2348 63.6018 25.5017 63.15 26.1786C62.697 26.8555 62.8316 27.8678 63.4622 28.3832C64.0928 28.8985 65.1348 28.8153 65.6552 28.1885C66.2086 27.5226 66.4486 26.0415 65.3136 25.5556Z" fill="#4B1738"/>
<path d="M52.991 50.4543C51.638 50.0614 50.1332 50.4041 48.9614 51.1875C47.7896 51.9709 46.9276 53.1558 46.3436 54.4387C45.0518 57.2736 45.0836 60.6778 46.4256 63.4882C47.7688 66.2987 50.3977 68.4629 53.3179 68.9733C54.693 70.4948 56.8284 71.2954 58.8646 71.0506C59.6311 70.9588 60.5151 70.5817 60.6216 69.8167C60.7123 69.1594 60.1515 68.5804 59.5503 68.3001C58.9479 68.0198 58.2683 67.9194 57.6793 67.9426C58.6442 67.382 59.5221 66.6733 60.2764 65.8507C60.5702 65.53 60.8604 65.0722 60.6498 64.6903C60.4539 64.3341 59.9592 64.3047 59.5527 64.3377C57.743 64.481 55.959 64.9277 53.9326 65.7209C55.1693 63.2434 56.2945 60.6337 56.4659 57.871C56.6374 55.107 56.0533 51.3442 52.9898 50.4531L52.991 50.4543Z" fill="#AFC1D6"/>
<path d="M42.6079 33.6001C44.0344 37.2735 47.6305 40.0069 51.5524 40.3986C55.4742 40.7903 59.5405 38.822 61.6649 35.5035C55.5918 38.1463 48.2011 37.5122 42.6079 33.6001Z" fill="#C9A14B"/>
<path d="M76.2699 43.542C77.2005 45.7355 76.3287 48.3881 74.6586 50.0859C72.9872 51.7849 70.6657 52.6809 68.3503 53.2501C67.6916 53.4117 66.9777 53.5476 66.3533 53.282C65.7288 53.0176 65.3088 52.1864 65.7031 51.6343C67.8556 52.255 70.2151 51.3161 71.862 49.7995C73.51 48.2828 74.5863 46.2607 76.2687 43.5408L76.2699 43.542Z" fill="#C9A14B"/>
<path d="M37.2778 47.3416C37.7125 49.3796 39.3581 51.1105 41.3735 51.6454C41.9588 51.8009 42.6298 51.8474 43.1257 51.5022C43.5396 51.2133 43.7502 50.6992 43.7893 50.1961C43.8285 49.693 43.7183 49.1911 43.6081 48.6991C42.7523 49.4029 41.5597 49.6771 40.4822 49.4164C39.4047 49.1556 38.4692 48.3673 37.2778 47.3416Z" fill="#C9A14B"/>
<path d="M50.6253 27.0562C47.9438 29.3072 46.6398 33.0823 47.361 36.5085C45.8696 35.9319 44.5019 35.0359 43.3779 33.8987C43.0106 33.5278 42.6506 33.0835 42.6408 32.562C42.6322 32.1006 42.9114 31.6734 43.2689 31.3808C43.6265 31.0895 44.0599 30.9095 44.4824 30.7223C46.5908 29.7871 48.5744 28.5716 50.6253 27.0549V27.0562Z" fill="#C37553"/>
<path d="M36.4073 27.3657C35.4339 26.6496 34.4151 28.1246 35.4339 28.7721C36.4073 29.4882 37.426 28.012 36.4073 27.3657Z" fill="#F5CC94"/>
<path d="M74.5508 24.9938C73.9373 25.2802 72.8145 25.4394 72.9517 26.3391C72.9909 26.9205 73.7243 27.2645 74.2116 26.9572C74.2275 26.9511 74.2386 26.9462 74.2508 26.9413C74.2777 26.9303 74.3353 26.907 74.4406 26.8642C74.8128 26.6879 75.2977 26.6377 75.5169 26.2485C75.9124 25.6218 75.2597 24.7747 74.552 24.9938H74.5508Z" fill="#F5CC94"/>
<path d="M72.2174 27.7991C71.4198 27.8015 71.421 29.0153 72.2174 29.0202C73.015 29.0178 73.0137 27.804 72.2174 27.7991Z" fill="#F5CC94"/>
<path d="M55.3237 29.355C55.2858 29.3109 55.2711 29.2999 55.2686 29.3072C55.1743 29.2081 55.0568 29.1261 54.9417 29.0551C54.8144 28.9902 54.7286 28.951 54.6772 28.9302C54.6282 28.9082 54.578 28.8886 54.5352 28.8739C54.2658 28.7993 53.994 28.6303 53.7087 28.694C52.8014 28.7748 52.7194 30.1359 53.5948 30.3563C53.7503 30.4028 53.907 30.4713 54.0674 30.513C54.1336 30.5558 54.207 30.5925 54.2768 30.6207C54.5633 30.792 54.3699 30.8312 54.9552 30.9279C55.8576 30.8716 55.98 29.863 55.3237 29.355Z" fill="#F5CC94"/>
<path d="M57.224 31.2267C56.4281 30.4102 55.2122 31.5951 55.9983 32.4152C56.7942 33.2317 58.0101 32.0468 57.224 31.2267Z" fill="#F5CC94"/>
<path d="M70.7413 8.21666C70.7413 8.21666 70.7351 8.21049 70.7327 8.20679C70.7956 8.29685 70.8931 8.40789 70.7413 8.21666Z" fill="#FAE0AA"/>
<path d="M70.7256 8.19706C70.7256 8.19706 70.7294 8.20337 70.7319 8.20589C70.7294 8.20337 70.7268 8.19958 70.7256 8.1958V8.19706Z" fill="#FAE0AA"/>
<path d="M70.733 8.20578C70.5089 7.89976 70.2481 7.62556 69.9763 7.36239C69.7791 7.19714 69.5183 6.93029 69.5073 6.98415C69.3677 6.81033 69.173 6.68058 68.9906 6.54838C68.2168 5.97184 66.0777 4.81754 64.3843 4.81019C63.1954 4.74409 63.0815 6.47616 64.2753 6.52879C65.4679 6.51533 66.554 7.10533 67.5311 7.6072C68.0098 7.89853 67.7355 7.69901 68.3282 8.10051C68.3955 8.15804 68.4714 8.19966 68.551 8.23148C68.5657 8.25351 68.6294 8.30248 68.7408 8.38204C68.7567 8.39551 68.7751 8.40897 68.7947 8.42488C69.2551 8.71621 69.6726 9.36987 70.2236 9.40904C70.4771 9.41394 70.7036 9.26827 70.8358 9.05773C70.995 8.79333 70.9485 8.42733 70.7317 8.207L70.733 8.20578Z" fill="#FAE0AA"/>
<path d="M72.9944 10.7907C72.5316 9.49563 70.7868 10.0893 71.3402 11.3403C71.8043 12.6354 73.5478 12.0405 72.9944 10.7907Z" fill="#FAE0AA"/>
<path d="M36.2027 40.3154C35.6015 41.2457 35.3566 41.9116 35.1252 43.3475C35.1044 43.4662 35.075 43.7784 35.0762 43.8175C35.004 44.7233 36.3949 44.989 36.608 44.0085C36.7733 43.2802 37.263 41.7954 37.3022 41.8064C37.4198 41.4698 37.7491 41.2213 37.7785 40.8602C37.9414 39.9605 36.6422 39.5222 36.2015 40.3154H36.2027Z" fill="#FAE0AA"/>
<path d="M34.9945 46.5277C34.7974 47.8044 36.6046 48.0688 36.7038 46.7786C36.9009 45.5019 35.0937 45.2375 34.9945 46.5277Z" fill="#FAE0AA"/>
<path d="M33.3011 46.2839C31.1449 48.7798 31.9003 52.8976 34.2378 55.2246C36.5752 57.5528 40.0195 58.3998 43.3132 58.581C42.6251 60.0389 42.6863 61.8272 43.4712 63.2349C44.256 64.6426 45.745 65.6353 47.562 65.6977C45.3384 62.4393 44.905 58.0375 46.449 54.4081C43.7528 55.309 40.6819 55.0238 38.1976 53.6418C35.7132 52.2599 33.8533 49.8007 33.3011 46.2839Z" fill="#57CDFF"/>
<path d="M52.8086 69.2156C52.1046 69.2082 51.5389 69.9304 51.5609 70.6343C51.583 71.3369 52.0727 71.9612 52.6764 72.3235C53.28 72.6858 53.9865 72.8278 54.682 72.938C57.4566 73.3774 60.4013 73.3762 62.953 72.2011C63.8983 71.7653 64.8668 71.0211 64.9182 69.9819C64.9672 69.0173 64.1897 68.2008 63.351 67.7222C61.8608 66.8739 59.9972 66.7111 58.3834 67.2901C58.6908 67.8789 59.3299 68.1996 59.8442 68.6219C60.3585 69.0442 60.7833 69.7664 60.4638 70.3491C60.2323 70.7702 59.7083 70.9256 59.2332 70.9942C57.1762 71.2879 55.0016 70.6171 52.8086 69.2168V69.2156Z" fill="#57CDFF"/>
<path d="M56.505 59.0815C61.3819 59.5552 66.3237 59.6923 71.1614 58.915C75.9991 58.1377 80.7463 56.4081 84.6326 53.4263C86.1129 52.2903 87.5027 50.9145 88.1247 49.1555C88.7467 47.3977 88.4075 45.1944 86.468 44.2102C83.5563 49.0269 78.3831 52.1434 72.9687 53.687C67.5543 55.2305 61.8509 55.3689 56.2209 55.4105C56.232 56.4975 56.243 57.5844 56.505 59.0815Z" fill="#57CDFF"/>
<path d="M55.3675 55.7425C55.3638 55.4585 55.3246 55.1573 55.1055 54.9529C54.6047 54.4156 53.6239 54.8219 53.6484 55.5564C53.6937 56.1464 53.7549 56.7352 53.8529 57.3178C53.9104 58.3142 55.3626 58.3118 55.392 57.3105C55.425 56.7878 55.4006 56.2639 55.3687 55.7412L55.3675 55.7425Z" fill="#B2C1D4"/>
<path d="M53.4578 59.6605C53.1406 60.7573 54.7679 61.2335 55.096 60.144C55.4181 59.0485 53.7847 58.5699 53.4578 59.6605Z" fill="#B2C1D4"/>
<path d="M39.8004 35.9062C39.7281 35.9062 39.6559 35.8903 39.5873 35.856C35.63 33.8901 32.6509 29.798 31.811 25.1796C31.0322 20.8941 32.0289 16.1521 34.5439 12.1689C36.8372 8.53833 40.3244 5.51609 44.6271 3.42904C50.9733 0.351718 58.2145 -0.197891 64.4946 1.91853C71.1249 4.15369 76.5234 9.46985 78.5866 15.7922C80.7514 22.4279 79.08 30.12 74.4284 34.9306C74.2435 35.1215 73.9399 35.1264 73.7489 34.9416C73.5579 34.7568 73.553 34.4532 73.7379 34.2622C78.1495 29.7001 79.7314 22.3961 77.6732 16.0884C75.7031 10.0488 70.536 4.9677 64.1885 2.8268C58.1435 0.789937 51.168 1.32241 45.0458 4.29079C40.9036 6.29949 37.5523 9.20055 35.3557 12.6806C32.9668 16.463 32.0191 20.9553 32.7562 25.007C33.5423 29.3341 36.323 33.1618 40.0146 34.9955C40.2522 35.1142 40.3489 35.4019 40.2314 35.6393C40.1469 35.8083 39.9779 35.9062 39.8004 35.9062Z" fill="#4B1738"/>
<path d="M53.4221 37.9027C50.028 37.9027 46.6314 36.9357 43.8262 35.0286C43.2557 34.6405 42.6777 34.1938 42.3116 33.5474C41.8672 32.7653 41.8745 31.8497 42.3312 31.2156C42.8528 30.4922 43.7173 30.3502 44.4801 30.2253C44.7274 30.1849 44.9613 30.147 45.1768 30.0907C46.4992 29.7528 47.5791 28.754 48.6615 27.6719C50.7234 25.6093 53.8188 25.8346 55.26 26.7881C56.5395 27.6364 57.1933 28.4969 57.8251 29.3305C58.6737 30.4493 59.4757 31.5057 61.807 32.6514C62.3274 32.906 62.6996 33.3149 62.8306 33.7727C63.051 34.5414 62.5698 35.315 61.5094 35.8928C59.0422 37.2368 56.2322 37.9015 53.4221 37.9015V37.9027ZM52.614 27.0452C51.5169 27.0452 50.2863 27.4063 49.3398 28.3512C48.2072 29.4847 46.9706 30.6244 45.4131 31.021C45.1572 31.0871 44.8903 31.1299 44.6331 31.1727C43.9977 31.2768 43.3977 31.3747 43.1087 31.7774C42.8393 32.1508 42.9385 32.7114 43.1442 33.0737C43.4148 33.5487 43.8899 33.9134 44.3638 34.2354C49.2052 37.5245 55.9101 37.8513 61.0491 35.0506C61.507 34.8009 62.0053 34.3859 61.9062 34.0371C61.8498 33.8424 61.6551 33.6466 61.3833 33.5132C58.8463 32.2671 57.9378 31.0699 57.0586 29.9107C56.4489 29.1065 55.8722 28.3464 54.7286 27.5886C54.2327 27.2594 53.4625 27.0439 52.614 27.0439V27.0452Z" fill="#4B1738"/>
<path d="M40.9831 26.864C40.7284 26.864 40.4761 26.8187 40.2374 26.7208C39.2627 26.3242 38.7093 25.1429 39.0276 24.1404C39.346 23.1379 40.481 22.4916 41.5059 22.7315C42.1585 22.8833 42.6618 23.2762 42.925 23.8368C43.1968 24.4171 43.1895 25.1552 42.9066 25.7183C42.5503 26.4282 41.7667 26.8628 40.9843 26.8628L40.9831 26.864ZM41.0688 23.641C40.5888 23.641 40.088 23.9752 39.9435 24.4305C39.777 24.9557 40.0892 25.6228 40.5998 25.8309C41.1116 26.0377 41.801 25.7795 42.0483 25.2862C42.1769 25.0315 42.2283 24.6105 42.0557 24.242C41.9161 23.9446 41.6589 23.7499 41.2892 23.6643C41.2169 23.6483 41.1435 23.6398 41.0688 23.6398V23.641Z" fill="#4B1738"/>
<path d="M64.5827 29.2609C64.3292 29.2609 64.0758 29.2156 63.837 29.1176C62.8623 28.721 62.3089 27.5386 62.6273 26.5373C62.9456 25.5348 64.0807 24.8872 65.1055 25.1284C65.7569 25.2802 66.2614 25.6731 66.5246 26.2337C66.7964 26.8139 66.7891 27.552 66.5062 28.1163C66.1499 28.8251 65.3651 29.2609 64.5827 29.2609ZM64.6684 26.0379C64.1884 26.0379 63.6876 26.372 63.5431 26.8274C63.3754 27.3525 63.6888 28.0209 64.1994 28.229C64.7125 28.4358 65.4018 28.1763 65.6479 27.6842C65.7753 27.4296 65.8279 27.0086 65.6553 26.6401C65.5157 26.3427 65.2573 26.148 64.8876 26.0623C64.8153 26.0464 64.7418 26.0379 64.6672 26.0379H64.6684Z" fill="#4B1738"/>
<path d="M54.5887 15.3577C52.2378 15.3577 49.9139 14.0247 48.7996 11.9352C48.6747 11.7014 48.7641 11.4101 48.998 11.2852C49.2331 11.1616 49.5233 11.2497 49.6482 11.4835C50.6252 13.3147 52.6982 14.4556 54.7528 14.3956L53.4292 12.169C53.3116 11.9719 53.3508 11.7185 53.5222 11.5655C53.6949 11.4137 53.9508 11.4039 54.1332 11.5423C54.8287 12.0735 55.6993 12.393 56.5796 12.4579C56.1229 11.8422 55.7715 11.1493 55.5462 10.4149C55.4679 10.1615 55.6111 9.89344 55.8646 9.81632C56.1168 9.73676 56.3862 9.8812 56.4633 10.1346C56.7437 11.049 57.2519 11.8875 57.9339 12.5582C58.0637 12.6868 58.1102 12.8765 58.0539 13.0503C57.9975 13.2229 57.8469 13.3502 57.6669 13.3759C56.8086 13.5008 55.9344 13.4151 55.1213 13.1409L55.9601 14.551C56.0409 14.6869 56.0495 14.8534 55.9846 14.9966C55.9185 15.1398 55.7862 15.2426 55.6307 15.2696C55.2854 15.3296 54.9365 15.3589 54.5887 15.3589V15.3577Z" fill="#4B1738"/>
<path d="M45.8172 55.1621H45.8074C43.852 55.123 41.5881 55.0299 39.4563 54.4093C37.8107 53.9307 35.5394 52.9184 34.0554 50.8167C32.4563 48.5485 32.0987 45.2606 33.1015 42.0217C33.9917 39.1476 35.7022 36.6725 37.3577 34.2782C37.5083 34.0591 37.8082 34.0052 38.025 34.1558C38.2429 34.3064 38.298 34.605 38.1474 34.8229C36.5336 37.1572 34.8647 39.5711 34.0186 42.3045C33.104 45.2606 33.4113 48.2363 34.8402 50.2622C35.8724 51.7249 37.6074 52.8707 39.7245 53.4864C41.7448 54.0739 43.9328 54.1633 45.8258 54.2012C46.0915 54.2061 46.3021 54.4252 46.2972 54.6909C46.2923 54.9528 46.078 55.1621 45.8172 55.1621Z" fill="#4B1738"/>
<path d="M58.1324 71.5758C56.2468 71.5758 54.3758 70.7863 53.0743 69.4178C50.1112 68.8388 47.4088 66.66 45.9934 63.6965C44.5853 60.7489 44.5522 57.215 45.9065 54.2417C46.586 52.7484 47.5509 51.5549 48.6945 50.7898C50.0548 49.8803 51.7127 49.5829 53.1245 49.9942C57.0549 51.1362 57.0426 56.3361 56.9459 57.9017C56.7929 60.3633 55.9125 62.6891 54.8864 64.8606C56.5247 64.2999 58.0185 63.978 59.5148 63.8605C60.2984 63.8005 60.8176 64.0013 61.071 64.4615C61.229 64.7492 61.3832 65.3551 60.6302 66.1764C60.1466 66.7052 59.6164 67.1863 59.0458 67.6135C59.2931 67.6784 59.5307 67.7628 59.7535 67.8657C60.5127 68.2194 61.2228 68.9808 61.0979 69.8829C60.9547 70.921 59.8796 71.413 58.9221 71.5281C58.6601 71.5599 58.3956 71.5746 58.1324 71.5746V71.5758ZM51.8143 50.7715C50.9425 50.7715 50.0279 51.053 49.2283 51.5867C48.2329 52.2526 47.3868 53.3078 46.7807 54.6371C45.5428 57.3558 45.5722 60.5861 46.8603 63.2815C48.1704 66.0234 50.6768 68.0236 53.4012 68.501C53.5065 68.5193 53.6032 68.5732 53.6742 68.6527C54.9501 70.0653 56.9177 70.8034 58.8083 70.5758C59.4278 70.5011 60.0829 70.2183 60.1466 69.7532C60.2017 69.3566 59.7854 68.9416 59.347 68.7372C58.8646 68.5132 58.2744 68.403 57.6977 68.4251C57.4602 68.4434 57.279 68.2916 57.2177 68.0799C57.1553 67.8681 57.2459 67.6417 57.4369 67.5315C58.3614 66.9929 59.1976 66.3197 59.9213 65.5301C60.1833 65.2437 60.2739 65.0099 60.2286 64.9267C60.1906 64.8569 60.0009 64.7883 59.5907 64.8202C57.8557 64.9573 56.1133 65.3869 54.1077 66.1716C53.924 66.2438 53.7122 66.196 53.5787 66.0491C53.444 65.9023 53.4147 65.688 53.504 65.5105C54.6942 63.1261 55.8194 60.5469 55.9884 57.8442C56.0741 56.4585 56.1035 51.8609 52.8575 50.9171C52.5245 50.8204 52.1731 50.7727 51.8143 50.7727V50.7715Z" fill="#4B1738"/>
<path d="M50.3251 55.2318C50.2431 55.2318 50.1598 55.211 50.0827 55.1657C49.6125 54.8915 49.3774 54.3113 49.5231 53.7874C49.6701 53.2623 50.1525 52.8902 50.7157 52.8951C50.9802 52.8987 51.1932 53.1166 51.1883 53.3822C51.1847 53.6466 50.9533 53.867 50.701 53.8547C50.6092 53.8707 50.4769 53.9417 50.4488 54.0432C50.4206 54.1461 50.4757 54.2832 50.5676 54.3358C50.7965 54.4704 50.8737 54.7642 50.7402 54.9931C50.6508 55.1461 50.4904 55.2306 50.3251 55.2306V55.2318Z" fill="#4B1738"/>
<path d="M51.0505 61.4625C50.9183 61.4625 50.7603 61.4282 50.5767 61.334C49.6583 60.8627 48.9861 59.9777 48.7804 58.9666C48.7278 58.7059 48.8955 58.4537 49.1551 58.3998C49.4183 58.3521 49.6694 58.5161 49.722 58.7744C49.8567 59.4366 50.2889 60.0438 50.8668 60.3963C50.9317 59.9556 50.9599 59.5076 50.9501 59.0621C50.944 58.7977 51.1546 58.5773 51.4203 58.5712C51.6799 58.5835 51.9052 58.7756 51.9113 59.0413C51.9235 59.6141 51.8807 60.1907 51.7827 60.755C51.7619 60.8749 51.7129 61.1516 51.4656 61.3303C51.3836 61.3903 51.244 61.4613 51.0505 61.4613V61.4625Z" fill="#4B1738"/>
<path d="M54.2804 51.2329C54.2106 51.2329 54.1383 51.217 54.0698 51.1839C53.831 51.0676 53.733 50.78 53.8494 50.5425C53.9902 50.2536 54.0918 49.9439 54.1506 49.6244C54.1775 49.4751 54.1812 49.3747 54.1591 49.3258C54.1359 49.2744 54.0269 49.2278 53.9265 49.2487C53.7894 49.2756 53.6412 49.3943 53.5322 49.5669C53.4037 49.7689 53.3253 50.021 53.2433 50.2879C53.1723 50.5192 52.9372 50.66 52.7021 50.6196C52.4633 50.578 52.2931 50.365 52.3054 50.1239C52.3213 49.797 52.265 49.5424 52.1303 49.3221C52.0066 49.1201 51.818 48.9794 51.6417 48.9549C51.605 48.95 51.5756 48.9524 51.5609 48.9549C51.5658 48.9622 51.5548 49.0014 51.545 49.0871C51.5046 49.4408 51.5229 49.797 51.5976 50.1447C51.654 50.4042 51.4887 50.66 51.2291 50.7151C50.9683 50.7726 50.7148 50.6049 50.6585 50.3466C50.5618 49.8962 50.5397 49.4359 50.5912 48.9781C50.6156 48.7664 50.6695 48.4971 50.8716 48.2829C51.0883 48.054 51.4201 47.9524 51.7752 48.0025C52.2307 48.0662 52.6482 48.3514 52.9274 48.7835C53.1576 48.5313 53.4392 48.3649 53.7441 48.3049C54.2804 48.1996 54.835 48.4726 55.0407 48.9365C55.1754 49.2401 55.1424 49.5547 55.0983 49.7946C55.0236 50.201 54.895 50.5939 54.715 50.9611C54.6318 51.1313 54.4604 51.2304 54.2828 51.2304L54.2804 51.2329Z" fill="#4B1738"/>
<path d="M41.4875 50.1104C40.7075 50.1104 39.8749 49.8472 39.1145 49.3465C38.2501 48.7773 37.584 48.0123 36.9387 47.2729C36.7648 47.0722 36.7857 46.7699 36.9852 46.596C37.1836 46.4222 37.4885 46.4418 37.6624 46.6425C38.2648 47.3341 38.888 48.049 39.6423 48.546C40.4283 49.0625 41.2916 49.2608 42.0054 49.0931C42.516 48.972 43.0388 48.557 43.0327 48.071C43.029 47.7675 42.8319 47.4517 42.625 47.1163L42.5821 47.0465C41.3834 45.099 40.6647 42.8638 40.5043 40.5822C40.4859 40.3178 40.6842 40.0876 40.9487 40.0693C41.2071 40.0472 41.4434 40.2492 41.4618 40.5136C41.6124 42.6411 42.2821 44.7269 43.4 46.5422L43.4417 46.6095C43.6963 47.0208 43.9853 47.4872 43.9927 48.0564C44.0061 49.0711 43.1147 49.8154 42.227 50.0259C41.9883 50.0822 41.7409 50.1104 41.4875 50.1104Z" fill="#4B1738"/>
<path d="M66.9459 52.1165C66.8883 52.1165 66.832 52.114 66.7732 52.1116C65.9921 52.0663 65.3198 51.6905 64.9746 51.1042C64.6219 50.5056 64.6207 49.7161 64.9733 48.9376C65.1729 48.4994 65.4472 48.1236 65.7117 47.76C65.8072 47.6303 65.9015 47.4993 65.9933 47.3671C67.1932 45.6105 67.6242 43.3252 67.143 41.2528C67.083 40.9946 67.2447 40.7363 67.503 40.6763C67.7589 40.6188 68.0197 40.7779 68.0797 41.0362C68.6197 43.3656 68.136 45.9337 66.7867 47.9081C66.69 48.0489 66.5896 48.1872 66.4892 48.3255C66.2418 48.6646 66.008 48.9865 65.8488 49.3342C65.6309 49.8152 65.6137 50.2951 65.8023 50.6158C65.9823 50.9206 66.3753 51.1262 66.8283 51.1519C67.3255 51.1764 67.8299 51.0173 68.2634 50.8557C71.753 49.5496 74.5655 46.5164 75.6038 42.9372C75.6773 42.6826 75.943 42.5344 76.1989 42.6103C76.4536 42.6838 76.6005 42.9506 76.5258 43.2052C75.4055 47.0696 72.3677 50.3453 68.6001 51.7554C68.1177 51.9353 67.5495 52.1165 66.9447 52.1165H66.9459Z" fill="#4B1738"/>
<path d="M60.0035 55.7178C58.9272 55.7178 57.8142 55.6921 56.6657 55.6382C56.4013 55.626 56.1968 55.4007 56.209 55.1363C56.2213 54.8719 56.4294 54.6553 56.711 54.6797C64.398 55.0384 75.2501 54.0053 80.5298 49.912C86.6655 45.154 87.3854 42.417 87.5899 33.6722C87.6144 32.6415 87.4381 32.0625 87.0365 31.852C86.63 31.6378 86.0447 31.8508 85.479 32.0564L85.337 32.1078C82.5844 33.0956 79.4499 32.7762 76.9508 31.2559C76.7243 31.1175 76.6521 30.8225 76.7904 30.5961C76.9288 30.3709 77.2227 30.2974 77.4504 30.4357C79.6691 31.7871 82.5661 32.0809 85.0113 31.2045L85.1496 31.1543C85.839 30.9033 86.6961 30.5912 87.4822 31.0025C88.5988 31.5888 88.5621 33.1201 88.5499 33.6954C88.3368 42.8197 87.4393 45.7697 81.1188 50.6709C77.8545 53.2023 70.6965 55.719 60.0035 55.719V55.7178Z" fill="#4B1738"/>
<path d="M37.301 21.2224C37.2227 21.2224 37.1419 21.2028 37.0684 21.1624C36.8358 21.0339 36.7525 20.7413 36.8823 20.51C37.3133 19.7339 38.261 19.2908 39.1328 19.4548C39.3936 19.5038 39.565 19.7547 39.516 20.0155C39.467 20.2762 39.216 20.4476 38.9552 20.3986C38.4814 20.308 37.9549 20.559 37.7222 20.9764C37.6341 21.1343 37.4712 21.2236 37.3023 21.2236L37.301 21.2224Z" fill="#4B1738"/>
<path d="M68.8915 23.7108C68.6883 23.7108 68.4997 23.5811 68.4348 23.3779C68.2512 22.805 67.6438 22.3668 67.0414 22.3668C67.0231 22.3668 67.0059 22.368 66.9875 22.3668C66.7292 22.3668 66.5161 22.1624 66.5088 21.9016C66.5002 21.6372 66.7084 21.4144 66.9741 21.4071C68.0418 21.3643 69.0287 22.0791 69.3507 23.0829C69.4315 23.335 69.2931 23.6055 69.0397 23.6863C68.9907 23.7022 68.9417 23.7096 68.8928 23.7096L68.8915 23.7108Z" fill="#4B1738"/>
</svg>