<svg xmlns="http://www.w3.org/2000/svg" width="179" height="90" viewBox="0 0 249 160" fill="none">
<path d="M182.194 86.5244C183.464 83.6023 184.744 80.6599 185.441 77.548C186.138 74.4386 186.224 71.1142 185.133 68.1212C184.403 66.1149 182.719 64.0833 180.601 64.2959C178.91 64.4654 177.658 66.0744 177.299 67.7392C176.847 69.8517 177.501 72.025 178.15 74.0844C179.473 78.2792 180.793 82.4765 182.192 86.5219L182.194 86.5244Z" fill="#00BAE7"/>
<path d="M187.317 101.563C188.281 97.067 190.621 92.8748 193.944 89.7021C195.105 88.594 196.471 87.5668 198.064 87.3821C199.657 87.1974 201.472 88.1513 201.735 89.7376C202.033 91.5288 200.394 92.9911 198.93 94.0613C195.534 96.5407 192.139 99.0201 187.314 101.563H187.317Z" fill="#00BAE7"/>
<path d="M198.483 72.1085C198.95 68.8043 199.498 65.4774 200.728 62.3756C201.957 59.2738 203.929 56.377 206.734 54.5756C207.769 53.9102 209.019 53.3916 210.205 53.7078C212.084 54.2063 212.866 56.6351 212.293 58.4946C211.72 60.3542 210.215 61.7507 208.774 63.0562C205.792 65.7506 202.813 68.4451 198.483 72.1085Z" fill="#00BAE7"/>
<path d="M215.1 39.0009C216.146 37.3665 217.41 35.884 218.511 34.285C219.612 32.6886 220.564 30.9328 220.874 29.0175C221.185 27.1023 220.771 24.9923 219.438 23.5856C218.102 22.1789 215.762 21.6957 214.151 22.771C212.551 23.8386 212.081 26.0372 212.364 27.9423C212.646 29.8474 213.52 31.6083 214.068 33.4552C214.616 35.3021 214.797 37.4197 215.103 38.9984L215.1 39.0009Z" fill="#00BAE7"/>
<path d="M225.202 51.1829C232.758 52.4049 240.832 49.8091 246.27 44.4126C246.964 43.7245 247.648 42.925 247.759 41.9535C247.906 40.6809 246.997 39.4867 245.891 38.839C243.631 37.5184 240.665 38.0143 238.441 39.3931C236.217 40.772 234.573 42.8997 232.988 44.9869C231.405 47.0742 229.781 49.212 225.199 51.1804L225.202 51.1829Z" fill="#00BAE7"/>
<path d="M183.045 68.5057C182.654 66.0036 179.001 66.6614 179.561 69.1306C179.953 71.6328 183.606 70.975 183.045 68.5057Z" fill="#D2DDE4"/>
<path d="M239.908 43.727C238.628 43.56 237.403 44.3595 236.194 44.696C235.495 44.9262 234.664 45.0552 234.285 45.7738C233.47 47.0691 234.816 48.8199 236.275 48.367C237.527 47.985 238.711 47.4006 239.852 46.7681C241.296 46.2089 241.475 44.2305 239.908 43.727Z" fill="#D2DDE4"/>
<path d="M243.859 41.8901C242.215 41.8952 242.218 44.4024 243.859 44.4125C245.502 44.4075 245.5 41.9003 243.859 41.8901Z" fill="#D2DDE4"/>
<path d="M182.194 87.5162C182.194 87.5162 182.169 87.5162 182.156 87.5162C181.75 87.501 181.391 87.2353 181.26 86.8508C179.867 82.823 178.531 78.5827 177.238 74.4841L177.208 74.3855C176.587 72.4121 175.812 69.958 176.332 67.5342C176.733 65.662 178.21 63.5419 180.503 63.3117C183.133 63.0587 185.183 65.366 186.065 67.7822C187.11 70.6512 187.228 74.1021 186.408 77.7655C185.688 80.9786 184.376 83.9995 183.103 86.9191C182.947 87.2834 182.588 87.5162 182.194 87.5162ZM180.902 65.2724C180.836 65.2724 180.768 65.2775 180.7 65.2825C179.45 65.409 178.531 66.7196 178.266 67.9466C177.857 69.8568 178.513 71.944 179.094 73.7858L179.124 73.882C180.154 77.1482 181.212 80.503 182.3 83.7617C183.176 81.6668 183.982 79.5239 184.474 77.3304C185.211 74.0389 185.118 70.97 184.201 68.4602C183.631 66.8916 182.368 65.2724 180.899 65.2724H180.902Z" fill="#531139"/>
<path d="M187.317 102.555C187.105 102.555 186.895 102.486 186.718 102.352C186.413 102.119 186.269 101.73 186.35 101.353C187.352 96.6748 189.809 92.2828 193.262 88.9811C194.307 87.9818 195.931 86.6282 197.953 86.3929C199.942 86.1551 202.351 87.3796 202.715 89.5706C203.154 92.2018 200.513 94.1322 199.516 94.8583C196.143 97.3225 192.661 99.8626 187.779 102.436C187.635 102.512 187.476 102.55 187.317 102.55V102.555ZM198.458 88.3537C198.362 88.3537 198.271 88.3587 198.18 88.3688C196.746 88.5333 195.466 89.6187 194.628 90.4207C192.005 92.9254 190.008 96.1182 188.877 99.5768C192.618 97.444 195.522 95.3238 198.342 93.2669C199.486 92.4295 200.973 91.1797 200.76 89.902C200.604 88.9609 199.475 88.3537 198.458 88.3537Z" fill="#531139"/>
<path d="M198.483 73.1003C198.319 73.1003 198.155 73.0598 198.004 72.9763C197.645 72.7765 197.446 72.3767 197.501 71.9694C197.961 68.7133 198.519 65.2598 199.806 62.0088C200.819 59.4585 202.747 55.957 206.199 53.7382C207.751 52.7414 209.183 52.41 210.458 52.7464C211.445 53.0096 212.286 53.6927 212.826 54.6693C213.492 55.8761 213.649 57.4522 213.237 58.7881C212.568 60.9614 210.831 62.53 209.435 63.7924C206.496 66.4489 203.462 69.194 199.122 72.8675C198.94 73.0219 198.713 73.1028 198.483 73.1028V73.1003ZM209.46 54.6035C208.837 54.6035 208.105 54.8716 207.269 55.408C204.262 57.3409 202.553 60.4629 201.649 62.7399C200.773 64.9512 200.253 67.3041 199.862 69.6291C203.144 66.8057 205.661 64.5312 208.107 62.32C209.387 61.1612 210.839 59.8507 211.346 58.2011C211.601 57.3763 211.5 56.3694 211.094 55.6307C210.899 55.2764 210.541 54.8236 209.95 54.6667C209.796 54.6262 209.632 54.6035 209.46 54.6035Z" fill="#531139"/>
<path d="M215.1 39.9927C215.037 39.9927 214.977 39.9876 214.914 39.975C214.517 39.8991 214.204 39.5854 214.128 39.1881C214.025 38.6493 213.934 38.0496 213.838 37.4197C213.661 36.2407 213.459 34.9048 213.116 33.7385C212.927 33.0984 212.697 32.471 212.467 31.841C212.03 30.6494 211.578 29.4147 211.384 28.089C211.081 26.0397 211.503 23.3478 213.603 21.9462C215.54 20.6534 218.418 21.0708 220.157 22.9025C221.609 24.4332 222.243 26.7785 221.856 29.1744C221.566 30.9631 220.763 32.767 219.329 34.8467C218.849 35.5424 218.337 36.2179 217.827 36.8934C217.181 37.7486 216.514 38.6315 215.936 39.5322C215.752 39.8206 215.436 39.9876 215.103 39.9876L215.1 39.9927ZM216.183 23.1783C215.646 23.1783 215.126 23.3149 214.699 23.5983C213.368 24.4863 213.136 26.4167 213.341 27.8006C213.507 28.9239 213.904 30.0093 214.325 31.1604C214.563 31.8132 214.81 32.4862 215.015 33.1769C215.328 34.2395 215.527 35.378 215.691 36.438C215.875 36.1901 216.06 35.9447 216.244 35.7043C216.736 35.0516 217.231 34.3989 217.693 33.7259C218.953 31.8967 219.655 30.3509 219.895 28.8632C220.185 27.0745 219.746 25.3592 218.718 24.2738C218.044 23.5654 217.085 23.1808 216.181 23.1808L216.183 23.1783Z" fill="#531139"/>
<path d="M228.931 52.4731C227.63 52.4731 226.33 52.3719 225.043 52.1645C224.608 52.0936 224.27 51.7445 224.217 51.3068C224.164 50.8691 224.404 50.4466 224.81 50.2745C229.15 48.4099 230.632 46.4593 232.197 44.3948C233.735 42.3658 235.479 40.0685 237.918 38.5556C240.7 36.8301 244.023 36.6075 246.388 37.9889C247.997 38.93 248.921 40.5315 248.741 42.0748C248.592 43.355 247.762 44.3341 246.964 45.1235C242.23 49.8191 235.578 52.4782 228.928 52.4782L228.931 52.4731ZM228.711 50.4896C228.789 50.4896 228.865 50.4896 228.943 50.4896C235.075 50.4896 241.208 48.0406 245.573 43.7092C246.126 43.1627 246.699 42.5125 246.777 41.8421C246.876 40.9844 246.131 40.1292 245.394 39.7017C243.657 38.6871 241.132 38.8971 238.963 40.2431C236.838 41.5612 235.212 43.7041 233.778 45.594C232.543 47.2208 231.278 48.8881 228.713 50.4896H228.711Z" fill="#531139"/>
<path d="M227.706 137.324C232.748 138.458 239.206 140.702 238.401 146.111C236.782 156.987 192.508 159.3 179.372 147.444C176.11 144.502 177.973 137.213 193.394 135.809C205.358 136.204 217.552 135.037 227.706 137.324Z" fill="#00BAE7"/>
<path d="M211.036 125.641C207.469 123.048 205.467 118.44 206.004 114.056C206.12 113.112 206.353 112.161 206.888 111.377C207.421 110.592 208.299 109.998 209.246 109.995C210.45 109.995 211.49 110.941 211.973 112.047C212.455 113.153 212.495 114.392 212.525 115.597C212.748 114.448 213.083 113.272 213.863 112.404C214.646 111.536 215.984 111.076 217.019 111.617C217.913 112.085 218.347 113.173 218.307 114.182C218.269 115.192 217.84 116.141 217.378 117.039C215.828 120.055 213.81 122.83 211.033 125.638L211.036 125.641Z" fill="#F58359"/>
<path d="M217.065 119.425C225.376 125.375 229.297 136.836 226.373 146.645C215.116 148.881 203.262 148.021 192.444 144.181C191.765 138.367 192.47 133.028 194.78 128.492C197.092 123.956 200.993 120.254 205.966 118.253C206.951 121.203 208.728 123.885 211.061 125.939C213.169 124.146 214.909 121.919 217.065 119.425Z" fill="#708BA4"/>
<path d="M208.367 113.934C206.724 113.94 206.726 116.447 208.367 116.457C210.011 116.452 210.008 113.945 208.367 113.934Z" fill="#FECA8B"/>
<path d="M189.68 144.687C189.42 144.337 188.839 143.563 188.728 143.401C188.562 143.219 188.339 142.766 188.408 142.938C188.38 142.875 188.357 142.807 188.327 142.746C188.319 142.728 188.317 142.708 188.309 142.688C188.466 142.096 188.688 141.481 188.324 140.922C187.718 139.799 185.901 140.036 185.6 141.279C185.022 142.65 185.411 144.062 186.398 145.129C187.047 145.886 187.67 146.769 188.562 147.242C189.38 147.659 190.425 146.931 190.397 146.03C190.405 145.471 190.013 145.086 189.68 144.687Z" fill="#D2DDE4"/>
<path d="M195.999 147.573C194.356 147.578 194.358 150.086 195.999 150.096C197.643 150.091 197.64 147.583 195.999 147.573Z" fill="#D2DDE4"/>
<path d="M232.159 143.943C231.306 145.324 228.506 147.46 230.37 149.008C231.475 149.916 232.614 148.909 233.318 148.016C233.874 147.305 234.611 146.678 235.012 145.871C235.823 144.155 233.46 142.584 232.159 143.943Z" fill="#D2DDE4"/>
<path d="M222.664 130.589C222.233 129.4 222.197 127.695 221.086 126.941C219.794 126.127 218.047 127.473 218.499 128.935C218.832 129.947 219.16 130.964 219.556 131.953C219.67 132.368 219.95 132.732 220.321 132.95C221.899 133.803 223.316 132.145 222.662 130.589H222.664Z" fill="#AFC1D6"/>
<path d="M222.922 137.34C221.278 137.345 221.281 139.852 222.922 139.862C224.565 139.857 224.563 137.35 222.922 137.34Z" fill="#AFC1D6"/>
<path d="M210.985 126.584C210.821 126.584 210.655 126.544 210.506 126.461C206.534 124.267 204.325 119.161 205.128 114.048C205.262 113.206 205.53 111.969 206.33 110.964C207.214 109.854 208.582 109.317 209.809 109.603C211.536 110 212.581 111.726 212.758 114.461C213 118.258 212.73 122.071 211.952 125.793C211.889 126.101 211.682 126.359 211.397 126.493C211.266 126.554 211.124 126.584 210.983 126.584H210.985ZM209.147 111.513C208.713 111.513 208.218 111.776 207.878 112.204C207.491 112.687 207.241 113.373 207.085 114.357C206.494 118.111 207.792 121.838 210.294 123.92C210.819 120.841 210.983 117.709 210.781 114.587C210.741 113.937 210.516 111.802 209.365 111.536C209.294 111.518 209.221 111.511 209.145 111.511L209.147 111.513Z" fill="#531139"/>
<path d="M211.018 126.676C210.834 126.676 210.65 126.625 210.488 126.521C210.142 126.299 209.965 125.886 210.049 125.481C210.864 121.53 211.298 118.701 211.717 115.966C211.907 114.742 212.139 113.224 213.098 112.034C213.717 111.265 214.664 110.747 215.628 110.648C216.421 110.565 217.173 110.78 217.746 111.25C218.473 111.847 219.226 113.074 218.675 115.531C217.711 119.839 215.136 123.829 211.611 126.478C211.437 126.61 211.228 126.678 211.018 126.678V126.676ZM215.966 112.614C215.924 112.614 215.878 112.614 215.833 112.621C215.393 112.667 214.926 112.925 214.639 113.282C214.015 114.056 213.833 115.23 213.674 116.265C213.361 118.309 213.038 120.399 212.561 122.967C214.611 120.773 216.09 118.015 216.742 115.096C216.89 114.433 217.055 113.249 216.489 112.786C216.353 112.675 216.176 112.616 215.964 112.616L215.966 112.614Z" fill="#531139"/>
<path d="M213.889 148.864C206.499 148.864 199.132 147.606 192.114 145.117C191.758 144.99 191.505 144.674 191.46 144.297C190.735 138.104 191.556 132.634 193.899 128.042C196.327 123.275 200.357 119.455 205.239 117.284C205.742 117.059 206.325 117.289 206.544 117.79C206.767 118.291 206.539 118.878 206.04 119.098C201.568 121.084 197.882 124.581 195.658 128.945C193.575 133.031 192.8 137.911 193.356 143.452C203.709 147.012 214.825 147.819 225.583 145.787C228.075 136.497 224.308 125.836 216.484 120.232C216.04 119.913 215.936 119.293 216.254 118.848C216.572 118.402 217.193 118.299 217.635 118.618C226.287 124.811 230.359 136.72 227.317 146.928C227.214 147.28 226.921 147.546 226.56 147.616C222.371 148.449 218.123 148.864 213.884 148.864H213.889Z" fill="#531139"/>
<path d="M203.904 138.05C203.775 138.05 203.649 138.025 203.523 137.975C202.149 137.4 201.286 135.854 201.515 134.382C201.745 132.91 203.035 131.7 204.515 131.569C205.078 131.515 205.54 131.925 205.588 132.469C205.636 133.016 205.232 133.496 204.689 133.545C204.106 133.595 203.56 134.109 203.472 134.686C203.381 135.265 203.747 135.918 204.285 136.143C204.79 136.353 205.03 136.935 204.818 137.441C204.659 137.823 204.29 138.05 203.904 138.05Z" fill="#531139"/>
<path d="M143.388 108.088C152.56 110.456 170.801 118.633 164.85 133.841C159.632 147.179 125.354 156.274 109.376 157.898C79.7342 160.912 43.0915 161.4 16.2066 148.532C-8.1714 136.864 -4.38948 112.515 27.8553 104.857C64.45 105.801 102.365 97.4997 143.388 108.088Z" fill="#00BAE6"/>
<path d="M56.5251 11.9579C56.5226 12.1451 56.5201 12.3298 56.5175 12.517C55.6894 10.0427 56.1843 7.16607 57.79 5.11171C59.3956 3.05735 62.0616 1.88595 64.657 2.09594C63.4982 3.52539 62.9251 5.42036 63.0993 7.25208C63.2735 9.08633 64.1899 10.8371 65.5987 12.0237C66.2425 7.86181 69.984 4.53234 74.0158 4.48679C72.1148 5.7012 71.9482 8.87635 73.7154 10.283C84.0488 12.4234 93.5465 17.4531 100.893 24.7015C108.02 31.0973 111.805 40.6025 111.56 50.0698C111.317 59.5371 107.051 68.8348 100.04 75.1826C112.807 81.3052 125.774 84.536 138.68 84.2552C140.947 83.9743 143.741 83.9212 145.393 85.7099C147.195 87.6605 146.688 90.7345 146.067 93.3202C144.936 98.0209 143.805 102.722 142.674 107.422C136.082 122.711 120.8 132.819 104.87 136.674C88.939 140.53 72.2561 139.068 55.9747 137.203C42.6194 134.412 31.4453 124.376 28.6026 111.961C25.7623 99.5465 31.4529 85.634 42.3038 78.383C32.7884 74.7398 25.6033 65.8444 23.5103 55.8534C21.4174 45.8624 24.2829 35.0618 30.6349 27.0822C36.9869 19.1026 46.6209 13.9616 56.5276 11.9604L56.5251 11.9579Z" fill="#FFD26F"/>
<path d="M67.1083 47.6384C60.6856 51.0843 54.2629 54.5301 47.8377 57.9785C47.2141 58.3125 46.5628 58.6743 46.1916 59.2789C45.361 60.6274 46.3305 62.3605 47.401 63.5268C51.3495 67.8228 57.0527 70.2136 62.8265 71.0131C68.6004 71.8126 74.4778 71.1421 80.2087 70.0694C83.8543 69.3888 87.6841 68.4274 90.2694 65.7633C91.4408 64.554 92.3017 62.6767 91.466 61.2144C91.0747 60.5313 90.3881 60.0835 89.7266 59.661C85.0939 56.7034 80.4637 53.7484 75.8309 50.7908C72.9705 48.9641 69.1255 46.5606 67.1133 47.6384H67.1083Z" fill="#F58359"/>
<path d="M23.3716 59.1398C26.4113 56.2101 31.0516 55.069 35.0986 56.2556C39.1456 57.4422 42.4402 60.9108 43.4248 65.017C44.4094 69.1257 43.0461 73.7151 40.0544 76.569C32.2508 73.6038 26.0401 66.7298 23.3716 59.1398Z" fill="#F58359"/>
<path d="M111.191 53.1918C105.796 51.6637 99.5172 54.2873 96.8032 59.2031C94.0892 64.1189 95.2076 70.8436 99.3657 74.6108C106.387 70.1124 110.934 61.9709 111.191 53.1892V53.1918Z" fill="#F58359"/>
<path d="M44.5683 40.1192C42.4956 39.5449 40.0896 40.9111 39.5165 42.9882C38.9434 45.0653 40.3067 47.4764 42.3794 48.0507C44.4522 48.6251 46.8582 47.2589 47.4313 45.1817C48.0043 43.1046 46.641 40.6935 44.5683 40.1192Z" fill="#531139"/>
<path d="M94.9932 42.1635C93.7208 41.7815 92.2792 42.0699 91.2138 42.8643C90.1484 43.6587 89.4668 44.9338 89.338 46.2596C89.2547 47.1046 89.3936 47.9901 89.8505 48.7061C90.4261 49.6068 91.4688 50.1558 92.5317 50.2418C93.5945 50.3278 94.6675 49.9812 95.5587 49.3942C96.6443 48.6808 97.5103 47.5499 97.6618 46.257C97.8132 44.9642 97.4244 42.8947 94.9932 42.166V42.1635Z" fill="#531139"/>
<path d="M92.3372 103.46C95.9726 112.609 103.754 120.007 113.059 123.167C115.173 123.885 117.697 124.33 119.485 122.992C121.83 121.231 121.444 117.661 120.818 114.792C121.378 116.862 119.452 118.954 117.344 119.326C115.236 119.7 113.117 118.845 111.201 117.886C104.339 114.453 98.3635 109.502 92.3372 103.46Z" fill="#D1A037"/>
<path d="M45.4521 59.7874C44.6139 65.0144 47.9768 70.2338 52.4883 72.9865C56.9998 75.7391 62.4405 76.4677 67.717 76.7081C72.4305 76.9231 77.2778 76.7789 81.6707 75.056C86.0661 73.3331 89.9717 69.7734 91.0345 65.1637C83.8898 70.0845 74.9021 71.8252 66.2476 71.2989C61.9507 71.0384 57.6335 70.2313 53.7405 68.3869C49.8475 66.5425 46.3888 63.5976 45.4496 59.7849L45.4521 59.7874Z" fill="#D1A037"/>
<path d="M100.883 74.1908C98.9644 76.1237 96.6266 77.6367 94.0818 78.5981C97.8536 79.9086 102.113 79.7593 105.783 78.1831C104.016 76.9865 102.249 75.7898 100.883 74.1908Z" fill="#D1A037"/>
<path d="M61.8446 50.6669C58.7973 53.1235 55.2047 54.8995 51.4051 55.8255C49.9509 56.1797 48.3655 56.4656 47.3379 57.5535C46.3079 58.6414 46.1034 60.334 46.5351 61.7685C46.9643 63.203 47.9388 64.4149 49.0244 65.4471C52.2332 68.4983 56.6261 70.2617 61.0493 70.2794C58.7619 68.893 56.255 67.1979 55.7854 64.5616C55.5026 62.9804 56.0379 61.3713 56.6715 59.8938C58.1586 56.4201 60.2313 53.1994 61.8471 50.6694L61.8446 50.6669Z" fill="#D1704B"/>
<path d="M51.486 79.0964C44.2984 82.8383 38.3326 88.8951 34.6921 96.1486C31.0541 103.402 29.7589 111.812 31.0465 119.827C27.5095 113.995 27.0146 106.663 28.5925 100.027C30.1704 93.3884 33.6519 87.3543 37.6409 81.8238C38.9865 79.9566 40.5997 78.006 42.8593 77.5809C44.6013 77.2546 46.3534 77.9174 48.0878 78.2767C49.8223 78.6385 52.0591 78.7953 51.4835 79.0964H51.486Z" fill="#D1A037"/>
<path d="M81.3246 58.8159C80.9535 57.6749 79.6129 57.3763 78.7041 56.7691C78.4844 56.6604 77.9997 56.3163 77.881 56.2378C77.8608 56.2201 77.8381 56.2049 77.8179 56.1898C76.7222 55.4181 75.8966 53.7787 74.4954 53.6876C73.0261 53.637 72.2131 55.6003 73.2886 56.6098C73.7608 57.012 75.2453 58.6464 75.268 58.4389C76.2677 59.5471 77.2195 60.0151 79.3201 60.8298C80.489 61.1916 81.6856 59.9898 81.3271 58.8184L81.3246 58.8159Z" fill="#FECA8B"/>
<path d="M85.859 60.2176C84.2079 58.4592 81.615 60.8602 83.256 62.6236C84.9072 64.382 87.5 61.981 85.859 60.2176Z" fill="#FECA8B"/>
<path d="M105.473 58.1177C105.415 57.2525 104.587 56.5972 103.746 56.5896C102.9 56.5871 102.274 57.255 101.628 57.718C101.317 57.9432 101.088 58.2518 100.858 58.5554C100.926 58.4568 101.237 58.0722 101.057 58.2948C100.732 58.6212 100.54 59.0791 100.542 59.5421C100.489 61.0626 102.511 61.9001 103.549 60.7894C103.59 60.7363 103.63 60.6832 103.673 60.63C103.663 60.6452 103.678 60.63 103.754 60.5415C103.829 60.463 103.898 60.3998 103.951 60.3517C104.11 60.2328 104.269 60.1139 104.435 60.0051C105.109 59.6509 105.65 58.9046 105.475 58.1152L105.473 58.1177Z" fill="#FECA8B"/>
<path d="M32.9929 59.1625C34.1441 59.6255 32.3869 58.9247 32.6419 59.0487C32.5738 59.0284 32.5056 59.0082 32.4248 58.9879C31.5159 58.7653 30.3925 58.4895 29.6654 59.2612C28.5571 60.2985 29.3952 62.325 30.91 62.2744C30.9176 62.2744 30.9226 62.2744 30.9302 62.2744C31.1322 62.3124 31.3316 62.3528 31.5311 62.4034C31.5866 62.4161 31.6447 62.4288 31.7002 62.4414C31.6952 62.4465 31.7507 62.4667 31.9174 62.5122C32.7757 62.9828 33.927 62.8361 34.4319 61.9253C35.1312 60.7311 34.2148 59.4535 32.9929 59.1625Z" fill="#FECA8B"/>
<path d="M39.0899 62.9095C37.4463 62.9146 37.4488 65.4218 39.0899 65.432C40.7334 65.4269 40.7309 62.9197 39.0899 62.9095Z" fill="#FECA8B"/>
<path d="M94.8794 129.56C94.5891 128.715 93.6323 128.507 92.837 128.593C91.6832 128.621 90.532 128.705 89.3807 128.771C87.1388 128.917 84.8919 129.031 82.6425 128.97C80.0446 128.571 79.5473 132.318 82.1754 132.495C85.6847 132.596 89.1964 132.358 92.6729 131.885C93.049 131.839 93.4833 131.763 93.8544 131.695C94.738 131.475 95.2859 130.387 94.8769 129.56H94.8794Z" fill="#FFE0A3"/>
<path d="M101.709 126.688C98.9694 126.967 99.3127 130.731 102.027 130.263C104.758 129.924 104.415 126.243 101.709 126.688Z" fill="#FFE0A3"/>
<path d="M83.266 15.9527C81.6098 15.1684 79.8804 14.5511 78.1384 13.9919C77.8506 13.9135 76.9115 13.5998 76.7474 13.5618C76.3763 13.3974 75.9546 13.3544 75.5633 13.4631C74.099 13.8173 73.8163 15.9704 75.1417 16.6914C77.2725 17.5162 79.5119 18.0779 81.7311 18.6168C83.521 19.3682 84.9323 17.0558 83.2635 15.9552L83.266 15.9527Z" fill="#FFE0A3"/>
<path d="M89.9489 18.9406C88.3407 17.1722 85.7378 19.6263 87.3839 21.3517C89.0022 23.1101 91.5899 20.6686 89.9489 18.9406Z" fill="#FFE0A3"/>
<path d="M29.7716 133.211C24.9874 127.779 22.0209 122.023 24.6163 116.376C24.9849 115.685 25.0732 115.847 25.4065 115.291C25.5075 115.255 26.2245 114.377 26.3936 114.038C26.9743 112.859 25.2853 111.728 24.3941 112.69C24.1164 113.021 23.8387 113.35 23.561 113.682C23.566 113.679 23.5711 113.677 23.5761 113.674C23.5635 113.687 23.5509 113.694 23.5383 113.704C21.2863 116.169 21.155 118.987 21.1045 121.497C21.4807 127.665 24.8839 131.333 28.893 135.741C29.5671 136.464 30.8799 135.92 30.8496 134.929C30.8244 134.205 30.1503 133.767 29.7691 133.211H29.7716Z" fill="#D2DDE4"/>
<path d="M140.422 120.065C139.328 120.535 138.985 122.129 138.316 123.065C136.488 126.478 134.557 128.406 131.512 131.212C131.032 131.703 130.247 132.085 130.26 132.864C130.227 133.886 131.588 134.455 132.287 133.706C135.625 130.802 138.836 127.642 140.881 123.662C141.239 122.921 141.744 122.205 141.936 121.403C142.111 120.576 141.209 119.819 140.419 120.065H140.422Z" fill="#D2DDE4"/>
<path d="M145.027 132.224C144.173 132.598 143.565 133.408 142.838 133.982C137.677 138.956 132.103 142.23 125.324 144.487C121.512 145.83 117.382 146.245 113.6 147.556C112.486 148.322 113.418 150.2 114.711 149.792C118.551 148.826 122.471 148.16 126.243 146.933C130.666 145.481 134.905 143.472 138.788 140.894C140.916 139.389 142.987 137.785 144.842 135.948C145.468 135.171 146.551 134.524 146.655 133.469C146.673 132.639 145.817 131.996 145.024 132.224H145.027Z" fill="#D2DDE4"/>
<path d="M154.701 118.519C154.029 117.277 152.017 117.54 151.687 118.914C151.525 119.784 150.985 120.634 151.078 121.527C151.144 122.643 152.553 123.293 153.479 122.709C154.221 122.263 154.337 121.345 154.64 120.601C154.852 119.931 155.112 119.167 154.701 118.519Z" fill="#D2DDE4"/>
<path d="M145.446 112.945C143.802 112.95 143.805 115.458 145.446 115.468C147.089 115.463 147.087 112.955 145.446 112.945Z" fill="#D2DDE4"/>
<path d="M141.888 111.248C137.175 126.149 123.466 136.952 108.543 141.501C93.6197 146.05 77.5756 145.155 62.1677 142.723C53.7834 141.4 45.2071 139.525 38.2568 134.648C31.3039 129.77 26.3152 121.201 28.7692 113.806C32.3769 125.084 42.9804 133.006 54.2858 136.454C65.5936 139.902 77.6589 139.581 89.4667 139.103C96.1797 138.83 102.963 137.909 109.429 136.072C114.504 134.63 119.298 132.869 123.678 129.927C131.689 124.548 138.344 117.178 141.888 111.248Z" fill="#0099B8"/>
<path d="M69.0978 148.985C68.6737 148.57 68.0223 148.626 67.482 148.477C61.6299 147.452 55.7854 146.316 50.1731 144.317C46.8229 143.29 45.0985 142.349 42.127 141.218C40.8067 140.96 40.1301 142.933 41.3166 143.571C47.9161 146.551 54.8639 148.793 62.0137 149.979C63.8895 150.283 65.7628 150.602 67.6462 150.835C68.2445 150.964 68.9388 150.961 69.2745 150.356C69.5346 149.921 69.4513 149.344 69.0978 148.985Z" fill="#D2DDE4"/>
<path d="M80.7314 149.069C78.8581 148.494 77.9846 151.229 79.8528 151.819C81.7261 152.385 82.5971 149.661 80.7314 149.069Z" fill="#D2DDE4"/>
<path d="M21.8264 138.888C21.6623 138.291 21.0614 137.987 20.6827 137.534C18.3121 135.108 15.7218 130.964 15.8834 129.588C15.8102 128.687 15.891 128.932 15.9288 128.034C16.0172 127.212 16.4211 126.332 16.0248 125.565C15.482 124.561 13.8511 124.771 13.5835 125.884C13.5355 126.466 13.2931 127.222 13.3739 127.321C13.3411 127.399 13.3133 127.48 13.3032 127.564C12.8412 130.18 13.1946 132.065 15.1638 135.098C16.4363 136.907 17.7441 138.761 19.5416 140.085C19.9582 140.33 19.6173 140.376 20.5716 140.535C21.4073 140.555 22.0536 139.687 21.8239 138.888H21.8264Z" fill="#D2DDE4"/>
<path d="M49.5496 79.9415C39.1759 79.9415 28.9132 73.2572 24.3461 63.1701C19.7538 53.0172 21.0843 39.9801 27.7392 29.9512C33.811 20.8002 43.7 14.3335 55.6694 11.6644C55.0862 9.08629 55.7072 6.25523 57.3659 4.18822C59.267 1.82267 62.443 0.575379 65.4296 1.01307C65.7907 1.0662 66.0936 1.3116 66.2173 1.65568C66.341 1.99976 66.2678 2.3818 66.0279 2.65504C64.3263 4.57278 64.0815 7.57336 65.2378 9.83771C66.7298 6.3539 70.3881 3.85425 74.2205 3.96051C74.7633 3.97822 75.1924 4.42604 75.1823 4.96999C75.1722 5.51141 74.7329 5.94404 74.1927 5.94404C74.1876 5.94404 74.1825 5.94404 74.1775 5.94404C74.079 5.94404 73.8215 5.95669 73.612 6.38932C73.3393 6.95098 73.3974 7.73021 73.7407 8.1679C74.531 9.16978 76.0482 9.50122 77.5125 9.82506L77.6413 9.85289C88.2297 12.1881 97.5633 17.7667 103.923 25.5667C110.712 33.8904 113.895 44.8428 112.441 54.8641C110.878 65.6267 104.092 75.0333 94.7256 79.4102C94.2308 79.6404 93.64 79.4279 93.4103 78.9295C93.178 78.4336 93.3926 77.8416 93.8899 77.6113C102.524 73.5734 109.04 64.5338 110.484 54.5782C111.86 45.0983 108.833 34.7228 102.39 26.8216C96.3136 19.3682 87.3713 14.0299 77.2172 11.7909L77.0909 11.763C75.3691 11.3861 73.4176 10.956 72.1906 9.40001C71.5544 8.59547 71.3247 7.45444 71.5393 6.39943C69.0676 7.33047 67.0277 9.5847 66.601 12.1881C66.5405 12.5549 66.283 12.856 65.932 12.9699C65.5811 13.0862 65.1948 12.9926 64.9298 12.732C62.4177 10.2526 61.9002 6.07812 63.4629 2.95357C61.7058 3.15597 60.0294 4.04653 58.916 5.43297C57.4467 7.26216 57.0327 9.86553 57.8582 12.0616C57.9617 12.3348 57.939 12.6359 57.7976 12.8914C57.6563 13.147 57.4114 13.3266 57.1286 13.3848C45.2022 15.7984 35.3535 22.0728 29.3979 31.0518C23.1115 40.5241 21.8417 52.8098 26.1588 62.3529C30.7435 72.4856 41.9984 79.1217 52.3419 77.7809C52.8897 77.7151 53.382 78.0971 53.4502 78.6385C53.5209 79.1825 53.1371 79.6784 52.5943 79.7492C51.5845 79.8782 50.5696 79.944 49.5572 79.944L49.5496 79.9415Z" fill="#531139"/>
<path d="M78.737 140.345C66.8611 140.345 52.9226 138.665 42.2383 132.406C32.7153 126.827 27.3908 118.792 26.8354 109.168C26.0881 96.1967 34.0533 82.894 41.9277 76.9637C42.3645 76.6373 42.9855 76.7233 43.3137 77.161C43.6419 77.5987 43.5536 78.2211 43.1168 78.55C35.5505 84.2475 28.1305 97.2163 28.8122 109.052C29.3348 118.107 34.1872 125.388 43.238 130.691C62.1678 141.782 91.9409 138.007 100.618 136.583C137.978 130.461 144.469 102.722 145.526 91.0785C145.668 89.5124 145.698 87.8983 144.963 86.7244C143.514 84.4044 140.033 84.584 136.289 84.9989C125.37 86.2133 110.709 82.3272 100.628 75.557C100.174 75.2508 100.053 74.6361 100.356 74.1807C100.661 73.7253 101.277 73.6038 101.729 73.9074C111.454 80.4424 125.582 84.1969 136.067 83.0255C139.389 82.6612 144.408 82.1021 146.637 85.6719C147.682 87.3442 147.667 89.3455 147.493 91.2582C146.395 103.362 139.657 132.194 100.931 138.541C96.9346 139.197 88.5352 140.34 78.732 140.34L78.737 140.345Z" fill="#531139"/>
<path d="M117.119 121.026C116.478 121.026 115.854 120.943 115.299 120.844C110.785 120.05 106.243 117.859 101.797 114.332C97.8939 111.235 94.5285 107.513 91.2717 103.911C90.9031 103.503 90.936 102.876 91.3399 102.509C91.7439 102.142 92.3725 102.173 92.7386 102.577C95.9398 106.119 99.2496 109.78 103.024 112.776C107.207 116.095 111.454 118.152 115.64 118.888C116.639 119.065 117.902 119.194 118.778 118.635C120.242 117.699 120.126 115.238 119.772 113.34C118.735 107.774 116.975 102.36 114.541 97.2492C114.307 96.7558 114.516 96.1613 115.008 95.926C115.501 95.6882 116.092 95.8982 116.329 96.394C118.836 101.662 120.651 107.24 121.721 112.976C122.398 116.611 121.769 119.078 119.846 120.308C118.99 120.854 118.036 121.026 117.119 121.026Z" fill="#531139"/>
<path d="M68.8428 72.3287C62.1424 72.3287 55.1668 71.0004 49.7842 67.4458C45.9342 64.9006 43.9801 61.5509 44.8107 58.9096C45.5353 56.6098 48.1735 56.0203 49.5924 55.7041C49.7565 55.6661 49.9054 55.6332 50.0266 55.6029C53.6949 54.6592 56.2322 52.8755 58.6861 51.1526C61.7637 48.9894 64.6897 46.9452 69.1407 47.1856C73.1675 47.4006 75.3311 49.2222 77.833 51.3297C79.9411 53.1032 82.3294 55.1146 86.5102 56.9564L86.7198 57.0475C89.9059 58.4516 92.9178 59.7774 92.8294 62.5047C92.7183 66.0619 89.2747 67.9518 86.6945 69.065C82.4178 70.9094 75.7755 72.3312 68.8403 72.3312L68.8428 72.3287ZM68.4515 49.1488C64.9851 49.1488 62.5842 50.8363 59.8247 52.7768C57.3481 54.5175 54.5407 56.4909 50.5214 57.5257C50.3826 57.5611 50.2134 57.599 50.0241 57.642C48.9233 57.8875 47.0803 58.2998 46.6991 59.5092C46.2422 60.9589 47.5297 63.5825 50.8724 65.7912C61.587 72.8701 78.9817 70.2313 85.9119 67.2434C89.2242 65.8139 90.7946 64.2909 90.8526 62.444C90.8955 61.0575 88.3684 59.9443 85.9245 58.8666L85.7149 58.7729C81.2741 56.8147 78.6611 54.6162 76.5606 52.8477C74.1445 50.8136 72.4 49.3462 69.0372 49.1665C68.8377 49.1564 68.6433 49.1488 68.4515 49.1488Z" fill="#531139"/>
<path d="M43.3187 49.1539C42.5841 49.1539 41.8469 48.9895 41.1778 48.6403C38.9839 47.4942 37.9968 44.6202 39.0218 42.3659C40.0468 40.1092 42.8592 38.9681 45.1592 39.8764C46.4922 40.4026 47.4743 41.4121 47.9237 42.7201C48.3857 44.061 48.2392 45.6296 47.5424 46.8137C46.6689 48.2988 44.9926 49.1539 43.3162 49.1539H43.3187ZM43.5055 41.5513C42.4073 41.5513 41.2738 42.1939 40.8244 43.1857C40.2412 44.4684 40.8471 46.2267 42.0918 46.8794C43.3414 47.5297 45.1238 47.0161 45.8383 45.8042C46.2423 45.1186 46.3256 44.1597 46.0529 43.3653C45.8712 42.834 45.442 42.118 44.4372 41.7208C44.1418 41.6044 43.8262 41.5513 43.5081 41.5513H43.5055Z" fill="#531139"/>
<path d="M93.6449 51.0437C92.9102 51.0437 92.173 50.8793 91.504 50.5301C89.3101 49.3841 88.3229 46.5125 89.3479 44.2557C90.373 41.999 93.1829 40.8605 95.4879 41.7662C96.8209 42.2899 97.8005 43.2994 98.2524 44.6074C98.7144 45.9509 98.5679 47.5195 97.8711 48.701C96.9976 50.1861 95.3213 51.0412 93.6449 51.0412V51.0437ZM93.8317 43.4436C92.736 43.4436 91.5999 44.0862 91.1505 45.078C90.5673 46.3607 91.1732 48.1191 92.4179 48.7718C93.6651 49.422 95.45 48.9084 96.1645 47.6965C96.5684 47.0109 96.6517 46.0521 96.379 45.2576C96.1973 44.7263 95.7681 44.0103 94.7633 43.6157C94.4679 43.4993 94.1523 43.4461 93.8342 43.4461L93.8317 43.4436Z" fill="#531139"/>
<path d="M38.0902 32.3269C37.9792 32.3269 37.8656 32.3092 37.7545 32.2687C37.2394 32.0815 36.9718 31.5148 37.1561 30.9986C37.6712 29.5641 38.7567 28.375 40.1352 27.735C41.5162 27.0949 43.1218 27.0341 44.5457 27.5705C45.0582 27.7628 45.3158 28.3371 45.1239 28.8481C44.9295 29.3617 44.3589 29.6173 43.849 29.4275C42.9325 29.0809 41.857 29.1239 40.9658 29.5363C40.0771 29.9487 39.3501 30.7457 39.0193 31.6691C38.8754 32.0739 38.4942 32.3269 38.0877 32.3269H38.0902Z" fill="#531139"/>
<path d="M98.2903 35.2389C97.8737 35.2389 97.4849 34.9733 97.3486 34.5533C96.8235 32.9442 94.9679 31.826 93.3117 32.1144C92.7664 32.208 92.2614 31.8437 92.168 31.3048C92.0746 30.7634 92.4356 30.2523 92.9759 30.1587C95.6015 29.7033 98.4089 31.4009 99.2345 33.9385C99.4037 34.4597 99.1184 35.0188 98.5983 35.1884C98.4973 35.2212 98.3938 35.2364 98.2928 35.2364L98.2903 35.2389Z" fill="#531139"/>
</svg>