<svg xmlns="http://www.w3.org/2000/svg" width="80" height="89" viewBox="0 0 40 49" fill="none">
<path d="M10.8941 14.2241C10.8378 14.0005 10.791 13.7748 10.7523 13.5472C10.7035 13.1625 10.656 12.7758 10.6797 12.3884C10.7204 11.8698 10.7476 11.7515 10.8975 11.0902C11.0521 10.488 10.1623 10.2413 9.98458 10.8381C9.69973 11.9534 9.60207 13.1577 9.99204 14.2601C10.087 14.447 10.1284 14.691 10.2979 14.8249C10.5109 15.0098 10.8703 14.882 10.9388 14.6122C10.9788 14.481 10.9253 14.3512 10.8941 14.2241Z" fill="#FFE0A3"/>
<path d="M32.6833 19.7327C34.2676 17.8942 36.2154 16.3718 38.3803 15.2789C38.6434 15.1457 38.9554 15.0179 39.2219 15.1437C39.5746 15.3095 39.6126 15.79 39.5861 16.1795C39.3264 20.0188 37.7041 23.7515 35.0767 26.5578C35.8451 31.2331 33.8701 36.1871 30.1488 38.9812C25.5579 42.2272 19.4737 43.0251 14.282 41.1391C13.9062 41.6855 13.367 42.2149 12.7533 42.6336C10.0953 42.9136 5.925 41.2689 3.66723 38.8146C1.40945 36.3604 0.254451 32.9927 0.218506 29.655C1.57358 29.9404 2.88796 29.3009 4.0199 28.5695C5.15183 27.8382 6.24986 26.9771 7.56017 26.6672C5.91618 25.4289 4.40377 24.1409 3.00597 22.7395C2.63024 22.363 2.2545 21.9654 2.04901 21.4746C1.84351 20.9833 1.84012 20.3729 2.1738 19.9583C2.67229 19.3385 3.62246 19.4146 4.40241 19.5675C7.02032 20.0807 9.5921 20.8059 12.1598 21.5304C9.6328 19.6471 8.07562 16.4561 8.06816 13.2801C8.06002 10.1041 9.51818 7.00144 11.7916 4.78848C11.7075 4.45138 11.3378 4.13874 10.9295 3.92804C10.5206 3.71735 10.0716 3.59977 9.62398 3.4951C10.1157 3.01187 10.7817 2.71078 11.4694 2.66185C12.1571 2.61291 12.8591 2.81613 13.4342 3.19878C13.034 2.01754 11.9041 1.12108 10.665 1.00214C12.5566 -0.0778329 15.0768 0.0703313 16.8958 1.37527C20.8003 -0.272894 25.5152 0.172959 29.0738 2.72574C32.0118 4.06669 34.1095 6.9858 34.7098 10.1645C35.31 13.3433 34.4839 16.7157 32.6826 19.7334L32.6833 19.7327Z" fill="#FFD26F"/>
<path d="M27.4603 10.0011C26.936 9.9692 26.4504 10.3308 26.1845 10.7848C25.9187 11.2388 25.8325 11.773 25.764 12.2943C25.6955 12.8156 25.6359 13.3491 25.4154 13.8269C25.0784 14.5562 24.3561 15.0924 23.49 15.3758C24.6586 16.4286 25.8488 17.4957 27.2656 18.1767C28.6824 18.8577 30.3827 19.1132 31.8266 18.49C32.675 18.1244 33.4326 17.3903 33.5398 16.4708C33.6578 15.4554 32.8398 14.4243 31.4983 14.1518C32.0721 13.7671 32.6676 13.3607 33.0026 12.7558C33.3383 12.1509 33.3187 11.2877 32.7713 10.8663C32.1549 10.3913 31.2711 10.6862 30.4987 10.5952C29.9452 10.5299 29.44 10.2601 28.9103 10.0881C28.3799 9.91618 27.7573 9.85705 27.4609 10.0011H27.4603Z" fill="#F58359"/>
<path d="M20.4733 16.1975C19.1887 15.7836 17.6702 16.2349 16.8238 17.2883C15.9774 18.3418 15.8628 19.9295 16.5552 21.0903C17.247 22.2512 18.7011 22.9036 20.025 22.6406C21.3489 22.3776 22.4462 21.214 22.628 19.8744C22.8097 18.5341 22.2156 16.7589 20.474 16.1975H20.4733Z" fill="#F58359"/>
<path d="M33.9535 7.55298C33.0576 9.39892 33.5337 11.8151 35.0617 13.1812C35.2252 11.3155 34.8379 9.40503 33.9535 7.55298Z" fill="#F58359"/>
<path d="M10.4167 43.6875C10.669 44.3604 10.4893 45.1059 10.4357 45.823C10.3822 46.54 10.5327 47.3841 11.1662 47.7206C11.7684 48.0407 12.4995 47.7484 13.1154 47.4569C14.0513 47.0137 14.9872 46.5699 15.9225 46.1268C15.4633 46.1458 15.0015 45.9113 14.7458 45.5287C14.4901 45.146 14.4487 44.6288 14.6413 44.2102C13.4748 44.9754 11.8159 44.8864 10.4167 43.6875Z" fill="#F58359"/>
<path d="M24.1817 44.5373C23.3733 45.3474 22.8056 46.3948 22.5669 47.5149C23.6432 47.2131 24.8674 47.5169 25.6792 48.2856C26.3391 47.345 27.1774 46.53 28.1371 45.8993C26.8193 45.9727 25.4798 45.5588 24.1817 44.5366V44.5373Z" fill="#F58359"/>
<path d="M31.7906 13.9905C32.3169 13.5895 32.7598 13.079 33.0826 12.5013C32.4844 11.9216 31.6597 11.751 30.9686 11.9372C30.2782 12.1234 29.7031 12.6019 29.212 13.1232C28.721 13.6445 28.2883 14.2236 27.7505 14.6959C27.2127 15.1683 26.5372 15.536 25.6338 15.5822C26.4551 15.8024 27.2466 16.1314 28.0774 16.3122C28.9082 16.4929 29.8116 16.5133 30.5732 16.1341C31.3349 15.7548 31.9005 14.8978 31.7906 13.9905Z" fill="#8C5239"/>
<path d="M33.9502 23.4659C35.5894 24.0049 37.5644 23.1377 38.2806 21.5649C37.5006 23.4347 36.3117 25.1318 34.8224 26.5019C34.8373 25.5477 34.6467 24.5914 33.9509 23.4659H33.9502Z" fill="#D1A037"/>
<path d="M12.5551 21.4302C11.6856 21.5376 10.7931 21.4459 9.96362 21.1638C10.8033 22.3879 12.0708 23.3115 13.4917 23.7349C14.9126 24.1584 16.4779 24.0789 17.8485 23.5134C16.5525 23.4515 15.331 22.9221 14.1428 22.4008C13.845 22.2703 13.5405 22.135 13.3065 21.9087C13.0726 21.6824 12.9281 21.3847 12.5551 21.4302Z" fill="#D1A037"/>
<path d="M15.1791 39.708C18.6007 40.7479 22.3349 40.7268 25.7443 39.6496C29.1537 38.5717 32.2247 36.4423 34.4316 33.6238C32.6546 37.175 29.4826 40.001 25.7552 41.3535C22.0284 42.7067 17.7862 42.5714 14.1516 40.9844C14.4616 40.5311 14.7708 40.0771 15.1784 39.708H15.1791Z" fill="#D1A037"/>
<path d="M4.67708 28.4292C3.2786 29.2869 2.22873 30.6979 1.80552 32.2849C1.38299 33.8725 1.59188 35.6199 2.37726 37.0622C1.17003 34.854 0.46808 32.3698 0.340576 29.8551C1.74923 29.8279 3.14567 29.344 4.67708 28.4292Z" fill="#D1A037"/>
<path d="M19.2789 17.0972C19.0999 16.6568 18.5838 16.8132 18.2948 17.0483C18.0609 17.2529 17.6641 17.4004 17.6641 17.7592C17.6499 18.1677 18.1931 18.3927 18.4718 18.0943C18.7547 17.8829 18.5973 17.9754 18.9622 17.7463C19.2199 17.6559 19.4085 17.3603 19.2789 17.0966V17.0972Z" fill="#FECA8B"/>
<path d="M20.181 16.7883C19.7395 16.7897 19.7401 17.4632 20.181 17.4659C20.6225 17.4646 20.6218 16.791 20.181 16.7883Z" fill="#FECA8B"/>
<path d="M27.0681 10.7223C26.8789 10.9853 26.6361 11.2463 26.5663 11.5698C26.5052 11.8594 26.8199 12.1231 27.0966 12.0367C27.3516 11.9715 27.4018 11.6942 27.528 11.4985C27.6148 11.3211 27.8081 11.1885 27.8298 10.9853C27.9085 10.5497 27.2818 10.3376 27.0688 10.7216L27.0681 10.7223Z" fill="#FECA8B"/>
<path d="M32.9306 16.3316C32.738 15.9748 32.1608 16.0502 32.0652 16.4451C32.0536 16.4784 32.0421 16.5117 32.0306 16.545C31.9743 16.6687 31.8773 16.7802 31.8705 16.9188C31.781 17.4143 32.4938 17.6549 32.7359 17.2186C32.8824 16.9603 33.1001 16.6266 32.9306 16.3323V16.3316Z" fill="#FECA8B"/>
<path d="M11.2767 15.1808C10.9695 14.1715 10.7802 13.7698 10.8874 12.7673C10.9152 12.5505 10.9193 12.5158 11.0075 12.0788C11.0414 11.9572 11.0237 11.8226 10.96 11.7132C10.7674 11.357 10.1902 11.4318 10.0946 11.8267C9.86601 12.8203 9.8199 13.8826 10.1929 14.8477C10.3062 15.0965 10.3848 15.4628 10.5917 15.6402C10.8983 15.9066 11.3981 15.5668 11.2767 15.1808Z" fill="#FFE0A3"/>
<path d="M12.4302 17.1566C12.3353 16.4151 11.3464 16.5021 11.4638 17.2389C11.5635 17.9811 12.5462 17.892 12.4302 17.1566Z" fill="#FFE0A3"/>
<path d="M33.0046 26.5917C32.8289 26.1173 32.0877 26.2709 32.0985 26.7745C32.1921 27.5249 32.3088 28.2738 32.3359 29.0303C32.3454 29.3395 32.3379 29.6481 32.3332 29.9573C32.3216 30.0885 32.3562 30.2244 32.4525 30.3182C32.6648 30.5391 33.067 30.4344 33.1416 30.1361C33.4298 28.9732 33.1782 27.7505 33.0039 26.5924L33.0046 26.5917Z" fill="#FFE0A3"/>
<path d="M11.721 45.6773C11.6403 45.1981 10.9234 45.3545 11.0408 45.8241C11.1242 46.3019 11.8377 46.1469 11.721 45.6773Z" fill="#FECA8B"/>
<path d="M24.0523 45.6027C23.7491 46.0879 24.4586 46.5392 24.7624 46.0553C25.0683 45.5714 24.3555 45.1181 24.0523 45.6027Z" fill="#FECA8B"/>
<path d="M25.1243 14.473C26.3004 14.628 27.5293 14.335 28.5093 13.6663C28.0203 14.5084 27.216 15.1615 26.2929 15.4667C25.3699 15.7718 24.3356 15.727 23.4424 15.3423C24.1443 15.2845 24.8002 14.8291 25.1243 14.4737V14.473Z" fill="#D1704B"/>
<path d="M24.1682 15.4624C25.8949 15.8648 27.6217 16.2671 29.3477 16.6695C28.7455 16.9141 28.1385 17.1602 27.501 17.2873C26.8634 17.4137 26.1859 17.4144 25.5809 17.1765C24.8037 16.8706 24.2245 16.2087 24.1682 15.4624Z" fill="#D1704B"/>
<path d="M20.6963 42.4675C18.6448 42.4675 16.5538 42.11 14.5531 41.393C14.4147 41.3434 14.3428 41.1911 14.3923 41.0525C14.4419 40.9138 14.5945 40.8411 14.7321 40.8914C18.7512 42.3316 23.1433 42.2799 26.782 40.748C30.6593 39.1161 33.6862 35.7206 34.6811 31.8873C35.733 27.8339 34.4485 23.3298 31.4854 20.6785C31.4284 20.6275 31.3958 20.5548 31.3965 20.478C31.3965 20.4012 31.4304 20.3292 31.4874 20.2789C34.4804 17.667 35.592 12.6899 34.0734 8.70234C32.6112 4.86229 28.9916 1.8623 24.6259 0.872729C21.8215 0.237253 19.0625 0.500279 16.859 1.61355C16.7634 1.66181 16.6474 1.64821 16.566 1.57821C15.9054 1.01002 14.8379 0.603586 13.8477 0.543777C13.156 0.501638 12.4181 0.609023 11.6469 0.862534C12.7511 1.2343 13.6388 2.22456 13.8037 3.4024C13.8193 3.51386 13.763 3.62329 13.6639 3.67562C13.5642 3.72795 13.4428 3.71164 13.3601 3.63552C12.8433 3.15704 12.1156 2.89945 11.4123 2.94363C10.9613 2.97286 10.5157 3.12714 10.1352 3.37793C10.9796 3.45269 11.7873 3.95835 12.1732 4.725C12.2295 4.83715 12.2004 4.97376 12.1027 5.0526C8.92458 7.62101 7.59393 12.157 8.86626 16.0834C10.1298 19.9825 13.864 22.8962 17.9462 23.1694C18.0927 23.1796 18.2039 23.306 18.1937 23.4528C18.1842 23.5997 18.0533 23.7098 17.9109 23.7009C13.6171 23.4141 9.68961 20.3489 8.36031 16.2478C7.04525 12.1896 8.37387 7.51158 11.592 4.78345C11.1403 4.10856 10.2179 3.7463 9.43663 3.96583C9.32405 3.99777 9.20468 3.95224 9.14161 3.85369C9.07854 3.75582 9.086 3.62804 9.1606 3.53765C9.70385 2.88654 10.5326 2.46516 11.3777 2.4101C11.9562 2.37204 12.549 2.50662 13.0651 2.77916C12.6392 1.88949 11.689 1.23702 10.7008 1.23702C10.6839 1.23702 10.6676 1.23702 10.6506 1.23702C10.5191 1.23566 10.4139 1.15343 10.3855 1.03041C10.357 0.907391 10.4194 0.780976 10.534 0.728643C11.7107 0.188318 12.8358 -0.0522791 13.881 0.0102491C14.9146 0.0727772 16.0289 0.479889 16.7763 1.06031C19.0625 -0.0441234 21.8846 -0.295595 24.7446 0.352115C29.2812 1.38043 33.0473 4.50683 34.5719 8.51203C36.1542 12.6674 35.0941 17.6466 32.0585 20.4814C35.0114 23.2843 36.2715 27.8801 35.1972 32.0212C34.1616 36.0122 31.016 39.5443 26.9895 41.2394C25.0451 42.0577 22.8938 42.4675 20.697 42.4675H20.6963Z" fill="#531139"/>
<path d="M12.5877 43.0145C12.5836 43.0145 12.5796 43.0145 12.5755 43.0145C9.297 42.8643 6.08837 41.4411 3.77294 39.1092C1.35375 36.6733 0.049546 33.4511 3.6402e-05 29.7891C-0.00132003 29.7075 0.0353002 29.6301 0.0983742 29.5784C0.161448 29.5274 0.24487 29.5077 0.3249 29.5254C1.34629 29.7578 2.49315 29.4119 3.93164 28.4366C4.12968 28.302 4.32704 28.1627 4.52508 28.024C5.46373 27.3634 6.43425 26.6797 7.58586 26.4316C7.73032 26.3997 7.87139 26.4921 7.90191 26.6362C7.93311 26.7803 7.84155 26.9216 7.69777 26.9529C6.65196 27.1779 5.72688 27.8297 4.83163 28.4604C4.63156 28.6017 4.43149 28.7424 4.23006 28.8784C3.31379 29.4989 1.96279 30.2764 0.539892 30.1031C0.656545 33.4905 1.90107 36.4687 4.15003 38.7333C6.35084 40.949 9.39262 42.3103 12.507 42.4769C14.9336 40.6873 16.0018 37.4495 15.1073 34.5698C15.0632 34.4291 15.1418 34.2796 15.2822 34.2361C15.4219 34.1932 15.5712 34.2707 15.6152 34.4114C16.5871 37.5371 15.4057 41.0543 12.743 42.9649C12.6976 42.9968 12.6433 43.0145 12.5884 43.0145H12.5877Z" fill="#531139"/>
<path d="M9.84099 28.0702C9.80437 28.0702 9.76706 28.0627 9.73112 28.0464C7.16611 26.8801 4.78829 25.1783 2.85538 23.125C2.4098 22.652 1.91809 22.0872 1.71734 21.3702C1.52948 20.6987 1.6502 19.7642 2.36029 19.2979C2.99713 18.8806 3.79674 19.0356 4.49666 19.2136L12.5057 21.258C12.6481 21.2941 12.7343 21.4395 12.6976 21.5822C12.6617 21.725 12.5159 21.812 12.3741 21.7746L4.36441 19.7302C3.74791 19.5725 3.10768 19.444 2.65124 19.7438C2.18734 20.0483 2.08765 20.7198 2.22939 21.2254C2.39759 21.8255 2.84046 22.3312 3.24197 22.758C5.12808 24.7616 7.44757 26.422 9.95018 27.5605C10.0838 27.6209 10.1435 27.7793 10.0824 27.9132C10.0377 28.0118 9.94136 28.0695 9.84031 28.0695L9.84099 28.0702Z" fill="#531139"/>
<path d="M35.3295 26.483C35.265 26.483 35.2006 26.4599 35.1498 26.413C35.0412 26.3137 35.0345 26.1452 35.1335 26.0364C37.4659 23.4891 38.9945 20.1982 39.4367 16.7701C39.4964 16.3065 39.5222 15.4957 39.0237 15.266C38.5856 15.0655 38.0254 15.4665 37.6415 15.7859L31.9805 20.4932C31.8672 20.5877 31.6997 20.5714 31.6061 20.4585C31.5125 20.345 31.5281 20.1772 31.6407 20.0834L37.3017 15.3761C37.7961 14.9649 38.5361 14.4552 39.2448 14.7814C39.8444 15.0566 40.1 15.7866 39.9644 16.838C39.508 20.3743 37.9311 23.7691 35.5248 26.3967C35.4726 26.4538 35.4007 26.483 35.3288 26.483H35.3295Z" fill="#531139"/>
<path d="M11.9101 48.0672C11.497 48.0672 11.105 47.9469 10.7463 47.6438C10.0626 47.066 10.123 46.1662 10.1813 45.2962C10.2206 44.7144 10.2607 44.1129 10.0674 43.6481C10.0653 43.6433 10.0633 43.6386 10.0613 43.6338C10.005 43.4985 10.0687 43.3429 10.203 43.2858C10.3373 43.228 10.4933 43.2913 10.5509 43.4265C10.553 43.4313 10.555 43.4367 10.557 43.4415C10.8392 44.1007 11.6198 44.4236 12.2716 44.4507C13.0352 44.48 13.788 44.2197 14.5171 43.9641C14.6134 43.9308 14.7213 43.9553 14.7938 44.0287C14.8657 44.1014 14.8901 44.2101 14.8549 44.3067C14.7158 44.692 14.8054 45.1569 15.0773 45.4634C15.3486 45.7706 15.7989 45.914 16.1977 45.8216C16.3402 45.7883 16.4826 45.8773 16.5165 46.0194C16.5504 46.1621 16.4629 46.3048 16.3212 46.3395C15.7515 46.4802 15.1133 46.8146 14.4961 47.1388C13.6205 47.5982 12.7253 48.0672 11.9101 48.0672ZM11.0888 47.236C11.8829 47.9075 13.0318 47.3046 14.2486 46.6664C14.5551 46.506 14.8664 46.3422 15.177 46.1981C14.9898 46.1043 14.8203 45.9759 14.6792 45.8168C14.3876 45.4879 14.2404 45.0502 14.2587 44.6166C13.6314 44.8259 12.9491 45.0135 12.2492 44.9829C11.6761 44.9591 11.1511 44.777 10.7449 44.4806C10.7496 44.7627 10.7307 45.0495 10.7117 45.3329C10.6574 46.1376 10.6106 46.8329 11.0888 47.2366V47.236Z" fill="#531139"/>
<path d="M12.6378 44.8057C12.6283 44.8057 12.6188 44.8057 12.6086 44.8043C12.4628 44.7887 12.357 44.6568 12.3726 44.5107C12.5144 43.1949 12.1549 41.822 11.3865 40.7454C11.301 40.6258 11.3289 40.4593 11.4482 40.3737C11.5676 40.288 11.7337 40.3159 11.8192 40.4355C12.6629 41.6168 13.0576 43.1235 12.9016 44.5678C12.8867 44.7044 12.7714 44.8057 12.6378 44.8057Z" fill="#531139"/>
<path d="M24.2816 44.8057C24.1608 44.8057 24.0517 44.7228 24.0232 44.6005C24.0089 44.5379 23.6705 43.0658 24.0795 41.9165C24.129 41.7779 24.2809 41.7052 24.4192 41.7554C24.5576 41.8051 24.6295 41.9573 24.5807 42.096C24.2246 43.0957 24.5379 44.4652 24.5406 44.4788C24.5739 44.6222 24.485 44.7656 24.3426 44.7989C24.3223 44.8037 24.3019 44.8057 24.2816 44.8057Z" fill="#531139"/>
<path d="M25.7179 48.5705C25.6399 48.5705 25.5653 48.5359 25.5144 48.4754C24.8681 47.7053 23.6615 47.4049 22.708 47.7774C22.6116 47.8148 22.5018 47.793 22.4272 47.7216C22.3526 47.6496 22.3261 47.5409 22.36 47.443C22.7466 46.312 23.3706 45.2436 24.1641 44.3512C24.2136 44.2962 24.2835 44.2636 24.3574 44.2622C24.4313 44.2636 24.5025 44.2901 24.5541 44.3431C25.1299 44.9391 25.7118 45.296 26.3852 45.4652C27.0106 45.6229 27.6799 45.6337 28.3263 45.6439C28.4558 45.646 28.565 45.7411 28.5847 45.8696C28.6043 45.998 28.5291 46.1217 28.4063 46.1632C27.3293 46.5261 26.4158 47.3655 25.9614 48.4095C25.9247 48.4937 25.8467 48.5535 25.7559 48.5665C25.743 48.5685 25.7301 48.5692 25.7179 48.5692V48.5705ZM23.5693 47.0889C24.3248 47.0889 25.0885 47.3601 25.6446 47.8494C26.021 47.1568 26.5792 46.5628 27.2432 46.1374C26.9136 46.1109 26.5826 46.0653 26.2557 45.9831C25.5646 45.8091 24.9623 45.4679 24.3791 44.9188C23.8284 45.5807 23.3746 46.3358 23.0457 47.1337C23.218 47.1038 23.3936 47.0889 23.57 47.0889H23.5693Z" fill="#531139"/>
<path d="M19.2178 15.3547C19.1588 15.3547 19.0991 15.335 19.0496 15.2949C18.9357 15.2018 18.9194 15.0333 19.0123 14.9198C19.4477 14.3862 19.9727 13.9152 20.5512 13.536C19.856 13.3239 19.1202 13.2662 18.3958 13.3668C18.2493 13.3865 18.1157 13.2852 18.0954 13.1398C18.075 12.9943 18.1761 12.8591 18.3219 12.8387C19.3236 12.6987 20.3437 12.8346 21.2728 13.2322C21.3671 13.2723 21.4295 13.3634 21.4342 13.4653C21.439 13.5679 21.384 13.6638 21.2945 13.712C20.5824 14.0953 19.9361 14.6289 19.424 15.2562C19.3711 15.3208 19.2951 15.3541 19.2178 15.3541V15.3547Z" fill="#531139"/>
<path d="M26.849 8.24832C26.788 8.24832 26.727 8.22725 26.6788 8.18647C26.6015 8.12191 26.5669 8.0186 26.5906 7.91937C26.7615 7.20505 27.0817 6.51385 27.5157 5.92187C27.6025 5.80361 27.7687 5.77778 27.8874 5.86478C28.0054 5.95177 28.0312 6.11897 27.9444 6.23723C27.652 6.63618 27.4167 7.08476 27.2519 7.5544C27.667 7.43749 28.1024 7.38992 28.5324 7.41507C28.6789 7.4239 28.7908 7.54964 28.7819 7.69644C28.7731 7.84325 28.6456 7.95471 28.5012 7.94655C27.9735 7.91665 27.4398 8.0118 26.9562 8.22453C26.9216 8.24017 26.885 8.24696 26.849 8.24696V8.24832Z" fill="#531139"/>
<path d="M18.9282 10.326C18.9153 10.326 18.9018 10.3247 18.8889 10.3233C18.2493 10.2282 17.6003 10.2275 16.9594 10.322C16.8142 10.3451 16.6793 10.2431 16.6576 10.097C16.6365 9.95154 16.7369 9.81561 16.8821 9.79454C17.5738 9.6926 18.2758 9.69328 18.9662 9.7959C19.1113 9.81765 19.2117 9.9529 19.1907 10.0983C19.171 10.2309 19.0578 10.326 18.9282 10.326Z" fill="#531139"/>
<path d="M24.0074 6.86612C23.8921 6.86612 23.7856 6.79068 23.7524 6.67378C23.5537 5.98597 23.5944 5.24243 23.867 4.58045C23.9233 4.44384 24.0793 4.37927 24.2143 4.43568C24.3499 4.49209 24.4144 4.64773 24.3587 4.78366C24.1315 5.33418 24.0976 5.95267 24.2631 6.52493C24.3038 6.6663 24.2224 6.81447 24.0813 6.85524C24.0569 6.86204 24.0318 6.86544 24.0074 6.86544V6.86612Z" fill="#531139"/>
<path d="M29.6291 19.1087C27.5368 19.1087 26.1213 17.9193 24.8375 16.8406C24.3614 16.441 23.9117 16.0631 23.4444 15.7552C23.2301 15.6139 23.2084 15.4412 23.2138 15.3508C23.2355 15.0185 23.6458 14.8187 24.1654 14.5665C24.4387 14.434 24.7208 14.2967 24.8639 14.173C25.3156 13.7829 25.3902 13.1297 25.4696 12.4392C25.5482 11.7568 25.629 11.0507 26.0773 10.5049C26.8789 9.52962 28.3133 9.69953 28.8932 9.81779C29.1903 9.87828 29.486 9.95916 29.7715 10.038C30.3758 10.2038 30.9441 10.3588 31.5314 10.3384C31.6074 10.3357 31.6834 10.3296 31.76 10.3241C32.0232 10.3037 32.2944 10.2834 32.5725 10.3629C32.9354 10.4669 33.231 10.7319 33.4067 11.1085C33.6298 11.5876 33.6339 12.185 33.4189 12.6683C33.1395 13.2969 32.6112 13.7401 32.1018 14.122C32.917 14.5305 33.6346 15.0464 33.8367 15.8762C33.9879 16.5001 33.7852 17.2253 33.307 17.7684C32.9265 18.2013 32.3799 18.535 31.682 18.76C30.9285 19.0026 30.2489 19.1073 29.6284 19.1073L29.6291 19.1087ZM23.8134 15.3604C24.2874 15.6832 24.7215 16.0475 25.1793 16.4329C26.8145 17.8064 28.5066 19.2276 31.5199 18.2536C32.1249 18.0586 32.5922 17.7765 32.9089 17.417C33.2738 17.0024 33.4318 16.4607 33.3206 16.0033C33.1307 15.2224 32.27 14.7752 31.4779 14.4163C31.3917 14.3776 31.3327 14.296 31.3226 14.2016C31.3124 14.1078 31.3531 14.0153 31.4284 13.9589L31.564 13.859C32.1079 13.458 32.6695 13.0434 32.9333 12.4521C33.0852 12.1109 33.0818 11.6726 32.9245 11.3348C32.8472 11.1689 32.698 10.9542 32.426 10.8767C32.2395 10.823 32.0252 10.8393 31.8 10.8563C31.7166 10.8624 31.6339 10.8685 31.5511 10.8719C30.8878 10.9005 30.2476 10.7224 29.6304 10.5525C29.353 10.4764 29.0668 10.3975 28.7867 10.3404C28.4083 10.2636 27.1231 10.0713 26.4876 10.8441C26.139 11.2682 26.0705 11.8669 25.9979 12.5004C25.9104 13.2623 25.8195 14.0507 25.2112 14.5767C25.0152 14.746 24.7012 14.8989 24.3973 15.0464C24.221 15.132 23.9517 15.2632 23.8127 15.3597L23.8134 15.3604Z" fill="#531139"/>
<path d="M25.1488 15.8454C24.7039 15.8454 24.259 15.7801 23.8318 15.6476C23.6914 15.6041 23.6134 15.4546 23.6568 15.3139C23.7002 15.1732 23.8501 15.095 23.9898 15.1385C25.2126 15.5198 26.6002 15.2677 27.6114 14.4799C28.0102 14.1693 28.3439 13.7908 28.6973 13.3898C28.8207 13.2491 28.9448 13.1091 29.071 12.9718C29.5132 12.492 30.1215 11.9081 30.9049 11.6573C31.6183 11.429 32.5909 11.5092 33.1565 12.2051C33.2494 12.3193 33.2318 12.4872 33.1185 12.5803C33.0046 12.6734 32.8364 12.6558 32.7442 12.5422C32.3393 12.0441 31.5912 11.9972 31.0669 12.165C30.4016 12.3785 29.8597 12.9018 29.4616 13.3334C29.3375 13.4679 29.2168 13.6052 29.0954 13.7425C28.7414 14.1442 28.3751 14.5601 27.937 14.9013C27.1442 15.5185 26.1465 15.846 25.1482 15.846L25.1488 15.8454Z" fill="#531139"/>
<path d="M29.1076 16.8839C28.6417 16.8839 28.2029 16.8071 27.8462 16.716C27.252 16.5638 26.6837 16.3307 26.1337 16.1057C25.8787 16.0011 25.6243 15.8971 25.3673 15.8006C25.2296 15.7489 25.1598 15.5953 25.2113 15.4573C25.2628 15.3194 25.4168 15.2507 25.5538 15.301C25.8163 15.3996 26.076 15.5056 26.3351 15.6123C26.8682 15.8305 27.4202 16.0568 27.9784 16.1995C28.62 16.364 29.5525 16.4775 30.3549 16.0874C31.0867 15.7312 31.5465 14.9449 31.4251 14.2584C31.3993 14.1137 31.4956 13.975 31.6401 13.9492C31.7846 13.9227 31.9229 14.0199 31.9487 14.1653C32.1135 15.093 31.5411 16.1037 30.5875 16.5672C30.1053 16.8017 29.5919 16.8839 29.1083 16.8839H29.1076Z" fill="#531139"/>
<path d="M32.8711 32.0789C32.6785 31.7221 32.1014 31.7975 32.0057 32.1924C31.9189 32.3936 31.8111 32.6233 31.9447 32.8299C32.0912 33.0943 32.4785 33.1412 32.688 32.9258C32.846 32.7035 33.0265 32.3406 32.8705 32.0789H32.8711Z" fill="#FFE0A3"/>
</svg>