<svg width="219" height="138" viewBox="0 0 219 138" fill="none" xmlns="http://www.w3.org/2000/svg">
<path d="M164.908 121.957C164.466 127.116 160.841 131.662 156.264 134.065C151.686 136.469 146.296 136.937 141.166 136.322C136.036 135.707 131.09 134.071 126.188 132.446C104.657 133.63 84.5561 122.602 74.0915 105.272C67.5678 112.788 59.3476 118.514 50.2084 121.309C48.2442 121.911 45.9821 122.344 44.2426 121.251C41.9275 119.796 41.776 116.515 42.0437 113.788C42.9273 104.738 45.5378 95.8624 49.6933 87.7816C37.3074 88.0422 25.3734 79.3517 20.6524 67.7314C15.9313 56.1111 17.9964 42.3099 24.7499 31.7447C31.5033 21.1794 42.5183 13.7463 54.4573 9.96643C52.3795 6.76851 49.2591 4.8204 46.3154 4.92413C48.8981 3.36565 52.0589 2.79387 55.0203 3.35047C57.9843 3.90707 60.721 5.58702 62.3393 8.71663C62.3948 6.11073 61.3244 3.50228 59.6657 1.65032C64.3135 2.33848 68.7014 4.68379 72.4479 8.60529C77.4442 5.30111 84.3743 6.47756 89.3327 9.83993C94.2911 13.2023 97.7146 18.3407 101.009 23.3476C103.973 27.851 106.94 32.3544 109.934 36.1899C118.889 34.0495 127.258 29.5056 133.936 23.1579C135.011 22.1332 136.069 21.0478 137.387 20.3673C138.705 19.6867 140.376 19.4792 141.643 20.2509C144.017 21.6955 143.562 25.2299 142.737 27.8864C140.601 34.7478 137.993 41.4599 134.249 47.7343C142.126 46.2618 149.477 42.1152 154.822 36.1342C158.061 32.5087 161.28 27.8485 166.13 27.6486C170.434 27.469 173.921 30.9907 176.572 34.3961C186.973 47.7697 194.027 64.4171 193.073 81.3453C192.119 98.2761 182.025 115.149 164.905 121.959L164.908 121.957Z" fill="#FFD26F"/>
<path d="M18.0065 48.7564L5.72919 46.8412C4.93645 46.7172 4.09069 46.6008 3.35855 46.9297C1.9397 47.5673 1.67966 49.4521 1.7251 51.0081C1.89678 56.9384 3.6514 62.9826 7.54188 67.4556C11.4324 71.9286 17.6531 74.5649 23.3512 73.0823C21.483 72.4549 20.5589 70.3879 19.9657 68.5056C17.951 62.1072 17.282 55.2863 18.0065 48.7564Z" fill="#F58359"/>
<path d="M48.128 57.1762C44.0608 55.6051 39.1504 56.6323 35.9592 59.6101C32.7681 62.5879 31.3922 67.3392 32.3692 71.5972C33.6063 76.9836 38.6732 81.2745 44.182 81.482C49.6933 81.6894 55.1162 77.7047 56.4644 72.3461C57.8126 66.9876 55.2677 59.9314 48.1255 57.1762H48.128Z" fill="#F58359"/>
<path d="M186.07 116.042C184.022 122.483 183.623 129.443 184.921 136.079C186.928 132.788 190.846 130.771 194.684 131.05C194.918 129.269 196.062 127.713 197.471 126.602C198.88 125.491 200.543 124.765 202.187 124.052C198.647 123.176 195.239 121.775 192.108 119.905C191.326 119.437 190.543 118.923 189.998 118.192C189.453 117.461 189.185 116.459 186.07 116.042Z" fill="#F58359"/>
<path d="M209.395 79.382C206.484 85.8867 203.573 92.3938 200.662 98.8985C203.033 96.8391 207.244 97.6234 208.723 100.396C209.132 98.5797 210.503 97.0996 212.094 96.1382C213.684 95.1768 215.499 94.6633 217.287 94.1573C213.278 90.2307 210.692 84.8722 209.395 79.382Z" fill="#F58359"/>
<path d="M165.249 113.502C177.88 107.86 188.082 96.9807 192.921 83.9993C192.931 92.3255 189.675 100.477 184.582 107.055C179.49 113.633 172.641 118.708 165.231 122.47C166.1 119.262 166.302 115.872 165.251 113.502H165.249Z" fill="#D1A037"/>
<path d="M118.717 126.691C106.081 125.82 93.6449 122.185 82.5238 116.11C94.2306 127.682 111.085 133.818 127.473 132.472C124.294 130.301 121.507 126.88 118.717 126.691Z" fill="#D1A037"/>
<path d="M2.71228 56.3287C3.34849 59.7644 5.64087 62.851 8.74113 64.45C11.8414 66.0489 15.6788 66.1223 18.8397 64.6473C19.6425 67.7415 21.0488 70.6763 22.9574 73.2367C18.9887 74.5649 14.4897 73.1431 11.2506 70.4916C8.00898 67.8402 5.83021 64.1211 2.7148 56.3312L2.71228 56.3287Z" fill="#D1704B"/>
<path d="M8.16297 49.2725C7.24905 49.2548 6.24676 48.8627 5.37324 49.1941C3.75746 49.7962 4.28259 52.3288 5.9943 52.2908C7.51918 52.2908 10.8845 53.1358 10.7305 50.6944C10.6194 49.4041 9.15515 49.3813 8.16297 49.2725Z" fill="#FECA8B"/>
<path d="M13.8812 50.4312C12.2377 50.4363 12.2402 52.9435 13.8812 52.9537C15.5248 52.9486 15.5223 50.4414 13.8812 50.4312Z" fill="#FECA8B"/>
<path d="M49.7767 61.0421C49.3071 59.729 47.7065 59.2837 46.4896 58.9346C45.5151 58.8359 44.4219 58.4893 43.4803 58.8359C41.7155 59.4937 42.2911 62.2565 44.1594 62.216C46.2851 62.4462 45.4419 62.1376 47.2192 63.0155C48.4992 63.8276 50.2236 62.4918 49.7792 61.0446L49.7767 61.0421Z" fill="#FECA8B"/>
<path d="M53.3389 63.8251C51.9503 62.426 49.6529 64.2046 50.6552 65.8997C52.0109 68.1412 55.1112 65.7504 53.3389 63.8251Z" fill="#FECA8B"/>
<path d="M185.519 124.092C185.61 124.993 185.398 126.073 186.102 126.769C186.862 127.568 188.271 127.371 188.811 126.42C189.16 125.84 189.028 125.142 189.046 124.5C189.352 121.924 185.683 121.507 185.517 124.095L185.519 124.092Z" fill="#FECA8B"/>
<path d="M205.721 89.1807C204.717 91.6981 208.016 93.1984 208.996 90.6734C210.031 88.1738 206.691 86.6457 205.721 89.1807Z" fill="#FECA8B"/>
<path d="M87.6489 18.4217C87.1616 17.2959 86.0331 16.5495 85.1671 15.7171C82.592 13.3086 79.2973 11.9753 75.8537 11.4263C75.4018 11.2998 74.9019 11.3655 74.4955 11.6033C73.1726 12.3219 73.4503 14.4749 74.9171 14.8316C78.3304 15.3882 80.6985 16.4812 82.337 17.9081C83.5968 18.915 83.304 18.6949 84.8187 19.8436C85.2606 20.0839 85.4676 20.6936 86.7349 20.2939C87.4747 20.0333 87.8483 19.1605 87.6514 18.4192L87.6489 18.4217Z" fill="#FFE0A3"/>
<path d="M94.0287 26.037C93.6348 23.5222 89.9791 24.1521 90.532 26.6417C90.9259 29.1565 94.5816 28.5265 94.0287 26.037Z" fill="#FFE0A3"/>
<path d="M50.279 98.9491C49.1076 100.91 48.8551 101.773 48.1381 104.52C48.022 105.396 47.5777 106.372 48.0498 107.202C48.7087 108.424 50.688 108.166 51.0137 106.815C51.5161 105.221 51.963 103.604 52.5815 102.048C52.8592 101.37 53.4474 100.811 53.5308 100.075C53.8665 98.2154 51.1879 97.3096 50.279 98.9491Z" fill="#FFE0A3"/>
<path d="M142.812 125.466C141.535 124.601 139.571 124.596 138.091 124.054C137.71 123.986 136.049 123.427 136.114 123.475C134.759 122.911 134.711 122.961 132.946 121.987C132.057 121.577 131.257 120.851 130.293 120.664C128.437 120.328 127.531 123.009 129.169 123.923C131.045 124.975 132.913 126.063 134.956 126.766C137.016 127.439 139.149 127.864 141.3 128.12C142.815 128.537 143.946 126.577 142.815 125.463L142.812 125.466Z" fill="#FFE0A3"/>
<path d="M153.388 124.317C152.494 123.943 150.992 123.776 150.252 124.53C149.144 125.567 149.982 127.594 151.497 127.543C152.272 127.614 153.161 127.725 153.741 127.09C154.554 126.314 154.355 124.871 153.385 124.317H153.388Z" fill="#FFE0A3"/>
<path d="M163.494 134.994C161.823 134.994 160.147 134.817 158.5 134.455C157.965 134.339 157.629 133.81 157.746 133.274C157.862 132.737 158.389 132.403 158.925 132.517C164.527 133.749 170.495 132.654 175.297 129.517C180.028 126.427 183.522 121.314 184.886 115.488C185.009 114.954 185.542 114.627 186.075 114.749C186.607 114.873 186.938 115.407 186.812 115.941C185.332 122.258 181.53 127.811 176.377 131.179C172.545 133.683 168.031 134.997 163.492 134.997L163.494 134.994Z" fill="#531139"/>
<path d="M124.19 133.881C104.205 133.881 84.3617 123.131 73.5487 106.273C68.3782 112.702 61.5491 117.937 54.1847 121.099C52.4225 121.856 50.322 122.63 48.1028 122.632H48.0902C45.5883 122.632 43.3565 121.59 42.1169 119.837C40.592 117.681 40.7637 114.906 41.1348 112.474C42.4148 104.077 45.3787 96.0573 48.3477 88.2901C48.2745 88.2901 48.2038 88.2901 48.1306 88.2901C35.8053 88.2901 23.8688 79.9184 19.2891 67.8275C14.9921 56.4779 16.9108 42.3934 24.3005 31.0692C30.6298 21.3691 40.7662 13.554 52.9425 8.95948C51.2738 7.1227 48.8602 5.95636 46.3835 5.84251C45.9341 5.82227 45.5554 5.50097 45.462 5.06075C45.3661 4.62306 45.5782 4.17273 45.9771 3.9678C50.837 1.47322 57.1082 2.3233 61.289 5.76916C60.9204 4.40043 59.9863 3.1683 58.7189 2.55604C58.3099 2.3587 58.0878 1.90584 58.1812 1.46056C58.2721 1.01528 58.6558 0.691442 59.1077 0.671202C63.8894 0.476392 68.6988 2.87484 72.1172 7.13536C79.7644 3.79829 88.7218 7.43641 94.3492 12.6735C98.7446 16.7595 101.951 21.9131 105.051 26.8972C106.142 28.653 107.273 30.467 108.432 32.195C113.951 40.4352 119.646 45.1461 125.847 46.6034C131.239 47.8709 137.498 46.6843 143.471 43.2612C148.73 40.248 153.13 36.033 157.93 31.2361C159.929 29.2374 162.951 26.2191 166.738 26.1053C171.038 25.994 174.269 29.4171 176.632 32.4227C188.824 47.9341 195.166 65.209 194.489 81.0645C193.681 100.012 182.03 117.079 166.153 122.569C165.635 122.746 165.072 122.473 164.893 121.954C164.714 121.436 164.989 120.872 165.506 120.692C180.631 115.462 191.737 99.1312 192.51 80.9759C193.166 65.5935 186.973 48.7867 175.075 33.6472C172.999 31.0059 170.157 27.9572 166.794 28.0863C164.019 28.1672 161.679 30.2848 159.323 32.6377C154.421 37.5358 149.919 41.847 144.448 44.9791C138.038 48.6501 131.27 49.9101 125.39 48.5312C118.679 46.955 112.592 41.9709 106.783 33.2955C105.607 31.5372 104.468 29.7106 103.367 27.9421C100.335 23.0693 97.1995 18.0295 92.9985 14.1257C87.6867 9.18463 79.2165 5.76154 72.2586 9.25547C71.8294 9.47052 71.3068 9.34404 71.019 8.95695C68.6458 5.74132 65.4421 3.60095 62.0868 2.89508C63.2178 4.46621 63.7127 6.50033 63.2936 8.42313C63.2128 8.79504 62.925 9.08851 62.5539 9.17706C62.1827 9.26561 61.7965 9.13153 61.5566 8.83805C58.8729 5.51869 54.3084 3.96021 50.1301 4.66102C52.2407 5.50857 54.1089 6.97596 55.3814 8.86081C55.553 9.11381 55.5985 9.43513 55.5 9.72608C55.4041 10.017 55.1794 10.2498 54.889 10.351C42.5461 14.7279 32.2708 22.4672 25.9541 32.1469C18.9053 42.95 17.0598 56.3489 21.1371 67.1166C25.631 78.9823 37.6659 87.0201 49.7388 86.2459C50.0746 86.2358 50.4002 86.3749 50.5997 86.6482C50.7991 86.9214 50.8471 87.2756 50.7259 87.5919C47.6206 95.6955 44.4118 104.072 43.0838 112.765C42.7733 114.802 42.6067 117.099 43.7251 118.678C44.5809 119.885 46.2497 120.636 48.0826 120.636H48.0927C49.9559 120.634 51.8216 119.94 53.3995 119.265C60.88 116.054 67.7849 110.61 72.8443 103.938C73.0438 103.678 73.3492 103.536 73.685 103.546C74.0132 103.564 74.3086 103.741 74.4803 104.022C85.3463 121.97 106.697 133.114 127.601 131.776C128.162 131.761 128.619 132.155 128.654 132.702C128.689 133.248 128.275 133.721 127.73 133.757C126.551 133.833 125.367 133.871 124.185 133.871L124.19 133.881Z" fill="#531139"/>
<path d="M147.233 136.671C145.802 136.671 144.383 136.601 143.014 136.512C138.503 136.221 133.282 135.778 128.44 134.187C124.703 132.957 119.55 130.47 116.218 125.603C115.907 125.152 116.023 124.535 116.473 124.224C116.925 123.913 117.541 124.029 117.849 124.479C120.868 128.889 125.609 131.166 129.056 132.3C133.676 133.82 138.546 134.235 143.138 134.531C148.122 134.852 153.325 134.946 157.347 132.315C160.301 130.384 162.505 126.946 163.552 122.632C164.514 118.67 164.464 114.473 164.413 110.412C164.406 109.863 164.845 109.416 165.39 109.408H165.403C165.943 109.408 166.385 109.843 166.393 110.387C166.443 114.572 166.499 118.898 165.476 123.103C164.307 127.91 161.805 131.773 158.427 133.979C155.115 136.145 151.121 136.674 147.228 136.674L147.233 136.671Z" fill="#531139"/>
<path d="M185.103 137.585C185.09 137.585 185.077 137.585 185.062 137.585C184.63 137.567 184.262 137.274 184.146 136.856C182.245 129.947 182.641 122.47 185.267 115.801C185.38 115.51 185.625 115.29 185.928 115.209C186.229 115.126 186.552 115.192 186.799 115.386C191.896 119.389 197.082 121.863 202.207 122.741C202.619 122.812 202.939 123.131 203.015 123.541C203.088 123.951 202.899 124.365 202.54 124.575C200.314 125.878 198.294 127.498 196.542 129.39C195.911 130.071 195.645 130.797 195.83 130.992C196.138 131.315 196.191 131.806 195.959 132.191C195.726 132.575 195.267 132.752 194.838 132.628C191.338 131.611 187.228 133.625 186.034 136.932C185.893 137.324 185.519 137.587 185.103 137.587V137.585ZM186.655 117.767C184.873 122.941 184.474 128.56 185.499 133.929C187.438 131.543 190.69 130.136 193.815 130.425C193.926 129.661 194.355 128.831 195.09 128.039C196.423 126.602 197.895 125.309 199.493 124.181C195.194 123.062 190.889 120.912 186.655 117.767Z" fill="#531139"/>
<path d="M209.261 101.952C208.786 101.952 208.375 101.613 208.289 101.143C208.026 99.7384 206.825 98.5088 205.426 98.2229C204.027 97.9345 202.442 98.5923 201.649 99.7789C201.366 100.201 200.811 100.343 200.364 100.105C199.915 99.8675 199.718 99.3286 199.91 98.858L205.007 86.1903C201.654 89.0441 197.36 90.8151 192.987 90.9188C192.411 90.9264 191.987 90.4963 191.975 89.9499C191.962 89.4009 192.394 88.948 192.942 88.9353C198.667 88.8012 204.242 85.4768 207.259 80.6015L207.786 79.291C207.875 79.0709 208.034 78.9014 208.226 78.7951C208.289 78.6559 208.349 78.5168 208.408 78.3776C208.587 77.9526 209.039 77.7072 209.488 77.7856C209.943 77.8641 210.283 78.2461 210.309 78.7065C210.634 84.4269 213.601 89.8385 218.244 93.1857C218.6 93.4413 218.743 93.9017 218.602 94.3166C218.458 94.7316 218.037 95.0149 217.625 94.9846C214.103 94.8378 210.75 97.6385 210.248 101.112C210.177 101.593 209.773 101.952 209.289 101.962H209.268L209.261 101.952ZM204.752 96.1686C205.11 96.1686 205.469 96.204 205.822 96.2774C207.102 96.5405 208.254 97.2818 209.072 98.2938C210.273 95.8574 212.588 93.9599 215.211 93.2667C211.985 90.3142 209.723 86.375 208.781 82.1043L203.012 96.4418C203.575 96.2622 204.164 96.1686 204.754 96.1686H204.752Z" fill="#531139"/>
<path d="M134.635 48.258C134.441 48.258 134.244 48.1998 134.072 48.0809C133.623 47.7697 133.509 47.1524 133.822 46.702C138.177 40.3922 141.229 33.0729 142.653 25.5361C142.881 24.3318 143.231 21.4451 141.593 20.6608C140.22 20.003 138.414 21.3616 136.993 22.6139C129.338 29.369 120.098 34.3986 110.277 37.1563C109.752 37.3031 109.204 36.9944 109.058 36.4682C108.911 35.9419 109.217 35.3929 109.745 35.2462C119.283 32.5695 128.253 27.6866 135.688 21.1263C136.895 20.0611 139.72 17.5665 142.449 18.872C144.479 19.841 145.264 22.4064 144.602 25.9054C143.128 33.713 139.965 41.2954 135.456 47.8304C135.264 48.1087 134.956 48.258 134.64 48.258H134.635Z" fill="#531139"/>
<path d="M20.5918 74.7395C15.386 74.7395 10.011 72.1058 6.38815 67.6378C2.8284 63.2482 0.833932 57.1206 0.768292 50.3832C0.760718 49.604 0.737998 47.2308 2.49767 46.2315C3.51763 45.6521 4.69916 45.8266 5.47928 45.9405L18.5519 47.881C19.0922 47.962 19.4658 48.4655 19.3875 49.0069C19.3067 49.5483 18.8069 49.9151 18.2641 49.8443L5.19147 47.9038C4.48709 47.8 3.8736 47.7292 3.47471 47.9569C2.97988 48.2378 2.73499 49.0474 2.74761 50.363C2.8082 56.6525 4.64362 62.3425 7.92313 66.3854C11.6697 71.0052 17.4562 73.4441 22.6696 72.589C23.2098 72.503 23.7173 72.8698 23.8057 73.4087C23.894 73.9501 23.528 74.4612 22.9877 74.5472C22.1975 74.6763 21.3946 74.7395 20.5893 74.7395H20.5918Z" fill="#531139"/>
<path d="M37.4892 52.397C37.1661 52.397 36.8505 52.2402 36.6586 51.9467L32.7707 45.9886C32.5965 45.7204 32.5611 45.3839 32.6772 45.0854C32.7934 44.7868 33.0458 44.5642 33.3564 44.4832L41.0439 42.5326C41.5716 42.401 42.1118 42.7198 42.2456 43.2511C42.3795 43.7824 42.0588 44.3213 41.5286 44.4554L35.1867 46.0645L38.3173 50.8613C38.6177 51.3193 38.489 51.9341 38.0295 52.2351C37.8629 52.3439 37.6735 52.397 37.4892 52.397Z" fill="#531139"/>
<path d="M53.5081 35.823C53.1219 35.823 52.7533 35.5953 52.5942 35.2133C51.6147 32.868 49.3627 31.0843 46.8582 30.6694C46.318 30.5809 45.9544 30.0698 46.0428 29.5284C46.1311 28.987 46.6361 28.6176 47.1814 28.7112C50.3397 29.2349 53.1799 31.4866 54.4195 34.4467C54.6316 34.9527 54.3943 35.5346 53.8894 35.7446C53.7631 35.7977 53.6344 35.823 53.5081 35.823Z" fill="#531139"/>
</svg>
