<svg xmlns="http://www.w3.org/2000/svg" width="70" height="65" viewBox="0 0 50 45" fill="none">
<path d="M8.34893 12.9839C5.75423 15.6436 5.62945 20.3236 2.48228 22.2948C1.61186 22.8402 0.469349 23.2386 0.190486 24.2292C-0.0169705 24.9658 0.361863 25.7304 0.764749 26.3804C2.6266 29.3844 5.27317 31.8957 8.64659 34.0206C12.4635 35.2688 16.3458 36.5282 20.3589 36.6382C24.3719 36.7489 28.6082 35.5497 31.2992 32.5639C32.9851 30.6935 33.9375 28.2907 35.189 26.0098C37.3763 26.7661 39.8342 26.7043 41.9659 25.6829C42.6198 26.7563 43.8811 27.4275 45.325 27.3137C44.4561 26.3699 44.1667 24.9289 44.523 23.7667C45.3889 24.6186 46.7291 24.9515 47.7859 24.5033C47.1726 24.3625 46.8779 23.6092 46.9892 22.9886C47.1004 22.3679 47.4958 21.8444 47.834 21.3126C48.8818 19.6698 49.4719 17.7362 49.6658 15.78C49.856 11.4985 47.6161 7.19069 43.8819 5.09741C41.7374 3.23914 38.7796 2.35935 36.0203 2.89416C31.8298 0.0755007 26.3661 -0.454033 21.4736 0.785061C16.581 2.02415 12.2192 4.89026 8.53685 8.34843C7.83631 9.00601 7.12524 9.74344 6.92981 10.685C6.73438 11.6266 7.30714 12.7858 8.34818 12.9839H8.34893Z" fill="#FFD26F"/>
<path d="M37.7176 26.8147C37.7342 27.9258 37.6959 29.1084 37.0787 30.0311C36.1963 31.3523 34.3668 31.7244 32.8101 31.4171C31.3451 31.1278 29.9456 30.2925 29.2022 28.9946C28.4588 27.6975 28.4919 25.9266 29.6284 24.7388C30.1838 25.5357 31.2264 25.8468 32.196 25.8656C33.1664 25.8845 34.1285 25.669 35.0989 25.6653C36.0693 25.6607 37.1156 25.9161 37.7176 26.8147Z" fill="#F58359"/>
<path d="M34.2931 19.4053C33.6391 19.0836 32.7499 19.4068 32.4515 20.0726C32.1531 20.7385 32.5004 21.6176 33.1724 21.9C33.8443 22.1825 34.7118 21.8172 34.9831 21.1392C35.2544 20.4613 34.8478 19.6779 34.2931 19.4053Z" fill="#531139"/>
<path d="M18.2385 40.1504C17.8814 41.2268 17.7927 42.3913 17.9822 43.5099C18.7894 42.7777 20.0913 42.6655 21.0113 43.2493C21.1451 42.3062 21.8374 41.4641 22.7356 41.1515C21.203 41.5047 19.523 41.1507 18.2385 40.1504Z" fill="#F58359"/>
<path d="M23.4391 38.8381C23.07 39.9567 23.2526 41.2433 23.9179 42.2149C24.559 41.6274 25.4866 41.3691 26.3382 41.5415C26.3675 40.725 26.9057 39.9484 27.6588 39.6358C26.2893 39.6441 24.8319 39.6275 23.4398 38.8389L23.4391 38.8381Z" fill="#F58359"/>
<path d="M26.2865 12.7766C27.9424 12.5506 29.6953 13.2956 30.6852 14.6454C31.6752 15.9952 31.8601 17.8942 31.1497 19.4105C30.4394 20.9268 28.864 21.9971 27.2201 22.0943C26.0648 20.923 25.5326 19.2463 25.4417 17.6019C25.3507 15.9576 25.6589 14.3193 26.2865 12.7774V12.7766Z" fill="#F58359"/>
<path d="M8.58866 13.0303C7.82648 13.4679 7.1763 14.0991 6.71704 14.8494C9.05769 15.046 11.4216 15.2426 13.7495 14.9262C16.0774 14.6098 18.3992 13.733 20.0521 12.0593C16.2916 13.0815 12.3341 13.9778 8.58941 13.0303H8.58866Z" fill="#D1A037"/>
<path d="M29.5622 24.7156C29.7832 25.1216 30.2026 25.4131 30.6596 25.4779C30.0974 26.4194 29.9486 27.5998 30.2605 28.6513C30.5724 29.7028 31.3399 30.6105 32.3238 31.0918C30.9099 30.8854 29.6321 29.9077 29.0609 28.5956C28.4896 27.2834 28.643 25.6797 29.5622 24.7163V24.7156Z" fill="#D1704B"/>
<path d="M4.05933 30.5374C9.68545 34.1492 16.5608 35.7642 23.2032 35.035C24.4532 34.8979 25.7145 34.6742 26.8397 34.1115C27.9649 33.5496 28.9496 32.6073 29.3247 31.4051C28.2175 30.862 27.3275 29.8512 26.9682 28.6678C26.6089 27.4844 26.7871 26.1482 27.4433 25.1004C24.9493 22.4874 24.1548 18.453 25.4657 15.1816C24.9718 18.5773 26.4932 22.1899 29.5689 24.5468C28.6594 25.7068 28.4445 27.3737 29.0293 28.7266C29.614 30.0801 30.9745 31.0631 32.447 31.2341C31.6352 33.2197 29.5877 34.397 27.5808 35.1457C19.9508 37.9945 10.8701 36.5166 4.05933 30.5366V30.5374Z" fill="#D1A037"/>
<path d="M47.6514 11.4043C47.3169 10.8521 46.4893 11.3365 46.8035 11.9014C47.232 12.8038 47.3222 13.2309 47.3162 14.4331C47.3199 14.8172 47.2876 15.1999 47.2643 15.5825C47.247 15.737 47.2523 15.9064 47.374 16.0194C47.6679 16.2951 48.0475 16.0496 48.0941 15.691C48.2061 15.34 48.2835 14.9784 48.3189 14.6109C48.4324 13.4976 48.173 12.3865 47.6514 11.4035V11.4043Z" fill="#FFE0A3"/>
<path d="M47.6524 18.0608C47.5479 17.6239 46.9075 17.5403 46.6933 17.935C46.5986 18.1248 46.4678 18.3259 46.5384 18.5467C46.6429 18.9835 47.2818 19.0664 47.496 18.6717C47.593 18.4826 47.723 18.2808 47.6524 18.0608Z" fill="#FFE0A3"/>
<path d="M20.5776 2.75914C19.1089 3.08303 17.6477 3.51992 16.3195 4.23927C15.9662 4.4321 15.6257 4.64753 15.2897 4.86974C15.1341 4.96917 14.9515 5.06558 14.9064 5.26143C14.7846 5.65462 15.2544 6.01769 15.6032 5.79774C17.2756 4.64979 18.7421 4.27769 20.7445 3.63366C20.9181 3.56737 21.1286 3.53423 21.2248 3.35646C21.4495 2.9128 20.9903 2.58966 20.5769 2.75838L20.5776 2.75914Z" fill="#FFE0A3"/>
<path d="M23.1866 2.35449C22.4733 2.32812 22.4357 3.38644 23.1482 3.40753C23.8616 3.43314 23.8991 2.37558 23.1866 2.35449Z" fill="#FFE0A3"/>
<path d="M37.0412 27.6708C36.8413 27.3002 36.2415 27.3786 36.1423 27.7883C36.0844 28.0271 36.0288 28.2667 35.9543 28.5009C35.9153 28.6154 35.8589 28.7344 35.8912 28.8564C35.9386 29.3928 36.7413 29.441 36.8721 28.9235C36.9473 28.7201 36.9811 28.5047 37.033 28.2945C37.0803 28.0896 37.1653 27.8644 37.0405 27.6701L37.0412 27.6708Z" fill="#FECA8B"/>
<path d="M35.4214 29.7C34.9321 29.7015 34.9328 30.4479 35.4214 30.4509C35.9107 30.4494 35.91 29.703 35.4214 29.7Z" fill="#FECA8B"/>
<path d="M29.0826 14.8007C28.9834 14.6396 28.806 14.5477 28.6511 14.4467C28.4933 14.3495 28.3099 14.2682 28.1235 14.327C27.6875 14.4317 27.6041 15.0734 27.998 15.2881C28.1971 15.3642 28.3422 15.5668 28.5602 15.5834C28.9774 15.6692 29.3043 15.157 29.0826 14.8023V14.8007Z" fill="#FECA8B"/>
<path d="M29.5974 15.7234C29.1081 15.7249 29.1089 16.4714 29.5974 16.4744C30.0868 16.4729 30.086 15.7264 29.5974 15.7234Z" fill="#FECA8B"/>
<path d="M18.4791 41.4122C18.3054 41.9892 19.1548 42.249 19.3307 41.6751C19.5051 41.0988 18.655 40.8374 18.4791 41.4122Z" fill="#FECA8B"/>
<path d="M23.9729 40.3354C23.9692 40.9184 24.8275 40.9342 24.8433 40.3527C24.8493 39.7697 23.9879 39.7531 23.9729 40.3354Z" fill="#FECA8B"/>
<path d="M44.687 27.7549C44.1909 27.7549 43.6956 27.6337 43.2536 27.3956C42.6726 27.0823 42.1915 26.5663 41.9705 26.042C40.6055 26.5347 39.1804 26.8119 37.7275 26.8676C37.5606 26.8827 37.4276 26.7471 37.4215 26.5836C37.4155 26.4209 37.5418 26.2831 37.7049 26.2771C39.1962 26.2198 40.6589 25.9185 42.051 25.3815C42.1321 25.3506 42.2224 25.3558 42.299 25.398C42.3749 25.4402 42.4291 25.5133 42.4463 25.5984C42.5373 26.0481 42.9943 26.5851 43.5332 26.8751C43.9512 27.1004 44.445 27.1953 44.9208 27.1516C44.1308 26.1724 43.9136 24.7578 44.4224 23.5932C44.463 23.4998 44.5495 23.4343 44.6502 23.4192C44.7509 23.4027 44.8516 23.4426 44.9178 23.5209C45.453 24.1567 46.2971 24.4776 47.1194 24.4098C46.8044 24.0911 46.6255 23.6173 46.6594 23.1737C46.7097 22.5131 47.0705 21.9738 47.42 21.4525L47.5418 21.2695C49.7532 17.91 50.0012 13.2511 48.1582 9.67547C46.3444 6.15629 41.2895 2.68984 36.285 3.21636C36.2234 3.2239 36.1603 3.20958 36.1061 3.17795C32.4644 1.05831 28.2423 0.23576 23.555 0.730644C18.7475 1.23984 13.9436 3.73234 8.86923 8.35126C7.57713 9.52708 7.07879 10.5583 7.38922 11.4155C7.75302 12.4211 9.10525 12.748 10.1748 12.8451C13.5408 13.1525 16.9999 12.708 20.1801 11.5631C20.3327 11.5074 20.5018 11.588 20.5574 11.7416C20.6123 11.8953 20.5326 12.064 20.38 12.1198C17.1194 13.2941 13.5723 13.7475 10.1215 13.4342C8.31826 13.27 7.21258 12.6591 6.83525 11.6173C6.43537 10.5131 6.98634 9.26721 8.47311 7.91437C13.6437 3.20808 18.5573 0.665865 23.4934 0.143864C28.2717 -0.363073 32.5861 0.471526 36.3196 2.61904C41.5414 2.11737 46.7917 5.73523 48.6828 9.4043C50.6506 13.2225 50.3966 18.0071 48.0349 21.5949L47.9109 21.7817C47.5899 22.2607 47.287 22.7127 47.2487 23.2189C47.2269 23.5074 47.3637 23.8426 47.5816 24.0339C47.6801 24.1205 47.8365 24.2139 48.0281 24.174C48.1762 24.1431 48.3228 24.2282 48.3694 24.3713C48.416 24.5145 48.3476 24.6704 48.21 24.7322C47.0863 25.2376 45.7363 25.0289 44.8216 24.2553C44.5765 25.2654 44.917 26.4285 45.6995 27.1117C45.7799 27.1817 45.816 27.2902 45.7942 27.3949C45.7724 27.4996 45.6957 27.584 45.5943 27.6163C45.2996 27.7097 44.9937 27.7557 44.6885 27.7557L44.687 27.7549Z" fill="#531139"/>
<path d="M33.8901 31.6645C33.612 31.6645 33.3279 31.6472 33.043 31.6118C31.2022 31.382 29.6801 30.4668 28.8676 29.1012C27.8897 27.4569 28.5707 25.9067 29.0217 24.8815C29.0803 24.7482 29.1359 24.6224 29.1833 24.5049C29.2201 24.4145 29.299 24.3482 29.3945 24.3279C29.4899 24.3068 29.5884 24.3354 29.6598 24.4024C30.876 25.5587 32.8198 25.4909 34.3817 25.4389C34.9214 25.4201 35.4318 25.4028 35.8557 25.4389C36.9606 25.5308 37.8641 26.3827 37.9017 26.4189C37.9498 26.4648 37.9806 26.5251 37.9904 26.5899C38.0062 26.7006 38.3677 29.3121 37.0831 30.6002C36.4082 31.2766 35.2093 31.6653 33.8901 31.6653V31.6645ZM29.5704 25.0992C29.5674 25.106 29.5644 25.1128 29.5614 25.1188C29.1352 26.0882 28.5511 27.4154 29.3742 28.7984C30.0928 30.0066 31.457 30.8179 33.1159 31.025C34.5786 31.2065 35.973 30.8759 36.6667 30.1806C37.6131 29.2323 37.4703 27.2542 37.4199 26.7782C37.2012 26.5936 36.5405 26.0867 35.8076 26.0257C35.4175 25.9933 34.9244 26.0099 34.4028 26.0279C32.8521 26.0807 30.9519 26.1462 29.5711 25.0992H29.5704Z" fill="#531139"/>
<path d="M29.5269 24.8889C29.4645 24.8889 29.4014 24.8693 29.348 24.8286C27.0442 23.0645 25.5123 20.2835 25.25 17.3896C24.9877 14.4956 25.9956 11.4833 27.9447 9.33281C28.0537 9.21229 28.2401 9.2025 28.3611 9.31248C28.4813 9.42245 28.4904 9.60926 28.3814 9.72978C26.5413 11.7605 25.5905 14.604 25.8378 17.3361C26.0851 20.0681 27.5313 22.6939 29.7065 24.3594C29.8358 24.4588 29.8606 24.6441 29.7622 24.7737C29.7043 24.8497 29.6163 24.8897 29.5276 24.8897L29.5269 24.8889Z" fill="#531139"/>
<path d="M33.6955 22.3433C33.5354 22.3433 33.3753 22.3199 33.219 22.2695C32.3749 21.9998 31.8607 21.0176 32.1186 20.1679C32.3764 19.3183 33.349 18.7887 34.1999 19.0358C34.6313 19.1608 34.9891 19.4584 35.2071 19.8741C35.4266 20.293 35.4717 20.7743 35.3311 21.1953C35.1019 21.8823 34.4028 22.3425 33.6948 22.3425L33.6955 22.3433ZM33.7745 19.5676C33.3054 19.5676 32.8191 19.8915 32.6831 20.3404C32.5214 20.8737 32.8695 21.5373 33.3986 21.7076C33.9278 21.8763 34.596 21.5373 34.7727 21.0093C34.8613 20.7442 34.8283 20.4233 34.6855 20.1498C34.5426 19.8779 34.3126 19.6843 34.0368 19.6045C33.9518 19.5796 33.8631 19.5683 33.7745 19.5683V19.5676Z" fill="#531139"/>
<path d="M20.9031 36.8663C20.489 36.8663 20.0643 36.8566 19.6283 36.837C13.9759 36.5816 8.92929 34.8582 5.03422 31.8512C2.92283 30.2212 1.38344 28.3787 0.45966 26.3744C-0.123623 25.1089 -0.152186 24.0513 0.376227 23.3147C0.713719 22.8446 1.21432 22.5923 1.69839 22.3482C1.83895 22.2767 1.98026 22.2059 2.11555 22.1298C3.70455 21.2334 4.64336 19.4452 5.35142 17.8137C5.44087 17.608 5.52881 17.4009 5.61751 17.1938C6.28272 15.633 6.96973 14.0196 8.20545 12.8114C8.32196 12.6976 8.50837 12.6999 8.62262 12.8166C8.73612 12.9334 8.73386 13.1202 8.61736 13.2347C7.46582 14.3608 6.80211 15.9185 6.15945 17.4258C6.07075 17.6344 5.98206 17.8431 5.89186 18.0502C5.14472 19.7714 4.14577 21.6628 2.40419 22.645C2.26062 22.7256 2.11179 22.8009 1.96297 22.8763C1.52325 23.0985 1.10759 23.3079 0.85503 23.6604C0.352926 24.3594 0.654339 25.3876 0.995589 26.1273C1.87953 28.0443 3.35954 29.8122 5.39502 31.3835C8.04385 33.4285 12.668 35.9323 19.6554 36.2472C22.435 36.3737 24.7433 36.0913 26.7149 35.387C29.124 34.5268 31.0459 32.9969 32.1283 31.0814C32.2088 30.9398 32.3884 30.8893 32.5297 30.9699C32.6718 31.0498 32.7214 31.2305 32.641 31.3722C31.4894 33.412 29.4547 35.036 26.9126 35.9444C25.18 36.5635 23.2047 36.8679 20.9039 36.8679L20.9031 36.8663Z" fill="#531139"/>
<path d="M18.3106 40.2958C18.2347 40.2958 18.158 40.2664 18.1009 40.2069C18.0566 40.1617 17.0005 39.065 16.106 36.4377C16.0534 36.2833 16.1353 36.1153 16.2902 36.0626C16.4443 36.0091 16.6119 36.0927 16.6645 36.2464C17.5109 38.7313 18.5128 39.7829 18.5226 39.7934C18.6361 39.9102 18.6338 40.097 18.5173 40.2115C18.4602 40.2672 18.3858 40.2958 18.3114 40.2958H18.3106Z" fill="#531139"/>
<path d="M17.7553 44.1787C17.7312 44.1787 17.7064 44.1757 17.6816 44.1697C17.5531 44.1365 17.4629 44.0213 17.4606 43.888C17.4396 42.5532 17.5952 41.2207 17.9229 39.9274C17.9477 39.8287 18.0214 39.7504 18.1183 39.7187C18.2145 39.6878 18.3205 39.7082 18.3979 39.7737C19.7644 40.9224 21.3136 40.8991 23.0499 40.7552C23.2115 40.7431 23.3506 40.8599 23.3671 41.0188C23.3837 41.1785 23.2702 41.3224 23.1108 41.3427C22.184 41.4595 21.4045 42.3159 21.373 43.2507C21.3692 43.3622 21.3031 43.4624 21.2024 43.5091C21.1016 43.5565 20.9829 43.5422 20.8957 43.4729C20.4597 43.1264 19.8734 42.9833 19.3255 43.088C18.779 43.1942 18.2874 43.546 18.0108 44.0296C17.9575 44.123 17.859 44.178 17.7553 44.178V44.1787ZM18.3904 40.5104C18.2048 41.351 18.0943 42.2067 18.0597 43.0662C18.3897 42.7875 18.7888 42.5909 19.2142 42.5088C19.7682 42.4018 20.3522 42.4907 20.8521 42.7468C20.9776 42.2398 21.2647 41.7751 21.6511 41.4196C20.6025 41.4173 19.4487 41.2418 18.3904 40.5104Z" fill="#531139"/>
<path d="M23.9144 42.635H23.9061C23.7934 42.6312 23.6926 42.5642 23.6468 42.4617C23.1101 41.2799 22.9357 39.9233 23.1545 38.6435C23.1717 38.5426 23.2394 38.4582 23.3333 38.4198C23.4273 38.3814 23.5348 38.3942 23.6175 38.4537C24.3075 38.9539 24.978 39.225 25.7274 39.3079C26.4256 39.3847 27.1487 39.3079 27.8478 39.2326C27.9876 39.2175 28.1184 39.3034 28.1605 39.4382C28.2026 39.5723 28.1439 39.7184 28.0207 39.7854C27.6539 39.9873 27.2743 40.1952 27.0044 40.4958C26.7947 40.7285 26.6068 41.1036 26.7068 41.4554C26.7391 41.5684 26.7015 41.6889 26.6113 41.7635C26.5211 41.838 26.3956 41.8524 26.2911 41.7996C25.5643 41.4335 24.5563 41.7567 24.1767 42.4768C24.1256 42.574 24.0249 42.6342 23.9159 42.6342L23.9144 42.635ZM23.6753 39.2024C23.5987 40.0559 23.7077 40.9296 23.991 41.7386C24.524 41.1902 25.3515 40.9402 26.0979 41.1089C26.1348 40.7579 26.2964 40.3993 26.5647 40.1003C26.6218 40.037 26.682 39.9768 26.7443 39.921C26.3858 39.9376 26.025 39.9346 25.662 39.8954C24.9562 39.8178 24.3143 39.5949 23.6746 39.2032L23.6753 39.2024Z" fill="#531139"/>
<path d="M23.6044 39.0516C23.536 39.0516 23.4669 39.0275 23.4113 38.9786C22.7355 38.3888 22.3206 37.5 22.3018 36.6021C22.2988 36.4394 22.4273 36.3038 22.5904 36.3008H22.5965C22.7566 36.3008 22.8873 36.4288 22.8911 36.59C22.9061 37.3244 23.2459 38.0513 23.7984 38.5334C23.9209 38.6404 23.9336 38.8272 23.8269 38.95C23.7683 39.017 23.6864 39.0516 23.6044 39.0516Z" fill="#531139"/>
<path d="M39.1675 18.6044C39.0375 18.6044 38.9187 18.5178 38.8834 18.3868C38.7345 17.8376 38.2407 17.3782 37.683 17.2697C37.5229 17.2388 37.4184 17.0836 37.45 16.9232C37.4808 16.7635 37.6349 16.6581 37.7957 16.6897C38.5782 16.8418 39.2442 17.461 39.4531 18.2316C39.496 18.389 39.4035 18.5517 39.2457 18.5939C39.2201 18.6014 39.1938 18.6044 39.1682 18.6044H39.1675Z" fill="#531139"/>
</svg>