<svg xmlns="http://www.w3.org/2000/svg" width="50" height="100" viewBox="0 0 134 185" fill="none">
<path d="M42.8007 24.4112C46.4136 22.8535 48.4578 21.8285 52.3894 20.7858C54.0516 20.3213 53.3559 17.7941 51.6861 18.2384C48.0834 19.1928 44.5869 20.5333 41.3637 22.4117C39.914 23.3912 41.3536 25.3504 42.8007 24.4087V24.4112Z" fill="#FFE0A3" fill-opacity="0.5"/>
<path d="M98.1724 66.4061C98.39 66.2647 98.4988 66.2016 98.4609 66.2117C98.6127 66.141 98.7619 66.0653 98.9137 65.9895C98.9365 65.9794 98.9618 65.9693 98.9846 65.9592C99.0554 65.9314 99.1566 65.8936 99.2755 65.8507C99.7739 65.6335 100.399 65.7219 100.811 65.3306C102.22 64.3384 101.054 62.041 99.4121 62.5282C98.9213 62.5964 98.1724 62.7403 96.9859 63.4245C96.8745 63.5633 96.2648 63.6719 95.8828 64.6489C95.4805 65.9365 97.0289 67.1231 98.1724 66.4061Z" fill="#FFCD91" fill-opacity="0.5"/>
<path d="M124.047 134.589C125.511 123.95 123.728 112.887 118.994 103.243C114.26 93.599 106.595 85.4116 97.5017 79.8801C103.46 68.3728 104.269 54.3257 99.6725 42.2125C95.0755 30.0992 85.1427 20.1117 72.6951 14.9842C75.468 12.0808 75.4528 6.97348 71.8906 3.5122C72.227 7.37238 69.1809 11.225 65.8287 11.278C65.6946 7.54405 63.6326 3.93381 59.868 1.64648C60.4347 3.58036 61.0065 5.56725 60.8598 7.57687C60.713 9.58648 59.6934 11.6592 57.8567 12.4949C56.3007 13.2018 54.5019 12.9165 52.7941 12.9645C49.3128 13.0629 46.0517 14.5903 42.9094 16.09C38.7349 18.0794 34.5604 20.0713 30.4213 22.6162C22.4139 27.5872 16.1395 35.2823 12.8935 44.1186C10.1889 51.4855 9.58931 59.6981 11.7423 67.2443C13.8954 74.7904 18.8972 81.5944 25.8269 85.3384C26.4265 85.7121 27.0286 86.0832 27.6282 86.4568C24.1571 88.1887 20.9566 90.4609 17.617 93.9651C8.9391 102.349 3.26684 113.771 1.83486 125.74C1.54391 128.174 1.54898 130.974 3.33263 132.658C4.88605 134.125 7.36544 134.218 9.36161 133.448C11.3578 132.678 12.982 131.201 15.049 129.381C12.9517 137.609 13.273 146.432 15.9599 154.486C18.6467 162.539 23.6915 169.795 30.644 175.261C37.8064 179.924 46.3148 182.502 55.6581 182.926C67.5162 183.863 79.6146 181.603 90.1546 176.183C98.5264 173.32 106.084 168.124 111.746 161.338C117.408 154.552 122.42 146.435 124.049 134.592L124.047 134.589Z" fill="#FFD26F" fill-opacity="0.5"/>
<path d="M131.563 132.426C128.203 135.627 122.498 135.985 118.762 133.231C120.156 136.321 120.221 139.979 118.944 143.117C117.666 146.256 115.058 148.831 111.9 150.073C117.206 148.482 123.313 149.901 127.366 153.67C130.346 147.389 132.09 140.525 131.563 132.426Z" fill="#F58359" fill-opacity="0.5"/>
<path d="M91.7791 168.015C87.1542 168.371 82.4231 165.97 79.9918 162.029C78.284 167.394 73.2898 171.568 67.6985 172.305C73.0039 173.613 77.563 177.624 79.5237 182.716C85.1884 178.881 89.3857 172.938 91.7791 168.015Z" fill="#F58359" fill-opacity="0.5"/>
<path d="M83.0632 76.3052C82.6381 75.1439 81.487 74.3916 80.3105 74.0053C79.1341 73.6165 77.8843 73.5105 76.6901 73.1772C71.959 71.8518 68.8294 67.1988 64.2222 65.4947C60.8928 64.2627 57.1231 64.7323 53.8214 66.0375C50.5198 67.3428 47.5976 69.4281 44.7109 71.4907C41.8317 73.5483 38.9501 75.6084 36.071 77.666C35.5371 78.0472 34.9527 78.5118 34.8996 79.1657C34.8439 79.8296 35.2866 80.4911 35.8559 80.8395C42.9804 85.197 50.2415 89.8171 58.4108 89.0244C76.68 87.2521 83.4882 77.4641 83.0632 76.3052Z" fill="#F58359" fill-opacity="0.5"/>
<path d="M10.7103 58.9231C16.2131 58.4257 21.8575 61.6775 24.1826 66.6788C26.5076 71.6801 25.3464 78.0801 21.4147 81.9503C17.2934 80.2815 14.3054 76.5173 12.5977 72.4198C10.8874 68.3223 10.2929 63.8587 10.7103 58.9231Z" fill="#F58359" fill-opacity="0.5"/>
<path d="M102.85 59.5012C97.4082 58.9811 91.8497 62.6419 90.1901 67.8401C88.5329 73.0383 90.9465 79.2338 95.6878 81.9478C101.003 76.0654 103.672 67.8855 102.85 59.5012Z" fill="#F58359" fill-opacity="0.5"/>
<path d="M87.0909 54.0202C87.8044 51.5056 86.1624 48.5695 83.6425 47.855C81.1227 47.1431 78.1803 48.7816 77.4643 51.2961C76.7508 53.8106 78.3928 56.7468 80.9127 57.4613C83.4325 58.1732 86.3749 56.5347 87.0909 54.0202Z" fill="#531139"/>
<path d="M40.2504 56.8453C40.807 54.8231 40.215 52.5054 38.6996 51.0538C37.1816 49.6021 34.7856 49.1174 32.8527 49.9404C30.9198 50.7634 29.6017 52.8841 29.799 54.9745C30.0191 57.2871 32.0659 59.2361 34.3733 59.5391C36.6806 59.842 39.6913 58.8827 40.2504 56.8453Z" fill="#531139"/>
<path d="M69.467 86.3028C61.4672 91.9959 50.3402 92.9754 41.465 88.7694C39.5371 87.8555 37.6751 86.6815 36.3848 84.9875C35.0945 83.2934 34.4543 80.9985 35.1299 78.9788C43.3954 87.9741 57.4293 91.1375 69.467 86.3028Z" fill="#D1A037" fill-opacity="0.5"/>
<path d="M71.1493 181.833C50.7601 182.472 30.2797 173.383 17.1009 157.844C20.1116 168.164 29.1766 175.948 39.2865 179.664C49.3964 183.378 60.4702 183.527 71.1519 181.833H71.1493Z" fill="#D1A037" fill-opacity="0.5"/>
<path d="M78.8203 164.274C77.8589 164.198 77.2745 163.229 76.7077 162.451C76.141 161.673 75.0885 160.941 74.2891 161.479C73.9399 161.714 73.7654 162.125 73.5883 162.509C71.9007 166.14 68.2525 168.79 64.2703 169.273C62.7776 169.454 60.9484 169.53 60.2602 170.866C59.5873 172.171 60.6246 173.792 61.9427 174.448C63.2608 175.105 64.7889 175.148 66.2057 175.544C69.0115 176.332 71.3442 178.624 72.1765 181.414C74.4738 181.555 76.7938 181.338 79.0227 180.772C76.0196 176.405 71.0102 173.936 66.2209 171.651C68.8597 172.333 71.7616 171.946 74.1297 170.598C76.4978 169.25 78.3042 166.953 78.8203 164.274Z" fill="#D1A037" fill-opacity="0.5"/>
<path d="M119.794 136.72C119.209 136.233 118.605 135.733 117.876 135.503C117.147 135.273 116.262 135.379 115.766 135.958C114.825 137.056 115.877 138.694 115.903 140.138C115.928 141.618 114.832 142.86 113.744 143.867C112.252 145.246 110.635 146.49 108.925 147.586C108.115 148.104 107.27 148.598 106.633 149.315C105.995 150.032 105.585 151.032 105.833 151.959C106.278 153.615 108.394 154.102 110.111 154.059C111.829 154.016 113.8 153.84 115.007 155.061C116.798 153.65 118.253 151.817 119.217 149.752C116.801 148.869 114.109 148.75 111.624 149.421C116.641 147.914 120.241 142.653 119.794 136.725V136.72Z" fill="#D1A037" fill-opacity="0.5"/>
<path d="M55.5342 66.1713C51.299 67.8578 47.504 71.1449 46.1706 75.4974C44.8373 79.8498 46.5198 85.2021 50.5805 87.2748C45.69 86.0731 41.0373 83.9271 36.9539 80.9859C35.9621 80.2715 34.8995 79.2717 35.0639 78.0624C35.2891 76.4315 37.3713 75.9871 38.9475 75.4999C42.234 74.485 44.6729 71.8013 47.2636 69.5442C49.8569 67.2847 53.1965 65.27 55.5316 66.1738L55.5342 66.1713Z" fill="#D1704B" fill-opacity="0.5"/>
<path d="M97.636 66.4364C97.7903 66.2975 98.2331 65.9365 98.3874 65.8103C98.4912 65.7396 98.5215 65.7169 98.5139 65.7143C98.7239 65.6007 98.9187 65.4594 99.1312 65.3508C99.2755 65.2195 99.3134 65.4089 100.108 64.9065C101.469 63.9471 100.341 61.7254 98.7543 62.1975C97.3982 62.5686 96.5254 63.4295 96.2471 63.6896C95.8043 64.197 95.1844 64.6994 95.1946 65.4265C95.1516 66.656 96.7935 67.3326 97.636 66.4364Z" fill="#FFCD91" fill-opacity="0.5"/>
<path d="M95.3262 69.163C95.3211 67.5194 92.8139 67.522 92.8038 69.163C92.8088 70.8065 95.3161 70.804 95.3262 69.163Z" fill="#FFCD91" fill-opacity="0.5"/>
<path d="M20.4128 65.0529C20.0257 64.3737 19.216 64.1693 18.5582 63.8335C17.9789 63.5558 17.3616 63.2175 16.7012 63.4295C15.2338 63.7805 14.953 65.9315 16.2787 66.651C17.0833 66.9438 17.817 67.5119 18.6569 67.6659C20.056 67.9512 21.154 66.2395 20.4102 65.0529H20.4128Z" fill="#FFCD91" fill-opacity="0.5"/>
<path d="M71.1797 73.6594C69.5757 72.3743 67.9034 70.9883 65.8288 70.6021C64.5005 70.1956 63.4683 71.9679 64.4752 72.9247C65.7427 73.7301 65.6517 73.3438 66.6586 73.927C68.3486 74.7702 68.3411 75.0782 69.6693 75.9038C70.9976 76.5526 72.26 74.6592 71.1822 73.6619L71.1797 73.6594Z" fill="#FFCD91" fill-opacity="0.5"/>
<path d="M61.6443 71.468C61.6392 69.8245 59.132 69.827 59.1219 71.468C59.1269 73.1116 61.6342 73.1091 61.6443 71.468Z" fill="#FFCD91" fill-opacity="0.5"/>
<path d="M128.808 142.491C130.222 140.376 127.346 138.285 125.899 140.396C124.484 142.511 127.361 144.602 128.808 142.491Z" fill="#FFCD91" fill-opacity="0.5"/>
<path d="M85.1302 175.11C86.676 173.024 83.7437 170.82 82.2763 172.966C80.7305 175.052 83.6628 177.258 85.1302 175.11Z" fill="#FFCD91" fill-opacity="0.5"/>
<path d="M43.2309 25.0221C45.1815 24.2622 47.0967 23.419 49.0575 22.6868C50.1175 22.1491 51.5824 22.0885 52.2832 21.0484C53.0979 19.7557 51.7544 18.0087 50.2896 18.4606C48.2504 19.2533 46.1834 19.9981 44.2353 21.0004C43.2688 21.6467 41.8166 22.0077 41.3789 23.1716C41.0576 24.2572 42.143 25.3503 43.2334 25.0221H43.2309Z" fill="#FFE0A3" fill-opacity="0.5"/>
<path d="M36.2531 28.741C37.9077 27.264 35.6409 24.8353 34.0394 26.3602C32.3949 27.8472 34.6491 30.2608 36.2531 28.741Z" fill="#FFE0A3" fill-opacity="0.5"/>
<path d="M15.5957 109.769C17.0858 107.709 18.5203 105.611 19.922 103.491C20.3925 102.751 21.1212 101.983 20.8227 101.039C20.4685 99.5749 18.318 99.2947 17.5969 100.618C16.0713 102.958 14.5558 105.303 13.1694 107.729C11.6413 109.575 14.1839 111.736 15.5931 109.767L15.5957 109.769Z" fill="#FFE0A3" fill-opacity="0.5"/>
<path d="M110.486 150.3C110.486 149.974 110.648 149.659 110.936 149.469C114.281 147.291 116.525 145.008 117.792 142.494C119.326 139.452 119.29 135.942 117.696 133.554C117.428 133.153 117.489 132.617 117.841 132.287C118.19 131.956 118.729 131.923 119.116 132.211C122.511 134.731 127.763 134.405 130.822 131.484C131.08 131.239 131.449 131.148 131.791 131.252C132.133 131.353 132.393 131.63 132.474 131.976C134.202 139.426 132.239 147.841 127.341 153.941C127.166 154.158 126.908 154.291 126.63 154.309C126.351 154.327 126.078 154.226 125.876 154.031C122.278 150.547 116.507 149.394 111.839 151.219C111.366 151.406 110.83 151.201 110.595 150.752C110.521 150.608 110.483 150.452 110.483 150.298L110.486 150.3ZM120.892 137.886C120.892 139.719 120.451 141.623 119.563 143.385C118.663 145.17 117.352 146.836 115.596 148.417C119.465 148.194 123.452 149.424 126.427 151.873C130.162 146.76 131.788 140.118 130.842 133.996C127.885 135.968 123.907 136.404 120.555 135.2C120.778 136.059 120.892 136.965 120.892 137.886Z" fill="#531139"/>
<path d="M66.0565 172.484C66.0565 172.045 66.35 171.653 66.7801 171.532C69.5909 170.74 72.4979 169.922 74.8179 168.195C77.2442 166.39 78.5497 163.698 78.1524 161.34C78.0765 160.853 78.3599 160.381 78.8305 160.232C79.3011 160.083 79.8121 160.303 80.0247 160.747C82.0309 164.908 87.1491 167.425 91.6778 166.478C92.0093 166.407 92.3559 166.513 92.5937 166.756C92.829 167.001 92.9251 167.346 92.8467 167.677C91.2326 174.375 86.2915 180.235 79.9563 182.969C79.4807 183.173 78.9241 182.979 78.6837 182.52C76.1107 177.629 71.5972 174.158 66.9041 173.464C66.4411 173.395 66.0894 173.014 66.059 172.547C66.059 172.527 66.059 172.504 66.059 172.484H66.0565ZM79.9361 164.191C79.3846 166.278 78.0032 168.293 76.0019 169.783C74.365 171.002 72.4878 171.812 70.6156 172.446C74.3498 173.951 77.7299 176.925 79.9816 180.778C84.9202 178.366 88.8215 173.852 90.514 168.631C86.5445 168.912 82.5218 167.187 79.9361 164.188V164.191Z" fill="#531139"/>
<path d="M84.9885 177.904C84.9885 177.485 85.2567 177.097 85.6766 176.963C98.2862 172.916 112.818 160.737 118.071 149.813C118.306 149.32 118.901 149.111 119.394 149.348C119.887 149.586 120.097 150.176 119.859 150.669C114.311 162.209 99.5638 174.587 86.2838 178.849C85.7627 179.015 85.2035 178.73 85.034 178.21C85.0011 178.109 84.986 178.008 84.986 177.907L84.9885 177.904Z" fill="#531139"/>
<path d="M13.1365 140.1C13.1365 131.082 14.9707 122.938 16.1016 117.929C16.2206 117.396 16.7519 117.061 17.2882 117.179C17.8221 117.298 18.1535 117.833 18.0371 118.363C15.6867 128.793 10.1865 153.216 25.5765 169.707C38.735 183.807 63.868 183.966 77.5123 179.576C78.0335 179.409 78.5926 179.694 78.7622 180.215C78.9266 180.737 78.6432 181.293 78.1221 181.462C72.3511 183.32 62.4184 184.872 51.8531 183.663C43.6989 182.729 32.2683 179.783 24.1268 171.058C15.5375 161.855 13.139 150.409 13.139 140.103L13.1365 140.1Z" fill="#531139"/>
<path d="M96.7074 79.8751C96.7074 79.6883 96.7606 79.5014 96.8694 79.3323C97.1704 78.8753 97.7852 78.7466 98.2431 79.047C118.2 92.0994 127.783 111.741 125.238 134.364C125.175 134.907 124.687 135.299 124.14 135.238C123.594 135.177 123.202 134.683 123.265 134.142C125.729 112.299 116.454 93.3239 97.1552 80.7006C96.8643 80.5113 96.7074 80.1932 96.7074 79.8726V79.8751Z" fill="#531139"/>
<path d="M0.899005 128.27C0.899005 127.914 0.911652 127.561 0.926832 127.207C1.75667 110.009 12.1347 93.6672 27.3653 85.5732C27.8486 85.3157 28.4507 85.5 28.7062 85.9822C28.9618 86.4669 28.7796 87.0653 28.2964 87.3228C13.6704 95.0936 3.70476 110.787 2.90781 127.303C2.83444 128.858 2.87494 130.454 3.68454 131.56C4.86858 133.175 7.44412 133.261 9.24801 132.41C11.3353 131.428 12.9215 129.431 14.3181 127.669C14.6571 127.24 15.282 127.167 15.7121 127.508C16.1422 127.846 16.2131 128.469 15.8741 128.899C14.3409 130.83 12.6028 133.019 10.0955 134.2C7.59844 135.377 3.94258 135.261 2.08303 132.728C1.12416 131.421 0.899005 129.848 0.899005 128.27Z" fill="#531139"/>
<path d="M34.1304 78.8223C34.1304 78.6834 34.1431 78.542 34.1659 78.4007C34.4214 76.8657 35.9369 76.1588 36.7515 75.7801C39.1955 74.6364 41.3637 72.955 43.661 71.1726C47.9569 67.8401 52.3996 64.3914 58.9776 64.3914C63.1318 64.3914 67.1444 66.7116 71.0254 68.956C74.0741 70.7182 76.9532 72.3819 79.8248 72.9702C80.6926 73.1469 81.702 73.3539 82.4711 74.0608C83.5186 75.0252 83.7994 76.747 83.1593 78.2391C82.6508 79.4282 81.7096 80.3194 80.7685 81.1046C74.699 86.1715 67.0052 89.1834 59.1015 89.5874C49.862 90.0595 40.8248 84.9698 36.2582 81.8922C34.8439 80.9379 34.1304 79.9053 34.1304 78.8172V78.8223ZM81.5123 76.5753C81.5123 76.1689 81.3959 75.7725 81.1201 75.5175C80.7609 75.1843 80.1385 75.058 79.4807 74.9242C76.2347 74.2602 73.0798 72.4349 70.0286 70.6702C66.3728 68.5571 62.5955 66.3733 58.975 66.3733C53.0776 66.3733 49.0954 69.4634 44.8779 72.7354C42.5958 74.5051 40.2379 76.3355 37.5915 77.5726C36.9084 77.8907 36.1974 78.277 36.1241 78.7238C36.0709 79.1227 36.5011 79.668 37.3714 80.2537C41.7306 83.1924 50.3376 88.0574 59.0029 87.6131C66.4765 87.2293 73.7553 84.379 79.4959 79.5872C80.1967 79.0015 80.9734 78.3098 81.3352 77.464C81.449 77.1989 81.5148 76.8834 81.5148 76.5728L81.5123 76.5753Z" fill="#531139"/>
<path d="M8.98721 57.9486C8.98721 46.9007 14.2344 35.4742 23.2109 27.1227C31.3473 19.5513 42.4793 14.2848 55.4026 11.8965C55.5266 11.8738 55.6505 11.8738 55.7745 11.8965C56.7612 12.0884 57.629 11.9395 58.35 11.4522C59.2406 10.8488 59.8984 9.73796 60.1514 8.40243C60.6144 5.93585 59.8478 3.38344 59.1268 1.43441C58.9775 1.03047 59.1065 0.576033 59.4455 0.310945C59.7846 0.0458579 60.2602 0.0307097 60.6169 0.273075C63.9919 2.56798 66.2538 6.48117 66.6459 10.5408C69.1835 9.05126 70.8659 6.01916 70.6231 3.0931C70.5876 2.69926 70.7951 2.32308 71.1443 2.13626C71.4934 1.94944 71.9235 1.98983 72.2321 2.23725C75.8905 5.16583 76.9025 10.8286 74.6862 14.911C87.9181 21.5609 97.8484 32.6617 102.02 45.5172C106.716 59.9859 103.199 76.333 93.2666 86.1892C92.8769 86.5755 92.2495 86.573 91.8624 86.1842C91.4753 85.7954 91.4779 85.1693 91.8675 84.783C101.282 75.4393 104.603 59.9051 100.13 46.1256C96.0799 33.6489 85.8739 22.4647 72.8292 16.2036C72.5636 16.0773 72.3688 15.8375 72.2979 15.5522C72.2271 15.2669 72.2853 14.9665 72.4573 14.7267C74.4181 12.0354 74.3118 8.11714 72.4675 5.388C71.8299 8.79375 69.3505 11.8385 66.0336 12.9872C65.7275 13.0932 65.386 13.0427 65.1229 12.8508C64.8597 12.659 64.7256 12.3459 64.7155 12.0278C64.799 9.22798 63.7693 6.42816 62.0135 4.23929C62.2943 5.66571 62.3955 7.20574 62.0995 8.76092C61.7504 10.609 60.7864 12.1843 59.4632 13.0831C58.3551 13.8329 57.0192 14.1031 55.5898 13.8683C43.1144 16.2036 32.3897 21.2832 24.5644 28.5617C15.6259 36.8804 10.5356 48.3473 11.0011 59.2689C11.4843 71.1095 18.9478 82.1826 29.1513 86.1943C29.6598 86.3937 29.9103 86.9668 29.7104 87.4793C29.508 87.9868 28.9337 88.2367 28.4227 88.0373C17.5108 83.7454 9.52863 71.9477 9.01757 59.3497C8.99733 58.8801 8.98974 58.4106 8.98974 57.941L8.98721 57.9486Z" fill="#531139"/>
<path d="M83.4984 142.239C83.4984 141.936 83.6375 141.635 83.9007 141.441C86.4661 139.553 88.2118 136.541 88.571 133.38C88.6318 132.837 89.1251 132.446 89.6691 132.509C90.213 132.572 90.6077 133.064 90.5419 133.605C90.1219 137.303 88.0777 140.828 85.0771 143.037C84.6369 143.362 84.0145 143.269 83.6907 142.827C83.5591 142.65 83.4959 142.446 83.4959 142.241L83.4984 142.239Z" fill="#531139"/>
<path d="M83.7512 136.124C83.7512 135.945 83.7993 135.766 83.9005 135.602C84.1914 135.137 84.8037 134.996 85.2667 135.286C88.0725 137.031 90.5519 139.389 92.4367 142.1C92.7479 142.547 92.6366 143.165 92.1862 143.478C91.7359 143.792 91.1186 143.678 90.8049 143.229C89.0744 140.737 86.7973 138.571 84.2167 136.967C83.9157 136.781 83.7487 136.457 83.7487 136.127L83.7512 136.124Z" fill="#531139"/>
<path d="M76.4524 52.672C76.4524 52.0535 76.5535 51.4451 76.7585 50.8745C77.7679 48.0595 81.1708 46.3932 84.0398 47.3097C86.8962 48.2211 88.7001 51.4602 87.9891 54.3863C87.6476 55.7799 86.6913 56.9614 85.2972 57.7112C83.716 58.562 81.7653 58.7463 80.2094 58.1934C78.8584 57.7137 77.7022 56.6382 77.0418 55.2421C76.6522 54.4216 76.4549 53.538 76.4549 52.6746L76.4524 52.672ZM86.16 53.0709C86.16 51.3946 85.0316 49.7081 83.4351 49.1981C81.5731 48.6023 79.2809 49.7207 78.6256 51.5435C78.3119 52.417 78.3878 53.4572 78.8331 54.3938C79.2708 55.3179 80.0171 56.0222 80.8748 56.3277C81.9045 56.6938 83.2707 56.5524 84.3561 55.9692C85.2492 55.4895 85.8538 54.7599 86.0613 53.9167C86.1296 53.639 86.1625 53.3537 86.1625 53.0709H86.16Z" fill="#531139"/>
<path d="M29.2778 54.1869C29.2778 53.5683 29.3791 52.9599 29.584 52.3893C30.5935 49.5743 33.9963 47.9081 36.8653 48.8245C39.7217 49.7384 41.5307 52.9776 40.8147 55.9011C40.4731 57.2947 39.5168 58.4762 38.1227 59.2261C36.5415 60.0769 34.5909 60.2612 33.0349 59.7083C31.6839 59.2286 30.5277 58.1531 29.8674 56.757C29.4777 55.9364 29.2804 55.0528 29.2804 54.1894L29.2778 54.1869ZM38.9854 54.5832C38.9854 52.9069 37.8571 51.2204 36.2607 50.7104C34.3986 50.1146 32.1064 51.233 31.4511 53.0558C31.1374 53.9319 31.2108 54.9695 31.6586 55.9061C32.0963 56.8302 32.8426 57.5345 33.7003 57.84C34.73 58.2061 36.0962 58.0647 37.1816 57.4815C38.0747 57.0018 38.6793 56.2722 38.8868 55.429C38.9551 55.1513 38.988 54.866 38.988 54.5807L38.9854 54.5832Z" fill="#531139"/>
<path d="M81.0923 38.9127C81.0923 38.89 81.0923 38.8648 81.0948 38.842C81.1328 38.2967 81.6084 37.8852 82.1549 37.9256C84.7608 38.1099 87.2857 39.4378 88.91 41.4778C89.249 41.9044 89.1807 42.528 88.7506 42.8688C88.3205 43.2097 87.6981 43.139 87.3566 42.7098C86.0713 41.0965 84.0751 40.0463 82.0157 39.8999C81.492 39.862 81.0923 39.4278 81.0923 38.9127Z" fill="#531139"/>
<path d="M27.4868 43.1668C27.4868 42.9623 27.55 42.7553 27.6816 42.5785C29.4222 40.2357 32.3191 38.8269 35.2412 38.9001C35.7877 38.9127 36.2304 39.3823 36.2077 39.915C36.195 40.4629 35.7396 40.8946 35.1906 40.8794C32.9035 40.8214 30.6366 41.9246 29.2729 43.7575C28.9466 44.1968 28.3242 44.2877 27.8865 43.962C27.6234 43.7676 27.4842 43.4697 27.4842 43.1668H27.4868Z" fill="#531139"/>
</svg>