<svg xmlns="http://www.w3.org/2000/svg" width="70" height="70" viewBox="0 0 182 183" fill="none">
<path d="M1.08911 12.7854C5.9541 10.8576 9.7966 6.51105 11.1195 1.4384C11.2786 6.00505 14.9646 10.1973 19.4635 10.9335C14.3334 12.1808 10.3419 17.1244 10.1955 22.4121C10.1097 20.2363 9.99858 17.977 8.97862 16.0542C7.95867 14.1314 5.73698 12.664 1.08911 12.7854Z" fill="#80B64C"/>
<path d="M10.1955 23.4039C9.66531 23.4039 9.22853 22.9839 9.20581 22.4526C9.12754 20.4994 9.04171 18.2831 8.10507 16.5223C7.07249 14.5792 4.77253 13.676 1.11684 13.7797C0.642209 13.7722 0.215559 13.4584 0.122147 12.9853C0.0262108 12.5122 0.281206 12.0416 0.728068 11.8645C5.30525 10.0505 8.92054 5.95951 10.1652 1.18793C10.2889 0.709761 10.7509 0.401102 11.2331 0.451702C11.7204 0.504832 12.0965 0.912161 12.1142 1.40298C12.2556 5.46363 15.626 9.29911 19.6275 9.95185C20.0921 10.0278 20.4405 10.4224 20.4581 10.893C20.4758 11.3661 20.1602 11.7836 19.7033 11.8949C14.9847 13.041 11.3265 17.5722 11.1927 22.4374C11.1776 22.9712 10.7433 23.3988 10.2081 23.4013H10.203L10.1955 23.4039ZM4.60844 12.0543C7.10784 12.5502 8.86752 13.7317 9.85213 15.5862C10.1273 16.1023 10.3394 16.6361 10.5085 17.1775C11.781 14.5615 13.8991 12.3452 16.4743 11.0043C13.9471 9.77475 11.9021 7.55088 10.8645 4.93486C9.45574 7.80135 7.26689 10.2883 4.60844 12.0518V12.0543Z" fill="#531139"/>
<path d="M159.748 83.714C164.83 81.862 169.021 77.6901 170.899 72.6073C171.376 77.5964 175.269 82.0745 180.139 83.2282C176.961 83.6659 174.229 85.8468 172.391 88.483C170.553 91.1193 169.475 94.1983 168.417 97.2368C168.397 94.6765 168.362 92.0478 167.42 89.6671C166.479 87.2864 164.411 85.1763 159.748 83.7165V83.714Z" fill="#80B64C"/>
<path d="M168.417 98.2261C168.364 98.2261 168.309 98.221 168.256 98.2134C167.781 98.135 167.43 97.7251 167.428 97.2419C167.408 94.7979 167.387 92.273 166.501 90.0314C165.888 88.4805 164.489 86.2389 159.452 84.6627C159.048 84.5362 158.766 84.1643 158.758 83.7393C158.751 83.3142 159.011 82.9297 159.409 82.7829C164.239 81.0221 168.185 77.0904 169.973 72.2632C170.134 71.8306 170.579 71.5649 171.028 71.6256C171.487 71.6838 171.841 72.0532 171.886 72.5137C172.326 77.1031 175.893 81.2017 180.369 82.2618C180.831 82.3731 181.152 82.7981 181.129 83.2763C181.106 83.7519 180.748 84.1466 180.273 84.2124C177.675 84.5717 175.098 86.3351 173.202 89.0523C171.429 91.5924 170.371 94.6284 169.351 97.5632C169.21 97.968 168.831 98.2286 168.417 98.2286V98.2261ZM162.378 83.6356C165.438 84.9815 167.357 86.8158 168.339 89.3002C168.743 90.3198 168.99 91.3799 169.144 92.44C169.808 90.8714 170.584 89.3382 171.578 87.9113C173.091 85.7456 175.004 84.0935 177.067 83.127C174.08 81.5736 171.704 78.8412 170.576 75.6635C168.688 79.0411 165.807 81.8468 162.378 83.6356Z" fill="#531139"/>
<path d="M111.525 1.72177C112.156 5.97976 109.919 10.5186 105.869 13.5622C94.8594 6.31625 80.5523 4.34032 67.3206 9.036C55.7073 12.6969 45.8132 21.4988 40.8043 32.6156C35.7954 43.7324 35.7525 56.9921 40.8624 68.2279C37.1511 70.8616 34.066 74.3732 31.5894 77.8646C24.7476 82.4186 21.0313 90.3831 18.4032 98.1805C17.6786 100.331 17.002 102.542 16.9919 104.812C16.9792 107.081 17.7164 109.454 19.418 110.952C21.1196 112.452 23.8867 112.812 26.3911 110.96C31.1324 127.076 43.4905 140.758 60.1153 147.106C72.4936 151.753 86.1873 152.927 99.1261 150.213C112.065 147.498 124.196 140.872 133.307 131.275C135.342 129.133 137.299 126.701 137.814 123.787C138.329 120.875 136.892 117.424 134.198 116.556C126.516 112.265 120.75 104.66 117.42 95.5746C131.858 87.0814 140.659 69.8294 139.207 54.5355C138.177 43.2517 133.373 32.3449 125.208 23.9402C126.72 21.562 127.271 18.5868 126.705 15.824C126.14 13.0612 124.471 10.5414 122.146 8.94998C121.449 12.4464 119.061 15.5634 115.87 17.1421C118.354 12.0897 116.804 5.38268 111.527 1.71924L111.525 1.72177Z" fill="#FFD26F"/>
<path d="M59.9386 157.216C58.6156 163.03 55.1064 168.317 50.2667 171.786C56.091 171.002 62.2284 173.046 66.4269 177.167C68.7572 172.75 72.6274 169.167 77.2046 167.189C70.9914 165.815 65.1671 162.726 59.9386 157.218V157.216Z" fill="#F58359"/>
<path d="M89.7622 162.787C86.7755 167.675 82.1302 171.523 76.778 173.539C81.1203 173.926 85.0689 177.18 86.2883 181.375C90.7695 178.336 96.1596 176.664 101.567 176.633C98.0784 172.178 94.5893 167.723 89.7622 162.784V162.787Z" fill="#F58359"/>
<path d="M85.6243 71.446C85.0764 68.195 81.9761 65.9003 78.785 65.0983C75.5939 64.2937 72.2462 64.6353 68.9566 64.6403C65.6569 64.6454 62.3597 64.3038 59.1307 63.6258C57.2952 63.2387 55.1039 62.8415 53.7759 64.1697C52.4833 65.4651 52.8291 67.6308 53.4426 69.3562C55.7653 75.8912 60.6177 81.3687 66.4799 85.0574C72.3421 88.7462 79.1713 90.7196 86.056 91.4406C88.0101 91.6455 90.0929 91.729 91.8248 90.798C93.5567 89.8695 94.7029 87.5798 93.7486 85.8594C93.1073 84.7032 91.7718 84.1466 90.8175 83.2333C89.8303 82.2871 89.2799 80.9816 88.7548 79.7141C87.6414 77.0247 86.1242 74.4314 85.6218 71.446H85.6243Z" fill="#F58359"/>
<path d="M39.287 38.4219C45.5835 40.1019 50.5343 45.9715 51.1427 52.471C51.7512 58.9706 47.9718 65.6599 42.0263 68.7845C35.6793 60.4532 34.5887 48.4306 39.287 38.4194V38.4219Z" fill="#F58359"/>
<path d="M128.205 84.9512C123.749 80.0658 115.895 78.7147 110.068 81.8292C104.241 84.9436 100.987 92.2351 102.603 99.0104C112.84 98.6941 122.797 93.2698 128.202 84.9512H128.205Z" fill="#F58359"/>
<path d="M68.0982 31.0242C65.5685 30.202 62.5415 31.3885 61.2413 33.7136C59.9411 36.0387 60.5117 39.2442 62.5289 40.9772C64.4627 42.6369 67.5302 42.7887 69.6155 41.3289C71.7009 39.8666 72.6098 36.9242 71.7085 34.5384C71.206 33.2152 70.325 31.7503 68.0957 31.0268L68.0982 31.0242Z" fill="#531139"/>
<path d="M113.09 61.8624C110.881 60.9086 108.134 61.3488 106.349 62.9655C104.564 64.5821 103.855 67.2968 104.64 69.5738C105.428 71.8508 107.677 73.551 110.081 73.6522C112.484 73.7534 114.88 72.2379 115.799 70.0115C116.718 67.7826 117.061 63.5803 113.09 61.8624Z" fill="#531139"/>
<path d="M48.1081 73.3334C36.3281 77.4371 27.194 88.3566 25.2197 100.695C26.5073 88.3844 31.8646 76.5364 40.2565 67.4512C42.362 69.1235 44.4928 73.384 48.1106 73.3334H48.1081Z" fill="#D1A037"/>
<path d="M53.5689 68.1292C52.0162 70.8717 52.2233 74.353 53.4351 77.265C54.6469 80.1745 56.755 82.6135 58.9414 84.8803C61.6074 87.6431 64.4855 90.2642 67.8584 92.0858C75.3566 96.1363 85.0765 95.6607 92.0419 90.8233C86.3337 92.4982 80.2519 90.5627 74.6598 88.5311C71.4333 87.3597 68.1891 86.1327 65.3312 84.2276C62.2613 82.1834 59.7442 79.4282 57.2574 76.7009C55.6139 74.897 53.9148 72.9969 53.5664 68.1292H53.5689Z" fill="#D1A037"/>
<path d="M132.734 115.061C131.704 126.117 125.451 136.568 116.208 142.688C124.908 140.368 132.636 134.582 137.324 126.878C138.367 125.166 139.291 123.187 138.899 121.221C138.298 118.193 135.006 116.644 132.734 115.061Z" fill="#D1A037"/>
<path d="M96.2556 112.445C96.5181 119.61 99.1236 126.671 103.572 132.285C105.43 134.63 108.27 136.91 111.118 136.004C113.787 135.154 114.87 132.029 115.665 129.297C114.168 131.559 110.694 131.665 108.381 130.253C106.069 128.842 104.645 126.375 103.317 124.009C100.979 119.847 98.6439 115.686 96.2531 112.445H96.2556Z" fill="#D1A037"/>
<path d="M67.6185 84.8424C70.8677 87.1244 74.9627 88.1693 78.9062 87.7215C82.8497 87.2737 86.6064 85.3357 89.2648 82.3832C90.4817 83.1245 91.7314 83.8911 92.5847 85.0321C93.4381 86.1732 93.8168 87.7924 93.1301 89.0447C92.3878 90.4008 90.7064 90.8967 89.1815 91.1269C82.8952 92.0706 76.268 90.5197 67.6185 84.8449V84.8424Z" fill="#D1704B"/>
<path d="M75.4904 68.3215C74.8264 67.6612 73.7963 67.7699 72.9329 67.6485C72.0644 67.5903 71.1959 67.6485 70.3325 67.7522C69.6509 67.8332 68.8859 67.7952 68.3835 68.3443C67.2752 69.3816 68.1108 71.4081 69.6281 71.3575C70.9031 71.2082 72.1881 71.0691 73.4707 71.2234C73.5085 71.2285 73.5338 71.231 73.5615 71.2335C73.6322 71.2436 73.7029 71.2563 73.7736 71.2664C74.4325 71.4511 75.2379 71.2183 75.6241 70.6339C76.1947 69.9786 76.0837 68.9211 75.4853 68.319L75.4904 68.3215Z" fill="#FECA8B"/>
<path d="M64.0992 68.0685C61.7715 66.8516 60.2441 70.477 62.7435 71.2942C64.7152 71.8508 65.869 69.1033 64.0992 68.0685Z" fill="#FECA8B"/>
<path d="M119.8 83.9948C119.129 83.332 118.079 83.4332 117.205 83.3446C115.92 83.4458 114.054 83.5015 113.274 84.6754C112.459 85.9708 113.804 87.7215 115.264 87.2687C116.859 86.7905 116.438 86.8208 118.164 86.9549C118.596 87.0536 119.061 86.9878 119.442 86.7652C120.424 86.2187 120.598 84.7766 119.798 83.9974L119.8 83.9948Z" fill="#FECA8B"/>
<path d="M44.3918 44.2055C43.8112 43.6363 43.4072 42.7862 42.6347 42.4649C40.9255 41.6528 39.3577 44.0208 40.7134 45.3213C41.5693 46.1359 42.1449 47.3579 43.1926 47.917C44.2732 48.4509 45.6163 47.5198 45.591 46.3307C45.5986 45.4579 44.869 44.8532 44.3918 44.2005V44.2055Z" fill="#FECA8B"/>
<path d="M47.0503 50.9151C45.4067 50.9201 45.4092 53.4274 47.0503 53.4375C48.6938 53.4324 48.6913 50.9252 47.0503 50.9151Z" fill="#FECA8B"/>
<path d="M67.5529 140.325C63.0817 138.741 60.7692 138 56.8964 135.602C54.8817 134.468 53.1448 137.441 55.119 138.65C58.4818 140.616 59.8654 141.35 63.4933 142.466C64.4627 142.744 65.4297 143.027 66.4193 143.235C66.9167 143.371 67.4645 143.437 67.924 143.146C69.0828 142.516 68.8379 140.634 67.5554 140.323L67.5529 140.325Z" fill="#FFE0A3"/>
<path d="M75.7656 142.104C73.4833 141.148 72.2462 144.7 74.6068 145.416C76.889 146.372 78.1261 142.82 75.7656 142.104Z" fill="#FFE0A3"/>
<path d="M133.55 43.9272C133.022 41.9462 132.121 40.0918 131.257 38.2398C130.846 37.4277 130.588 36.3423 129.581 36.1045C128.124 35.6491 126.779 37.3998 127.591 38.6977C128.836 41.339 129.568 42.8697 130.308 44.7748C130.98 45.9512 131.106 48.6001 132.893 48.3775C134.966 48.0461 133.797 45.2782 133.55 43.9298V43.9272Z" fill="#FFE0A3"/>
<path d="M132.381 54.8189C132.237 57.2224 135.837 57.359 135.895 54.958C136.044 52.5545 132.436 52.4179 132.381 54.8189Z" fill="#FFE0A3"/>
<path d="M64.5662 164.097C62.9252 162.61 60.8878 165.15 62.7283 166.377C64.3794 167.839 66.3966 165.329 64.5662 164.097Z" fill="#FECA8B"/>
<path d="M94.2384 170.344C93.5492 169.549 93.0039 168.279 91.7895 168.302C90.2747 168.249 89.4391 170.275 90.5449 171.315C91.1634 171.986 91.7239 172.97 92.7514 172.94C94.039 172.965 94.9176 171.447 94.2384 170.344Z" fill="#FECA8B"/>
<path d="M104.498 100.349C101.888 100.349 99.4113 99.8352 97.177 98.7903C96.6822 98.5575 96.4676 97.968 96.6974 97.4721C96.9296 96.9763 97.5179 96.7637 98.0127 96.9914C103.973 99.782 111.974 98.2742 119.409 92.9637C130.081 85.3433 137.021 72.9742 137.973 59.8763C138.927 46.7785 133.853 33.5315 124.395 24.4386C124.191 24.2413 124.08 23.9655 124.092 23.6822C124.105 23.3988 124.236 23.1332 124.456 22.9535C125.716 21.9263 126.327 19.1813 125.88 16.5678C125.509 14.4122 124.443 12.4161 122.885 10.9031C121.984 14.306 119.53 17.256 116.296 18.6879C115.887 18.8676 115.408 18.7537 115.127 18.4046C114.847 18.058 114.832 17.5646 115.092 17.2003C116.369 15.4192 116.781 12.9929 116.253 10.3642C115.731 7.75581 114.36 5.34472 112.464 3.59396C112.486 7.78111 110.27 11.9632 106.665 14.139C106.342 14.3338 105.938 14.3288 105.619 14.1238C92.3196 5.56736 74.1245 5.03606 60.3475 12.7956C46.568 20.5551 37.5652 36.4081 37.9439 52.2408C38.1206 59.6588 40.9356 68.9261 48.3075 72.6933C48.7948 72.9413 48.9892 73.5383 48.7392 74.0266C48.4918 74.5149 47.896 74.7097 47.4087 74.4593C39.2617 70.2974 36.1564 60.2761 35.9645 52.2863C35.5707 35.7401 44.98 19.1737 59.3781 11.0651C73.5918 3.06014 92.302 3.50289 106.15 12.1125C109.411 9.84054 111.133 5.53447 110.267 1.63321C110.181 1.24359 110.335 0.841323 110.659 0.611093C110.982 0.380863 111.414 0.363153 111.752 0.573143C115.009 2.5769 117.417 6.09107 118.197 9.97462C118.558 11.7684 118.546 13.4989 118.177 15.0675C119.858 13.4635 121.002 11.2599 121.237 8.96768C121.275 8.61854 121.492 8.31241 121.81 8.1682C122.128 8.02399 122.502 8.05688 122.79 8.25928C125.445 10.1264 127.283 13.0334 127.834 16.2364C128.326 19.1003 127.768 21.982 126.47 23.6999C135.895 33.1697 140.924 46.6748 139.95 60.0281C138.955 73.7078 131.707 86.626 120.56 94.5879C115.246 98.3829 109.616 100.356 104.498 100.356V100.349Z" fill="#531139"/>
<path d="M82.8093 152.467C69.5726 152.467 56.9469 148.684 46.8104 141.611C34.5785 133.072 26.3558 119.653 24.8132 105.712C23.1722 90.8967 29.35 75.7369 40.5443 67.0894C40.9785 66.7529 41.5996 66.8364 41.9328 67.269C42.2661 67.7016 42.1853 68.3266 41.7536 68.6605C31.0946 76.8957 25.2172 91.3521 26.7825 105.492C28.2619 118.871 36.1741 131.764 47.944 139.981C58.9742 147.677 73.0819 151.343 87.6465 150.309C98.5505 149.532 114.183 146.509 126.751 136.52C133.262 131.344 137.185 125.962 137.243 122.119C137.268 120.553 136.67 119.278 135.418 118.218C134.681 117.596 133.615 116.89 132.381 116.073C127.076 112.561 118.2 106.686 117.622 94.6967C117.596 94.1503 118.018 93.6847 118.563 93.6569C119.061 93.6164 119.573 94.0541 119.601 94.6006C120.129 105.583 128.16 110.899 133.474 114.416C134.759 115.268 135.872 116.002 136.698 116.703C138.41 118.15 139.26 119.984 139.228 122.15C139.157 126.646 135.059 132.449 127.985 138.074C115.021 148.378 98.9721 151.49 87.793 152.287C86.1267 152.406 84.468 152.464 82.8169 152.464L82.8093 152.467Z" fill="#531139"/>
<path d="M22.6496 112.758C21.5085 112.758 20.3926 112.48 19.4534 111.906C17.3908 110.641 16.0401 108.085 15.9265 105.234C15.828 102.762 16.5652 100.369 17.3756 98.1502C20.8116 88.7487 26.0175 80.8703 32.4275 75.365C32.8416 75.0108 33.4677 75.0563 33.8237 75.4738C34.1796 75.8887 34.1317 76.5162 33.7151 76.8729C27.5625 82.1581 22.5536 89.7506 19.2337 98.8333C18.4915 100.86 17.8174 103.028 17.9033 105.156C17.9916 107.354 18.9813 109.292 20.486 110.213C22.0361 111.162 24.5103 110.858 26.0099 109.543C26.4189 109.184 27.045 109.221 27.406 109.634C27.767 110.046 27.7241 110.674 27.3151 111.033C26.025 112.166 24.3133 112.758 22.6496 112.758Z" fill="#531139"/>
<path d="M112.093 132.872C111.26 132.872 110.386 132.642 109.573 132.189C108.419 131.544 107.543 130.587 106.743 129.661C102.135 124.333 98.3536 118.362 95.5032 111.911C95.2811 111.41 95.5083 110.825 96.0082 110.603C96.5055 110.38 97.0912 110.608 97.3134 111.109C100.083 117.378 103.759 123.185 108.24 128.363C108.952 129.188 109.666 129.97 110.537 130.458C111.373 130.924 112.3 131.022 112.961 130.711C113.852 130.294 114.42 129.191 114.741 127.245C115.549 122.38 115.307 117.292 114.042 112.526C113.9 111.997 114.216 111.453 114.744 111.311C115.271 111.175 115.814 111.486 115.955 112.015C117.291 117.049 117.546 122.428 116.693 127.569C116.415 129.236 115.814 131.561 113.797 132.508C113.274 132.753 112.694 132.874 112.09 132.874L112.093 132.872Z" fill="#531139"/>
<path d="M66.6542 178.197C66.4219 178.197 66.1922 178.113 66.0129 177.959C61.5342 174.134 55.3867 172.39 49.5724 173.311C49.0877 173.38 48.6282 173.101 48.4767 172.638C48.3278 172.175 48.5348 171.672 48.9665 171.449C54.4475 168.631 58.2421 162.83 58.6334 156.669C58.6586 156.279 58.906 155.943 59.2696 155.804C59.6331 155.67 60.0446 155.753 60.3198 156.029C65.2858 160.978 70.9561 164.381 77.654 166.437C78.0504 166.559 78.3306 166.916 78.3534 167.33C78.3761 167.745 78.1388 168.133 77.7575 168.297C73.4076 170.172 69.7746 173.504 67.5277 177.678C67.3863 177.941 67.1313 178.129 66.8385 178.184C66.7779 178.194 66.7173 178.202 66.6567 178.202L66.6542 178.197ZM53.1246 171.093C57.876 171.194 62.587 172.813 66.3739 175.705C68.429 172.32 71.3399 169.506 74.7785 167.563C69.3732 165.595 64.6269 162.713 60.3703 158.817C59.5397 163.604 56.8964 168.046 53.1246 171.093Z" fill="#531139"/>
<path d="M86.215 182.48C86.1065 182.48 86.0004 182.462 85.8969 182.427C85.5965 182.323 85.3617 182.083 85.2683 181.777C84.1524 178.113 80.8679 175.229 77.0986 174.599C76.6668 174.528 76.3336 174.182 76.278 173.747C76.2225 173.314 76.4548 172.894 76.8536 172.714C81.9105 170.437 86.3211 166.592 89.2724 161.886C89.4365 161.623 89.7142 161.453 90.0247 161.425C90.3277 161.398 90.6357 161.517 90.8452 161.747C95.6875 167.088 99.3381 171.712 102.332 176.297C102.534 176.608 102.547 177.003 102.368 177.327C102.186 177.65 101.83 177.853 101.471 177.833C96.2707 177.663 91.0396 179.252 86.7907 182.295C86.6215 182.417 86.4195 182.48 86.215 182.48ZM79.959 173.37C82.933 174.594 85.4198 177 86.7048 179.958C90.5675 177.473 95.0715 176.051 99.6562 175.859C97.0887 172.1 94.1071 168.36 90.2343 164.029C87.5859 167.859 84.0236 171.095 79.959 173.367V173.37Z" fill="#531139"/>
<path d="M86.8487 92.397C80.0019 92.397 71.6781 89.2522 66.033 85.8089C57.1665 80.4022 52.4303 74.1076 51.9607 67.097C51.9001 66.1811 51.7966 64.6505 52.6802 63.4892C53.9804 61.7814 56.4268 61.5006 58.1789 62.1103C64.546 64.3266 69.2141 64.0686 72.9632 63.8586C76.1316 63.684 78.8709 63.5322 81.4536 64.9642C85.3238 67.1071 86.4221 71.064 87.4824 74.8894C88.3282 77.938 89.1259 80.8146 91.2618 82.5831C92.8548 83.9012 95.8188 86.3579 94.6726 89.237C94.1247 90.6083 92.7892 91.5393 90.7013 92.0023C89.4971 92.2705 88.2019 92.3919 86.8487 92.3919V92.397ZM56.3889 63.8029C55.5633 63.8029 54.7201 64.0787 54.2531 64.6935C53.8542 65.2172 53.8769 66.1027 53.935 66.9629C54.3616 73.2904 58.7772 79.0613 67.0606 84.1138C73.6979 88.1592 83.7964 91.5039 90.2747 90.0668C91.2441 89.8518 92.4761 89.4065 92.8346 88.5008C93.4002 87.084 91.6683 85.4926 90.002 84.1112C87.3865 81.9455 86.465 78.6287 85.5763 75.4181C84.5816 71.8306 83.6399 68.4404 80.4967 66.6998C78.4114 65.5435 76.0559 65.6776 73.0717 65.8396C69.1484 66.0571 64.2658 66.3278 57.53 63.9825C57.1842 63.8636 56.7903 63.7979 56.3914 63.7979L56.3889 63.8029Z" fill="#531139"/>
<path d="M66.5002 43.697C65.1242 43.697 63.7483 43.3023 62.6046 42.4851C59.7669 40.4561 58.9288 36.2411 60.7768 33.2785C62.6223 30.3184 66.7703 29.2203 69.8327 30.8901C71.6605 31.8844 72.8774 33.4986 73.2611 35.4365C73.6626 37.4504 73.1324 39.6642 71.8827 41.2151C70.5749 42.8343 68.535 43.6945 66.4976 43.6945L66.5002 43.697ZM66.692 32.0969C65.0283 32.0969 63.3393 32.9141 62.4557 34.3309C61.1656 36.3979 61.774 39.4542 63.7534 40.8685C65.7327 42.2827 68.8127 41.8627 70.3452 39.9678C71.2212 38.8824 71.605 37.2556 71.3222 35.8262C71.1329 34.8724 70.5573 33.5441 68.8885 32.6358C68.2144 32.269 67.457 32.0969 66.692 32.0969Z" fill="#531139"/>
<path d="M110.298 74.6718C108.922 74.6718 107.546 74.2796 106.402 73.4599C103.564 71.4309 102.729 67.2159 104.574 64.2533C106.42 61.2932 110.568 60.1977 113.63 61.8649C115.458 62.8592 116.675 64.4759 117.059 66.4113C117.46 68.4252 116.93 70.639 115.678 72.1873C114.37 73.8065 112.33 74.6667 110.295 74.6667L110.298 74.6718ZM110.492 63.0717C108.828 63.0717 107.139 63.8889 106.256 65.3083C104.966 67.3753 105.574 70.429 107.553 71.8458C109.53 73.2601 112.613 72.8401 114.143 70.9451C115.019 69.8597 115.402 68.2329 115.12 66.8035C114.93 65.8497 114.355 64.5214 112.686 63.6132C112.012 63.2463 111.254 63.0743 110.49 63.0743L110.492 63.0717Z" fill="#531139"/>
<path d="M72.8118 19.9327C72.5593 19.9327 72.3068 19.8366 72.115 19.6443C70.8375 18.3742 68.4517 18.316 67.1136 19.5228C66.7072 19.8897 66.081 19.8568 65.715 19.4495C65.3489 19.0421 65.3817 18.4147 65.7882 18.0478C67.9291 16.1149 71.4661 16.2009 73.5085 18.2351C73.8973 18.6196 73.8999 19.2496 73.5136 19.6392C73.3192 19.834 73.0642 19.9327 72.8118 19.9327Z" fill="#531139"/>
<path d="M124.388 57.3767C124.322 57.3767 124.254 57.3691 124.188 57.3565C123.653 57.2451 123.307 56.7214 123.418 56.1851C123.789 54.3812 123.027 52.3445 121.568 51.2288C121.133 50.8974 121.048 50.275 121.378 49.8373C121.712 49.4021 122.33 49.3161 122.767 49.6476C124.845 51.2313 125.885 54.0194 125.36 56.5823C125.264 57.0529 124.852 57.3742 124.39 57.3742L124.388 57.3767Z" fill="#531139"/>
<path d="M89.9263 164.487C89.8758 164.487 89.8228 164.482 89.7723 164.474C89.232 164.388 88.8634 163.882 88.9467 163.341C89.5577 159.424 89.6915 155.44 89.3381 151.498C89.2901 150.951 89.6915 150.471 90.2368 150.42C90.7998 150.369 91.2618 150.777 91.3123 151.321C91.6784 155.424 91.5396 159.571 90.9033 163.647C90.8276 164.135 90.406 164.487 89.9263 164.487Z" fill="#531139"/>
</svg>