<svg xmlns="http://www.w3.org/2000/svg" width="35" height="35" viewBox="0 0 26 27" fill="none">
<mask id="mask0_846_6022" style="mask-type:alpha" maskUnits="userSpaceOnUse" x="0" y="0" width="26" height="27">
<circle cx="13" cy="13.5" r="13" fill="#D9D9D9"/>
</mask>
<g mask="url(#mask0_846_6022)">
<rect x="-1.41304" y="0.5" width="30.5217" height="30.8043" fill="#FFD26F"/>
<path d="M9.2426 2.12518C9.24176 2.18807 9.24091 2.2501 9.24006 2.31299C8.96191 1.48186 9.12812 0.515613 9.66747 -0.174445C10.2068 -0.864503 11.1023 -1.25798 11.9741 -1.18744C11.5848 -0.707289 11.3924 -0.0707694 11.4509 0.544504C11.5094 1.16063 11.8172 1.7487 12.2904 2.14727C12.5066 0.74931 13.7634 -0.369057 15.1177 -0.384354C14.4792 0.0235617 14.4232 1.0901 15.0168 1.5626C18.4878 2.28155 21.678 3.971 24.1458 6.40575C26.5398 8.55411 27.811 11.7469 27.7287 14.9269C27.6473 18.107 26.2141 21.2301 23.8592 23.3623C28.1476 25.4189 32.5031 26.5041 36.8382 26.4098C37.5997 26.3154 38.5385 26.2976 39.0931 26.8984C39.6986 27.5536 39.5281 28.5862 39.3195 29.4547C38.9396 31.0337 38.5597 32.6127 38.1798 34.1916C35.9656 39.3271 30.8325 42.7222 25.4814 44.0173C20.1304 45.3124 14.5266 44.8212 9.05773 44.1949C4.57168 43.2576 0.818321 39.8863 -0.136556 35.7162C-1.09058 31.5461 0.820857 26.8729 4.46567 24.4373C1.26946 23.2136 -1.14401 20.2256 -1.84703 16.8696C-2.55004 13.5137 -1.58753 9.88578 0.546099 7.20543C2.67973 4.52508 5.9158 2.79824 9.24345 2.12603L9.2426 2.12518Z" fill="#FFD26F"/>
<path d="M12.7975 14.1102C10.6402 15.2677 8.4828 16.4251 6.32457 17.5835C6.11511 17.6956 5.89632 17.8172 5.77166 18.0203C5.49266 18.4732 5.8183 19.0554 6.17786 19.4471C7.50418 20.8901 9.41986 21.6932 11.3593 21.9618C13.2987 22.2303 15.2729 22.0051 17.198 21.6448C18.4225 21.4162 19.709 21.0932 20.5773 20.1984C20.9708 19.7922 21.26 19.1616 20.9793 18.6704C20.8479 18.4409 20.6172 18.2905 20.395 18.1486C18.8389 17.1551 17.2836 16.1626 15.7275 15.1691C14.7667 14.5555 13.4751 13.7482 12.7992 14.1102H12.7975Z" fill="#F58359"/>
<path d="M-1.89362 17.9734C-0.872593 16.9894 0.686084 16.6061 2.04547 17.0046C3.40485 17.4032 4.51153 18.5683 4.84226 19.9476C5.17299 21.3277 4.71505 22.8693 3.71014 23.8279C1.0889 22.8319 -0.997253 20.5229 -1.89362 17.9734Z" fill="#F58359"/>
<path d="M27.6049 15.9754C25.7927 15.4621 23.6837 16.3434 22.772 17.9946C21.8604 19.6458 22.2361 21.9047 23.6328 23.1701C25.9911 21.6591 27.5184 18.9243 27.6049 15.9746V15.9754Z" fill="#F58359"/>
<path d="M5.22639 11.5845C4.53016 11.3916 3.72199 11.8505 3.52949 12.5482C3.33699 13.246 3.79492 14.0558 4.49115 14.2487C5.18738 14.4417 5.99555 13.9828 6.18805 13.285C6.38055 12.5873 5.92262 11.7775 5.22639 11.5845Z" fill="#531139"/>
<path d="M22.164 12.271C21.7366 12.1427 21.2524 12.2396 20.8945 12.5064C20.5367 12.7733 20.3077 13.2016 20.2644 13.6469C20.2365 13.9307 20.2831 14.2282 20.4366 14.4687C20.6299 14.7712 20.9802 14.9556 21.3372 14.9845C21.6942 15.0134 22.0546 14.897 22.354 14.6998C22.7186 14.4602 23.0095 14.0803 23.0604 13.6461C23.1113 13.2118 22.9807 12.5166 22.164 12.2719V12.271Z" fill="#531139"/>
<path d="M5.52328 18.191C5.24174 19.9468 6.3713 21.7 7.88673 22.6246C9.40215 23.5492 11.2297 23.7939 13.002 23.8747C14.5853 23.9469 16.2135 23.8985 17.6891 23.3197C19.1655 22.741 20.4774 21.5453 20.8344 19.9969C18.4345 21.6498 15.4155 22.2345 12.5085 22.0577C11.0651 21.9702 9.615 21.6991 8.30734 21.0796C6.99969 20.4601 5.8379 19.4709 5.52243 18.1902L5.52328 18.191Z" fill="#D1A037"/>
<path d="M24.1425 23.0291C23.498 23.6783 22.7127 24.1865 21.8579 24.5095C23.1249 24.9497 24.5555 24.8995 25.7885 24.3701C25.1949 23.9681 24.6013 23.5661 24.1425 23.0291Z" fill="#D1A037"/>
<path d="M11.0295 15.1274C10.0059 15.9526 8.79916 16.5492 7.52288 16.8602C7.03442 16.9792 6.50186 17.0752 6.15672 17.4407C5.81072 17.8061 5.74203 18.3746 5.88704 18.8565C6.0312 19.3383 6.35855 19.7454 6.7232 20.0921C7.80104 21.117 9.2766 21.7093 10.7623 21.7153C9.99403 21.2496 9.15194 20.6802 8.99421 19.7947C8.89923 19.2635 9.07901 18.723 9.29186 18.2268C9.79135 17.0599 10.4876 15.9781 11.0303 15.1283L11.0295 15.1274Z" fill="#D1704B"/>
<path d="M17.5728 17.8648C17.4482 17.4815 16.9979 17.3812 16.6926 17.1773C16.6188 17.1407 16.456 17.0251 16.4161 16.9988C16.4093 16.9928 16.4017 16.9877 16.3949 16.9826C16.0269 16.7234 15.7496 16.1728 15.2789 16.1422C14.7854 16.1252 14.5123 16.7846 14.8736 17.1237C15.0321 17.2588 15.5308 17.8078 15.5384 17.7381C15.8742 18.1104 16.1939 18.2676 16.8995 18.5412C17.2921 18.6627 17.6941 18.2591 17.5737 17.8656L17.5728 17.8648Z" fill="#FECA8B"/>
<path d="M19.096 18.3354C18.5413 17.7448 17.6704 18.5512 18.2216 19.1436C18.7762 19.7342 19.6472 18.9277 19.096 18.3354Z" fill="#FECA8B"/>
<path d="M25.6842 17.63C25.6647 17.3394 25.3865 17.1193 25.1041 17.1167C24.8201 17.1159 24.6097 17.3402 24.3926 17.4957C24.2883 17.5714 24.2112 17.675 24.134 17.777C24.1569 17.7439 24.2612 17.6147 24.201 17.6895C24.0916 17.7991 24.0272 17.9529 24.028 18.1084C24.0102 18.6192 24.6895 18.9005 25.038 18.5274C25.0516 18.5096 25.0651 18.4917 25.0795 18.4739C25.0762 18.479 25.0812 18.4739 25.1067 18.4441C25.1321 18.4178 25.155 18.3965 25.1728 18.3804C25.2263 18.3404 25.2797 18.3005 25.3356 18.264C25.5621 18.145 25.7435 17.8943 25.685 17.6291L25.6842 17.63Z" fill="#FECA8B"/>
<path d="M1.33814 17.9813C1.72483 18.1368 1.13461 17.9014 1.22026 17.943C1.19736 17.9362 1.17447 17.9294 1.14733 17.9226C0.84204 17.8478 0.464664 17.7552 0.220433 18.0144C-0.15185 18.3628 0.129699 19.0435 0.638514 19.0265C0.641058 19.0265 0.64275 19.0265 0.645294 19.0265C0.713137 19.0393 0.780131 19.0529 0.847125 19.0699C0.865782 19.0741 0.88528 19.0784 0.903936 19.0826C0.90224 19.0843 0.920906 19.0911 0.976875 19.1064C1.2652 19.2645 1.6519 19.2152 1.82151 18.9093C2.05641 18.5081 1.74858 18.079 1.33814 17.9813Z" fill="#FECA8B"/>
<path d="M3.38619 19.2397C2.83412 19.2414 2.83497 20.0836 3.38619 20.087C3.93825 20.0853 3.9374 19.2431 3.38619 19.2397Z" fill="#FECA8B"/>
<path d="M13.3802 22.4037C11.1295 22.4037 8.78644 21.9575 6.97845 20.7635C5.68521 19.9086 5.02884 18.7834 5.30784 17.8962C5.55123 17.1237 6.43742 16.9257 6.91401 16.8195C6.96913 16.8068 7.01916 16.7957 7.05987 16.7855C8.29205 16.4685 9.14431 15.8694 9.96859 15.2907C11.0023 14.5641 11.9852 13.8774 13.4803 13.9581C14.8329 14.0304 15.5596 14.6422 16.4 15.3502C17.1081 15.9459 17.9104 16.6215 19.3147 17.2402L19.3851 17.2708C20.4553 17.7424 21.467 18.1877 21.4373 19.1038C21.4 20.2987 20.2433 20.9335 19.3766 21.3074C17.94 21.9269 15.7089 22.4045 13.3794 22.4045L13.3802 22.4037ZM13.2488 14.6176C12.0844 14.6176 11.2779 15.1844 10.351 15.8363C9.51913 16.4209 8.57613 17.0838 7.22608 17.4314C7.17943 17.4433 7.12262 17.456 7.05902 17.4705C6.68928 17.5529 6.07022 17.6914 5.94216 18.0976C5.78867 18.5846 6.22117 19.4659 7.34395 20.2078C10.943 22.5856 16.7859 21.6992 19.1137 20.6955C20.2263 20.2154 20.7538 19.7038 20.7733 19.0834C20.7877 18.6177 19.9388 18.2438 19.1179 17.8818L19.0475 17.8503C17.5559 17.1926 16.6782 16.4541 15.9726 15.86C15.161 15.1768 14.5751 14.6839 13.4455 14.6236C13.3785 14.6202 13.3132 14.6176 13.2488 14.6176Z" fill="#531139"/>
<path d="M4.80663 14.6191C4.55986 14.6191 4.31223 14.5639 4.08751 14.4466C3.35057 14.0616 3.01899 13.0962 3.36329 12.339C3.70759 11.581 4.65229 11.1977 5.42485 11.5028C5.8726 11.6796 6.20248 12.0187 6.35343 12.458C6.50862 12.9084 6.45943 13.4353 6.22538 13.833C5.93196 14.3319 5.36887 14.6191 4.80578 14.6191H4.80663ZM4.86939 12.0654C4.50049 12.0654 4.11973 12.2813 3.96878 12.6144C3.77289 13.0453 3.97642 13.6359 4.39449 13.8551C4.81427 14.0735 5.41297 13.901 5.65296 13.494C5.78864 13.2637 5.81664 12.9416 5.72505 12.6747C5.66399 12.4963 5.51983 12.2558 5.18231 12.1223C5.08309 12.0832 4.97709 12.0654 4.87023 12.0654H4.86939Z" fill="#531139"/>
<path d="M21.7112 15.254C21.4644 15.254 21.2168 15.1988 20.992 15.0815C20.2551 14.6965 19.9235 13.732 20.2678 12.9739C20.6121 12.2159 21.556 11.8335 22.3302 12.1377C22.778 12.3136 23.107 12.6527 23.2588 13.0921C23.414 13.5433 23.3648 14.0702 23.1308 14.4671C22.8374 14.9659 22.2743 15.2532 21.7112 15.2532V15.254ZM21.7739 12.7012C21.4059 12.7012 21.0243 12.917 20.8733 13.2501C20.6774 13.681 20.8809 14.2716 21.299 14.4909C21.7179 14.7093 22.3175 14.5368 22.5575 14.1297C22.6932 13.8994 22.7212 13.5773 22.6296 13.3105C22.5685 13.132 22.4244 12.8915 22.0868 12.7589C21.9876 12.7199 21.8816 12.702 21.7748 12.702L21.7739 12.7012Z" fill="#531139"/>
<path d="M3.05044 8.96715C3.01313 8.96715 2.97497 8.96121 2.93766 8.94761C2.76466 8.88472 2.67477 8.69436 2.73668 8.52099C2.90968 8.03914 3.27432 7.63973 3.73734 7.42472C4.20121 7.20972 4.74056 7.18932 5.21884 7.36948C5.39099 7.43407 5.47749 7.62698 5.41304 7.79864C5.34774 7.97116 5.1561 8.05699 4.9848 7.99326C4.67696 7.87683 4.3157 7.89128 4.01635 8.0298C3.71784 8.16832 3.47361 8.43601 3.36252 8.7462C3.31419 8.88217 3.18613 8.96715 3.0496 8.96715H3.05044Z" fill="#531139"/>
<path d="M23.2716 9.94513C23.1317 9.94513 23.0011 9.8559 22.9553 9.71483C22.7789 9.17434 22.1556 8.79872 21.5993 8.8956C21.4161 8.92704 21.2465 8.80466 21.2151 8.62365C21.1838 8.44179 21.305 8.27013 21.4865 8.23868C22.3684 8.08571 23.3115 8.65595 23.5888 9.50832C23.6456 9.68339 23.5497 9.8712 23.3751 9.92813C23.3411 9.93918 23.3064 9.94428 23.2724 9.94428L23.2716 9.94513Z" fill="#531139"/>
</g>
</svg>