<svg xmlns="http://www.w3.org/2000/svg" width="90" height="90" viewBox="0 0 90 90" fill="none">
<path d="M68.8837 38.8794C72.5917 34.8944 74.281 29.0429 73.2865 23.6368C72.293 19.7682 70.4428 16.6762 67.864 14.4538C64.0039 11.0731 59.2882 9.52102 54.7082 9.92724C54.2289 8.11997 52.847 6.5421 51.1304 6.1012C51.6676 7.53582 51.44 9.2435 50.5483 10.4789C50.5921 9.07788 50.1456 7.87937 49.3513 7.00315C48.557 6.12693 47.4224 5.58084 46.2199 5.89641C46.663 6.75696 46.5044 7.84356 46.0252 8.68285C45.5448 9.52214 44.7855 10.1544 44.0032 10.7072C40.2328 13.3717 35.5314 14.6642 32.3015 17.9889C29.5356 20.8346 28.1821 24.9785 28.4458 28.9825C28.7095 32.9864 30.5181 36.8147 33.4985 40.0465C30.0378 39.4747 26.5595 39.0181 23.0693 38.6768C22.0867 38.5806 21.0473 38.5034 20.1578 38.9409C18.7409 39.6381 18.1763 41.3816 17.8984 42.9639C16.9979 48.097 17.6544 53.5043 19.9805 59.0246C22.7957 64.4195 27.5847 68.7066 33.7556 71.5994C41.9933 74.6924 51.4017 74.3791 59.4249 70.7444C62.5968 69.3075 65.5816 67.3492 67.9209 64.7284C70.2601 62.1076 71.9254 58.7929 72.4429 55.2265C73.7865 49.7745 72.5468 43.7204 68.8837 38.8794Z" fill="#FFD26F"/>
<path d="M61.7313 26.6391C60.937 25.7506 58.5813 25.6152 57.5047 26.102C56.4281 26.5888 55.5965 27.493 54.7672 28.3468C53.9378 29.2006 53.0352 30.0545 51.906 30.3947C51.1959 30.6084 50.2867 30.7214 50.0427 31.4354C49.8786 31.9143 50.1292 32.4414 50.4509 32.8275C51.2353 33.7675 52.4225 34.2364 53.5779 34.5978C55.8186 35.2972 58.1809 35.7269 60.5059 35.4338C62.8309 35.1406 65.1242 34.0596 66.5663 32.1706C66.9787 31.629 67.3289 30.905 67.0542 30.2783C66.8059 29.7109 66.1603 29.4748 65.5925 29.2544C63.9327 28.6087 63.0333 28.0961 61.7302 26.6402L61.7313 26.6391Z" fill="#E58863"/>
<path d="M41.9375 28.3535C39.6869 27.7447 37.1091 28.7049 35.7764 30.6565C34.4427 32.6081 34.4504 35.4203 35.8005 37.3596C37.1518 39.299 39.7536 40.2244 41.9867 39.5507C44.2198 38.8782 45.9179 36.6502 46.0022 34.271C46.0875 31.8908 44.698 29.101 41.9364 28.3535H41.9375Z" fill="#E58863"/>
<path d="M73.5447 26.6648C71.5917 27.127 69.933 28.7115 69.3466 30.6721C68.7601 32.6327 69.27 34.8943 70.6354 36.395C72.5217 33.8234 73.443 30.5278 73.5447 26.6648Z" fill="#E58863"/>
<path d="M34.7349 77.7542C34.0927 79.0433 33.0303 80.1109 31.7578 80.7443C33.5259 81.0721 35.0293 82.5761 35.3881 84.3778C36.4921 83.0383 38.3565 82.4072 40.0239 82.8078C39.3697 80.5372 37.4101 78.7143 34.7349 77.7553V77.7542Z" fill="#E58863"/>
<path d="M61.562 75.8876C60.7851 77.3815 60.3912 79.0813 60.4284 80.7734C62.1353 80.1064 64.0019 79.8736 65.8159 80.1008C65.7328 78.7814 66.3192 77.4363 67.3357 76.6172C66.4199 76.7727 65.491 76.9037 64.5642 76.8343C63.6375 76.7649 62.7053 76.4818 61.562 75.8876Z" fill="#E58863"/>
<path d="M33.3432 39.695C30.7983 40.0654 28.1833 39.9278 25.6887 39.291C28.6976 41.7361 32.7502 42.7836 36.5337 42.0965C35.2886 41.2751 34.1146 40.3418 33.3421 39.6939L33.3432 39.695Z" fill="#C9A14B"/>
<path d="M69.0642 39.0483C68.1266 40.3229 66.9011 41.3749 65.5105 42.0978C68.5161 42.655 71.1901 44.8249 72.4057 47.6919C72.5293 44.6436 71.2262 41.5662 69.0642 39.0483Z" fill="#C9A14B"/>
<path d="M48.2322 73.5521C56.6679 71.1092 64.4384 66.3084 70.4769 59.8079C66.5599 67.6871 58.1373 72.997 48.2322 73.5521Z" fill="#C9A14B"/>
<path d="M55.3222 27.6799C54.657 29.0866 53.3101 30.134 51.8079 30.4149C51.2532 30.519 50.6186 30.5559 50.2553 30.9979C49.973 31.3415 49.9501 31.854 50.1076 32.2736C50.2652 32.6933 50.577 33.0324 50.9129 33.3222C51.8943 34.1671 53.1493 34.6718 54.4294 34.7367C54.0169 34.4547 53.599 34.1671 53.2806 33.7777C52.9622 33.3882 52.7521 32.8768 52.8309 32.3755C52.9261 31.7622 53.413 31.3057 53.8233 30.8469C54.6045 29.974 55.1953 28.9243 55.3222 27.6811V27.6799Z" fill="#C37553"/>
<path d="M49.9619 32.0151C50.2344 34.5129 51.9499 36.7431 54.1842 37.7872C56.4184 38.8313 59.0913 38.7306 61.3354 37.7066C63.5794 36.6827 65.3946 34.7904 66.5423 32.5691C62.7424 35.8725 57.0136 36.6413 52.509 34.4524C51.5539 33.988 50.591 33.3267 49.9619 32.0163V32.0151Z" fill="#C9A14B"/>
<path d="M61.7993 28.3221C61.3157 27.9707 61.4262 28.0647 61.1636 27.9103C60.715 27.7346 60.0935 27.3407 59.2084 27.5309C58.4436 27.8219 58.6931 29.0439 59.5027 29.026C59.8616 29.0495 60.2084 29.158 60.5476 29.318C60.5881 29.3371 60.6111 29.3471 60.6242 29.3527C61.1592 29.6347 61.8179 30.2525 62.2993 29.628C62.7008 29.12 62.2183 28.6074 61.7993 28.3243V28.3221Z" fill="#F5CC94"/>
<path d="M64.0926 30.1944C63.3803 29.4592 62.3047 30.5435 63.0039 31.2866C63.7195 32.0173 64.7895 30.9385 64.0926 30.1944Z" fill="#F5CC94"/>
<path d="M38.8565 29.6942C38.4637 29.7804 37.9648 29.7602 37.7471 30.1732C37.3937 30.7461 37.9769 31.5205 38.6093 31.3202C39.1848 31.2105 39.5754 31.1467 39.618 31.1456C40.0896 31.1758 40.5907 30.8826 40.5787 30.3511C40.5251 29.3719 39.5207 29.5622 38.8554 29.6942H38.8565Z" fill="#F5CC94"/>
<path d="M41.8785 30.3945C41.1662 30.3968 41.1673 31.5058 41.8785 31.5102C42.5908 31.508 42.5897 30.399 41.8785 30.3945Z" fill="#F5CC94"/>
<path d="M35.3322 17.5535C33.5565 18.9579 32.7807 20.4977 32.3321 22.4169C32.2654 22.6239 32.1516 23.6501 32.2041 23.2439C32.1352 23.4968 32.2216 23.8034 32.4394 23.9511C32.6833 24.1694 33.0783 24.1268 33.3037 23.8985C33.5729 23.5617 33.5915 23.0805 33.749 22.6833C33.7884 22.5165 34.0466 21.807 34.1101 21.628C34.4701 20.6846 35.5292 19.2869 36.3169 18.7005C36.8454 18.0582 36.0281 17.116 35.3322 17.5524V17.5535Z" fill="#FAE0AA"/>
<path d="M38.3982 16.1804C37.2811 16.3438 37.5208 17.9697 38.6269 17.7381C39.744 17.5747 39.5044 15.9487 38.3982 16.1804Z" fill="#FAE0AA"/>
<path d="M36.4462 79.9497C35.6377 79.4014 34.8564 80.6413 35.6781 81.1662C36.4878 81.7134 37.2668 80.4746 36.4462 79.9497Z" fill="#F5CC94"/>
<path d="M62.8921 77.4843C62.0299 76.8856 61.1874 78.2386 62.0726 78.7959C62.938 79.3878 63.775 78.0427 62.8921 77.4843Z" fill="#F5CC94"/>
<path d="M34.8201 78.1883C34.6527 78.1883 34.493 78.0876 34.4241 77.9186C34.2731 77.5493 34.1112 77.1677 33.9459 76.7772C33.1735 74.952 32.2971 72.884 32.0148 70.9816C31.9787 70.7421 32.1406 70.5183 32.3748 70.4814C32.6089 70.4433 32.8277 70.6101 32.8638 70.8495C33.1297 72.6389 33.982 74.6521 34.7337 76.428C34.9011 76.8219 35.063 77.2069 35.2162 77.5795C35.3081 77.8033 35.2053 78.0607 34.9865 78.1536C34.9328 78.1771 34.8759 78.1883 34.8201 78.1883Z" fill="#4B1738"/>
<path d="M65.6111 42.382C65.4689 42.382 65.3299 42.3103 65.2479 42.1783C65.1209 41.9735 65.18 41.7016 65.3802 41.5718C71.678 37.4861 74.6245 28.6668 72.0905 21.4937C69.5554 14.3206 61.774 9.46278 54.381 10.4408C54.2606 10.4543 54.1403 10.4196 54.0484 10.3401C53.9565 10.2595 53.9017 10.1443 53.8985 10.0201C53.8558 8.68728 52.9477 7.4082 51.6796 6.77594C51.975 8.19937 51.4936 9.77276 50.3907 10.7251C50.2528 10.8437 50.057 10.8627 49.9016 10.771C49.7452 10.6792 49.6609 10.4979 49.6904 10.3166C49.86 9.28709 49.5307 8.18147 48.7867 7.28399C48.244 6.63046 47.5591 6.1806 46.8326 5.98589C47.1094 6.76698 47.0076 7.65999 46.7122 8.34149C46.2658 9.37102 45.408 10.1241 44.71 10.6658C43.0611 11.9448 41.1945 12.9218 39.3892 13.8674C37.2699 14.9775 35.0773 16.1245 33.2982 17.7471C29.7992 20.9387 28.053 26.0539 28.8495 30.7796C29.646 35.5043 32.9678 39.7264 37.3104 41.5337C37.5303 41.6255 37.6353 41.8806 37.5456 42.1056C37.4559 42.3294 37.2043 42.439 36.9865 42.3462C32.3759 40.427 28.8495 35.9463 28.0037 30.9296C27.1569 25.9129 29.0114 20.4821 32.7271 17.0936C34.5882 15.396 36.8301 14.2221 38.9975 13.0874C40.77 12.1597 42.6016 11.1996 44.1903 9.96748C44.8063 9.48964 45.5601 8.83276 45.9266 7.98675C46.2122 7.32763 46.2625 6.34398 45.6969 5.74305C45.5776 5.6166 45.5437 5.42972 45.6104 5.26745C45.6783 5.10183 45.8533 5.00895 46.0153 5C47.2866 5 48.535 5.62555 49.4399 6.71775C50.0384 7.43954 50.4159 8.27771 50.5428 9.13378C50.9859 8.24637 51.0329 7.13739 50.5964 6.24998C50.5209 6.09667 50.5395 5.91315 50.6445 5.77886C50.7485 5.64569 50.9202 5.58526 51.0822 5.62667C52.9827 6.10451 54.4422 7.69916 54.7114 9.51874C62.3572 8.73876 70.2808 13.7935 72.8969 21.1949C75.5622 28.7396 72.4625 38.0154 65.8398 42.3126C65.7676 42.3585 65.6888 42.3808 65.61 42.3808L65.6111 42.382Z" fill="#4B1738"/>
<path d="M46.1291 74.1655C46.0087 74.1655 45.8905 74.1655 45.7702 74.1632C36.9635 74.0692 28.832 70.6237 23.4587 64.7117C17.5854 58.2514 15.4552 48.7484 18.1599 41.0661C18.5023 40.0925 19.0352 38.9075 20.1173 38.3793C20.9893 37.954 21.9696 38.0771 22.7574 38.1756L32.9175 39.4491C33.1527 39.4782 33.3201 39.6975 33.2906 39.9381C33.2621 40.1787 33.0564 40.3544 32.8124 40.3197L22.6523 39.0462C21.9751 38.9612 21.1337 38.8549 20.4871 39.1704C19.6862 39.561 19.254 40.5469 18.9673 41.3627C16.3699 48.7428 18.4279 57.8866 24.0878 64.1141C29.3014 69.8504 37.2086 73.193 45.78 73.2848C45.896 73.2859 46.0131 73.287 46.1301 73.287C55.0823 73.287 63.2522 69.6131 68.039 63.417C73.4658 56.3938 73.8663 46.2026 68.9701 39.7121C68.8256 39.5196 68.8607 39.2443 69.0477 39.0966C69.2359 38.9489 69.5051 38.9847 69.6495 39.176C74.7788 45.9754 74.3751 56.631 68.7108 63.9619C63.762 70.3663 55.3405 74.1655 46.128 74.1655H46.1291Z" fill="#4B1738"/>
<path d="M55.9926 57.5283C55.9269 57.5283 55.8602 57.5126 55.7978 57.4802C55.5867 57.3694 55.5035 57.1053 55.6107 56.8893C57.276 53.5568 57.7848 49.5495 57.0068 45.8924C56.8854 45.3195 56.7486 44.8651 56.4795 44.5148C56.2606 44.2295 55.8558 43.9688 55.4773 44.0672C55.0396 44.1825 54.7486 44.7275 54.4925 45.2087C52.4093 49.113 49.3326 52.3796 45.5973 54.6568C45.3938 54.781 45.1301 54.7128 45.0086 54.5046C44.8872 54.2965 44.9539 54.0268 45.1574 53.9026C48.7615 51.7059 51.7288 48.5546 53.7387 44.7879C54.045 44.2138 54.4652 43.4271 55.2639 43.2179C55.9149 43.0455 56.6742 43.3499 57.1535 43.9732C57.5451 44.4835 57.718 45.1079 57.8449 45.7055C58.6754 49.6133 58.1535 53.7269 56.3744 57.2888C56.2989 57.441 56.1479 57.5283 55.9915 57.5283H55.9926Z" fill="#4B1738"/>
<path d="M61.0399 57.158C60.9053 57.158 60.7718 57.093 60.6886 56.9722C58.3954 53.643 57.2761 49.4063 57.6174 45.3497C57.729 44.018 58.1842 43.1978 58.9676 42.9113C59.9337 42.5565 60.844 43.2246 61.5311 43.8457L69.48 51.0244C69.6572 51.1856 69.6747 51.462 69.5172 51.6444C69.3596 51.8268 69.0894 51.8436 68.911 51.6824L60.9622 44.5037C60.4523 44.0427 59.798 43.5391 59.2553 43.7372C58.7072 43.9375 58.5266 44.7656 58.4708 45.4247C58.1459 49.2798 59.2094 53.3039 61.3878 56.4664C61.5246 56.6644 61.4775 56.9386 61.2839 57.0785C61.2084 57.1322 61.123 57.1591 61.0366 57.1591L61.0399 57.158Z" fill="#4B1738"/>
<path d="M41.9209 25.3254C41.8727 25.3254 41.8246 25.3175 41.7764 25.2996C41.5532 25.2179 41.4362 24.9673 41.5171 24.739C41.8826 23.6938 42.8049 22.8724 43.8673 22.6452C44.9308 22.4203 46.0971 22.7974 46.839 23.6076C47.0009 23.7844 46.9921 24.062 46.8193 24.2276C46.6475 24.3932 46.3751 24.3842 46.2131 24.2074C45.6704 23.6154 44.8203 23.3379 44.0424 23.5047C43.2655 23.6692 42.5916 24.2701 42.3257 25.0333C42.2633 25.2123 42.0981 25.3242 41.922 25.3242L41.9209 25.3254Z" fill="#4B1738"/>
<path d="M63.6559 23.1106C63.5728 23.1106 63.4874 23.086 63.4141 23.0334C63.2183 22.8969 63.1691 22.6227 63.3025 22.4235C63.8365 21.6256 64.7555 21.1165 65.6998 21.0952C65.7195 21.0952 65.7403 21.0952 65.761 21.0952C66.6845 21.0952 67.5959 21.5585 68.1506 22.315C68.2929 22.5086 68.2546 22.7839 68.0653 22.9293C67.876 23.0748 67.6068 23.0357 67.4646 22.8421C67.0609 22.2904 66.3924 21.9524 65.7184 21.9737C65.0455 21.9882 64.3912 22.3508 64.0104 22.9193C63.9273 23.0435 63.7927 23.1106 63.6559 23.1106Z" fill="#4B1738"/>
<path d="M58.4851 36.0626C56.3592 36.0626 53.0046 35.6408 50.2572 33.3848C49.7452 32.964 49.3097 31.7756 49.7539 30.9945C50.1796 30.2469 50.9936 30.0903 51.7124 29.9526C51.9728 29.9023 52.219 29.8553 52.44 29.7836C53.3361 29.4949 54.0156 28.6769 54.6731 27.8846C54.7891 27.7436 54.9062 27.6048 55.0222 27.4683C55.8898 26.4522 57.1109 25.8144 58.4621 25.6722C60.0147 25.5077 61.4217 25.9072 62.5246 26.8237C62.7752 27.033 63.0213 27.2535 63.2675 27.4739C64.0443 28.1711 64.7774 28.8302 65.6801 29.1156C65.7698 29.1435 65.8617 29.1704 65.9558 29.1973C66.5641 29.3729 67.3224 29.5912 67.5696 30.3432C67.737 30.8501 67.5871 31.4275 67.1243 32.0576C65.4295 34.3628 63.2281 35.605 60.1963 35.9664C59.833 36.01 59.2346 36.0626 58.484 36.0626H58.4851ZM58.5507 26.5462C57.3997 26.6671 56.403 27.1863 55.6688 28.0469C55.555 28.18 55.4412 28.3166 55.3285 28.4531C54.5922 29.3394 53.8318 30.257 52.6982 30.6218C52.4291 30.708 52.1457 30.7628 51.8722 30.8154C51.2562 30.934 50.7244 31.0359 50.4969 31.4365C50.2923 31.7957 50.5789 32.522 50.7956 32.6999C53.5418 34.9559 57.403 35.417 60.0989 35.0947C62.8813 34.7634 64.8956 33.6298 66.4394 31.5305C66.7228 31.1455 66.83 30.84 66.7589 30.6229C66.6626 30.3309 66.2873 30.2033 65.7249 30.0421C65.6243 30.013 65.5247 29.984 65.4295 29.9537C64.3518 29.6135 63.5137 28.8615 62.704 28.133C62.4666 27.9193 62.2292 27.7067 61.9863 27.5052C61.0639 26.7387 59.8768 26.4041 58.5529 26.5462H58.5507Z" fill="#4B1738"/>
<path d="M35.1867 84.9999C35.1528 84.9999 35.1189 84.9955 35.0839 84.9876C34.9121 84.944 34.783 84.7974 34.7611 84.6172C34.5204 82.6947 32.5772 81.1414 30.7019 81.3597C30.4656 81.382 30.2544 81.2142 30.227 80.9736C30.1997 80.733 30.3682 80.5159 30.6034 80.4868C32.2676 80.2854 33.7797 79.1417 34.4558 77.5728C34.5488 77.3568 34.7928 77.2561 35.0051 77.3411C37.7152 78.4311 39.7022 80.404 40.4582 82.754C40.5086 82.9107 40.4692 83.0841 40.3543 83.2005C40.2394 83.318 40.0698 83.3605 39.9177 83.3091C38.3597 82.7943 36.4756 83.44 35.5368 84.8131C35.4559 84.9317 35.3235 84.9999 35.1856 84.9999H35.1867ZM32.6122 80.7543C33.8858 81.2455 34.9515 82.3109 35.4077 83.628C36.4439 82.6119 37.9308 82.1061 39.3532 82.2862C38.573 80.6133 37.0533 79.2021 35.0576 78.3136C34.5094 79.3566 33.6396 80.2126 32.6122 80.7543Z" fill="#4B1738"/>
<path d="M60.343 81.5678C60.2719 81.5678 60.2008 81.5499 60.1362 81.513C59.9907 81.4313 59.9043 81.2713 59.9152 81.1012C60.0301 79.21 60.5247 77.3132 61.3474 75.6145C61.4011 75.5048 61.4962 75.422 61.6122 75.3884C61.7271 75.3537 61.8507 75.3705 61.9547 75.4343C63.5182 76.3978 65.7666 76.6485 67.8225 76.0845C68.0446 76.0229 68.2689 76.1505 68.3411 76.3698C68.4122 76.5903 68.3039 76.8298 68.0927 76.9159C66.898 77.4027 66.1638 78.89 66.4899 80.1623C66.5303 80.319 66.4822 80.4868 66.3662 80.5965C66.2491 80.7073 66.0817 80.742 65.9329 80.6883C64.1626 80.0549 62.1177 80.3593 60.5958 81.485C60.5214 81.5399 60.4328 81.5678 60.3441 81.5678H60.343ZM61.9241 76.4202C61.3836 77.6411 61.0192 78.9582 60.8518 80.2888C62.2807 79.5144 63.9788 79.2861 65.5544 79.6621C65.5215 78.7926 65.8093 77.922 66.3268 77.2338C64.748 77.3647 63.1987 77.0816 61.9241 76.4202Z" fill="#4B1738"/>
<path d="M61.7315 76.4996C61.6024 76.4996 61.4744 76.4403 61.3902 76.3272C60.0794 74.5748 59.6111 72.1632 60.1691 70.0314C60.2304 69.7976 60.4667 69.6588 60.6943 69.7215C60.923 69.7841 61.0587 70.0247 60.9974 70.2586C60.5072 72.1319 60.9186 74.2536 62.0718 75.7935C62.2162 75.9859 62.1801 76.2612 61.9919 76.4089C61.9143 76.4694 61.8224 76.4996 61.7315 76.4996Z" fill="#4B1738"/>
<path d="M71.3968 28.9969C70.9417 29.1458 70.5926 29.5195 70.3115 29.9C70.178 30.0891 69.9985 30.2805 69.9876 30.5245C69.8661 31.131 70.5926 31.6066 71.0959 31.2843C71.5533 30.9016 71.364 30.9116 71.8421 30.4942C71.8443 30.4931 71.8498 30.4898 71.8531 30.4886C71.9209 30.4607 72.015 30.4148 72.0632 30.3633C72.7328 29.8799 72.178 28.7586 71.3979 28.9969H71.3968Z" fill="#F5CC94"/>
</svg>