<svg xmlns="http://www.w3.org/2000/svg" width="90" height="90" viewBox="0 0 90 90" fill="none">
<path d="M15.7352 34.1044C12.9692 39.2612 14.8184 46.3947 10.9166 50.7524C9.83761 51.9583 8.28423 53.0599 8.29251 54.6796C8.29843 55.8843 9.20585 56.8744 10.0979 57.6819C14.2209 61.4123 19.3176 64.0518 25.3442 65.7913C31.6594 66.0095 38.0788 66.217 44.1965 64.6293C50.3142 63.0415 56.1976 59.3752 58.9672 53.6824C60.7027 50.1156 61.0967 46.0651 61.9958 42.0679C65.6326 42.2553 69.3238 41.0861 72.1017 38.6102C73.5569 39.9478 75.7574 40.4114 77.8916 39.6075C76.1667 38.5604 75.102 36.5067 75.1339 34.5941C76.815 35.5036 78.986 35.4218 80.3891 34.2811C79.4001 34.3356 78.6263 33.3253 78.5246 32.3388C78.4228 31.3511 78.792 30.3859 79.0735 29.4349C79.9431 26.4918 79.994 23.3093 79.4356 20.2654C77.8597 13.7058 72.5962 8.17074 66.0384 6.63756C61.9864 4.76525 57.131 4.7273 53.1902 6.74309C45.6268 4.31229 37.1323 5.9012 30.2729 9.9138C23.4134 13.9276 18.0647 20.1706 14.002 27.01C13.2295 28.3108 12.4747 29.7372 12.5894 31.2467C12.7042 32.7562 14.0742 34.2585 15.7364 34.1032L15.7352 34.1044Z" fill="#FFD26F"/>
<path d="M66.1709 42.1818C66.6796 43.8549 67.1363 45.6596 66.6051 47.3256C65.8455 49.7089 63.2404 51.0726 60.7524 51.2884C58.4111 51.4911 55.9302 50.8401 54.2419 49.2026C52.5537 47.5651 51.8332 44.8734 53.034 42.579C54.2218 43.5418 55.9325 43.5561 57.4078 43.16C58.8831 42.7652 60.2448 42.0181 61.7095 41.5877C63.1753 41.1573 64.8695 41.0849 66.1709 42.1806V42.1818Z" fill="#E58863"/>
<path d="M57.7663 32.4704C56.6377 32.27 55.4333 33.1475 55.2712 34.2846C55.1091 35.4229 56.0177 36.6004 57.157 36.7332C58.2963 36.8672 59.4498 35.934 59.5646 34.7909C59.6794 33.6479 58.7246 32.64 57.7663 32.4692V32.4704Z" fill="#4B1738"/>
<path d="M28.8637 72.837C27.599 74.0951 26.649 75.6674 26.1213 77.3725C27.7741 76.9196 29.6824 77.6892 30.5602 79.1642C31.4168 77.9346 32.9867 77.2445 34.4691 77.4461C32.0663 76.8508 29.9581 75.1564 28.8637 72.837Z" fill="#E58863"/>
<path d="M36.7455 69.5798C35.4347 70.8877 34.778 72.8252 35.0229 74.6644C36.3397 74.2956 37.8256 74.5944 38.8999 75.4422C39.5198 74.3157 40.8259 73.609 42.106 73.7051C40.1764 72.7411 38.1415 71.6798 36.7455 69.5798Z" fill="#E58863"/>
<path d="M42.7719 25.9477C45.1783 24.8817 48.1526 25.241 50.2371 26.85C52.3217 28.4591 53.4279 31.2492 53.0138 33.8531C52.5997 36.457 50.6832 38.7645 48.2401 39.6313C45.9828 38.3649 44.4484 36.061 43.5942 33.6136C42.74 31.1662 42.4939 28.554 42.7719 25.9465V25.9477Z" fill="#E58863"/>
<path d="M16.1185 34.0701C15.1567 35.0649 14.448 36.3052 14.0801 37.6404C17.7062 36.9147 21.3655 36.1784 24.7479 34.6807C28.1303 33.1843 31.2607 30.8425 33.0306 27.5887C27.7884 30.7796 22.1936 33.8661 16.1185 34.0701Z" fill="#C9A14B"/>
<path d="M52.924 42.5719C53.4351 43.0901 54.1958 43.3462 54.9151 43.2442C54.4738 44.9138 54.7637 46.7647 55.6936 48.2185C56.6235 49.6734 58.1792 50.7097 59.8769 51.0074C57.6492 51.3133 55.2913 50.3931 53.8551 48.6584C52.4188 46.9236 51.9539 44.4312 52.924 42.5719Z" fill="#C37553"/>
<path d="M16.8911 62.5305C26.9721 65.5328 38.0729 64.9696 47.8001 60.9617C49.6304 60.2076 51.4405 59.3171 52.898 57.9748C54.3544 56.6325 55.4333 54.778 55.4783 52.7942C53.5676 52.4575 51.7812 51.318 50.7235 49.684C49.6658 48.05 49.3523 45.9524 49.8894 44.0801C44.9797 41.2189 42.0232 35.4644 42.5804 29.9424C43.3115 35.2937 47.1861 40.0936 52.8625 42.3134C51.9918 44.4655 52.3928 47.0801 53.8658 48.8718C55.3399 50.6634 57.8255 51.5551 60.1254 51.1698C59.7622 54.5278 57.1784 57.2041 54.4691 59.2139C44.1705 66.8585 29.7949 68.5956 16.8923 62.5281L16.8911 62.5305Z" fill="#C9A14B"/>
<path d="M74.4832 14.5276C73.7367 13.8387 72.6968 14.9332 73.4173 15.6505C74.4584 16.828 74.7802 17.4339 75.2948 19.2552C75.4687 19.8339 75.5859 20.4268 75.7172 21.0161C75.7586 21.2568 75.8402 21.5117 76.0733 21.6291C76.6376 21.9184 77.1049 21.3801 77.0198 20.8181C77.0363 20.237 76.9961 19.6572 76.8896 19.0869C76.5761 17.3533 75.7006 15.7869 74.4832 14.5276Z" fill="#FAE0AA"/>
<path d="M77.3829 24.5958C77.0339 23.9804 76.0306 24.1334 75.878 24.8246C75.8177 25.1531 75.7077 25.5148 75.91 25.8171C76.2578 26.4313 77.261 26.2784 77.4125 25.5883C77.4764 25.2598 77.5852 24.8982 77.3829 24.5958Z" fill="#FAE0AA"/>
<path d="M29.7773 13.2908C27.6963 14.4232 25.6767 15.7228 23.9826 17.3912C23.5318 17.837 23.1107 18.3125 22.7001 18.7951C22.5085 19.0145 22.2742 19.2398 22.292 19.5552C22.279 20.2026 23.1473 20.5465 23.5792 20.0627C25.6081 17.5951 27.6643 16.3916 30.4126 14.5406C30.6457 14.3651 30.9509 14.2228 31.0183 13.911C31.165 13.1426 30.3298 12.8533 29.7785 13.2896L29.7773 13.2908Z" fill="#FAE0AA"/>
<path d="M33.5465 11.5395C32.4557 11.8111 32.8603 13.4284 33.9464 13.1486C35.036 12.8747 34.6325 11.2597 33.5465 11.5395Z" fill="#FAE0AA"/>
<path d="M65.5216 43.7719C65.0578 43.2988 64.1847 43.6794 64.2131 44.3434C64.2296 44.73 64.2498 45.1165 64.2403 45.5043C64.2308 45.694 64.1977 45.8991 64.3006 46.0699C64.6059 46.8596 65.841 46.5821 65.8126 45.7426C65.8374 45.4023 65.7948 45.0608 65.7818 44.7205C65.7641 44.3897 65.7937 44.0126 65.5216 43.7731V43.7719Z" fill="#F5CC94"/>
<path d="M63.9551 47.5485C63.2157 47.7655 63.5422 48.8931 64.2816 48.6844C65.0211 48.4674 64.6945 47.3398 63.9551 47.5485Z" fill="#F5CC94"/>
<path d="M47.8805 27.7856C47.6592 27.5852 47.3516 27.5235 47.0736 27.4382C46.792 27.3611 46.4797 27.3172 46.223 27.488C45.609 27.8378 45.7616 28.8433 46.4513 28.9962C46.7861 29.0235 47.0925 29.2678 47.4297 29.1966C48.097 29.1433 48.3691 28.2267 47.8793 27.7856H47.8805Z" fill="#F5CC94"/>
<path d="M49.0625 28.9558C48.3231 29.1728 48.6496 30.3005 49.3891 30.0918C50.1285 29.8748 49.802 28.7471 49.0625 28.9558Z" fill="#F5CC94"/>
<path d="M28.3067 74.7794C27.6537 75.466 28.6617 76.4359 29.3159 75.7541C29.9701 75.0688 28.961 74.0964 28.3067 74.7794Z" fill="#F5CC94"/>
<path d="M36.4332 72.0639C36.0144 72.8797 37.2081 73.5141 37.6423 72.7078C38.0646 71.8932 36.8662 71.2564 36.4332 72.0639Z" fill="#F5CC94"/>
<path d="M77.1203 40.5549C76.3702 40.7719 75.5681 40.8051 74.7967 40.6379C73.7816 40.4185 72.8292 39.8482 72.2673 39.151C70.4181 40.492 68.3821 41.5355 66.2099 42.2553C65.9639 42.3501 65.7048 42.2031 65.6243 41.96C65.5439 41.7157 65.6764 41.4525 65.9189 41.3731C68.1502 40.6343 70.23 39.5399 72.1017 38.1182C72.2105 38.0363 72.3501 38.0043 72.4838 38.0352C72.6175 38.0648 72.7299 38.1525 72.7937 38.2735C73.1274 38.9138 74.0514 39.5257 74.9931 39.7296C75.723 39.8873 76.511 39.815 77.2125 39.5411C75.5917 38.4051 74.6476 36.3609 74.9103 34.3771C74.9316 34.2182 75.0333 34.0807 75.1788 34.0143C75.3243 33.9443 75.4947 33.9621 75.6272 34.051C76.7133 34.7779 78.1294 34.8953 79.3433 34.4328C78.7281 34.089 78.2513 33.4498 78.1093 32.7645C77.8975 31.7435 78.2087 30.77 78.5104 29.8286L78.6145 29.4989C80.4968 23.4516 78.8428 16.2955 74.4986 11.6936C70.2241 7.16404 61.0695 4.13088 53.7309 7.11542C53.6409 7.15336 53.5392 7.16048 53.4434 7.13558C47.0134 5.52295 40.2698 6.12413 33.3973 8.92251C26.3486 11.7944 20.1694 17.6651 14.506 26.8713C13.0638 29.2155 12.7598 30.993 13.6021 32.1526C14.59 33.5139 16.7763 33.4178 18.4374 33.0965C23.6606 32.0898 28.6994 29.9044 33.0105 26.7812C33.2175 26.6306 33.5086 26.678 33.6588 26.8855C33.8091 27.093 33.7617 27.3835 33.5547 27.5353C29.1347 30.738 23.9682 32.9744 18.6136 34.0095C15.8145 34.5502 13.8766 34.1091 12.8532 32.6993C11.7684 31.204 12.0594 29.0792 13.7181 26.3828C19.4856 17.0022 25.8091 11.0094 33.0472 8.06165C40.0521 5.20517 46.9412 4.58028 53.5215 6.19646C61.1996 3.15381 70.7151 6.33045 75.1717 11.0533C79.8106 15.9671 81.5083 23.3164 79.4994 29.7752L79.3929 30.1119C79.1161 30.9764 78.8546 31.7933 79.0167 32.5748C79.109 33.0206 79.4627 33.4676 79.8756 33.6621C80.0614 33.7498 80.3394 33.8234 80.6127 33.6787C80.8233 33.5672 81.0812 33.6313 81.2149 33.8281C81.3474 34.0249 81.3119 34.2905 81.1309 34.4435C79.652 35.6992 77.519 35.9743 75.7988 35.2036C75.8686 36.8387 76.8896 38.449 78.3696 39.1391C78.5222 39.2102 78.6239 39.3573 78.637 39.5257C78.65 39.6928 78.5707 39.8553 78.4311 39.9478C78.0265 40.217 77.584 40.4209 77.1214 40.5549H77.1203Z" fill="#4B1738"/>
<path d="M62.4939 51.1888C62.0727 51.3109 61.6362 51.4081 61.189 51.4793C58.3046 51.937 55.6049 51.2184 53.7818 49.5074C51.586 47.4477 51.9421 44.8058 52.1775 43.0569C52.2083 42.8292 52.2367 42.6158 52.258 42.4165C52.2745 42.2636 52.3644 42.1296 52.4993 42.0561C52.6342 41.9826 52.7963 41.9826 52.9323 42.0525C55.2748 43.2691 58.1852 42.3169 60.5241 41.5545C61.3321 41.2901 62.0964 41.0411 62.753 40.9095C64.4637 40.5656 66.2017 41.4585 66.275 41.4976C66.3673 41.5462 66.4407 41.6233 66.4832 41.7181C66.5554 41.8782 68.2389 45.6703 66.8571 48.1805C66.1307 49.4991 64.4862 50.6113 62.4927 51.1876L62.4939 51.1888ZM53.1027 43.1482C53.1015 43.16 53.0991 43.1707 53.0979 43.1825C52.8755 44.8355 52.5703 47.0979 54.4159 48.8291C56.0284 50.3421 58.4443 50.973 61.0447 50.5603C63.3363 50.1951 65.3002 49.0864 66.0467 47.7311C67.0653 45.8825 65.9875 42.9537 65.7036 42.2553C65.2919 42.0715 64.0721 41.5936 62.9376 41.8225C62.3342 41.9434 61.5948 42.1853 60.814 42.4403C58.4928 43.198 55.6463 44.1288 53.1027 43.1482Z" fill="#4B1738"/>
<path d="M52.9454 42.8494C52.8507 42.8767 52.7478 42.8743 52.6484 42.8364C48.3964 41.1751 44.8685 37.6392 43.2122 33.3764C41.5559 29.1136 41.7677 24.118 43.7789 20.0118C43.8913 19.7817 44.1693 19.6857 44.4 19.7995C44.6295 19.9122 44.7253 20.192 44.6118 20.422C42.7129 24.2983 42.513 29.0152 44.077 33.0385C45.641 37.0629 48.9714 40.4008 52.9856 41.9696C53.2246 42.0633 53.3429 42.3324 53.2494 42.5719C53.195 42.7119 53.079 42.8115 52.9454 42.8494Z" fill="#4B1738"/>
<path d="M58.1416 37.1756C57.8991 37.2455 57.6471 37.2799 57.3892 37.2728C55.9955 37.2337 54.79 35.9732 54.8101 34.5764C54.8302 33.1784 56.0712 31.9523 57.4649 31.9535C58.1724 31.9535 58.8432 32.2476 59.3531 32.7811C59.8677 33.3183 60.1457 34.0274 60.1162 34.7258C60.0676 35.8641 59.2123 36.8661 58.1416 37.1756ZM57.052 32.9436C56.3433 33.1487 55.7482 33.8519 55.7376 34.5894C55.7258 35.4669 56.5409 36.3183 57.4152 36.3432C58.2883 36.3669 59.1519 35.5629 59.1886 34.6855C59.2076 34.2467 59.0183 33.7748 58.6834 33.4238C58.3498 33.0752 57.9168 32.8831 57.4649 32.8819C57.3253 32.8819 57.1869 32.9033 57.0532 32.9412L57.052 32.9436Z" fill="#4B1738"/>
<path d="M45.1194 64.7359C44.4924 64.9174 43.8464 65.0881 43.178 65.2494C34.519 67.3351 26.137 66.9343 18.9368 64.0897C15.0338 62.5482 11.9046 60.434 9.63424 57.8064C8.20153 56.1475 7.69754 54.5598 8.1755 53.2151C8.48074 52.3567 9.12788 51.7555 9.75373 51.1745C9.93592 51.0049 10.1181 50.8365 10.2897 50.6622C12.3033 48.6109 12.9433 45.4959 13.3041 42.7188C13.3503 42.369 13.3929 42.0169 13.4366 41.6647C13.7632 39.0134 14.1003 36.2731 15.4431 33.9051C15.5697 33.6822 15.8537 33.6039 16.0761 33.7308C16.2985 33.8577 16.3766 34.1411 16.25 34.3652C14.9983 36.5719 14.673 39.2185 14.3583 41.7785C14.3145 42.1331 14.2707 42.4876 14.2258 42.8398C13.8448 45.7698 13.1574 49.0674 10.9522 51.3144C10.7712 51.4994 10.5783 51.6784 10.3855 51.8575C9.81761 52.3851 9.27931 52.8843 9.05098 53.5282C8.59668 54.8052 9.49937 56.2281 10.337 57.1981C12.5079 59.7107 15.5165 61.7383 19.2787 63.2253C24.1742 65.1593 32.2582 66.9248 42.9626 64.3458C47.2205 63.3213 50.5899 61.8854 53.2637 59.9573C56.5325 57.6024 58.7733 54.4483 59.5754 51.0772C59.6345 50.827 59.8854 50.6729 60.1338 50.7322C60.3834 50.7915 60.5372 51.0428 60.4781 51.2918C59.6251 54.8811 57.2554 58.2261 53.8055 60.7115C51.4548 62.4047 48.6 63.7292 45.1206 64.7359H45.1194Z" fill="#4B1738"/>
<path d="M28.8615 73.092C28.7551 73.0375 28.6687 72.9415 28.6297 72.8181C28.5989 72.7233 27.895 70.43 28.5007 66.1032C28.5362 65.8495 28.7704 65.6716 29.0248 65.7072C29.2792 65.7416 29.4554 65.9787 29.42 66.2325C28.8462 70.3257 29.5075 72.517 29.5146 72.5383C29.5903 72.7826 29.4554 73.0446 29.2106 73.1217C29.0899 73.1596 28.9657 73.1466 28.8615 73.0932V73.092Z" fill="#4B1738"/>
<path d="M25.3277 78.1504C25.2933 78.1326 25.2602 78.1113 25.2306 78.0852C25.0733 77.9465 25.0283 77.72 25.1194 77.5327C26.0363 75.6426 27.1993 73.8817 28.5776 72.2987C28.6829 72.1778 28.8414 72.1197 28.9999 72.1446C29.1573 72.1707 29.291 72.2738 29.3537 72.4209C30.4586 75.0082 32.6509 76.0777 35.1921 77.1129C35.4287 77.2113 35.54 77.4734 35.4512 77.7093C35.3613 77.9453 35.0999 78.0662 34.8621 77.9809C33.4779 77.4852 31.7754 78.1327 31.0691 79.4239C30.9851 79.5781 30.8207 79.6718 30.6468 79.6646C30.4717 79.6587 30.3155 79.5544 30.241 79.3955C29.8742 78.5986 29.1525 77.9797 28.309 77.7366C27.4667 77.4959 26.5261 77.6406 25.7938 78.1232C25.653 78.2168 25.4755 78.224 25.3288 78.1493L25.3277 78.1504ZM28.8225 73.4501C27.9659 74.4983 27.204 75.6212 26.545 76.8046C27.2064 76.6481 27.9068 76.6564 28.5622 76.8437C29.4164 77.088 30.1735 77.6287 30.6941 78.3449C31.2288 77.7224 31.9623 77.2742 32.7574 77.0501C31.2868 76.2995 29.7902 75.2311 28.8225 73.4501Z" fill="#4B1738"/>
<path d="M34.72 75.2513L34.7082 75.2453C34.5532 75.16 34.4585 74.9939 34.4668 74.8173C34.552 72.7742 35.2678 70.7454 36.484 69.1031C36.5798 68.9739 36.7348 68.9039 36.8945 68.917C37.0542 68.93 37.195 69.0249 37.2695 69.1672C37.8847 70.3612 38.6336 71.2197 39.6262 71.8695C40.5526 72.4742 41.622 72.8821 42.6572 73.2746C42.8643 73.3529 42.9873 73.5675 42.9506 73.7857C42.914 74.0038 42.7294 74.1675 42.5082 74.1746C41.8492 74.1959 41.1689 74.2185 40.5774 74.4485C40.1184 74.6264 39.5883 75.0189 39.4783 75.5845C39.4428 75.7659 39.3044 75.9082 39.1258 75.9497C38.9459 75.99 38.7602 75.92 38.6502 75.773C37.8894 74.7402 36.245 74.477 35.2003 75.2181C35.0595 75.3177 34.8762 75.3319 34.7224 75.2536L34.72 75.2513ZM36.8176 70.2604C36.1042 71.4047 35.6369 72.709 35.463 74.0477C36.6011 73.6564 37.9403 73.8948 38.869 74.6643C39.1695 74.1971 39.651 73.8094 40.2402 73.5805C40.3656 73.5319 40.4922 73.4904 40.6188 73.456C40.1042 73.2236 39.599 72.9628 39.1175 72.6485C38.1805 72.0367 37.4375 71.2671 36.8176 70.2604Z" fill="#4B1738"/>
<path d="M36.8271 69.9972C36.7313 69.9486 36.6508 69.8656 36.6071 69.7577C36.0759 68.4474 36.1232 66.9035 36.7336 65.6289C36.8449 65.3976 37.1217 65.3004 37.3524 65.4107L37.3619 65.4154C37.5866 65.5293 37.6801 65.8032 37.5701 66.032C37.0708 67.0743 37.0318 68.3371 37.466 69.4079C37.563 69.6462 37.4482 69.9165 37.2104 70.0138C37.0815 70.0671 36.9419 70.0565 36.8259 69.9984L36.8271 69.9972Z" fill="#4B1738"/>
<path d="M64.7892 29.1289C64.5928 29.1859 64.3751 29.1064 64.2639 28.9238C63.7989 28.1578 62.8525 27.6788 61.9616 27.7594C61.7061 27.7831 61.4813 27.5934 61.4576 27.3373C61.4352 27.0823 61.6221 26.8559 61.8788 26.8321C63.1281 26.7195 64.4047 27.3657 65.0566 28.44C65.1902 28.6594 65.1204 28.9463 64.9016 29.0791C64.8661 29.1017 64.8282 29.1171 64.7892 29.1289Z" fill="#4B1738"/>
<path d="M48.672 65.087C48.4662 66.0582 48.2591 67.0435 48.3763 67.9862C48.4934 68.9289 48.9784 69.8384 49.9166 70.2961C50.1343 70.4028 50.3981 70.4834 50.6655 70.4134C51.1529 70.2854 51.3363 69.7648 51.3399 69.3569C51.3458 68.4973 51.0003 67.6969 50.5022 67.002C50.0042 66.3072 49.357 65.706 48.6732 65.087H48.672Z" fill="#51B8E2"/>
<path d="M49.3747 69.3533C49.6065 69.6012 50.165 69.3 50.0455 68.9964C49.9378 68.7783 49.8325 68.5577 49.7272 68.3383C49.6894 68.2233 49.5569 68.1356 49.4042 68.1474C49.1428 68.1356 48.9014 68.3976 48.9795 68.5968C49.1191 68.8447 49.2067 69.1245 49.3747 69.3545V69.3533Z" fill="#D4DDE3"/>
<path d="M48.6058 64.8914H48.6094C48.7064 64.8582 48.8093 64.8737 48.872 64.9306C49.5913 65.5816 50.2267 66.1768 50.7271 66.874C51.3092 67.6863 51.6026 68.5116 51.5955 69.3274C51.5919 69.8159 51.3624 70.4479 50.7082 70.6163C50.4136 70.6933 50.1048 70.6507 49.7641 70.4835C48.8578 70.0412 48.2592 69.1495 48.122 68.0373C48.0001 67.059 48.2142 66.0523 48.4213 65.08C48.439 64.997 48.5112 64.9235 48.6058 64.8914ZM50.6537 70.2013C50.9448 70.1005 51.0808 69.7151 51.0832 69.3866C51.0891 68.6444 50.817 67.8843 50.2775 67.1301C49.88 66.5752 49.3855 66.0819 48.8271 65.5661C48.6662 66.3606 48.5372 67.1657 48.6331 67.9341C48.7561 68.9289 49.2802 69.721 50.0705 70.1076C50.2894 70.2155 50.4763 70.2499 50.623 70.2107C50.6336 70.2084 50.6443 70.2048 50.6549 70.2013H50.6537Z" fill="#4B1738"/>
<path d="M63.4392 50.3611C64.4058 51.7247 65.0423 53.3207 65.2801 54.976C65.3475 55.442 65.3818 55.9235 65.2635 56.3788C65.1452 56.8341 64.8518 57.2645 64.4176 57.446C63.7468 57.7246 62.9328 57.2989 62.5992 56.6527C62.2656 56.0065 62.3259 55.2191 62.5483 54.5255C62.7707 53.8318 63.1422 53.1974 63.425 52.5275C63.7077 51.8575 63.9065 51.1164 63.4392 50.3611Z" fill="#51B8E2"/>
<path d="M64.1114 55.8251C64.1019 56.469 63.1401 56.4299 63.1791 55.7884C63.1933 55.1457 64.1493 55.1848 64.1114 55.8251Z" fill="#D4DDE3"/>
<path d="M63.1671 50.2592C63.1364 50.3411 63.1435 50.4347 63.192 50.5142C63.5942 51.1628 63.4132 51.8102 63.1577 52.4126C63.0547 52.6556 62.9376 52.8999 62.8228 53.1371C62.6241 53.5509 62.4182 53.9789 62.2715 54.4355C62.0716 55.058 61.9213 55.971 62.3413 56.7844C62.7164 57.5125 63.6593 58.0745 64.5288 57.7129C65.0127 57.5125 65.3913 57.0382 65.5439 56.4512C65.68 55.9248 65.6315 55.3888 65.5664 54.9335C65.3227 53.2331 64.6684 51.5932 63.6758 50.1916C63.5847 50.0636 63.4096 50.0316 63.2783 50.1181C63.2251 50.1537 63.1884 50.2035 63.1671 50.2592ZM64.9335 56.4655C64.808 56.8034 64.5821 57.0631 64.3076 57.1769C63.7693 57.401 63.1115 57.0097 62.8583 56.5176C62.5129 55.8477 62.6903 55.0378 62.8264 54.6133C62.9601 54.1995 63.1482 53.8058 63.3481 53.3896C63.4653 53.1465 63.5859 52.8952 63.6936 52.639C63.806 52.3734 63.9101 52.0877 63.9669 51.7889C64.4827 52.7991 64.8329 53.8936 64.9938 55.0165C65.0506 55.4137 65.0943 55.8785 64.9831 56.3042C64.9689 56.3588 64.9524 56.4121 64.9335 56.4643V56.4655Z" fill="#4B1738"/>
<path d="M51.0039 82.424C51.4677 82.1975 52.5053 81.7825 53.0625 82.1845C53.4647 82.475 53.7061 83.0572 54.0232 83.5137C54.5603 84.2892 55.347 84.7077 56.0261 84.754C56.7052 84.8002 57.2955 84.5216 57.822 84.1635C58.3745 83.7876 58.8951 83.286 59.056 82.4726C59.2169 81.6592 58.8974 80.4687 58.1982 79.8877C57.5629 79.36 56.7277 79.3813 56.271 78.5952C55.8486 77.8695 56.1243 77.0893 56.4461 76.5723C56.7667 76.0553 57.1228 75.3913 56.8046 74.6134C56.6129 74.1427 56.2142 73.7905 55.838 73.6411C55.4618 73.4917 55.1009 73.5107 54.7543 73.5486C51.8345 73.8605 48.9726 75.5537 46.7058 77.3252C45.253 78.46 44.8212 80.7319 46.0634 82.3244C47.2382 83.8291 49.0507 83.3785 51.0039 82.424Z" fill="#51B8E2"/>
<path d="M55.9656 77.8197C55.9975 77.3774 56.0283 76.9256 55.936 76.4466C55.8437 75.9675 55.6083 75.4458 55.2545 75.1506C54.7742 74.7498 54.2619 74.8778 53.8278 75.0272C51.6899 75.76 49.5521 76.4916 47.4143 77.2244C49.2504 75.1814 51.8851 74.4415 54.4512 73.7407C55.057 73.5759 55.8224 73.4786 56.4009 74.1782C56.86 74.7332 56.9676 75.5762 56.7961 76.1418C56.6245 76.7075 56.2389 77.0608 55.9656 77.8209V77.8197Z" fill="#2D97B5"/>
<path d="M47.9243 81.7588C48.0699 81.8821 48.2331 81.8845 48.381 81.9153C48.6425 81.958 48.8933 81.9461 49.1228 81.875C49.3346 81.7837 49.6859 81.7445 49.835 81.5679C50.0314 81.2833 49.6315 80.6845 49.3488 80.8351C48.7004 81.0651 48.7892 81.0876 48.1468 81.1125C48.045 81.1256 47.9172 81.0829 47.8392 81.154C47.6865 81.2501 47.7421 81.5963 47.9243 81.76V81.7588Z" fill="#D4DDE3"/>
<path d="M51.2037 80.9299C51.4332 80.8161 51.1753 80.2861 50.9434 80.3964C50.7139 80.5102 50.9718 81.0402 51.2037 80.9299Z" fill="#D4DDE3"/>
<path d="M57.6185 82.833C57.738 82.6397 57.751 82.3468 57.719 82.0611C57.6954 81.9259 57.6646 81.7765 57.5995 81.6461C57.5842 81.6057 57.5593 81.5464 57.5297 81.4777C57.3972 81.1895 57.0742 81.1042 56.9891 81.333C56.9417 81.448 56.9678 81.5951 57.0269 81.7409C57.0352 81.7848 57.047 81.8298 57.0577 81.8749C57.0601 81.9461 57.0648 82.0172 57.0672 82.0208C57.0672 82.0255 57.0672 82.0302 57.0672 82.0338C57.0672 82.048 57.0636 82.0966 57.0565 82.1429C57.0423 82.1844 57.0234 82.2211 57.0021 82.2579C56.8341 82.686 57.4375 83.2445 57.6196 82.8318L57.6185 82.833Z" fill="#D4DDE3"/>
<path d="M50.5271 74.5791C51.9693 73.8735 53.357 73.4479 54.6797 73.3068C55.0204 73.27 55.418 73.2451 55.8356 73.4111C56.3218 73.6044 56.7548 74.0455 56.9654 74.5613C57.3629 75.536 56.8708 76.3293 56.6058 76.7561C56.3727 77.132 56.0367 77.8565 56.4082 78.4956C56.6294 78.8774 56.982 79.0304 57.389 79.2071C57.6788 79.3328 57.9793 79.4632 58.2585 79.6956C59.0831 80.3798 59.4097 81.7351 59.2381 82.5971C59.0512 83.5398 58.4111 84.0687 57.945 84.3853C57.5227 84.6734 56.8684 85.0493 56.0746 84.9947C55.2736 84.9402 54.4396 84.4208 53.8977 83.6371C53.7924 83.4853 53.6966 83.3228 53.6043 83.1675C53.4162 82.8497 53.2387 82.5497 53.0128 82.3861C52.6093 82.0956 51.767 82.3339 51.1139 82.6529C49.318 83.5303 47.3009 84.1944 45.951 82.4655C45.4742 81.8549 45.1974 81.1209 45.1501 80.3466C45.0743 79.0932 45.6185 77.8518 46.5709 77.1083C47.9255 76.0494 49.247 75.2052 50.5248 74.5803L50.5271 74.5791ZM57.1736 84.2489C57.3736 84.1517 57.5499 84.0402 57.6966 83.9406C58.1237 83.6501 58.7093 83.1699 58.8725 82.347C59.0074 81.6616 58.7649 80.5992 58.1367 80.0774C57.9131 79.8924 57.6563 79.7798 57.383 79.6612C56.9311 79.4644 56.4638 79.2616 56.1337 78.6936C55.735 78.0071 55.7883 77.1877 56.2852 76.3873C56.5951 75.8881 56.9039 75.3024 56.6436 74.6633C56.5028 74.3194 56.1881 74.0075 55.8415 73.87C55.4937 73.7324 55.1506 73.7538 54.83 73.7882C52.3786 74.0502 49.6907 75.3131 46.8395 77.5411C45.9652 78.2241 45.4636 79.3446 45.531 80.4628C45.5689 81.0948 45.7925 81.6889 46.1758 82.181C47.0808 83.3406 48.536 83.343 50.8939 82.1904C51.4535 81.9177 52.4851 81.5264 53.1121 81.9782C53.4434 82.2165 53.667 82.5948 53.8835 82.9612C53.9734 83.113 54.0574 83.2552 54.1473 83.3857C54.5957 84.0319 55.2961 84.4623 55.9776 84.5086C56.4295 84.5394 56.8365 84.4114 57.176 84.2465L57.1736 84.2489Z" fill="#4B1738"/>
<path d="M63.6282 61.7147C62.9633 62.0242 62.438 62.84 62.6616 63.5894C62.7456 63.8716 62.9278 64.1431 62.8734 64.4337C62.7941 64.8546 62.3043 64.9779 61.9104 65.0135C60.8397 65.1095 59.769 65.2056 58.6983 65.3016C58.2251 65.3443 57.7424 65.3894 57.3082 65.5981C56.874 65.8068 56.4907 66.2147 56.4209 66.7257C56.3322 67.3637 56.7593 67.9802 57.2881 68.2696C57.8169 68.5601 58.4298 68.5968 59.0213 68.6277C62.1186 68.7913 65.2171 68.9561 68.3144 69.1198C68.9911 69.1553 69.708 69.1826 70.3031 68.8292C70.8982 68.4759 71.2827 67.5937 70.9148 66.9747C70.6024 66.4494 69.9494 66.3569 69.3898 66.2111C68.8302 66.0641 68.1937 65.6443 68.2552 65.0218C68.3002 64.5653 68.706 64.2605 68.8858 63.8455C69.1934 63.1317 68.7332 62.2447 68.0825 61.8961C66.6202 61.1124 64.2943 61.4052 63.6294 61.7159L63.6282 61.7147Z" fill="#50B8E2"/>
<path d="M64.8515 62.974C64.8361 62.9764 64.8243 62.9799 64.8196 62.987C64.8326 62.9823 64.8432 62.9776 64.8515 62.974Z" fill="#D4DDE3"/>
<path d="M65.4194 62.578C65.3815 61.9994 64.6031 62.2472 64.5226 62.2496C64.2398 62.329 63.879 62.6195 63.853 62.9551C63.8423 63.2978 64.2623 63.4863 64.4776 63.2361C64.5084 63.1899 64.6042 63.0855 64.6279 63.0547C64.6338 63.0512 64.6385 63.0476 64.6445 63.044C64.7474 63.0073 64.9627 62.929 64.8527 62.9741C64.9769 62.9515 65.3815 63.0179 65.4206 62.578H65.4194Z" fill="#D4DDE3"/>
<path d="M66.4428 62.2045C66.1008 62.2057 66.102 62.7713 66.4428 62.7736C66.7847 62.7724 66.7835 62.2068 66.4428 62.2045Z" fill="#D4DDE3"/>
<path d="M59.1706 67.0874C59.0523 66.9582 58.8713 66.9617 58.7223 66.8977C58.6797 66.8811 58.6371 66.8645 58.5945 66.8467C58.5886 66.8443 58.585 66.8408 58.5779 66.8372C58.5755 66.836 58.5744 66.8337 58.572 66.8325C58.5708 66.7969 58.5696 66.7602 58.5673 66.7246C58.559 66.6262 58.5744 66.5206 58.5294 66.4317C58.3934 66.0333 57.8207 66.1625 57.829 66.5847C57.8172 67.059 57.9178 67.4325 58.365 67.6009C58.6229 67.6886 58.9955 67.9127 59.199 67.6103C59.3173 67.4621 59.2949 67.2238 59.1706 67.0874Z" fill="#D4DDE3"/>
<path d="M60.1772 68.8044C62.5801 68.1297 65.0811 67.8723 67.5573 68.0467C68.7557 68.1308 70.0725 68.2826 70.9255 67.5712C71.0391 68.1368 70.6368 68.7036 70.147 68.9289C69.6572 69.1542 69.1035 69.1221 68.5723 69.0854C66.0536 68.9134 63.536 68.7403 60.1772 68.8044Z" fill="#2D97B5"/>
<path d="M68.9026 69.3641C68.6944 69.3641 68.4921 69.3534 68.304 69.3439L59.0109 68.8518C58.4301 68.821 57.7723 68.7854 57.1949 68.47C56.6472 68.1688 56.1065 67.4846 56.2165 66.6926C56.2911 66.1554 56.6779 65.6574 57.2245 65.3942C57.6954 65.1677 58.2195 65.1202 58.6809 65.0787L61.8929 64.7906C62.2194 64.761 62.6193 64.6685 62.6726 64.3898C62.6974 64.2546 62.6359 64.1041 62.5649 63.9286C62.5282 63.8396 62.4927 63.7495 62.4655 63.6594C62.1993 62.7677 62.8193 61.8499 63.5469 61.5108C64.2319 61.1918 66.6311 60.8693 68.1715 61.6958C68.8884 62.08 69.4338 63.0973 69.0694 63.9416C68.989 64.129 68.8742 64.2878 68.763 64.4408C68.6163 64.6436 68.4791 64.8345 68.4578 65.0467C68.4128 65.5092 68.9334 65.8625 69.4362 65.9942C69.5084 66.0131 69.5817 66.0309 69.6563 66.0499C70.178 66.1768 70.7683 66.3214 71.0854 66.855C71.2581 67.1467 71.3066 67.5119 71.2203 67.8831C71.1103 68.3538 70.7956 68.7925 70.4004 69.0273C69.9331 69.3048 69.3995 69.3664 68.9026 69.3664V69.3641ZM63.7089 61.9199C63.1458 62.1831 62.669 62.8875 62.8571 63.5195C62.8796 63.5954 62.9104 63.6713 62.9411 63.746C63.0275 63.9606 63.1269 64.2025 63.0748 64.4776C62.992 64.9199 62.6051 65.1748 61.9272 65.2353L58.7152 65.5234C58.2644 65.5637 57.7983 65.6052 57.3913 65.8021C57.0624 65.961 56.6874 66.2953 56.6235 66.7578C56.5478 67.3044 56.9465 67.8309 57.3795 68.0692C57.8787 68.3431 58.4904 68.3751 59.0299 68.4036L68.3229 68.8957C68.9417 68.9289 69.6421 68.9657 70.2028 68.6313C70.4974 68.457 70.7399 68.1178 70.8216 67.7692C70.863 67.5925 70.8819 67.3329 70.7399 67.0945C70.514 66.7139 70.0325 66.5965 69.5663 66.4827C69.4894 66.4637 69.4137 66.4459 69.3392 66.4258C68.6447 66.2443 67.9763 65.7309 68.0485 64.9957C68.0816 64.6554 68.2721 64.3922 68.4401 64.161C68.5418 64.0211 68.6364 63.8894 68.698 63.7483C68.9618 63.1389 68.5359 62.3871 67.9905 62.0942C66.5838 61.3389 64.323 61.6329 63.7089 61.9187V61.9199Z" fill="#4B1738"/>
<path d="M52.5808 57.0773C53.5687 58.314 54.598 59.6468 54.7553 61.2239C54.8358 62.029 54.5862 62.9728 53.8491 63.3049C53.2079 63.5942 52.4046 63.2776 51.9952 62.7049C51.5847 62.1321 51.5149 61.3721 51.6356 60.6772C51.7562 59.9824 52.0508 59.3326 52.3194 58.6804C52.5879 58.0282 52.8376 57.3524 52.5808 57.0773Z" fill="#51B8E2"/>
<path d="M53.7652 62.0682C53.4541 62.405 52.9418 61.9319 53.2494 61.5927C53.5605 61.256 54.0728 61.7291 53.7652 62.0682Z" fill="#D4DDE3"/>
<path d="M52.3774 56.89C52.2863 56.9896 52.2792 57.1425 52.3656 57.2492C52.3739 57.2599 52.3833 57.2718 52.3928 57.2824C52.4733 57.4176 52.3632 57.8516 52.0651 58.5737L51.9681 58.8061C51.7267 59.386 51.4759 59.986 51.3635 60.6275C51.2121 61.4919 51.3564 62.2863 51.7705 62.8638C52.2887 63.5883 53.2316 63.8859 53.9627 63.5551C54.8808 63.1401 55.1115 62.0243 55.0299 61.1942C54.8619 59.5081 53.7474 58.0935 52.8353 56.9516C52.8187 56.9291 52.8021 56.9077 52.782 56.8864C52.6803 56.7773 52.5123 56.769 52.3999 56.8662C52.3916 56.8734 52.3845 56.8805 52.3774 56.8888V56.89ZM54.074 62.8057C53.9793 62.9088 53.8669 62.9942 53.7356 63.0535C53.1902 63.3001 52.536 62.9883 52.2189 62.5448C51.7788 61.9294 51.8344 61.1409 51.9066 60.7259C52.0083 60.1449 52.2461 59.5733 52.4768 59.0219L52.5738 58.7872C52.6992 58.4836 52.8152 58.186 52.8861 57.9145C53.6232 58.8773 54.3555 60.0049 54.4797 61.2523C54.5342 61.8002 54.4206 62.4286 54.074 62.8069V62.8057Z" fill="#4B1738"/>
<path d="M54.1757 37.5657C53.273 38.3933 52.3278 39.2886 52.0202 40.4755C51.8628 41.0814 51.9421 41.832 52.465 42.1747C52.9205 42.4723 53.5724 42.3265 53.9533 41.9376C54.3343 41.5486 54.4798 40.9759 54.4691 40.4305C54.4585 39.885 54.3118 39.3526 54.184 38.8226C54.0562 38.2925 53.9462 37.7459 54.1745 37.5657H54.1757Z" fill="#51B8E2"/>
<path d="M52.6756 41.2392C52.8732 41.5345 53.3216 41.2333 53.1264 40.9368C52.9288 40.6416 52.4804 40.9428 52.6756 41.2392Z" fill="#D4DDE3"/>
<path d="M54.3531 37.4471C54.4111 37.5337 54.3981 37.6511 54.32 37.7234C54.3117 37.7305 54.3034 37.7388 54.2951 37.7459C54.2182 37.8396 54.2502 38.1847 54.3921 38.7728L54.4383 38.9625C54.5542 39.4344 54.6737 39.923 54.6832 40.4269C54.6962 41.1052 54.4903 41.6957 54.1058 42.0882C53.6231 42.5802 52.8672 42.6941 52.3478 42.3538C51.6959 41.9269 51.6521 41.0459 51.813 40.4222C52.1419 39.1534 53.1617 38.2048 53.9958 37.4412C54.0112 37.4258 54.0266 37.4115 54.0443 37.3985C54.1342 37.3274 54.2644 37.3404 54.3389 37.4281C54.3448 37.4341 54.3495 37.4412 54.3531 37.4471ZM52.3525 41.7656C52.4129 41.8557 52.4886 41.934 52.582 41.9957C52.9689 42.2494 53.506 42.0893 53.8018 41.7882C54.2123 41.3708 54.2632 40.7613 54.2573 40.4352C54.249 39.9787 54.1354 39.5139 54.0242 39.0645L53.9781 38.8736C53.9189 38.6269 53.8657 38.385 53.8432 38.1692C53.1653 38.8167 52.4708 39.591 52.2283 40.5301C52.1218 40.9427 52.1337 41.436 52.3537 41.7668L52.3525 41.7656Z" fill="#4B1738"/>
<path d="M49.3345 48.2944C48.7512 49.3616 48.1609 50.4454 47.8911 51.6323C47.6226 52.8181 47.7125 54.1414 48.4081 55.1386C48.5702 55.3698 48.7855 55.5939 49.0636 55.6366C49.5723 55.7161 49.9544 55.1777 50.1212 54.6904C50.4726 53.6612 50.4691 52.5371 50.281 51.4651C50.0928 50.3932 49.7261 49.3628 49.3333 48.2944H49.3345Z" fill="#51B8E2"/>
<path d="M48.2791 53.7477C48.3974 54.1556 49.0434 54.0607 49.0517 53.6386C49.0386 53.3244 49.028 53.0113 49.0173 52.6971C49.0268 52.5418 48.9381 52.3734 48.7914 52.3141C48.55 52.1754 48.2188 52.3746 48.2117 52.6497C48.2436 53.0125 48.2129 53.392 48.2779 53.7477H48.2791Z" fill="#D4DDE3"/>
<path d="M49.3512 48.0276H49.3559C49.46 48.0359 49.55 48.1035 49.5866 48.2019C50.0007 49.326 50.358 50.3434 50.5473 51.4177C50.7673 52.6711 50.7105 53.8011 50.3769 54.7758C50.177 55.3603 49.7073 56.009 49.0258 55.8999C48.7182 55.8524 48.445 55.652 48.193 55.2904C47.5198 54.3276 47.3163 52.9722 47.6334 51.5719C47.9126 50.3399 48.5171 49.2347 49.1028 48.1652C49.1524 48.0739 49.2495 48.0205 49.3524 48.0264L49.3512 48.0276ZM49.1406 55.3758C49.4541 55.3947 49.7369 54.9951 49.8706 54.6038C50.1746 53.7157 50.2243 52.6746 50.0208 51.5126C49.8706 50.6576 49.6044 49.8288 49.2873 48.9442C48.8164 49.8205 48.3728 50.7264 48.1527 51.6928C47.8688 52.9461 48.0427 54.1461 48.6283 54.9856C48.7916 55.2192 48.9525 55.3497 49.1063 55.3734C49.1181 55.3746 49.1288 55.3758 49.1406 55.3769V55.3758Z" fill="#4B1738"/>
<path d="M55.7775 43.3806C56.6116 44.5035 57.1735 45.828 57.4031 47.2094C57.4681 47.5983 57.506 48.0003 57.4149 48.3833C57.325 48.7663 57.0872 49.1327 56.7275 49.2916C56.1715 49.5371 55.4817 49.1956 55.1907 48.6608C54.8997 48.126 54.9352 47.4655 55.1091 46.8821C55.283 46.2976 55.5811 45.7604 55.8059 45.1936C56.0307 44.6268 56.1833 44.0031 55.7775 43.3806Z" fill="#51B8E2"/>
<path d="M56.4412 47.9423C56.4447 48.4818 55.639 48.4664 55.6603 47.9292C55.6603 47.3909 56.4613 47.4063 56.4412 47.9423Z" fill="#D4DDE3"/>
<path d="M55.5479 43.3012C55.5243 43.37 55.5314 43.4482 55.574 43.5146C55.923 44.0494 55.7834 44.596 55.5799 45.1047C55.4982 45.3099 55.4048 45.5174 55.3137 45.7178C55.1552 46.0687 54.9907 46.4304 54.8759 46.8146C54.7198 47.3399 54.6109 48.1059 54.9777 48.7794C55.3054 49.3817 56.1052 49.8347 56.8257 49.5157C57.2267 49.339 57.5355 48.9359 57.6526 48.4402C57.7567 47.998 57.707 47.5497 57.6432 47.1703C57.4077 45.751 56.8292 44.3909 55.9727 43.236C55.8946 43.1304 55.7467 43.1067 55.639 43.1814C55.5953 43.2122 55.5645 43.2538 55.5491 43.3012H55.5479ZM57.1403 48.4628C57.0422 48.7474 56.8564 48.9691 56.6293 49.0699C56.1821 49.2667 55.6248 48.9525 55.4036 48.5458C55.1019 47.992 55.2356 47.3102 55.3409 46.9521C55.445 46.6035 55.5953 46.2703 55.755 45.9181C55.8484 45.7118 55.9454 45.4996 56.0306 45.2838C56.1205 45.0597 56.201 44.8178 56.2436 44.5676C56.6943 45.4035 57.0067 46.313 57.1628 47.2497C57.2184 47.5818 57.2634 47.9695 57.1782 48.3276C57.1676 48.3738 57.1545 48.4189 57.1392 48.4616L57.1403 48.4628Z" fill="#4B1738"/>
</svg>