<svg xmlns="http://www.w3.org/2000/svg" width="90" height="90" viewBox="0 0 90 90" fill="none">
<path d="M61.1875 35.793L55.2451 37.3526L62.1113 49.0097L67.364 39.375L64.0055 40.4102L61.1875 35.793Z" fill="#DBD1B7"/>
<path d="M62.1226 49.6597L54.7544 37.15L61.3375 35.4222L64.1507 40.0306L68.0241 38.8369L62.1234 49.6605L62.1226 49.6597ZM55.7368 37.5543L62.101 48.3595L66.7057 39.9129L63.862 40.7896L61.0376 36.1628L55.736 37.5543H55.7368Z" fill="#4B1838"/>
<path d="M26.3522 40.551L22.8999 39.1748L25.515 46.8279L31.4486 42.756L35.1126 37.4935L29.1703 35.9338L26.3522 40.551Z" fill="#DBD1B7"/>
<path d="M25.3473 47.3307L22.3713 38.6183L26.219 40.1531L29.021 35.5631L35.6378 37.2997L31.6778 42.9865L25.3473 47.3307ZM23.4291 39.7304L25.6817 46.3243L31.2183 42.5245L34.5873 37.6864L29.3201 36.3037L26.4853 40.9489L23.4299 39.7304H23.4291Z" fill="#4B1838"/>
<path d="M37.694 14.3955C38.9715 13.8439 39.6949 13.482 41.0854 13.1129C41.6733 12.9488 41.4271 12.0537 40.8368 12.2114C39.5625 12.5493 38.326 13.0241 37.1856 13.6886C36.6732 14.0344 37.1824 14.7286 37.694 14.3955Z" fill="#FAE0AA"/>
<path d="M57.2789 29.2558C57.3559 29.2061 57.3944 29.1829 57.3808 29.1869C57.4345 29.1613 57.4874 29.1349 57.5411 29.1085C57.5492 29.1053 57.558 29.1013 57.5668 29.0973C57.5925 29.0877 57.6278 29.0748 57.6703 29.0596C57.8467 28.9828 58.068 29.014 58.2132 28.8755C58.7112 28.524 58.299 27.7114 57.7184 27.8843C57.5452 27.9083 57.2797 27.9588 56.8595 28.2014C56.8202 28.251 56.6045 28.2894 56.469 28.6345C56.3262 29.0901 56.8739 29.5104 57.2789 29.2566V29.2558Z" fill="#F5CC94"/>
<path d="M66.4305 53.3833C66.9486 49.6188 66.3175 45.7037 64.643 42.2914C62.9686 38.8792 60.2572 35.9817 57.0414 34.0234C59.1489 29.9514 59.4352 24.9803 57.8089 20.6946C56.1826 16.4081 52.6701 12.8741 48.2674 11.0591C49.2482 10.0319 49.2426 8.22489 47.9827 6.99914C48.1014 8.3658 47.0244 9.72846 45.8384 9.74688C45.791 8.42585 45.0621 7.14805 43.7309 6.33862C43.9313 7.02316 44.1334 7.7253 44.0813 8.43706C44.0292 9.14801 43.6691 9.88138 43.0187 10.1776C42.4686 10.4282 41.8319 10.3265 41.228 10.3433C39.9962 10.3778 38.8438 10.919 37.7324 11.449C36.256 12.1536 34.7796 12.8581 33.3153 13.7588C30.4828 15.5178 28.2639 18.2407 27.1163 21.3679C26.1596 23.9748 25.9471 26.881 26.7089 29.5511C27.4707 32.2212 29.239 34.6287 31.6905 35.9545C31.9031 36.0866 32.1156 36.2179 32.3281 36.35C31.1003 36.9633 29.9688 37.7671 28.7875 39.0073C25.7185 41.9744 23.7121 46.0159 23.2052 50.2512C23.1026 51.1127 23.1042 52.1031 23.7353 52.6996C24.2846 53.2184 25.162 53.2512 25.8677 52.979C26.5734 52.7068 27.1484 52.1839 27.8789 51.5394C27.1371 54.4505 27.251 57.5737 28.2005 60.4232C29.1508 63.2734 30.9343 65.841 33.3947 67.7753C35.928 69.4254 38.9377 70.3373 42.2417 70.487C46.4358 70.8185 50.7149 70.0195 54.4424 68.1012C57.4031 67.0884 60.076 65.2501 62.0792 62.8483C64.0817 60.4464 65.8539 57.5746 66.4313 53.3833H66.4305Z" fill="#FFD26F"/>
<path d="M69.0883 52.618C67.8998 53.7501 65.8821 53.8774 64.5597 52.9031C65.0521 53.9959 65.0762 55.2913 64.6239 56.4018C64.1716 57.5123 63.2502 58.4234 62.1331 58.8629C64.0096 58.3001 66.1692 58.8021 67.6031 60.1359C68.6568 57.9126 69.2735 55.4843 69.0875 52.618H69.0883Z" fill="#E58863"/>
<path d="M55.0167 65.2117C53.3815 65.3382 51.7079 64.4879 50.8474 63.0933C50.2427 64.9915 48.4777 66.4687 46.4993 66.7297C48.3758 67.1925 49.9885 68.6128 50.6822 70.4142C52.6862 69.0571 54.1698 66.9539 55.0175 65.2125L55.0167 65.2117Z" fill="#E58863"/>
<path d="M51.9347 32.7594C51.784 32.3487 51.3774 32.0829 50.9612 31.9451C50.545 31.8074 50.1023 31.7706 49.6805 31.6521C48.0068 31.183 46.9002 29.5369 45.2706 28.934C44.0926 28.4985 42.7597 28.6642 41.5921 29.1261C40.4245 29.5881 39.3908 30.3255 38.3691 31.0557C37.3507 31.7842 36.3322 32.512 35.3129 33.2406C35.1237 33.3759 34.9176 33.54 34.8983 33.7714C34.8791 34.0067 35.0355 34.2405 35.2368 34.3638C37.7564 35.9058 40.3251 37.5407 43.2144 37.2605C49.6757 36.6336 52.0847 33.1701 51.9339 32.7594H51.9347Z" fill="#E58863"/>
<path d="M26.344 26.6073C28.2903 26.432 30.2871 27.5817 31.1091 29.3511C31.9311 31.1204 31.5205 33.3854 30.1299 34.7553C28.672 34.1644 27.6159 32.833 27.0112 31.3823C26.4065 29.9315 26.1956 28.3535 26.344 26.6065V26.6073Z" fill="#E58863"/>
<path d="M58.9333 26.8122C57.0087 26.6281 55.0423 27.9235 54.4561 29.7633C53.8699 31.6032 54.7231 33.7953 56.4008 34.7552C58.2813 32.6736 59.2252 29.7785 58.9341 26.8122H58.9333Z" fill="#E58863"/>
<path d="M52.1388 26.0918C53.0788 25.8257 53.6247 24.8492 53.3582 23.9108C53.0917 22.9724 52.1136 22.4273 51.1737 22.6934C50.2337 22.9595 49.6877 23.9359 49.9543 24.8744C50.2208 25.8128 51.1988 26.3579 52.1388 26.0918Z" fill="#4B1738"/>
<path d="M36.7918 25.8732C36.9883 25.1574 36.7798 24.3376 36.2433 23.8244C35.7068 23.3104 34.8583 23.139 34.1751 23.4305C33.491 23.7219 33.0251 24.4729 33.0957 25.2111C33.1735 26.0293 33.8968 26.7194 34.7132 26.8259C35.5296 26.9332 36.5937 26.5937 36.7918 25.8732Z" fill="#4B1738"/>
<path d="M47.1256 36.2965C44.2956 38.3108 40.3612 38.6575 37.2217 37.1691C36.54 36.8457 35.8816 36.431 35.4245 35.8305C34.9682 35.2308 34.7421 34.419 34.981 33.7048C37.9049 36.8881 42.8681 38.0074 47.1256 36.2965Z" fill="#C9A14B"/>
<path d="M47.7206 70.1012C40.5088 70.3278 33.2649 67.1109 28.604 61.6122C29.669 65.2646 32.8751 68.0188 36.4502 69.3334C40.026 70.648 43.9435 70.7001 47.7206 70.1012Z" fill="#C9A14B"/>
<path d="M50.4333 63.8876C50.0933 63.8604 49.8872 63.5177 49.6859 63.2423C49.4854 62.9669 49.1133 62.7083 48.8303 62.8988C48.7068 62.9821 48.645 63.1278 48.5824 63.2631C47.9858 64.5481 46.6947 65.4856 45.2865 65.657C44.758 65.721 44.1116 65.7482 43.8687 66.2206C43.6305 66.6826 43.9978 67.2558 44.4629 67.488C44.9288 67.7202 45.4701 67.7354 45.9705 67.8763C46.9633 68.1549 47.7877 68.9667 48.082 69.9531C48.8944 70.0036 49.7148 69.9267 50.5039 69.7257C49.4413 68.1805 47.6698 67.307 45.9761 66.4984C46.9096 66.7402 47.9353 66.6033 48.7733 66.1253C49.6105 65.6482 50.2497 64.8355 50.4325 63.8876H50.4333Z" fill="#C9A14B"/>
<path d="M64.9253 54.1377C64.7184 53.9647 64.5042 53.7886 64.2468 53.7069C63.9894 53.6253 63.6758 53.6629 63.5002 53.8679C63.1674 54.257 63.5395 54.8358 63.5483 55.3474C63.5572 55.871 63.1698 56.3106 62.7849 56.6668C62.2564 57.1544 61.6854 57.5956 61.08 57.9823C60.7937 58.1656 60.4954 58.3401 60.2692 58.5939C60.0431 58.8477 59.8987 59.2016 59.9869 59.5291C60.1449 60.1151 60.8923 60.2873 61.5002 60.272C62.1081 60.2568 62.8049 60.1944 63.2316 60.6267C63.8651 60.1279 64.3799 59.4786 64.7208 58.7485C63.8659 58.4354 62.914 58.3938 62.0351 58.6308C63.8098 58.0975 65.0832 56.2353 64.9245 54.1377H64.9253Z" fill="#C9A14B"/>
<path d="M42.1976 29.1725C40.6996 29.7698 39.358 30.9331 38.8856 32.4727C38.4141 34.0131 39.0091 35.9074 40.4454 36.6399C38.7164 36.2148 37.07 35.455 35.6257 34.4142C35.2745 34.1612 34.8992 33.8081 34.9577 33.3798C35.0371 32.8026 35.7741 32.6448 36.3315 32.4727C37.4943 32.1132 38.3563 31.1645 39.273 30.3655C40.1896 29.5664 41.3716 28.8531 42.1968 29.1725H42.1976Z" fill="#C37553"/>
<path d="M57.0891 29.2663C57.1436 29.2174 57.3008 29.0901 57.3553 29.0453C57.3922 29.0205 57.4026 29.0117 57.4002 29.0109C57.474 28.9708 57.543 28.9204 57.6184 28.882C57.6697 28.8355 57.6825 28.9028 57.9632 28.7251C58.4452 28.3856 58.0458 27.5994 57.4844 27.7659C57.0049 27.8972 56.6961 28.2023 56.5975 28.2943C56.4411 28.4737 56.2222 28.6514 56.2254 28.9092C56.2102 29.3439 56.7908 29.5833 57.0891 29.2663Z" fill="#F5CC94"/>
<path d="M56.2726 30.2317C56.2702 29.6497 55.3841 29.6513 55.3809 30.2317C55.3833 30.8138 56.2694 30.8122 56.2726 30.2317Z" fill="#F5CC94"/>
<path d="M29.7748 28.777C29.6376 28.5368 29.3513 28.4639 29.1188 28.3462C28.9135 28.2478 28.6954 28.1277 28.462 28.2029C27.9423 28.3278 27.8429 29.0876 28.3128 29.3422C28.5975 29.4463 28.8573 29.6465 29.1541 29.7009C29.6489 29.8018 30.0378 29.1965 29.7748 28.7762V28.777Z" fill="#F5CC94"/>
<path d="M47.7312 31.8226C47.1642 31.3678 46.5724 30.877 45.8386 30.7401C45.3687 30.596 45.0038 31.2237 45.3598 31.5616C45.8081 31.8466 45.776 31.7097 46.1321 31.9163C46.7304 32.2149 46.7271 32.3238 47.1963 32.616C47.6654 32.8458 48.1121 32.1757 47.732 31.8226H47.7312Z" fill="#F5CC94"/>
<path d="M44.3581 31.0468C44.3557 30.4647 43.4695 30.4663 43.4663 31.0468C43.4687 31.6288 44.3549 31.6272 44.3581 31.0468Z" fill="#F5CC94"/>
<path d="M68.1139 56.1792C68.6143 55.4306 67.5966 54.6908 67.0842 55.4378C66.5838 56.1864 67.6014 56.9262 68.1139 56.1792Z" fill="#F5CC94"/>
<path d="M52.6655 67.7218C53.2116 66.9837 52.1755 66.2039 51.6558 66.9629C51.1097 67.701 52.1458 68.4808 52.6655 67.7218Z" fill="#F5CC94"/>
<path d="M30.6454 56.2624C30.8788 56.0038 30.813 55.6075 30.8756 55.2849C30.8892 54.7268 31.048 53.955 30.9165 53.4354C30.6847 52.8117 29.7072 53.0143 29.7216 53.6756C29.7024 54.2953 29.6751 54.9158 29.7056 55.5355C29.7216 55.8293 29.6975 56.1824 29.9943 56.3473C30.2012 56.4714 30.4746 56.4306 30.6454 56.2632V56.2624Z" fill="#C9A14B"/>
<path d="M33.3026 57.6107C33.3756 57.3561 33.2465 57.1031 33.1527 56.8717C32.7726 56.1439 31.714 56.698 32.0308 57.4057C32.1069 57.6243 32.1671 57.8669 32.3892 57.9822C32.7284 58.1903 33.2024 57.9934 33.3034 57.6107H33.3026Z" fill="#C9A14B"/>
<path d="M60.8441 40.9819C61.78 40.7625 61.0566 39.7977 60.808 39.2845C60.5875 38.9403 60.302 38.3822 59.9355 38.1997C59.3285 37.9131 58.7719 38.7497 59.2531 39.2101C59.4351 39.4158 59.7615 39.9154 60.1296 40.4791C60.2908 40.7297 60.4961 41.0587 60.8441 40.9811V40.9819Z" fill="#C9A14B"/>
<path d="M63.5548 43.852C63.2372 43.2811 62.8779 42.7343 62.5387 42.1771C62.4577 42.0377 62.3214 41.9329 62.1658 41.8904C61.6486 41.7295 61.1722 42.3484 61.4609 42.8063C61.8065 43.3604 62.1442 43.92 62.4914 44.4732C62.9116 45.1642 63.9493 44.5565 63.5556 43.852H63.5548Z" fill="#C9A14B"/>
<path d="M60.0223 42.7214C59.8819 42.3747 59.7328 42.0305 59.5764 41.6902C59.4978 41.4732 59.3519 41.2707 59.1161 41.2138C58.5996 41.0529 58.1233 41.671 58.4112 42.1289C58.5868 42.4988 58.7664 42.8671 58.9629 43.2258C59.064 43.4652 59.2701 43.6493 59.5395 43.6501C60.0135 43.6573 60.2645 43.1057 60.0223 42.7214Z" fill="#C9A14B"/>
<path d="M37.8464 14.6115C38.5361 14.3433 39.2137 14.0447 39.9074 13.7853C40.2819 13.5955 40.8008 13.5739 41.0486 13.2056C41.3365 12.7485 40.8609 12.1296 40.3437 12.2897C39.6219 12.5699 38.8914 12.8342 38.2017 13.188C37.8601 13.417 37.346 13.5443 37.1913 13.9566C37.0782 14.3401 37.4615 14.7268 37.8472 14.6115H37.8464Z" fill="#FAE0AA"/>
<path d="M35.3781 15.9278C35.9635 15.405 35.1616 14.5459 34.5946 15.0855C34.0132 15.6115 34.8103 16.4658 35.3781 15.9278Z" fill="#FAE0AA"/>
<path d="M28.0724 44.6006C28.5993 43.872 29.1069 43.129 29.6025 42.378C29.7693 42.1162 30.0268 41.8448 29.9209 41.511C29.7958 40.993 29.0356 40.8937 28.7806 41.362C28.2417 42.1899 27.7044 43.0201 27.2152 43.8784C26.6747 44.5309 27.5736 45.2955 28.0724 44.5998V44.6006Z" fill="#FAE0AA"/>
<path d="M61.6332 58.943C61.6332 58.8277 61.6901 58.7164 61.792 58.6492C62.9756 57.8782 63.7688 57.0712 64.217 56.1809C64.76 55.104 64.7463 53.8623 64.1834 53.0176C64.0887 52.8751 64.1104 52.6861 64.2339 52.5693C64.3574 52.4524 64.5482 52.4412 64.6846 52.542C65.8859 53.4339 67.7432 53.3186 68.825 52.285C68.9164 52.1978 69.0471 52.1665 69.1682 52.2026C69.2885 52.2386 69.3807 52.3363 69.4096 52.4596C70.0207 55.096 69.3262 58.0735 67.594 60.232C67.5323 60.3089 67.4408 60.3561 67.3422 60.3625C67.2436 60.3689 67.1465 60.3329 67.076 60.264C65.8033 59.0319 63.7615 58.6228 62.1111 59.2689C61.9435 59.3345 61.7535 59.2633 61.6709 59.1031C61.6444 59.0519 61.6316 58.9967 61.6316 58.943H61.6332ZM65.3141 54.55C65.3141 55.1985 65.1585 55.8726 64.8442 56.4955C64.5258 57.1272 64.0623 57.7165 63.4408 58.2761C64.8089 58.1976 66.2195 58.6324 67.2716 59.4995C68.5924 57.69 69.1682 55.3402 68.833 53.1737C67.7865 53.8719 66.3799 54.0264 65.1946 53.5997C65.274 53.9039 65.3133 54.2241 65.3133 54.55H65.3141Z" fill="#4B1738"/>
<path d="M45.9192 66.7932C45.9192 66.637 46.0226 66.4985 46.175 66.4561C47.1694 66.1759 48.1967 65.8861 49.0179 65.2752C49.876 64.6371 50.3379 63.6835 50.1975 62.8501C50.1703 62.6772 50.2705 62.5106 50.4373 62.4578C50.6041 62.4049 50.7838 62.4826 50.8599 62.6395C51.5697 64.1119 53.3796 65.003 54.9811 64.6675C55.099 64.6427 55.2209 64.6803 55.3051 64.766C55.3885 64.8525 55.4222 64.9749 55.3949 65.0918C54.8239 67.4617 53.0765 69.5353 50.8351 70.5033C50.6667 70.5761 50.4702 70.5065 50.3844 70.3447C49.4742 68.6146 47.8775 67.3864 46.2183 67.1398C46.0547 67.1158 45.9304 66.9805 45.92 66.8156C45.92 66.8084 45.92 66.8004 45.92 66.7932H45.9192ZM50.8287 63.8581C50.633 64.5971 50.1446 65.3104 49.4373 65.8364C48.8583 66.268 48.1943 66.5546 47.5319 66.7796C48.8527 67.312 50.0476 68.364 50.8447 69.7275C52.5913 68.874 53.9715 67.2775 54.5705 65.4297C53.1671 65.529 51.7445 64.9189 50.8295 63.8573L50.8287 63.8581Z" fill="#4B1738"/>
<path d="M52.6158 68.7107C52.6158 68.5626 52.7104 68.4249 52.8588 68.3768C57.3184 66.9445 62.458 62.6347 64.3161 58.7693C64.3995 58.5948 64.6096 58.5211 64.7844 58.6052C64.9592 58.6893 65.033 58.8982 64.9488 59.0728C62.9865 63.1567 57.7699 67.5362 53.0737 69.0445C52.8893 69.1038 52.6912 69.0021 52.6318 68.818C52.6206 68.7827 52.615 68.7459 52.615 68.7107H52.6158Z" fill="#4B1738"/>
<path d="M27.2021 55.3337C27.2021 52.1424 27.8509 49.2602 28.2503 47.4876C28.2928 47.2987 28.4804 47.1802 28.6697 47.2226C28.8582 47.265 28.976 47.4532 28.9351 47.6413C28.1043 51.3314 26.158 59.9741 31.6016 65.8099C36.256 70.7994 45.1455 70.8554 49.9708 69.3022C50.1552 69.243 50.3533 69.3438 50.4127 69.528C50.4712 69.7129 50.3702 69.9099 50.1865 69.9691C48.1448 70.6264 44.6315 71.1765 40.8953 70.7481C38.0115 70.4175 33.9689 69.3751 31.0883 66.2879C28.0498 63.0309 27.2021 58.9814 27.2021 55.3337Z" fill="#4B1738"/>
<path d="M56.76 34.022C56.76 33.9563 56.7785 33.8899 56.8177 33.8298C56.9236 33.6681 57.1409 33.6225 57.3037 33.7289C64.3624 38.3477 67.7522 45.2988 66.8516 53.3042C66.83 53.4963 66.6559 53.6349 66.4635 53.6132C66.2702 53.5916 66.1315 53.4163 66.1539 53.2257C67.0256 45.4965 63.7457 38.7817 56.9196 34.315C56.8169 34.2477 56.7608 34.1357 56.7608 34.022H56.76Z" fill="#4B1738"/>
<path d="M22.8734 51.1465C22.8734 51.0208 22.8774 50.8951 22.8831 50.7702C23.1766 44.6847 26.847 38.9018 32.2345 36.0379C32.4053 35.9475 32.6178 36.0115 32.7092 36.1829C32.7998 36.3542 32.7349 36.5656 32.5641 36.6568C27.3908 39.407 23.8662 44.9601 23.5839 50.8047C23.5575 51.3555 23.5719 51.9191 23.8582 52.3106C24.2768 52.8823 25.1878 52.9127 25.8254 52.6117C26.564 52.2642 27.1245 51.5572 27.6185 50.9344C27.7388 50.7822 27.9593 50.7566 28.1117 50.8775C28.2633 50.9976 28.2889 51.2186 28.1686 51.3699C27.6265 52.0536 27.0114 52.8286 26.1245 53.2458C25.2408 53.6621 23.948 53.6213 23.2912 52.7246C22.952 52.2618 22.8718 51.7054 22.8718 51.1473L22.8734 51.1465Z" fill="#4B1738"/>
<path d="M34.6265 33.6497C34.6265 33.6001 34.6313 33.5504 34.6394 33.5008C34.73 32.958 35.2657 32.7082 35.5536 32.5737C36.4181 32.1694 37.1855 31.5737 37.9971 30.9428C39.5168 29.7635 41.0878 28.5433 43.4142 28.5433C44.8833 28.5433 46.3028 29.364 47.6757 30.1582C48.7543 30.7819 49.7728 31.3711 50.788 31.5793C51.0951 31.6418 51.452 31.7154 51.7239 31.9652C52.0944 32.3071 52.1938 32.9155 51.9677 33.444C51.788 33.8651 51.4552 34.1805 51.1216 34.4583C48.9748 36.2509 46.2538 37.3174 43.4583 37.4607C40.1904 37.628 36.9939 35.8266 35.3788 34.7378C34.8783 34.3999 34.6257 34.0348 34.6257 33.6497H34.6265ZM51.3863 32.8547C51.3863 32.7106 51.3454 32.5705 51.2475 32.48C51.12 32.3623 50.9011 32.3175 50.6677 32.2702C49.5201 32.0349 48.4038 31.3896 47.3244 30.7651C46.0317 30.0173 44.6957 29.2447 43.415 29.2447C41.3291 29.2447 39.9201 30.3383 38.4285 31.496C37.6218 32.1221 36.787 32.7698 35.8511 33.2078C35.6089 33.3207 35.3579 33.4576 35.3322 33.6153C35.313 33.757 35.4654 33.9491 35.7733 34.1573C37.3154 35.1973 40.3596 36.9187 43.4238 36.7617C46.0678 36.6264 48.642 35.6176 50.6725 33.9219C50.9203 33.7154 51.1954 33.4696 51.3229 33.1701C51.363 33.0765 51.3863 32.9652 51.3863 32.8547Z" fill="#4B1738"/>
<path d="M25.7347 26.263C25.7347 22.3536 27.5912 18.3096 30.7653 15.3545C33.6434 12.6748 37.5809 10.8118 42.1512 9.96631C42.1945 9.9583 42.2394 9.9583 42.2827 9.96631C42.6315 10.0344 42.9387 9.98152 43.1929 9.80858C43.5081 9.59482 43.7406 9.20171 43.8296 8.72934C43.994 7.85586 43.7222 6.95356 43.4672 6.26342C43.4142 6.12011 43.4599 5.95998 43.5802 5.86551C43.7005 5.77184 43.8681 5.76623 43.994 5.8519C45.1873 6.66453 45.9877 8.04881 46.1264 9.48513C47.0246 8.95752 47.6196 7.88468 47.533 6.85028C47.5202 6.71097 47.5939 6.57807 47.7174 6.51161C47.8409 6.44596 47.9925 6.45957 48.1016 6.54764C49.3951 7.58365 49.7536 9.58841 48.9701 11.0319C53.6502 13.385 57.1627 17.3136 58.6382 21.8628C60.2991 26.9828 59.0552 32.7681 55.5428 36.2548C55.4056 36.3917 55.1835 36.3909 55.0464 36.2532C54.9092 36.1163 54.9108 35.8937 55.048 35.7576C58.3784 32.451 59.5525 26.9539 57.971 22.0781C56.5388 17.6627 52.9284 13.7052 48.3141 11.4899C48.2203 11.4451 48.1513 11.3602 48.1256 11.2601C48.1008 11.1592 48.1208 11.0528 48.1826 10.9687C48.8762 10.0159 48.8385 8.62926 48.1858 7.66371C47.9596 8.86865 47.0831 9.94629 45.9107 10.353C45.8024 10.3906 45.6821 10.373 45.5891 10.305C45.4961 10.2377 45.4488 10.1256 45.4447 10.0135C45.4744 9.02317 45.1095 8.032 44.4896 7.2578C44.5891 7.76299 44.6244 8.30741 44.5201 8.85824C44.3966 9.51235 44.0558 10.0696 43.5875 10.3874C43.1961 10.6524 42.7238 10.7477 42.2169 10.6653C37.8047 11.4915 34.0115 13.2889 31.244 15.8653C28.0828 18.8092 26.2824 22.8668 26.446 26.7314C26.6168 30.921 29.2568 34.8393 32.8655 36.2596C33.046 36.33 33.1342 36.5334 33.0636 36.7143C32.9922 36.8945 32.7885 36.9826 32.6081 36.9121C28.7484 35.3933 25.9255 31.2189 25.7443 26.7602C25.7371 26.5945 25.7339 26.4279 25.7339 26.2614L25.7347 26.263Z" fill="#4B1738"/>
<path d="M52.0886 56.0903C52.0886 55.983 52.1383 55.8765 52.2314 55.8077C53.1392 55.1399 53.7567 54.0735 53.8834 52.955C53.905 52.7629 54.079 52.6244 54.2715 52.6468C54.464 52.6684 54.6035 52.8437 54.5802 53.0343C54.4319 54.3425 53.7093 55.5907 52.6476 56.3721C52.492 56.4874 52.2715 56.4538 52.1568 56.2976C52.1103 56.2352 52.0886 56.1623 52.0886 56.0903Z" fill="#4B1738"/>
<path d="M52.1776 53.9263C52.1776 53.863 52.1944 53.799 52.2305 53.7413C52.3331 53.5772 52.5497 53.5268 52.7141 53.6293C53.7069 54.2473 54.5834 55.0808 55.2498 56.0407C55.3605 56.1993 55.3204 56.4178 55.1608 56.5283C55.0012 56.6388 54.7831 56.5988 54.6724 56.4403C54.0605 55.558 53.2546 54.7918 52.342 54.2241C52.2353 54.1577 52.1768 54.0432 52.1768 53.9263H52.1776Z" fill="#4B1738"/>
<path d="M49.5962 24.3961C49.5962 24.1767 49.6315 23.9614 49.7045 23.7604C50.0613 22.7644 51.265 22.1744 52.2803 22.4986C53.2907 22.8213 53.9283 23.967 53.6765 25.003C53.5554 25.4961 53.2169 25.9141 52.7246 26.1791C52.1656 26.4801 51.4759 26.545 50.925 26.3496C50.447 26.1799 50.0381 25.7988 49.8047 25.3048C49.6668 25.0142 49.597 24.7019 49.597 24.3961H49.5962ZM53.0301 24.537C53.0301 23.9437 52.6315 23.3465 52.0662 23.1663C51.407 22.9558 50.5962 23.3513 50.3653 23.9966C50.2546 24.3056 50.281 24.6739 50.4382 25.0054C50.5938 25.332 50.8568 25.5818 51.1608 25.6899C51.5249 25.8196 52.0076 25.7692 52.3917 25.5626C52.7077 25.3929 52.9218 25.1351 52.9948 24.8364C53.0189 24.738 53.0301 24.6371 53.0301 24.537Z" fill="#4B1738"/>
<path d="M32.9111 24.9323C32.9111 24.713 32.9464 24.4976 33.0194 24.2967C33.3763 23.3007 34.58 22.7106 35.5952 23.0349C36.6057 23.3583 37.2456 24.5048 36.9914 25.5392C36.8703 26.0324 36.5319 26.4503 36.0395 26.7153C35.4805 27.0164 34.7909 27.0812 34.2399 26.8859C33.762 26.7161 33.353 26.335 33.1196 25.8411C32.9817 25.5504 32.9119 25.2382 32.9119 24.9323H32.9111ZM36.345 25.0725C36.345 24.4792 35.9465 23.8827 35.3811 23.7018C34.7219 23.4912 33.9112 23.8867 33.6802 24.532C33.5687 24.8419 33.5952 25.2094 33.7532 25.5408C33.9087 25.8675 34.1718 26.1173 34.4757 26.2254C34.8398 26.3551 35.3226 26.3046 35.7067 26.0981C36.0227 25.9283 36.2368 25.6705 36.3098 25.3719C36.3338 25.2734 36.345 25.1725 36.345 25.0717V25.0725Z" fill="#4B1738"/>
<path d="M51.2369 19.5267C51.2369 19.5187 51.2369 19.5098 51.2377 19.5018C51.2513 19.3089 51.4189 19.1632 51.6122 19.1768C52.5336 19.2416 53.427 19.7116 54.002 20.4338C54.1223 20.5843 54.0982 20.8053 53.945 20.9261C53.7935 21.0462 53.5721 21.0214 53.4518 20.8701C52.9971 20.2993 52.2914 19.9278 51.5625 19.8765C51.3772 19.8637 51.2361 19.7092 51.2361 19.5275L51.2369 19.5267Z" fill="#4B1738"/>
<path d="M32.2769 21.0317C32.2769 20.9588 32.2993 20.886 32.3458 20.8235C32.9617 19.9949 33.9858 19.4961 35.0195 19.5217C35.2128 19.5265 35.3691 19.6922 35.3619 19.8804C35.3571 20.0741 35.1959 20.227 35.0018 20.2222C34.1927 20.2022 33.3916 20.5921 32.9096 21.2406C32.7941 21.396 32.5744 21.4288 32.4188 21.3135C32.3258 21.2446 32.2769 21.139 32.2769 21.0317Z" fill="#4B1738"/>
<path d="M31.6689 53.7148C31.5823 53.3833 31.4788 53.0551 31.4114 52.7188C31.381 52.4986 31.2895 52.2785 31.0859 52.1672C30.6279 51.879 30.008 52.3545 30.1684 52.8709C30.2406 53.2752 30.3681 53.666 30.5478 54.035C30.7923 54.7468 31.8493 54.4474 31.6681 53.7148H31.6689Z" fill="#C9A14B"/>
<path d="M49.3028 6.54779C43.9515 4.57666 37.7333 5.00419 32.7147 7.68628C27.6962 10.3684 23.9648 15.2594 22.7603 20.734L30.742 16.1425L36.698 21.2464L41.1046 15.8478L46.5827 21.9446L51.6148 16.2225L61.0176 18.108C59.0456 12.8519 54.6542 8.51813 49.3028 6.54779Z" fill="#FDF4DB"/>
<path d="M46.5852 22.4265L41.1168 16.3402L36.739 21.7036L30.7052 16.5331L22.2913 21.3737L22.4468 20.6651C23.673 15.092 27.4549 10.1345 32.5633 7.40441C37.67 4.67428 43.9693 4.24195 49.4144 6.24671C54.8612 8.25227 59.3112 12.6437 61.3192 17.9951L61.5221 18.5347L51.7352 16.5724L46.5868 22.4265H46.5852ZM41.0935 15.3546L46.5804 21.4618L51.4971 15.8718L60.5052 17.678C58.4715 12.7454 54.2822 8.72224 49.1931 6.84798C43.9163 4.90566 37.8136 5.32439 32.8664 7.96805C28.1414 10.4932 24.5896 14.9847 23.2472 20.0839L30.779 15.7509L36.658 20.7884L41.0935 15.3538V15.3546Z" fill="#4B1838"/>
<path d="M64.4476 44.6526L59.0962 38.9954L52.2164 46.6269L48.0199 41.3244L39.577 48.5628L31.2088 39.3004L25.6433 46.9776L22.5142 39.0058C10.5316 67.5976 26.1502 84.6798 45.2171 84.6798C64.284 84.6798 79.9033 67.5977 67.92 39.005L64.4476 44.6526Z" fill="#FDF4DB"/>
<path d="M45.2161 84.9991C40.5954 84.9991 36.1013 83.9839 32.2191 82.0632C28.1862 80.0681 24.9078 77.2067 22.4763 73.559C19.6904 69.3806 18.19 64.4175 18.0168 58.8067C17.8275 52.6867 19.2413 45.9831 22.2173 38.8816L22.5229 38.1522L25.7266 46.3146L31.1806 38.7919L39.605 48.116L48.0638 40.8639L52.2315 46.1304L59.0897 38.5229L64.3921 44.1289L67.9728 38.3043L68.2141 38.8808C71.1909 45.9831 72.6039 52.6867 72.4147 58.8067C72.2415 64.4175 70.741 69.3814 67.9551 73.5598C65.5236 77.2075 62.2453 80.0681 58.2124 82.064C54.3302 83.9847 49.8361 84.9999 45.2153 84.9999L45.2161 84.9991ZM22.506 39.864C19.773 46.6076 18.4787 52.9702 18.6583 58.7867C18.8275 64.2758 20.2927 69.1268 23.0112 73.2043C25.3794 76.7567 28.5743 79.5445 32.5054 81.4892C36.2994 83.3659 40.6948 84.3586 45.2169 84.3586C49.7391 84.3586 54.1353 83.3667 57.9285 81.4892C61.8596 79.5445 65.0537 76.7567 67.4226 73.2043C70.1412 69.1268 71.6055 64.2758 71.7755 58.7867C71.9568 52.9253 70.6408 46.5091 67.8637 39.7078L64.502 45.1761L59.1025 39.4676L52.201 47.1232L47.9756 41.7847L39.5488 49.0087L31.2359 39.8079L25.5582 47.6388L22.506 39.8632V39.864Z" fill="#4B1838"/>
</svg>