<svg xmlns="http://www.w3.org/2000/svg" width="90" height="90" viewBox="0 0 90 90" fill="none">
<path d="M57.099 42.4083C61.2574 39.5287 63.995 34.6959 64.3256 29.6522C64.6562 24.6086 62.5728 19.4607 58.8259 16.0636C55.1036 12.6886 49.7997 10.8712 47.3552 6.48451C46.2801 7.32414 45.7479 9.07952 46.2028 10.5866C44.579 9.49641 43.5461 7.57591 43.5332 5.62146C41.9177 6.38029 40.9423 8.52445 41.2776 10.1756C34.2632 9.37228 26.9381 13.1524 23.5346 19.3319C20.1312 25.5115 20.8569 33.7145 25.2287 39.2922C23.7105 41.0007 22.5979 43.0664 21.7631 45.4881C19.3914 44.625 17.4358 42.6893 16.5495 40.3297C16.3748 39.8648 16.2353 39.3765 15.9399 38.9783C15.6444 38.579 15.1415 38.2839 14.6584 38.401C14.1379 38.5287 13.8389 39.0638 13.6256 39.5556C11.9303 43.4751 11.7978 48.0445 13.2621 52.0564C14.7264 56.0684 17.7735 59.4796 21.5521 61.7174C23.0809 66.8688 27.7259 70.6372 32.7906 72.4464C37.8554 74.2557 43.3468 74.3962 48.7258 74.388C54.6217 74.3786 60.6302 74.3611 65.9353 71.7895C73.6297 68.0586 78.2723 60.2736 78.2723 50.6348C78.2723 49.9088 77.4188 49.0363 76.869 48.5632C76.1995 47.9859 74.618 47.6194 73.741 47.7353C70.5111 48.1592 67.627 48.4496 64.4487 47.7353C61.2703 47.021 58.3605 45.5467 57.0954 42.4083H57.099Z" fill="#FFD26F"/>
<path d="M39.8519 28.0551C39.4732 26.5702 37.8353 25.7025 36.3019 25.6591C34.7684 25.6158 33.2982 26.199 31.8456 26.6908C30.393 27.1827 28.8244 27.5925 27.3413 27.2026C26.3799 26.9496 25.34 26.377 24.4666 26.8513C23.4548 27.4005 23.5451 28.8994 24.0234 29.9463C25.2544 32.6443 27.9509 34.3623 30.6533 35.5895C34.7989 37.4713 39.3911 38.5663 43.9177 38.0791C44.6165 38.0042 45.3316 37.8847 45.9354 37.5229C46.538 37.161 47.0116 36.5076 46.973 35.8061C46.9143 34.7241 45.7888 34.0789 44.8615 33.5168C42.6351 32.1677 40.4252 30.307 39.8507 28.0551H39.8519Z" fill="#E58863"/>
<path d="M63.7324 32.4487C62.1251 29.856 58.6923 28.5515 55.766 29.4239C52.8398 30.2963 50.6826 33.2649 50.7611 36.3143C50.8397 39.3636 53.1458 42.2186 56.1365 43.1004C60.2117 40.9129 63.1392 36.7159 63.7324 32.4487Z" fill="#E58863"/>
<path d="M22.5465 21.3942C22.774 23.0582 23.0014 24.7328 22.9252 26.4109C22.849 28.089 22.4504 29.787 21.5184 31.184C21.4281 28.4742 21.6157 25.7563 22.0776 23.0851C22.1632 22.5921 22.3695 21.9914 22.5477 21.3942H22.5465Z" fill="#E58863"/>
<path d="M42.0279 77.9257C42.2694 79.8193 41.3502 81.8136 39.7534 82.8616C41.3315 82.8101 42.9177 83.5034 43.9482 84.6966C44.7924 83.3511 46.4044 82.5255 47.9906 82.6251C47.136 80.2643 44.9835 78.4199 42.0279 77.9246V77.9257Z" fill="#E58863"/>
<path d="M67.0596 76.8812C68.0737 78.7116 68.0315 81.0817 66.9529 82.8746C68.572 81.6146 70.9285 81.3862 72.7597 82.3102C72.8078 80.5068 73.6378 78.7373 74.9943 77.5464C72.3681 76.9995 69.6787 76.7606 67.0596 76.8801V76.8812Z" fill="#E58863"/>
<path d="M28.9523 41.4493C24.9076 42.8921 21.7152 46.5105 20.7925 50.7005C20.8452 46.5504 22.3963 42.4342 25.0975 39.2794C26.1913 39.8766 27.2852 40.4739 28.9523 41.4493Z" fill="#C9A14B"/>
<path d="M36.0641 54.0964C35.6948 58.3812 37.5882 62.8932 41.1593 65.2962C44.7304 67.6992 49.8948 67.6582 53.188 64.8887C49.6697 65.3524 46.0048 64.6334 42.9226 62.8757C39.8404 61.1179 37.3584 58.3309 36.0629 54.0976L36.0641 54.0964Z" fill="#C9A14B"/>
<path d="M53.8997 74.2979C63.0654 72.6316 71.4714 67.1429 76.678 59.427C75.5068 63.9378 72.6837 68.0025 68.8617 70.6771C65.0409 73.3518 60.2528 74.6153 53.8997 74.2979Z" fill="#C9A14B"/>
<path d="M23.6672 29.7483C24.8665 33.1853 27.3051 36.1761 30.433 38.0427C33.561 39.9093 37.3537 40.6389 40.9517 40.0663C43.0081 39.7384 45.0774 38.9432 46.4538 37.3811C38.5085 39.4597 29.4951 36.7007 23.666 29.7483H23.6672Z" fill="#C9A14B"/>
<path d="M41.1287 30.0247C41.7231 31.5927 41.5355 33.4348 40.6375 34.8506C39.7394 36.2663 38.152 37.2231 36.479 37.3566C39.179 38.2278 42.1194 38.3414 44.878 37.6798C45.347 37.5674 45.8206 37.428 46.2122 37.1481C46.6038 36.8682 46.9039 36.4197 46.8922 35.9384C46.8758 35.2827 46.3224 34.785 45.8124 34.3716C44.3551 33.19 42.8978 32.0073 41.1287 30.0236V30.0247Z" fill="#C37553"/>
<path d="M44.618 79.9364C43.6754 79.0511 42.469 80.4177 43.523 81.1684C44.489 82.0244 45.6591 80.6941 44.618 79.9364Z" fill="#F5CC94"/>
<path d="M70.8876 77.6553C70.6485 77.3005 70.1326 77.071 69.7105 77.1682C69.0306 77.3321 68.9004 78.3286 69.5147 78.6624C69.6167 78.7092 69.7738 78.7736 69.8782 78.8181C70.564 79.1402 71.2862 78.2912 70.8876 77.6565V77.6553Z" fill="#F5CC94"/>
<path d="M54.8656 15.3587C54.7952 15.0905 54.542 14.9687 54.3321 14.8212C53.9617 14.5694 53.583 14.327 53.202 14.0905C52.3262 13.608 51.4821 12.9756 50.5442 12.6454C49.6836 12.4897 49.2639 13.7298 50.0236 14.1514C51.3578 14.8669 52.7131 15.5449 54.1211 16.1035C54.5549 16.2381 54.9992 15.792 54.8656 15.3599V15.3587Z" fill="#FAE0AA"/>
<path d="M57.1625 16.8634C56.649 15.8763 55.1858 16.6644 55.7216 17.6352C56.2386 18.62 57.6959 17.8342 57.1625 16.8634Z" fill="#FAE0AA"/>
<path d="M55.1176 44.2001C54.9488 44.2001 54.7859 44.1064 54.705 43.9448C54.5924 43.7176 54.6862 43.4424 54.9137 43.33C59.6583 40.9867 63.077 36.2804 63.8344 31.0482C64.5917 25.8148 62.6467 20.3344 58.7603 16.7452C57.4753 15.5589 55.9747 14.5624 54.5232 13.5986C53.9101 13.1923 53.2758 12.7707 52.6627 12.3386C50.9627 11.1418 48.8923 9.49649 47.6249 7.21415C46.816 8.02333 46.5592 9.37236 47.0856 10.3994C47.177 10.5774 47.1419 10.7952 46.9988 10.9357C46.8558 11.0762 46.6366 11.1078 46.4595 11.0142C44.7115 10.0832 43.5274 8.26222 43.334 6.30894C42.1428 7.34062 41.702 9.13113 42.0865 10.0071C42.1522 10.157 42.1334 10.3314 42.0361 10.4638C41.9388 10.5961 41.777 10.6652 41.6152 10.6488C35.8811 10.0164 29.9734 12.3199 26.1854 16.6597C22.3974 20.9984 20.9179 27.1627 22.3247 32.7462C23.1477 36.0122 25.3905 39.8415 29.216 40.7912C29.4622 40.8521 29.6123 41.1015 29.5513 41.3474C29.4904 41.5933 29.2395 41.7409 28.9945 41.6823C24.7739 40.6343 22.3212 36.4947 21.4325 32.9698C19.953 27.0995 21.5076 20.6178 25.4914 16.0554C29.3286 11.6582 35.2421 9.24706 41.0572 9.67566C40.8614 8.12053 41.8016 5.95529 43.5626 5.05125C43.7091 4.97514 43.885 4.9845 44.0233 5.07467C44.1617 5.16484 44.2414 5.32059 44.232 5.48571C44.1499 6.97058 44.8088 8.48823 45.9074 9.50118C45.8171 8.19899 46.4197 6.83474 47.5241 6.11923C47.6355 6.04663 47.7715 6.02789 47.8981 6.06185C48.0247 6.09816 48.1314 6.18598 48.1877 6.30543C49.3225 8.66506 51.4574 10.3677 53.1902 11.588C53.7928 12.013 54.4224 12.4299 55.0297 12.8339C56.5104 13.8176 58.0428 14.8341 59.3816 16.0707C63.4873 19.8625 65.5414 25.6521 64.7418 31.1793C63.9422 36.7066 60.3313 41.6788 55.3193 44.1532C55.2536 44.186 55.1845 44.2012 55.1165 44.2012L55.1176 44.2001Z" fill="#4B1738"/>
<path d="M46.8136 75.2711C43.7126 75.2711 40.5003 75.0989 37.3243 74.4467C32.7719 73.5122 28.8596 71.6397 26.0119 69.033C22.1477 65.4953 19.783 60.0676 19.6868 54.5181C19.5965 49.2952 21.402 43.9401 24.7715 39.4375C24.9227 39.2349 25.2111 39.1928 25.4151 39.345C25.6179 39.496 25.6601 39.7841 25.5077 39.9879C22.2602 44.3277 20.5204 49.4814 20.6071 54.5017C20.6986 59.8053 22.9519 64.9847 26.6332 68.3561C29.3579 70.8516 33.1189 72.6468 37.5083 73.5473C41.6351 74.394 45.8534 74.4139 49.802 74.3085C54.1352 74.1937 58.738 73.8986 63.0441 72.5414C67.6786 71.0811 71.456 68.4475 73.6812 65.1276C75.8255 61.9295 76.6978 57.9129 77.4669 54.3693C77.8948 52.3997 78.1293 50.4112 76.9522 49.2144C75.8478 48.0914 74.0177 48.1828 72.0809 48.3889C69.2895 48.6863 66.321 48.8538 63.5201 48.0727C60.3734 47.1956 57.9208 45.1463 56.9594 42.5911C56.8703 42.3534 56.9911 42.0887 57.2279 41.9997C57.4659 41.9119 57.7309 42.0302 57.82 42.2679C58.6782 44.5502 60.901 46.3887 63.7663 47.1874C66.4195 47.9263 69.2836 47.7624 71.9824 47.4743C73.6238 47.2986 76.1022 47.0352 77.6087 48.5692C79.0942 50.081 78.8245 52.4477 78.3649 54.5626C77.5783 58.1869 76.6861 62.2937 74.4445 65.6382C72.1032 69.1314 68.1522 71.8938 63.3197 73.4173C58.9056 74.8085 54.2254 75.1083 49.8255 75.2266C48.8371 75.2535 47.83 75.2711 46.8124 75.2711H46.8136Z" fill="#4B1738"/>
<path d="M21.129 61.7491C21.0481 61.7491 20.966 61.7281 20.8921 61.6824C17.1616 59.4317 14.247 55.7675 12.8941 51.6291C11.5412 47.4895 11.7311 42.8135 13.4135 38.7981C13.5201 38.5428 13.7195 38.0685 14.165 37.8355C14.6785 37.5661 15.3608 37.716 15.8227 38.2008C16.1346 38.5287 16.3046 38.9351 16.4535 39.2934L16.5015 39.4093C17.5192 41.8252 19.4349 43.912 21.7574 45.1334C21.9825 45.2516 22.068 45.5292 21.9496 45.754C21.8312 45.9777 21.5522 46.0643 21.3283 45.9461C18.7842 44.6064 16.7688 42.4119 15.6527 39.7653L15.6023 39.6459C15.4722 39.3332 15.3491 39.0381 15.1556 38.8344C14.9868 38.6575 14.7324 38.5744 14.5905 38.6493C14.451 38.7231 14.3467 38.948 14.2611 39.1529C12.662 42.9681 12.4826 47.4122 13.7675 51.3445C15.0525 55.2768 17.8228 58.7595 21.367 60.8978C21.585 61.029 21.6542 61.3112 21.5229 61.5278C21.4361 61.6707 21.2849 61.7503 21.129 61.7503V61.7491Z" fill="#4B1738"/>
<path d="M50.0623 65.4332C47.4502 65.4332 44.8205 64.7634 42.5601 63.4869C39.499 61.7585 37.0429 58.8778 35.8212 55.5836C35.3851 54.4044 35.4355 53.5004 35.9701 52.8938C36.6853 52.0846 37.8835 52.2357 38.676 52.3352C42.0607 52.7626 45.4958 52.2579 48.6144 50.8784C48.8477 50.7742 49.1185 50.8808 49.2205 51.1126C49.3237 51.3445 49.2181 51.6162 48.986 51.7181C45.715 53.1666 42.1088 53.6948 38.56 53.2474C37.7662 53.1467 37.0218 53.0917 36.6595 53.5015C36.3652 53.8353 36.3734 54.429 36.683 55.2651C37.8307 58.3602 40.1368 61.0652 43.0127 62.6883C45.8886 64.3113 49.3999 64.8898 52.6439 64.2762C52.8983 64.2317 53.1339 64.3933 53.1808 64.6416C53.2277 64.891 53.0636 65.1311 52.815 65.1779C51.9111 65.3489 50.9861 65.4332 50.0611 65.4332H50.0623Z" fill="#4B1738"/>
<path d="M41.8967 38.6821C41.7924 38.6821 41.6962 38.6809 41.6095 38.6774C38.8731 38.5884 34.5822 38.0181 31.4941 36.7031C28.0461 35.2358 25.264 32.8586 23.6578 30.0094C23.0611 28.9497 22.7633 27.5339 23.7165 26.7423C24.5196 26.0748 25.5196 26.3792 26.4024 26.6486C26.6076 26.7118 26.8116 26.7739 27.0074 26.8207C28.732 27.2388 30.7145 26.5924 32.6313 25.9682C34.3008 25.4249 35.8765 24.9108 37.1462 25.1895C38.7383 25.5384 39.7419 26.9929 40.9025 28.6756C41.9764 30.2331 43.1934 31.9979 45.1618 33.3996C46.8958 34.6339 47.5769 35.7147 47.2428 36.7019C46.6883 38.3413 43.429 38.6809 41.8955 38.6809L41.8967 38.6821ZM24.89 27.261C24.6602 27.261 24.4668 27.3161 24.3062 27.4484C23.7493 27.911 24.1409 28.993 24.4609 29.5598C25.9675 32.2332 28.5936 34.4711 31.8552 35.8588C34.8272 37.1235 38.9833 37.6739 41.64 37.7593C43.6483 37.8202 46.0775 37.2862 46.3741 36.408C46.5511 35.8857 45.9157 35.0613 44.6307 34.1479C42.5298 32.6525 41.2085 30.7367 40.1475 29.1979C39.0537 27.6112 38.1896 26.3582 36.9516 26.0877C35.9269 25.864 34.4649 26.3394 32.9186 26.843C30.9747 27.4765 28.7695 28.1943 26.7928 27.7142C26.5794 27.6627 26.3579 27.5948 26.1351 27.528C25.6333 27.3746 25.223 27.261 24.89 27.261Z" fill="#4B1738"/>
<path d="M32.2033 21.0054C32.1166 21.0054 32.0287 20.9996 31.9396 20.9879C31.3241 20.9059 30.7695 20.5113 30.4905 19.9574C30.2126 19.4035 30.229 18.7231 30.5327 18.1821C30.657 17.9608 30.936 17.8811 31.1587 18.0064C31.3803 18.1306 31.4589 18.4104 31.3346 18.6318C31.181 18.9058 31.1716 19.2653 31.3135 19.5475C31.4542 19.8286 31.7473 20.037 32.0603 20.078C32.609 20.1506 33.1928 19.7536 33.738 19.3402C33.9408 19.188 34.2281 19.2266 34.3828 19.4292C34.5364 19.6318 34.4965 19.9199 34.2937 20.0733C33.6641 20.5487 32.9877 21.0066 32.2033 21.0066V21.0054Z" fill="#4B1738"/>
<path d="M48.6331 28.1065C48.2861 28.1065 47.9391 28.0374 47.6178 27.8922C46.633 27.4472 46.0175 26.3476 46.1535 25.2761C46.1863 25.0244 46.4185 24.8511 46.6682 24.878C46.9203 24.9096 47.0985 25.1403 47.0668 25.3921C46.9812 26.0631 47.3822 26.7774 47.9977 27.0561C48.6132 27.3348 49.4163 27.1627 49.863 26.6556C50.0318 26.4659 50.3225 26.4484 50.5125 26.6158C50.7024 26.7833 50.7211 27.0737 50.5523 27.2646C50.0705 27.8103 49.3518 28.1077 48.6331 28.1077V28.1065Z" fill="#4B1738"/>
<path d="M43.8781 85C43.7538 85 43.6343 84.9497 43.5475 84.8607C42.4255 83.7049 40.7056 83.1861 39.0631 83.5046C38.8298 83.5503 38.6 83.4098 38.5332 83.1814C38.4675 82.9531 38.5859 82.7118 38.8075 82.6252C40.5989 81.9273 41.8276 79.8861 41.6025 77.9774C41.5849 77.8298 41.64 77.6834 41.7502 77.5839C41.8604 77.4844 42.0128 77.4457 42.157 77.475C45.0036 78.0945 47.2511 79.8873 48.4844 82.5233C48.5548 82.6744 48.5384 82.8524 48.4399 82.9882C48.3414 83.1229 48.1773 83.1931 48.012 83.1744C46.5981 83.0023 45.0857 83.6569 44.2486 84.8092C44.1689 84.9192 44.0446 84.9883 43.9086 84.9977C43.898 84.9977 43.8863 84.9989 43.8758 84.9989L43.8781 85ZM40.6845 82.5303C41.8475 82.6592 42.9554 83.1229 43.8324 83.8688C44.7164 82.8934 45.9849 82.2996 47.298 82.2341C46.2393 80.4073 44.5874 79.1144 42.5498 78.5231C42.5263 80.0407 41.8159 81.5232 40.6845 82.5303Z" fill="#4B1738"/>
<path d="M66.9262 83.2059C66.8113 83.2059 66.6976 83.1626 66.6097 83.0794C66.4538 82.9307 66.4221 82.6941 66.5335 82.5091C67.5066 80.9048 67.5558 78.8028 66.6566 77.154C66.5804 77.0135 66.5816 76.8425 66.6624 76.7031C66.7433 76.5638 66.8911 76.4771 67.0517 76.4748C69.6075 76.4233 72.2102 76.6891 74.7836 77.2594C74.9454 77.2957 75.0755 77.4163 75.1236 77.5756C75.1717 77.7348 75.1306 77.907 75.0157 78.0264C73.8726 79.215 73.2208 80.7982 73.2255 82.3721C73.2255 82.5314 73.1434 82.6801 73.0074 82.7644C72.8714 82.8487 72.7014 82.8557 72.5596 82.7843C70.8913 81.9482 68.7317 82.0852 67.1842 83.1286C67.1056 83.1813 67.0165 83.2071 66.9274 83.2071L66.9262 83.2059ZM67.7774 77.387C68.3202 78.7642 68.3566 80.3263 67.8946 81.7304C69.3085 81.1905 70.9112 81.1683 72.338 81.6894C72.4705 80.3708 72.9922 79.0792 73.8269 77.9971C71.8104 77.599 69.7822 77.3941 67.7774 77.387Z" fill="#4B1738"/>
<path d="M42.1499 78.6939C41.981 78.6939 41.8192 78.6014 41.7383 78.4398C41.0115 76.9889 39.9645 75.6762 38.7112 74.6433C38.5154 74.4817 38.4873 74.1925 38.6491 73.9969C38.8097 73.8014 39.0993 73.7733 39.2963 73.9349C40.6492 75.0473 41.7782 76.4631 42.5614 78.0288C42.6751 78.256 42.5825 78.5312 42.3562 78.6448C42.2905 78.6776 42.2202 78.6928 42.151 78.6928L42.1499 78.6939Z" fill="#4B1738"/>
<path d="M67.368 77.5136C67.2871 77.5136 67.2051 77.4925 67.13 77.4469C65.5332 76.4819 64.1944 75.0322 63.3585 73.3658C63.2447 73.1386 63.3374 72.8634 63.5636 72.7487C63.7922 72.6351 64.0666 72.7276 64.1815 72.9536C64.94 74.4677 66.157 75.784 67.606 76.6611C67.8229 76.7922 67.8933 77.0745 67.762 77.2911C67.6752 77.434 67.524 77.5124 67.368 77.5124V77.5136Z" fill="#4B1738"/>
<path d="M33.0896 13.9534C32.9207 13.9534 32.7578 13.8609 32.678 13.6993C32.5643 13.4721 32.6569 13.197 32.8832 13.0834C33.8704 12.5904 35.0744 12.5295 36.1073 12.9194C36.3453 13.0096 36.4649 13.2742 36.3746 13.512C36.2843 13.7497 36.0194 13.8691 35.7814 13.779C34.9853 13.478 34.0556 13.526 33.2936 13.9054C33.2279 13.9382 33.1576 13.9534 33.0884 13.9534H33.0896Z" fill="#4B1738"/>
<path d="M55.2595 23.5219H55.2501C54.9969 23.5173 54.7941 23.3076 54.7988 23.0535C54.8128 22.331 54.406 21.5968 53.7858 21.2255C53.5678 21.0956 53.4974 20.8133 53.6275 20.5955C53.7577 20.3777 54.0402 20.3063 54.2583 20.4374C55.1657 20.9796 55.739 22.0136 55.7191 23.0711C55.7144 23.3217 55.5092 23.5219 55.2595 23.5219Z" fill="#4B1738"/>
<g opacity="0.9">
<path d="M32.8365 24.8207C30.0767 27.4485 25.5478 25.6182 25.5478 25.6182C23.1995 24.8231 17.9894 16.367 22.7446 15.3026C27.4998 14.2381 33.3782 18.6224 34.8272 20.2361C36.2775 21.8486 34.54 23.1977 32.8353 24.8207H32.8365Z" fill="#010101"/>
</g>
<g opacity="0.9">
<path d="M47.4293 33.0085C47.4293 33.0085 42.7174 31.7168 42.1207 27.9567C41.7514 25.6333 41.191 23.5079 43.3235 23.1051C45.4561 22.7022 52.7918 22.7795 55.9244 26.5081C59.057 30.2367 49.7787 33.7989 47.4293 33.0085Z" fill="#010101"/>
</g>
<path d="M41.851 26.261C41.8885 26.5432 41.9354 26.8348 41.9847 27.1346L49.6709 23.3369C49.1867 23.2409 48.7048 23.166 48.2335 23.1074L41.8499 26.261H41.851Z" fill="white"/>
<path d="M50.4011 23.4962L42.0654 27.6147C42.0842 27.7283 42.1029 27.8419 42.1205 27.9567C42.1252 27.9871 42.1311 28.0176 42.1369 28.0492L51.0225 23.659C50.8161 23.6004 50.6086 23.5466 50.4011 23.4962Z" fill="white"/>
<path d="M21.8032 21.2525C21.9287 21.5031 22.0623 21.7513 22.203 21.9949L31.3137 17.4935C31.0323 17.3213 30.7404 17.1503 30.439 16.9852L21.8032 21.2525Z" fill="white"/>
<path d="M32.1822 18.0533C32.0497 17.9631 31.9149 17.8741 31.7765 17.7839L22.4431 22.3955C22.5181 22.5161 22.5944 22.6355 22.6717 22.7526L32.1822 18.0533Z" fill="white"/>
<path d="M60.7239 25.7914C54.393 20.4644 41.1638 20.763 39.3595 20.8297C37.9667 19.6833 27.6332 11.4263 19.3644 11.8221C19.3644 11.8221 17.6046 11.4732 18.1005 14.1689C18.5965 16.8646 19.79 25.6801 25.2334 27.3547C30.6768 29.0293 34.1506 25.0864 36.146 24.0852C38.1414 23.084 38.5247 23.2947 38.5247 23.2947C38.5247 23.2947 38.9574 23.3603 39.9351 25.3651C40.9129 27.3699 41.2787 32.6103 46.6224 34.5788C51.9662 36.5473 58.2713 30.2636 60.3031 28.4227C62.3348 26.5807 60.7239 25.7914 60.7239 25.7914ZM32.8363 24.8206C30.0765 27.4484 25.5476 25.6181 25.5476 25.6181C23.1993 24.8229 17.9892 16.3669 22.7444 15.3024C27.4996 14.238 33.378 18.6223 34.827 20.236C36.2773 21.8485 34.5398 23.1975 32.8351 24.8206H32.8363ZM47.429 33.0085C47.429 33.0085 42.7172 31.7168 42.1205 27.9566C41.7512 25.6333 41.1908 23.5079 43.3233 23.105C45.4559 22.7022 52.7916 22.7795 55.9242 26.5081C59.0568 30.2366 49.7785 33.7989 47.429 33.0085Z" fill="#010101"/>
<path d="M46.7305 34.7697C46.6777 34.7522 46.625 34.7334 46.5734 34.7147C42.3035 33.142 41.1558 29.4884 40.3961 27.0714C40.1897 26.4144 40.0115 25.8476 39.8075 25.4296C38.974 23.7199 38.5613 23.4681 38.498 23.4377C38.4733 23.4388 38.4804 23.4423 38.4616 23.4259C38.3936 23.4119 37.9118 23.3615 36.2106 24.2152C35.7944 24.4237 35.3091 24.7668 34.7451 25.1638C32.6724 26.624 29.5409 28.8326 25.1913 27.4941C25.1386 27.4777 25.0847 27.4602 25.0331 27.4426C22.8782 26.7154 21.1466 24.7914 19.8851 21.7233C18.8288 19.1552 18.3504 16.4161 18.0632 14.7802C18.0257 14.5636 17.9917 14.368 17.96 14.1982C17.7678 13.1536 17.8827 12.4159 18.3 12.0049C18.7104 11.6009 19.2626 11.6641 19.3739 11.6817C22.8747 11.5189 27.127 12.8457 32.0123 15.6257C35.7042 17.7277 38.5578 19.989 39.4089 20.6869C40.5098 20.6483 44.1512 20.5803 48.3636 21.1483C53.9348 21.8989 58.1214 23.4224 60.805 25.6743C60.9035 25.727 61.3818 26.0116 61.4616 26.5819C61.5436 27.1615 61.1861 27.8173 60.3994 28.5305C60.2704 28.6476 60.125 28.7811 59.9633 28.931C58.7416 30.0575 56.697 31.944 54.2971 33.3458C51.4306 35.0203 48.8853 35.4993 46.7305 34.7721V34.7697ZM38.5835 23.1636C38.7453 23.2187 39.2037 23.5384 40.0655 25.3043C40.2788 25.7411 40.4594 26.3184 40.6692 26.9859C41.4125 29.3502 42.5357 32.9219 46.673 34.4465C46.7223 34.4653 46.7727 34.4828 46.8219 34.4992C48.8947 35.1995 51.3603 34.7288 54.1529 33.0975C56.5258 31.7122 58.5564 29.8385 59.7698 28.7202C59.9328 28.5703 60.0781 28.4356 60.2083 28.3185C60.9105 27.6815 61.247 27.0948 61.179 26.6217C61.1122 26.1474 60.6667 25.9238 60.662 25.9214C60.6514 25.9167 60.6421 25.9097 60.6327 25.9027C54.3065 20.5803 40.8767 20.9188 39.3655 20.975C39.3304 20.9761 39.2964 20.9644 39.2694 20.9422C38.1029 19.9819 27.6334 11.5716 19.3728 11.9674C19.361 11.9674 19.3493 11.9674 19.3376 11.965C19.3329 11.965 18.8382 11.8749 18.4993 12.2098C18.1605 12.5459 18.0714 13.2157 18.2426 14.1455C18.2742 14.3165 18.3082 14.5132 18.3469 14.7299C18.6318 16.3541 19.1078 19.0744 20.1512 21.6132C21.4092 24.6743 23.1338 26.5608 25.2769 27.2189C29.4917 28.5153 32.5551 26.357 34.581 24.9284C35.1531 24.5255 35.6479 24.1766 36.0828 23.9588C37.8836 23.0547 38.4241 23.1027 38.5718 23.1601C38.5753 23.1601 38.58 23.1625 38.5835 23.1636ZM47.1068 33.0565C46.6789 32.9113 45.8242 32.5834 44.9227 32.0131C43.2485 30.9533 42.2309 29.5575 41.98 27.9789C41.9483 27.7798 41.9155 27.5831 41.8827 27.3887C41.5368 25.316 41.2097 23.3592 43.2977 22.9646C44.4783 22.7409 46.8524 22.6941 49.2746 23.1168C51.4072 23.4892 54.31 24.3639 56.0346 26.4168C56.8693 27.411 56.9256 28.4989 56.1987 29.5645C54.5269 32.012 49.148 33.7334 47.3882 33.1455C47.3636 33.1385 47.2639 33.1104 47.1068 33.0577V33.0565ZM51.6991 24.0173C50.8362 23.7257 49.9804 23.5302 49.2242 23.3978C46.6754 22.9529 44.3154 23.0629 43.3505 23.2456C41.538 23.5887 41.8147 25.2446 42.1652 27.3419C42.198 27.5374 42.2309 27.7353 42.2625 27.9344C42.8382 31.5588 47.4222 32.8586 47.4679 32.8703C47.4703 32.8703 47.4726 32.8715 47.4761 32.8727C49.1198 33.4254 54.3803 31.7169 55.9619 29.4029C56.6184 28.4415 56.5704 27.4976 55.8153 26.6006C54.752 25.3347 53.215 24.5302 51.7002 24.0185L51.6991 24.0173ZM25.7752 25.8523C25.6181 25.7996 25.522 25.761 25.4985 25.7516C23.7434 25.1521 20.5135 20.5241 20.6718 17.5649C20.7409 16.2768 21.4467 15.4465 22.7141 15.1631C25.332 14.5776 28.1716 15.6421 30.0919 16.6386C32.2737 17.7699 34.132 19.2477 34.9339 20.14C36.3537 21.7186 34.9046 23.077 33.3699 24.5138C33.2257 24.6485 33.0804 24.7855 32.9338 24.9237C31.7755 26.0268 30.1189 26.5186 28.1434 26.3465C27.0801 26.254 26.2019 25.9964 25.7728 25.8523H25.7752ZM27.6158 15.8845C26.1011 15.3728 24.3906 15.0812 22.7762 15.4418C21.6308 15.6983 21.0188 16.4173 20.9567 17.5802C20.8078 20.3789 23.951 24.926 25.5935 25.4823C25.5958 25.4823 25.5982 25.4846 25.6017 25.4846C25.6462 25.5022 30.079 27.2482 32.738 24.7164C32.8846 24.5771 33.0311 24.4401 33.1753 24.3042C34.7276 22.8498 35.9539 21.701 34.7217 20.3297C34.0652 19.6002 32.2562 18.0814 29.9606 16.8904C29.2795 16.5368 28.4799 16.1737 27.617 15.8833L27.6158 15.8845Z" fill="#010101"/>
<path d="M57.7686 28.3174L59.1298 28.7202C59.1298 28.7202 56.7955 31.8457 54.731 31.5483C56.18 30.8819 57.7686 28.3174 57.7686 28.3174Z" fill="#010101"/>
<path d="M36.9996 20.1857C36.9996 20.1857 35.8424 21.8602 35.9772 22.5371C36.1179 23.2421 38.4123 21.0909 38.4123 21.0909L36.9984 20.1857H36.9996Z" fill="#010101"/>
</svg>