<svg xmlns="http://www.w3.org/2000/svg" width="90" height="90" viewBox="0 0 90 90" fill="none">
<path d="M34.2294 61.2722C29.3564 60.2195 24.6751 57.3246 21.3379 53.2966C20.2916 51.4995 19.6468 49.9562 19.3416 48.3465C19.2805 48.022 19.2399 47.6579 19.4305 47.388C19.5997 47.1481 19.9049 47.0506 20.193 46.9885C23.6448 46.242 27.2369 48.3315 30.693 47.6065C25.0778 44.5327 21.4054 38.2096 21.2726 31.7066C21.4889 25.2486 24.9182 18.9373 30.2956 15.4394C31.855 14.4252 33.5546 13.6391 35.1076 12.6163C36.6605 11.5925 38.102 10.2762 38.8175 8.55835C39.7792 9.87887 39.9067 11.7809 39.2169 13.3489C40.6746 12.3111 41.768 10.7721 42.2489 8.89999C43.1635 9.39265 43.8008 10.3651 44.0824 10.9616C48.964 10.2259 54.1251 11.5871 58.2708 14.8739C61.3853 17.6157 63.5176 21.4487 64.2062 25.5399C64.8949 29.6311 64.1323 33.9514 62.2506 37.5231C65.2344 35.0963 68.2845 32.7508 71.3979 30.4921C72.0833 29.9952 72.983 29.4854 73.7187 29.9031C74.1075 30.1248 74.3249 30.5521 74.5005 30.9634C75.1699 32.5377 75.5351 34.2406 75.1517 36.2829C76.2934 35.9038 77.0066 34.8061 77.7124 33.8325C78.4182 32.8579 79.365 31.8598 80.5677 31.8598C81.5176 31.8598 82.3734 32.5216 82.8489 33.3442C83.3255 34.1667 83.4861 35.1306 83.5943 36.0741C84.4061 43.148 82.6679 50.4874 78.7695 56.4442C74.8711 62.4021 68.8415 66.9335 62.0343 69.0208C59.3922 69.8305 53.6495 70.3242 50.0146 70.0682C44.1188 69.6538 37.6811 66.2652 34.2315 61.269L34.2294 61.2722Z" fill="#FFD26F"/>
<path d="M68.1776 72.0302C67.2276 74.124 66.765 76.4363 66.8357 78.7335C68.4475 78.0503 70.2735 77.8843 71.9817 78.2677C72.3555 76.5841 73.4265 75.0654 74.8884 74.1476C72.5879 73.9452 70.3474 73.0959 68.1787 72.0292L68.1776 72.0302Z" fill="#E58863"/>
<path d="M52.2326 75.4755C50.7032 77.0445 48.4873 77.9184 46.2993 77.8145C47.9808 78.3896 49.1846 80.1364 49.1256 81.9121C50.4697 80.8636 52.4071 80.6387 53.9558 81.3509C54.2021 79.2839 53.6602 77.1333 52.2326 75.4755Z" fill="#E58863"/>
<path d="M58.8596 27.7964C57.0014 27.6497 55.3725 25.9532 53.5464 26.3291C52.5151 26.5412 51.7247 27.3905 51.2192 28.3137C50.7148 29.2379 50.4267 30.2639 49.964 31.2096C49.1554 32.86 47.8027 34.2384 46.1577 35.1294C46.8174 36.1447 48.0373 36.6481 49.2239 36.8933C52.8085 37.6312 56.7348 36.4092 59.2676 33.7682C59.8417 33.1695 60.3568 32.4841 60.5775 31.6841C60.7981 30.8851 60.6749 29.9544 60.1244 29.3407C60.3001 29.0816 60.4447 28.7892 60.465 28.4765C60.4854 28.1637 60.359 27.8285 60.0923 27.6636C59.8256 27.4986 59.4208 27.5661 58.8607 27.7964H58.8596Z" fill="#E58863"/>
<path d="M36.9411 34.9397C34.3257 34.1269 31.2081 35.6702 30.2678 38.2416C29.3275 40.8141 30.7165 44.0035 33.2398 45.0681C35.763 46.1326 39.0167 44.901 40.2033 42.4324C41.39 39.9637 40.5578 36.0643 36.9411 34.9387V34.9397Z" fill="#E58863"/>
<path d="M63.0217 21.6135C61.9699 23.0047 61.4859 24.8115 61.699 26.5422C61.9121 28.2729 62.8203 29.9083 64.1783 31.0029C65.0212 28.1069 64.702 24.8897 63.0227 21.6135H63.0217Z" fill="#E58863"/>
<path d="M52.3901 33.6461C53.1955 32.6576 54.0159 31.6562 55.0644 30.9301C56.1129 30.205 57.4388 29.7809 58.6779 30.084C57.1378 31.8736 54.9798 33.1202 52.3912 33.6461H52.3901Z" fill="#83553E"/>
<path d="M37.9937 27.9228C37.1969 27.7193 36.2876 28.0716 35.84 28.7624C35.3923 29.4521 35.4405 30.4289 35.9588 31.0682C36.4761 31.7076 37.4239 31.9593 38.1886 31.6573C38.8451 31.3981 39.3324 30.7544 39.4053 30.0529C39.4781 29.3515 39.2875 28.2537 37.9937 27.9238V27.9228Z" fill="#4B1738"/>
<path d="M55.6757 19.0142C54.9324 18.846 54.1035 19.0549 53.5626 19.5925C53.0218 20.1291 52.8086 20.9869 53.0796 21.6992C53.3506 22.4114 54.1109 22.919 54.8692 22.8515C55.3469 22.8087 55.787 22.5592 56.1458 22.24C56.6353 21.802 57.0069 21.1808 56.978 20.5243C56.948 19.8678 56.4253 19.1855 55.6767 19.0153L55.6757 19.0142Z" fill="#4B1738"/>
<path d="M79.2126 32.9221C78.8314 35.6767 78.1256 38.4195 76.7719 40.8485C75.4181 43.2775 73.3736 45.382 70.814 46.4679C73.409 43.5388 75.0968 39.8171 75.5916 35.9359C77.0225 35.7656 78.2648 34.5575 79.2126 32.9221Z" fill="#C5B89A"/>
<path d="M32.8422 58.5101C29.6689 58.1213 26.5449 57.3374 23.5632 56.1818C26.2932 58.9406 29.9924 60.7206 33.8522 61.1308C33.442 60.0491 33.201 58.9031 32.8422 58.5101Z" fill="#C5B89A"/>
<path d="M38.6107 65.5817C47.4078 68.8107 57.1773 69.3312 66.2678 67.0575C61.9282 68.8364 57.3208 70.0819 52.632 70.1848C47.9433 70.2865 43.1592 69.193 39.249 66.6045C39.4332 66.2939 39.6174 65.9833 38.6096 65.5827L38.6107 65.5817Z" fill="#C5B89A"/>
<path d="M46.0017 35.2161C46.6936 37.463 49.1365 38.8435 51.4873 38.881C53.8381 38.9185 56.0765 37.8593 58.0214 36.5377C58.7411 36.0493 59.4458 35.5095 59.9406 34.7941C60.4354 34.0787 60.6946 33.1566 60.4472 32.3234C58.6393 34.4803 56.3046 36.3106 53.5671 36.965C50.8297 37.6194 47.6671 36.9083 46.0017 35.2161Z" fill="#C5B89A"/>
<path d="M50.9816 29.1683C51.1915 29.8891 51.3907 30.6206 51.411 31.3713C51.4325 32.121 51.259 32.9007 50.7909 33.4865C50.3529 34.0359 49.6921 34.3733 49.012 34.5457C48.3309 34.7192 47.6219 34.7428 46.9204 34.7653C48.7593 33.569 50.1655 31.7215 50.9816 29.1672V29.1683Z" fill="#C37553"/>
<path d="M46.4514 35.1455C48.2207 36.8066 50.8981 37.431 53.219 36.7241C51.9584 36.5806 50.8746 35.4764 50.7536 34.2137C49.7029 34.6186 48.588 34.8521 46.4514 35.1455Z" fill="#C37553"/>
<path d="M32.7083 36.6823C32.462 36.8633 32.2735 37.1107 32.1278 37.3774C32.0882 37.4577 32.0668 37.5102 32.0625 37.5273C32.0122 37.6333 31.9672 37.7426 31.9415 37.855C31.9351 37.8497 31.9265 37.8721 31.9136 37.9396C31.8387 38.1549 31.8344 38.3991 31.9554 38.5983C32.2403 39.1252 33.0799 39.0213 33.2459 38.4558C33.2502 38.4451 33.2556 38.4344 33.2577 38.4291C33.2599 38.4226 33.2609 38.4194 33.2642 38.4141C33.368 38.2791 33.3552 38.1924 33.4998 37.99C33.7161 37.7608 34.0117 37.5701 33.986 37.2113C34.0085 36.5677 33.1506 36.2132 32.7105 36.6834L32.7083 36.6823Z" fill="#F5CC94"/>
<path d="M31.4948 40.4843C31.3653 41.5349 32.9482 41.6538 32.9824 40.6C33.112 39.5493 31.5291 39.4304 31.4948 40.4843Z" fill="#F5CC94"/>
<path d="M54.8458 27.6315C54.5481 27.1045 53.8745 27.2416 53.4461 27.519C52.5218 28.001 53.1997 29.3515 54.124 28.8663C54.1775 28.8246 54.2343 28.7881 54.2943 28.7581C54.2911 28.7614 54.3178 28.7539 54.4003 28.7282C54.8651 28.6114 55.0911 28.0406 54.8458 27.6325V27.6315Z" fill="#F5CC94"/>
<path d="M62.1982 24.9465C62.1617 25.9532 63.6654 25.9939 63.689 24.9893C63.7329 23.9815 62.2196 23.9408 62.1982 24.9465Z" fill="#F5CC94"/>
<path d="M52.5764 78.3383C52.5154 77.2276 50.8586 77.4697 51.1081 78.5471C51.1724 79.6566 52.826 79.4146 52.5764 78.3383Z" fill="#F5CC94"/>
<path d="M69.4197 74.4452C69.1166 73.8851 68.2074 74.004 68.0574 74.623C67.945 75.0053 67.7436 75.453 67.9632 75.83C68.3702 76.5047 69.3458 76.1684 69.3769 75.4144C69.4604 75.0964 69.6221 74.7547 69.4197 74.4463V74.4452Z" fill="#F5CC94"/>
<path d="M33.9037 15.3118C32.8735 15.8366 31.9985 16.6088 31.1256 17.3564C30.8011 17.6444 30.4852 17.9433 30.2035 18.2731C30.0653 18.438 29.9036 18.6073 29.9143 18.8386C29.9154 19.1663 30.1874 19.4394 30.5162 19.4405C30.8986 19.4201 31.1663 19.0764 31.4758 18.8857C32.8906 17.7922 33.1701 17.5331 34.8676 16.4096C35.3849 15.7949 34.5849 14.8942 33.9037 15.3108V15.3118Z" fill="#FAE0AA"/>
<path d="M28.3517 21.4186C27.4092 22.0847 28.3506 23.387 29.2309 22.647C30.1734 21.9873 29.2299 20.6753 28.3517 21.4186Z" fill="#FAE0AA"/>
<path d="M33.8889 61.6395C33.8525 61.6395 33.815 61.6352 33.7786 61.6245C26.8707 59.7556 21.4312 55.4845 19.226 50.1992C18.9037 49.4249 18.592 48.4257 19.0515 47.5571C19.8258 46.093 21.9442 46.379 22.6403 46.4722L29.2162 47.3547C23.9801 43.7294 20.6965 37.1439 21.0692 30.658C21.4708 23.6966 25.8908 16.9965 32.3306 13.5897C32.7333 13.3766 33.1424 13.1763 33.5515 12.975C34.4319 12.5434 35.3412 12.0968 36.1433 11.5356C37.4339 10.6317 38.266 9.49748 38.4866 8.34082C38.5177 8.17482 38.6462 8.04415 38.8122 8.00881C38.9804 7.97454 39.1485 8.04201 39.2449 8.18017C39.9742 9.23402 40.2163 10.7345 39.9453 12.0721C40.9253 11.1832 41.6118 9.97621 41.8495 8.66747C41.8763 8.52289 41.9759 8.40293 42.1119 8.35046C42.249 8.29691 42.4043 8.32154 42.52 8.41043C43.2279 8.96092 43.6927 9.74595 44.0665 10.3768C44.165 10.5438 44.256 10.6959 44.3396 10.8255C51.1243 9.60672 58.438 12.7479 62.21 18.5248C65.6158 23.7405 65.9081 30.8165 63.1129 36.406L71.7568 29.8773C72.032 29.6695 72.3737 29.4103 72.801 29.3193C74.1333 29.0344 75.0758 30.3978 75.3928 31.7836C76.5837 36.98 74.687 42.8276 70.6708 46.334C70.4952 46.4861 70.2306 46.4679 70.0786 46.2944C69.9265 46.1198 69.9436 45.8542 70.1182 45.7021C73.9073 42.3928 75.698 36.8751 74.5746 31.9721C74.3903 31.171 73.7938 29.9694 72.9777 30.1418C72.7335 30.1943 72.4958 30.3742 72.2644 30.5488L61.9594 38.3327C61.7966 38.4558 61.5664 38.4441 61.4175 38.3027C61.2686 38.1624 61.2429 37.9343 61.3565 37.764C65.0546 32.2356 65.1167 24.5138 61.5075 18.9853C57.8683 13.4109 50.7623 10.4142 44.2335 11.7016C44.0783 11.7326 43.9187 11.6727 43.8201 11.5473C43.6659 11.3481 43.5171 11.0965 43.3446 10.8062C43.1112 10.4121 42.838 9.95051 42.4985 9.55317C41.992 11.2335 40.8342 12.7008 39.3017 13.5694C39.1378 13.6615 38.9322 13.6347 38.7983 13.5019C38.6655 13.3691 38.6355 13.1635 38.7276 12.9985C39.2792 12.01 39.3552 10.6359 38.9825 9.52747C38.5338 10.5213 37.7241 11.4531 36.6253 12.2221C35.7695 12.8207 34.8303 13.2823 33.9221 13.7279C33.5205 13.9249 33.1189 14.122 32.7247 14.3308C26.5398 17.6027 22.2944 24.0308 21.9089 30.7051C21.5137 37.5648 25.3949 44.539 31.3485 47.6642C31.5295 47.7584 31.6152 47.9694 31.5531 48.1633C31.491 48.3582 31.2982 48.4792 31.0968 48.4524L22.529 47.3022C21.0242 47.1008 20.131 47.3108 19.7937 47.9469C19.4981 48.5049 19.7498 49.2685 20.0014 49.8726C22.107 54.9201 27.3388 59.0091 33.9971 60.8105C34.2209 60.8705 34.3537 61.1018 34.2927 61.3257C34.2423 61.5131 34.0731 61.6362 33.8878 61.6362L33.8889 61.6395Z" fill="#4B1738"/>
<path d="M52.9093 70.7663C50.988 70.7663 49.0923 70.5757 47.2524 70.1912C39.3078 68.5279 32.7737 62.4169 31.3622 55.3313C31.3161 55.1031 31.4639 54.8825 31.692 54.8375C31.9191 54.7893 32.1408 54.9404 32.1858 55.1674C33.5341 61.9328 39.8005 67.7729 47.4248 69.3697C53.3581 70.6121 59.9221 69.7639 65.9057 66.9804C71.6098 64.3265 76.3157 60.2032 79.1581 55.3687C82.7298 49.2931 84.5569 39.6852 83.0693 34.8069C82.6923 33.571 82.1365 32.7688 81.4168 32.424C79.9346 31.7128 78.4298 33.5667 77.2196 35.0564C76.728 35.6616 76.3039 36.1831 75.9184 36.4851C75.7363 36.6287 75.4718 36.5955 75.3293 36.4134C75.1858 36.2313 75.2179 35.9668 75.4011 35.8243C75.7117 35.5812 76.1272 35.0693 76.5684 34.5274C77.8911 32.8995 79.7032 30.6697 81.7809 31.6668C82.7213 32.1177 83.4249 33.0923 83.8736 34.5616C85.4458 39.7163 83.6187 49.4398 79.8831 55.7939C76.9561 60.774 72.1185 65.0162 66.2613 67.7408C61.9656 69.7392 57.3721 70.7663 52.9104 70.7663H52.9093Z" fill="#4B1738"/>
<path d="M46.8296 35.2857C46.5126 35.2857 46.1913 35.2739 45.8646 35.2503C45.6643 35.2353 45.5016 35.08 45.478 34.8808C45.4544 34.6806 45.5765 34.4921 45.7682 34.431C47.5975 33.8506 49.1279 32.4454 49.8648 30.6729C50.0018 30.3431 50.1132 30.0025 50.231 29.6416C50.4741 28.8962 50.7248 28.1251 51.2217 27.4643C52.1556 26.2176 53.8563 25.6372 55.3568 26.0538C55.8858 26.2005 56.3613 26.4533 56.8197 26.6964C57.0511 26.8195 57.2813 26.9427 57.5191 27.0509C58.0449 27.2897 58.8 27.5146 59.4008 27.2244L59.4736 27.188C59.6161 27.1151 59.8174 27.022 60.052 27.0241C60.4782 27.0391 60.8498 27.4129 60.898 27.8745C60.9387 28.2568 60.7759 28.5856 60.6506 28.7998C60.1655 29.6298 59.3119 30.2392 58.3694 30.4309C57.9946 30.5069 57.6198 30.5177 57.2567 30.5284C56.7812 30.5423 56.3324 30.5551 55.9415 30.7136C55.4178 30.9257 55.0173 31.3873 54.5932 31.8757C54.4935 31.9903 54.3939 32.1049 54.2933 32.2152C52.478 34.2136 49.854 35.2857 46.8307 35.2857H46.8296ZM54.3736 26.7628C53.4236 26.7628 52.4597 27.2115 51.8932 27.9676C51.4809 28.5181 51.2613 29.1907 51.0289 29.9018C50.9111 30.2617 50.7901 30.6344 50.6401 30.9953C50.0586 32.3951 49.0369 33.5914 47.7688 34.4075C50.1528 34.2115 52.2059 33.2615 53.6689 31.6508C53.7653 31.5447 53.8606 31.4355 53.9559 31.3252C54.4261 30.7833 54.9134 30.2231 55.6234 29.935C56.1536 29.7198 56.7009 29.7037 57.2288 29.6887C57.5705 29.678 57.895 29.6694 58.1992 29.6073C58.9114 29.4638 59.5561 29.0022 59.9224 28.3757C60.0252 28.2 60.0702 28.064 60.0595 27.9623C60.0541 27.9141 60.0209 27.8691 60.0048 27.8605C59.9909 27.8648 59.9063 27.9077 59.8517 27.9355L59.7607 27.9816C59.0549 28.3221 58.1574 28.2643 57.1678 27.8145C56.915 27.6999 56.6687 27.5692 56.4213 27.4375C55.9833 27.2051 55.5699 26.9855 55.1286 26.8624C54.8823 26.7938 54.6274 26.7617 54.3715 26.7617L54.3736 26.7628Z" fill="#4B1738"/>
<path d="M51.1348 37.5079C48.9896 37.5079 47.005 36.6651 45.8291 35.2203C45.6824 35.0404 45.7102 34.7759 45.8901 34.6291C46.0701 34.4824 46.3346 34.5103 46.4813 34.6902C47.623 36.0921 49.6707 36.8386 51.8298 36.6351C53.5509 36.4734 55.3084 35.804 57.5275 34.4631C58.2354 34.0358 59.0333 33.5196 59.5548 32.801C60.2649 31.821 60.4084 30.4223 59.9115 29.3192C59.8162 29.1071 59.9115 28.8587 60.1214 28.7633C60.3334 28.668 60.5819 28.7634 60.6772 28.9733C61.3027 30.3634 61.1292 32.0598 60.2349 33.2936C59.6212 34.1397 58.7398 34.7116 57.9623 35.1818C56.3922 36.1317 54.2845 37.2488 51.9091 37.4726C51.6499 37.4972 51.3918 37.509 51.1358 37.509L51.1348 37.5079Z" fill="#4B1738"/>
<path d="M51.4302 34.3443C51.215 34.3443 51.0318 34.1804 51.0126 33.962C50.9911 33.7306 51.1614 33.5271 51.3928 33.5057C54.022 33.2658 56.4939 31.9614 58.1742 29.9243C58.322 29.7455 58.5866 29.7209 58.7654 29.8676C58.9443 30.0154 58.97 30.2799 58.8222 30.4588C56.9994 32.6671 54.3198 34.0819 51.4688 34.3422C51.4559 34.3432 51.4431 34.3443 51.4302 34.3443Z" fill="#4B1738"/>
<path d="M37.4069 32.197C37.213 32.197 37.0181 32.1724 36.8285 32.1188C35.659 31.7943 34.8825 30.4727 35.1664 29.2935C35.4437 28.138 36.6732 27.3176 37.8502 27.5093C38.526 27.6175 39.0926 27.9934 39.4471 28.5663C39.8123 29.1586 39.914 29.9222 39.7127 30.5584C39.4053 31.5276 38.4093 32.197 37.4069 32.197ZM37.5043 28.3222C36.8221 28.3222 36.142 28.8266 35.9835 29.4895C35.8036 30.236 36.3145 31.1046 37.0545 31.3102C37.7946 31.5169 38.6792 31.0371 38.9127 30.3046C39.0422 29.8944 38.9737 29.3974 38.7327 29.0076C38.5742 28.7516 38.2701 28.4271 37.7174 28.3393C37.6468 28.3286 37.5761 28.3222 37.5054 28.3222H37.5043Z" fill="#4B1738"/>
<path d="M54.925 22.5765C54.7837 22.5765 54.6412 22.5582 54.5031 22.5197C53.6484 22.2819 53.0808 21.317 53.2875 20.4538C53.491 19.6088 54.3853 19.009 55.2495 19.1493C55.7443 19.2286 56.1588 19.5027 56.4169 19.9225C56.6836 20.3563 56.7586 20.9132 56.6108 21.3791C56.3859 22.0881 55.6587 22.5765 54.925 22.5765ZM54.9968 19.7437C54.4977 19.7437 54.0008 20.1121 53.884 20.5973C53.7534 21.1435 54.1261 21.7775 54.6669 21.9274C55.2088 22.0795 55.8546 21.7282 56.0249 21.1927C56.1203 20.8929 56.0699 20.5298 55.8932 20.2449C55.7775 20.0575 55.5548 19.8208 55.151 19.7555C55.0996 19.7469 55.0482 19.7437 54.9968 19.7437Z" fill="#4B1738"/>
<path d="M34.7754 24.8479C34.7176 24.6658 34.5398 24.5405 34.3406 24.5566C32.763 24.6872 31.3772 26.0195 31.1876 27.5907C31.1587 27.8209 31.3236 28.0298 31.5539 28.0587C31.7842 28.0865 31.9941 27.9227 32.0219 27.6924C32.1644 26.5218 33.2353 25.4915 34.4102 25.3941C34.6415 25.3748 34.814 25.1724 34.7947 24.941C34.7926 24.9089 34.7861 24.8779 34.7765 24.8479H34.7754Z" fill="#4B1738"/>
<path d="M49.1611 82.3512C49.1193 82.3512 49.0765 82.3448 49.0358 82.3319C48.8923 82.287 48.7841 82.1691 48.7509 82.0235C48.5527 81.1485 48.3482 80.2435 47.8909 79.4906C47.545 78.9209 46.9099 78.2997 46.1323 78.1883C46.0734 78.1829 46.0145 78.1776 45.9567 78.1712C45.7307 78.1465 45.5647 77.9463 45.5829 77.7192C45.6011 77.4922 45.7982 77.3251 46.0242 77.3337C46.0906 77.3369 46.157 77.3433 46.2234 77.3529C48.3225 77.52 50.4987 76.6825 51.9306 75.1328C52.0142 75.0417 52.1309 74.9925 52.2573 74.9978C52.3804 75.0032 52.4961 75.0632 52.5711 75.1606C54.0458 77.0691 54.6948 79.3857 54.3532 81.518C54.3307 81.6561 54.2418 81.774 54.1144 81.8329C53.988 81.8928 53.8402 81.8832 53.7203 81.8114C52.4094 81.0178 50.5705 81.202 49.4438 82.2398C49.3656 82.3127 49.2628 82.3512 49.16 82.3512H49.1611ZM47.8523 78.1369C48.1372 78.3907 48.3942 78.7002 48.6095 79.0547C49.0165 79.7241 49.2457 80.4791 49.4224 81.201C50.6347 80.4181 52.253 80.2649 53.5896 80.809C53.6945 79.2122 53.2008 77.5296 52.1909 76.0645C51.0085 77.1794 49.4631 77.9077 47.8523 78.1369Z" fill="#4B1738"/>
<path d="M66.7733 79.2025C66.7037 79.2025 66.6341 79.1854 66.572 79.1511C66.4446 79.0815 66.3632 78.9508 66.3546 78.8062C66.2121 76.2937 66.7391 73.7812 67.8797 71.5375C67.9407 71.4186 68.0532 71.335 68.1849 71.3136C68.3166 71.2922 68.4505 71.334 68.5458 71.4261C70.4747 73.296 73.0097 73.5102 75.2448 73.6998C75.4365 73.7158 75.5929 73.8604 75.624 74.0511C75.655 74.2406 75.5522 74.428 75.3755 74.5041C73.8472 75.1627 72.7355 76.72 72.6113 78.38C72.6016 78.5117 72.531 78.6306 72.4206 78.7013C72.3093 78.773 72.1722 78.787 72.049 78.743C70.4029 78.1401 68.5073 78.2932 66.979 79.1489C66.9147 79.1843 66.844 79.2025 66.7733 79.2025ZM68.3884 72.4146C67.5702 74.2021 67.1535 76.1523 67.1707 78.1176C68.6315 77.4836 70.3076 77.3668 71.8402 77.7952C72.0801 76.4736 72.8362 75.2484 73.8943 74.4184C72.0726 74.2171 70.0645 73.8047 68.3873 72.4146H68.3884Z" fill="#4B1738"/>
<path d="M52.2699 76.0474C52.2442 76.0474 52.2185 76.0452 52.1918 76.0399C51.9636 75.997 51.8137 75.7775 51.8565 75.5494C52.1575 73.9461 52.1275 72.2582 51.7687 70.6657C51.7184 70.4397 51.8598 70.2148 52.0857 70.1634C52.3106 70.113 52.5366 70.2544 52.588 70.4804C52.9714 72.1832 53.0036 73.9889 52.6812 75.7036C52.6437 75.9049 52.467 76.0463 52.2689 76.0463L52.2699 76.0474Z" fill="#4B1738"/>
<path d="M68.2435 72.5186C68.0486 72.5186 67.8751 72.3826 67.8333 72.1855C67.4338 70.2888 67.4156 68.2797 67.783 66.3765C67.8269 66.1484 68.0454 65.9995 68.2746 66.0434C68.5027 66.0874 68.6516 66.308 68.6076 66.535C68.2617 68.33 68.2778 70.2235 68.6548 72.012C68.703 72.2391 68.5573 72.4619 68.3303 72.5101C68.3013 72.5165 68.2724 72.5186 68.2435 72.5186Z" fill="#4B1738"/>
<path d="M53.3401 15.7071C53.2555 15.8196 53.1173 15.886 52.9674 15.8731C52.1695 15.8014 51.3513 16.1355 50.8318 16.7438C50.6808 16.9206 50.4163 16.9409 50.2396 16.791C50.0629 16.641 50.0511 16.3744 50.1924 16.1987C50.8854 15.3869 51.9778 14.9425 53.0413 15.0378C53.2726 15.0581 53.4429 15.2627 53.4215 15.4929C53.414 15.5743 53.3851 15.6472 53.339 15.7082L53.3401 15.7071Z" fill="#4B1738"/>
<path d="M75.2769 11.3642C74.7361 13.4237 75.6025 15.7767 77.3503 16.9933C76.4689 16.6453 75.5083 16.4011 74.5754 16.5692C73.6426 16.7374 72.7505 17.4003 72.5513 18.3278C73.1296 17.1808 72.8704 15.7542 72.2139 14.65C71.5574 13.5458 70.5549 12.6976 69.5718 11.8708C70.405 12.341 71.2629 12.8208 72.2107 12.9557C73.1574 13.0917 74.2284 12.8079 75.278 11.3632L75.2769 11.3642Z" fill="#1583D7"/>
<path d="M69.2098 11.6555C69.2151 11.6469 69.2205 11.6395 69.2258 11.6309C69.349 11.4531 69.5889 11.3985 69.7774 11.5045C70.5688 11.9511 71.386 12.4127 72.2696 12.5402C73.2656 12.6826 74.1374 12.2178 74.9363 11.1168C75.0552 10.953 75.2737 10.8973 75.4557 10.984C75.6389 11.0697 75.7331 11.2742 75.6828 11.4702C75.1869 13.3562 75.9891 15.5346 77.5902 16.6474C77.7648 16.7695 77.8216 17.0029 77.7198 17.1914C77.6245 17.3853 77.3932 17.4613 77.195 17.3831C76.1755 16.9794 75.3658 16.8519 74.6482 16.9815C73.9949 17.0993 73.4327 17.4774 73.1424 17.9625C73.0867 18.1553 73.0139 18.3406 72.925 18.5162C72.8308 18.7047 72.6101 18.7936 72.4109 18.7229C72.2117 18.6523 72.0961 18.4456 72.14 18.2389C72.186 18.0257 72.2631 17.8201 72.366 17.6273C72.6134 16.6581 72.2899 15.601 71.8519 14.8642C71.2243 13.8093 70.2465 12.9868 69.3008 12.191C69.1423 12.0582 69.1059 11.8301 69.2108 11.6544L69.2098 11.6555ZM74.6996 12.6108C73.9317 13.2502 73.0771 13.5051 72.1507 13.3723C72.004 13.3509 71.8605 13.323 71.718 13.2877C72.035 13.6422 72.3285 14.0224 72.5737 14.4358C72.9946 15.1426 73.2324 15.9073 73.2795 16.6431C73.634 16.4064 74.0495 16.2361 74.5004 16.1558C74.9363 16.0776 75.3926 16.0733 75.8831 16.1451C75.128 15.1362 74.7007 13.8703 74.6996 12.6108Z" fill="#4B1738"/>
<path d="M15.8362 41.2801C13.1695 40.675 11.0393 38.2031 10.8358 35.4753C11.2074 37.8658 9.44782 40.389 7.07666 40.8678C8.45609 41.2137 9.60419 42.2043 10.4213 43.3685C11.2385 44.5327 11.7665 45.8703 12.2859 47.193C11.2996 45.1549 12.1371 42.4228 15.8362 41.2801Z" fill="#1583D7"/>
<path d="M12.2848 47.6139C12.3415 47.6139 12.3994 47.6032 12.4551 47.5786C12.6618 47.4875 12.7603 47.2498 12.6778 47.0398C12.6082 46.8621 12.5375 46.6832 12.4668 46.5044C12.2419 45.7632 12.2837 44.9878 12.5943 44.2724C12.9499 43.4553 13.8227 42.3425 15.9615 41.6817C16.1435 41.626 16.2646 41.4547 16.2571 41.264C16.2496 41.0734 16.1157 40.9127 15.9304 40.8699C13.5753 40.3355 11.6411 38.1989 11.2952 35.8127C11.2866 35.6788 11.2716 35.545 11.2513 35.4111C11.217 35.1883 11.0167 35.0309 10.7886 35.0587C10.5648 35.0844 10.4009 35.2826 10.418 35.5075C10.4277 35.6424 10.4427 35.7763 10.4609 35.9091C10.5787 37.975 9.03862 40.0442 6.99518 40.4565C6.8024 40.4951 6.66317 40.6621 6.65782 40.8581C6.65353 41.0541 6.78526 41.2276 6.9759 41.2747C8.12078 41.5618 9.22283 42.3907 10.0785 43.6095C10.7554 44.5734 11.2331 45.6797 11.6722 46.7796C11.7354 46.9809 11.8146 47.1801 11.9089 47.3761C11.9817 47.525 12.1295 47.6128 12.2858 47.6128L12.2848 47.6139ZM14.5852 41.309C12.9391 42.0748 12.1755 43.1254 11.8232 43.9372C11.7354 44.1396 11.6647 44.3463 11.6101 44.5541C11.3627 44.0625 11.0863 43.5827 10.765 43.1265C10.0689 42.1358 9.21854 41.3679 8.29857 40.8892C9.55697 40.2712 10.5476 39.1146 11.0135 37.7876C11.7289 39.3395 13.0141 40.6236 14.5852 41.3079V41.309Z" fill="#4B1738"/>
<path d="M5.42065 22.6836C8.00387 22.6226 10.4714 20.8897 11.4053 18.48C10.5389 20.7719 11.7748 23.64 14.0346 24.5857C12.562 24.3222 11.0412 24.9402 9.88773 25.8933C8.73428 26.8465 7.88285 28.1071 7.04855 29.3494C8.18165 27.2032 7.93211 24.4004 5.42065 22.6836Z" fill="#1583D7"/>
<path d="M6.93627 29.754C6.90092 29.7444 6.86665 29.7294 6.83345 29.7101C6.64174 29.5955 6.5732 29.3513 6.67709 29.1532C7.66239 27.2865 7.58314 24.6701 5.18306 23.0304C5.03313 22.9276 4.96565 22.7391 5.01706 22.5645C5.06847 22.3899 5.22697 22.2678 5.41011 22.2635C7.83268 22.2068 10.1364 20.5885 11.0124 18.3287C11.096 18.1135 11.3359 18.0064 11.5544 18.0878C11.7707 18.1702 11.8789 18.4123 11.7975 18.6286C11.0178 20.6924 12.1605 23.3474 14.1954 24.1988C14.3925 24.2813 14.4974 24.4998 14.4364 24.7054C14.3753 24.911 14.1708 25.0374 13.9598 24.9999C12.7421 24.7825 11.3552 25.2259 10.1535 26.2176C9.03754 27.1397 8.20324 28.3821 7.39679 29.5827C7.29397 29.7369 7.10548 29.8011 6.93519 29.7529L6.93627 29.754ZM6.4736 22.994C7.74058 24.202 8.19789 25.7046 8.10578 27.1397C8.55667 26.5743 9.05039 26.0388 9.62015 25.5686C10.5412 24.8082 11.5693 24.3273 12.5825 24.1656C11.5169 23.2392 10.8389 21.8673 10.7254 20.46C9.65978 21.7613 8.12827 22.6866 6.47467 22.994H6.4736Z" fill="#4B1738"/>
<path d="M84.5806 23.5671C83.5643 25.2121 83.4722 27.3873 84.345 29.1126C83.1766 27.4205 80.6619 26.8357 78.8669 27.8382C80.5173 26.0282 80.9393 23.1986 79.8865 20.9871C80.4938 22.6492 82.0745 23.913 84.5806 23.5681V23.5671Z" fill="#1583D7"/>
<path d="M79.6541 20.6357C79.6755 20.6218 79.6991 20.609 79.7237 20.5993C79.9304 20.5126 80.1692 20.6036 80.2656 20.806C80.3352 20.9527 80.3995 21.1027 80.4573 21.2537C81.177 22.7017 82.6646 23.4064 84.5228 23.1504C84.6845 23.1279 84.843 23.2018 84.9319 23.3378C85.0208 23.4738 85.0229 23.6495 84.9373 23.7876C83.9969 25.3106 83.9113 27.3262 84.7198 28.923C84.8195 29.1201 84.767 29.3557 84.5603 29.4735C84.3707 29.586 84.1255 29.5324 84.0002 29.3514C82.9474 27.8263 80.6897 27.3005 79.0725 28.2044C78.8926 28.3051 78.6666 28.2601 78.5381 28.0984C78.4107 27.9366 78.4182 27.7064 78.5574 27.5543C80.0032 25.9703 80.4381 23.567 79.6798 21.5696C79.6091 21.424 79.547 21.2772 79.4934 21.1305C79.426 20.9452 79.4967 20.7418 79.6562 20.6357H79.6541ZM83.8556 24.0425C82.5897 24.0597 81.5969 23.6634 80.8611 23.0658C80.9682 24.4249 80.6651 25.8172 79.9893 27.0006C81.161 26.7917 82.4204 27.0434 83.4293 27.6775C83.2098 26.4597 83.3543 25.1735 83.8556 24.0436V24.0425Z" fill="#4B1738"/>
<path d="M49.6856 48.5959C49.6856 48.5959 41.9477 48.5595 40.3605 49.9314C38.7733 51.3034 44.2492 57.801 45.4445 57.2923C46.6397 56.7836 51.1935 52.1409 51.1935 52.1409L49.6856 48.5959Z" fill="#1583D7"/>
<path d="M53.2146 47.2143C53.2146 47.2143 57.702 41.205 59.9008 41.5274C62.0995 41.8498 63.3386 48.778 61.9164 49.8393C60.5155 50.8846 54.6369 50.559 54.6369 50.559L53.2146 47.2143Z" fill="#1583D7"/>
<path d="M45.5399 57.5161C45.2807 57.6264 44.6735 57.8845 42.9449 56.1517C41.9489 55.1535 38.5496 51.1512 40.1079 49.805C41.8172 48.3249 49.0056 48.3195 49.8185 48.3228C49.9342 48.3228 50.0209 48.3667 50.052 48.4395L51.5599 51.9845C51.591 52.0584 51.561 52.1537 51.4785 52.2372C50.7053 53.0255 46.7844 56.986 45.541 57.514L45.5399 57.5161ZM41.075 49.7911C40.8801 49.8735 40.7248 49.9624 40.6145 50.0578C40.5545 50.1102 40.2728 50.4187 40.6262 51.4254C41.4455 53.7602 44.5932 57.077 45.4232 57.0491C46.1193 56.7418 49.0281 53.9529 50.7781 52.1772L49.3708 48.8668C46.7598 48.8668 42.6547 49.1174 41.075 49.79V49.7911Z" fill="#4B1838"/>
<path d="M61.6507 50.2613C59.7443 51.072 55.4057 50.8814 54.4826 50.831C54.3787 50.8257 54.3016 50.7828 54.2726 50.7143L52.8504 47.3696C52.8247 47.3086 52.8407 47.2325 52.8943 47.1597C53.373 46.5182 57.6441 40.9008 60.0913 41.2596C61.8124 41.5124 62.7088 44.8132 62.8694 46.8341C62.9583 47.9586 62.9048 49.4184 62.139 49.9903C62.0041 50.091 61.8391 50.1809 61.6507 50.2613ZM54.9559 50.2955C57.3185 50.4123 60.8667 50.3052 61.6935 49.6883C61.9002 49.5341 62.2547 48.7833 62.1165 47.0472C61.9291 44.7018 60.8956 41.9686 59.7111 41.794C58.3595 41.5959 55.3008 44.9299 53.6204 47.1554L54.9559 50.2955Z" fill="#4B1838"/>
<path d="M51.2105 52.5998L54.8768 51.0406C55.0063 50.9855 55.0667 50.8358 55.0116 50.7062L53.3706 46.8478C53.3155 46.7182 53.1658 46.6579 53.0363 46.713L49.37 48.2722C49.2404 48.3273 49.1801 48.477 49.2352 48.6066L50.8762 52.465C50.9313 52.5946 51.081 52.6549 51.2105 52.5998Z" fill="#1583D7"/>
<path d="M53.521 51.8774L52.7574 52.2019C51.6264 52.6828 50.4665 52.5103 50.172 51.8174L49.2103 49.5555C48.9158 48.8626 49.5958 47.9083 50.7268 47.4274L51.4904 47.1029C52.6214 46.6221 53.7802 46.7945 54.0758 47.4874L55.0375 49.7493C55.332 50.4423 54.652 51.3976 53.521 51.8785V51.8774ZM50.9174 47.874C50.1892 48.1836 49.7511 48.7994 49.9407 49.2449L50.9024 51.5068C51.092 51.9534 51.8396 52.0648 52.5678 51.7553L53.3314 51.4308C54.0597 51.1213 54.4977 50.5055 54.3082 50.0589L53.3464 47.7969C53.1569 47.3503 52.4093 47.24 51.681 47.5495L50.9174 47.874Z" fill="#4B1838"/>
<path d="M45.1404 52.8766C45.0119 52.9313 44.8695 52.943 44.7709 52.897C44.6285 52.8306 44.6338 52.6678 44.7848 52.5328C44.8684 52.4579 46.9022 50.6661 49.9534 49.9925C50.1612 49.9464 50.3229 50.0257 50.3143 50.1692C50.3047 50.3116 50.1301 50.4637 49.9213 50.5119C47.1956 51.1117 45.3225 52.7578 45.3032 52.7749C45.2561 52.8177 45.1993 52.852 45.1393 52.8777L45.1404 52.8766Z" fill="#4B1838"/>
<path d="M54.1689 48.717C54.004 48.7877 53.8251 48.7813 53.7416 48.6967C53.643 48.5971 53.7126 48.4246 53.8958 48.3122C56.1245 46.952 58.8384 45.9935 58.954 45.9528C59.1597 45.881 59.3525 45.9292 59.3824 46.061C59.4135 46.1927 59.2861 46.3555 59.0654 46.4305C59.0387 46.439 56.3633 47.3858 54.2513 48.6752C54.2235 48.6913 54.1967 48.7063 54.1689 48.7181V48.717Z" fill="#4B1838"/>
</svg>