<svg xmlns="http://www.w3.org/2000/svg" width="150" height="150" viewBox="0 0 300 300" fill="none">
<path d="M52.4503 113.681C43.2302 130.871 49.394 154.649 36.3881 169.175C32.7915 173.194 27.6136 176.866 27.6412 182.266C27.6609 186.281 30.6857 189.582 33.6591 192.273C47.4025 204.708 64.3915 213.506 84.4801 219.305C105.531 220.032 126.929 220.723 147.321 215.431C167.713 210.139 187.325 197.917 196.557 178.941C202.342 167.052 203.655 153.55 206.652 140.227C218.775 140.851 231.079 136.954 240.338 128.701C245.189 133.159 252.524 134.705 259.638 132.025C253.889 128.535 250.339 121.689 250.446 115.314C256.05 118.345 263.286 118.073 267.963 114.27C264.666 114.452 262.087 111.085 261.748 107.796C261.409 104.504 262.639 101.286 263.578 98.1165C266.476 88.3063 266.646 77.6978 264.785 67.5517C259.532 45.6863 241.987 27.236 220.128 22.1254C206.621 15.8844 190.436 15.7579 177.3 22.4772C152.089 14.3745 123.774 19.6709 100.909 33.0462C78.0442 46.4255 60.2152 67.2354 46.673 90.0336C44.0978 94.3695 41.5818 99.1243 41.9643 104.156C42.3468 109.187 46.9135 114.195 52.4543 113.678L52.4503 113.681Z" fill="#FFD26F"/>
<path d="M220.569 140.606C222.265 146.183 223.787 152.199 222.017 157.752C219.485 165.696 210.801 170.242 202.508 170.961C194.704 171.637 186.434 169.467 180.806 164.009C175.179 158.55 172.777 149.578 176.78 141.93C180.739 145.139 186.442 145.187 191.359 143.867C196.277 142.551 200.816 140.06 205.698 138.626C210.584 137.191 216.232 136.95 220.569 140.602V140.606Z" fill="#E58863"/>
<path d="M192.554 108.235C188.792 107.567 184.778 110.492 184.237 114.282C183.697 118.077 186.726 122.001 190.523 122.444C194.321 122.891 198.166 119.78 198.549 115.97C198.931 112.16 195.749 108.8 192.554 108.231V108.235Z" fill="#4B1738"/>
<path d="M96.2125 242.79C91.9968 246.984 88.8301 252.225 87.0713 257.909C92.5805 256.399 98.9415 258.964 101.868 263.881C104.723 259.782 109.956 257.482 114.897 258.154C106.888 256.169 99.8603 250.521 96.2125 242.79Z" fill="#E58863"/>
<path d="M122.485 231.933C118.116 236.292 115.927 242.751 116.743 248.881C121.132 247.652 126.085 248.648 129.666 251.474C131.733 247.719 136.086 245.363 140.353 245.683C133.921 242.47 127.138 238.933 122.485 231.933Z" fill="#E58863"/>
<path d="M142.573 86.4921C150.595 82.9388 160.509 84.1364 167.457 89.5C174.406 94.8635 178.093 104.164 176.713 112.844C175.333 121.523 168.944 129.215 160.801 132.104C153.276 127.883 148.161 120.203 145.314 112.045C142.467 103.887 141.647 95.1797 142.573 86.4882V86.4921Z" fill="#E58863"/>
<path d="M53.7284 113.567C50.5223 116.883 48.16 121.017 46.9336 125.468C59.0207 123.049 71.2182 120.594 82.4929 115.602C93.7676 110.614 104.202 102.808 110.102 91.9624C92.6279 102.599 73.9787 112.887 53.7284 113.567Z" fill="#C9A14B"/>
<path d="M176.413 141.906C178.117 143.634 180.653 144.487 183.05 144.147C181.579 149.713 182.546 155.882 185.645 160.728C188.745 165.578 193.931 169.032 199.59 170.025C192.164 171.044 184.304 167.977 179.517 162.195C174.729 156.412 173.179 148.104 176.413 141.906Z" fill="#C37553"/>
<path d="M56.3035 208.435C89.9067 218.443 126.909 216.565 159.334 203.206C165.434 200.692 171.468 197.724 176.326 193.25C181.181 188.775 184.778 182.594 184.927 175.981C178.559 174.859 172.604 171.06 169.078 165.614C165.553 160.167 164.508 153.175 166.298 146.934C149.932 137.397 140.077 118.215 141.934 99.8082C144.372 117.646 157.287 133.646 176.208 141.045C173.306 148.219 174.643 156.934 179.552 162.906C184.466 168.878 192.751 171.851 200.418 170.566C199.207 181.76 190.594 190.68 181.564 197.38C147.235 222.862 99.3161 228.652 56.3074 208.427L56.3035 208.435Z" fill="#C9A14B"/>
<path d="M248.277 48.4255C245.789 46.1291 242.322 49.7772 244.724 52.1685C248.194 56.0934 249.267 58.1131 250.982 64.1842C251.562 66.113 251.953 68.0892 252.39 70.0536C252.528 70.856 252.8 71.7058 253.577 72.0971C255.458 73.0615 257.016 71.2671 256.732 69.3936C256.787 67.4568 256.653 65.5241 256.298 63.6229C255.253 57.8443 252.335 52.623 248.277 48.4255Z" fill="#FAE0AA"/>
<path d="M257.943 81.9862C256.779 79.9348 253.435 80.4447 252.926 82.749C252.725 83.8439 252.359 85.0494 253.033 86.0573C254.192 88.1047 257.536 87.5948 258.041 85.2944C258.254 84.1996 258.617 82.9941 257.943 81.9862Z" fill="#FAE0AA"/>
<path d="M99.2572 44.3028C92.3204 48.0775 85.5887 52.4094 79.9415 57.9706C78.439 59.4568 77.0351 61.0417 75.6667 62.6504C75.0278 63.3816 74.247 64.1326 74.3061 65.184C74.2628 67.342 77.1574 68.4883 78.5968 66.8756C85.36 58.6505 92.214 54.6386 101.375 48.4688C102.152 47.8838 103.169 47.4095 103.394 46.37C103.883 43.8088 101.099 42.8443 99.2611 44.2989L99.2572 44.3028Z" fill="#FAE0AA"/>
<path d="M111.821 38.4651C108.185 39.3702 109.534 44.7614 113.154 43.8286C116.786 42.9156 115.441 37.5323 111.821 38.4651Z" fill="#FAE0AA"/>
<path d="M218.405 145.906C216.859 144.329 213.948 145.598 214.043 147.811C214.098 149.1 214.165 150.388 214.134 151.681C214.102 152.313 213.992 152.997 214.335 153.566C215.352 156.199 219.469 155.274 219.375 152.475C219.458 151.341 219.316 150.203 219.272 149.068C219.213 147.965 219.312 146.709 218.405 145.91V145.906Z" fill="#F5CC94"/>
<path d="M213.183 158.495C210.718 159.218 211.807 162.977 214.272 162.281C216.736 161.558 215.648 157.799 213.183 158.495Z" fill="#F5CC94"/>
<path d="M159.602 92.6185C158.864 91.9505 157.839 91.745 156.912 91.4604C155.973 91.2035 154.932 91.0572 154.077 91.6264C152.03 92.7924 152.539 96.1441 154.838 96.654C155.954 96.7449 156.975 97.5591 158.099 97.322C160.323 97.1441 161.23 94.0888 159.598 92.6185H159.602Z" fill="#F5CC94"/>
<path d="M163.542 96.5195C161.077 97.2428 162.165 101.002 164.63 100.306C167.095 99.5827 166.006 95.8239 163.542 96.5195Z" fill="#F5CC94"/>
<path d="M94.3552 249.265C92.1784 251.553 95.5383 254.786 97.7191 252.514C99.8999 250.229 96.536 246.988 94.3552 249.265Z" fill="#F5CC94"/>
<path d="M121.444 240.213C120.048 242.933 124.027 245.047 125.474 242.36C126.882 239.644 122.887 237.522 121.444 240.213Z" fill="#F5CC94"/>
<path d="M257.067 135.183C254.567 135.906 251.893 136.017 249.322 135.46C245.939 134.728 242.764 132.827 240.891 130.503C234.727 134.974 227.94 138.452 220.7 140.851C219.879 141.167 219.016 140.677 218.748 139.867C218.479 139.053 218.921 138.175 219.73 137.91C227.167 135.448 234.1 131.8 240.339 127.061C240.702 126.788 241.167 126.681 241.613 126.784C242.058 126.883 242.433 127.175 242.646 127.578C243.758 129.713 246.838 131.752 249.977 132.432C252.41 132.958 255.036 132.717 257.375 131.804C251.972 128.017 248.825 121.203 249.701 114.59C249.772 114.061 250.111 113.602 250.596 113.381C251.081 113.148 251.649 113.207 252.091 113.503C255.711 115.926 260.431 116.318 264.477 114.776C262.427 113.63 260.837 111.5 260.364 109.215C259.658 105.812 260.696 102.567 261.701 99.4285L262.048 98.3297C268.322 78.1719 262.809 54.3185 248.328 38.9788C234.08 23.8801 203.565 13.7696 179.103 23.7181C178.803 23.8446 178.464 23.8683 178.144 23.7853C156.711 18.4099 134.233 20.4138 111.324 29.7417C87.8285 39.3147 67.2312 58.8836 48.3532 89.571C43.546 97.3851 42.5325 103.31 45.3403 107.175C48.6332 111.713 55.921 111.393 61.4578 110.322C78.8687 106.966 95.6644 99.6815 110.035 89.2706C110.725 88.7686 111.695 88.9267 112.196 89.6184C112.697 90.3101 112.539 91.2784 111.849 91.7844C97.1157 102.46 79.894 109.915 62.0454 113.365C52.7149 115.167 46.2553 113.697 42.8441 108.998C39.2278 104.013 40.1979 96.9305 45.7268 87.9425C64.9518 56.6742 86.0303 36.6982 110.157 26.8722C133.507 17.3506 156.471 15.2676 178.405 20.6549C203.999 10.5127 235.717 21.1015 250.572 36.8444C266.035 53.2236 271.694 77.7213 264.998 99.2507L264.643 100.373C263.72 103.255 262.849 105.978 263.389 108.583C263.697 110.069 264.876 111.559 266.252 112.207C266.871 112.5 267.798 112.745 268.709 112.262C269.411 111.891 270.271 112.104 270.716 112.76C271.158 113.416 271.04 114.302 270.436 114.812C265.507 118.997 258.396 119.914 252.662 117.345C252.895 122.796 256.298 128.163 261.232 130.464C261.741 130.701 262.08 131.191 262.123 131.752C262.166 132.31 261.902 132.851 261.437 133.159C260.088 134.057 258.613 134.736 257.071 135.183H257.067Z" fill="#4B1738"/>
<path d="M208.313 170.629C206.909 171.036 205.454 171.36 203.963 171.598C194.349 173.123 185.349 170.728 179.272 165.024C171.953 158.159 173.14 149.353 173.925 143.523C174.027 142.764 174.122 142.052 174.193 141.388C174.248 140.879 174.548 140.432 174.997 140.187C175.447 139.942 175.987 139.942 176.441 140.175C184.249 144.23 193.95 141.056 201.747 138.515C204.44 137.634 206.988 136.804 209.176 136.365C214.879 135.219 220.672 138.195 220.917 138.325C221.224 138.487 221.469 138.744 221.611 139.06C221.851 139.594 227.463 152.234 222.857 160.602C220.435 164.997 214.954 168.704 208.309 170.625L208.313 170.629ZM177.009 143.827C177.005 143.867 176.997 143.902 176.993 143.942C176.251 149.452 175.234 156.993 181.386 162.764C186.761 167.807 194.814 169.91 203.482 168.534C211.121 167.317 217.667 163.621 220.155 159.104C223.551 152.942 219.958 143.179 219.012 140.851C217.639 140.238 213.574 138.645 209.792 139.408C207.78 139.811 205.316 140.618 202.713 141.467C194.976 143.993 185.487 147.096 177.009 143.827Z" fill="#4B1738"/>
<path d="M176.484 142.831C176.169 142.922 175.826 142.914 175.494 142.788C161.321 137.25 149.561 125.464 144.04 111.255C138.519 97.0454 139.225 80.3934 145.929 66.7059C146.304 65.9391 147.231 65.6189 148 65.9984C148.765 66.3739 149.084 67.3067 148.706 68.0734C142.376 80.9942 141.71 96.7173 146.923 110.128C152.137 123.543 163.238 134.669 176.618 139.899C177.415 140.211 177.809 141.108 177.498 141.906C177.316 142.373 176.93 142.705 176.484 142.831Z" fill="#4B1738"/>
<path d="M193.805 123.919C192.996 124.152 192.156 124.266 191.297 124.243C186.651 124.112 182.633 119.911 182.7 115.255C182.767 110.595 186.903 106.508 191.549 106.512C193.907 106.512 196.143 107.492 197.843 109.271C199.558 111.061 200.485 113.425 200.387 115.753C200.225 119.547 197.374 122.887 193.805 123.919ZM190.173 109.812C187.81 110.496 185.827 112.84 185.791 115.298C185.752 118.223 188.469 121.061 191.383 121.144C194.294 121.223 197.173 118.543 197.295 115.618C197.358 114.156 196.727 112.583 195.611 111.413C194.499 110.251 193.055 109.61 191.549 109.606C191.084 109.606 190.622 109.678 190.177 109.804L190.173 109.812Z" fill="#4B1738"/>
<path d="M150.398 215.787C148.308 216.391 146.154 216.961 143.926 217.498C115.063 224.451 87.1229 223.115 63.1223 213.633C50.1124 208.494 39.6816 201.447 32.1139 192.688C27.3382 187.159 25.6582 181.866 27.2514 177.384C28.2689 174.522 30.426 172.518 32.5122 170.582C33.1195 170.017 33.7268 169.455 34.2986 168.874C41.0106 162.036 43.1441 151.653 44.3469 142.396C44.5007 141.23 44.6426 140.056 44.7886 138.883C45.877 130.045 47.0009 120.91 51.4769 113.017C51.8988 112.274 52.8453 112.013 53.5867 112.436C54.3281 112.859 54.5884 113.804 54.1664 114.551C49.9941 121.907 48.9096 130.729 47.8606 139.262C47.7147 140.444 47.5688 141.626 47.4189 142.8C46.1491 152.566 43.8579 163.558 36.507 171.048C35.9037 171.665 35.2609 172.262 34.6181 172.858C32.7251 174.617 30.9308 176.281 30.1697 178.428C28.6554 182.684 31.6643 187.427 34.4564 190.661C41.6928 199.036 51.7214 205.795 64.262 210.751C80.5805 217.198 107.527 223.083 143.209 214.486C157.402 211.071 168.633 206.285 177.545 199.858C188.441 192.008 195.911 181.495 198.584 170.258C198.782 169.424 199.618 168.91 200.446 169.107C201.278 169.305 201.791 170.143 201.593 170.973C198.75 182.937 190.851 194.087 179.352 202.372C171.516 208.016 162 212.431 150.402 215.787H150.398Z" fill="#4B1738"/>
<path d="M96.2051 243.64C95.8501 243.458 95.5623 243.138 95.4321 242.727C95.3296 242.411 92.9832 234.767 95.0023 220.344C95.1206 219.498 95.9014 218.905 96.7493 219.024C97.5972 219.139 98.1847 219.929 98.0664 220.775C96.1538 234.419 98.3583 241.723 98.3819 241.794C98.6343 242.609 98.1847 243.482 97.3684 243.739C96.9662 243.865 96.5521 243.822 96.2051 243.644V243.64Z" fill="#4B1738"/>
<path d="M84.4253 260.501C84.311 260.442 84.2006 260.371 84.102 260.284C83.5775 259.822 83.4276 259.067 83.7313 258.442C86.7875 252.142 90.6641 246.272 95.2584 240.996C95.6093 240.593 96.1378 240.399 96.6662 240.482C97.1907 240.569 97.6364 240.913 97.8454 241.403C101.529 250.027 108.836 253.592 117.307 257.043C118.096 257.371 118.466 258.245 118.171 259.031C117.871 259.818 116.999 260.221 116.207 259.936C111.593 258.284 105.918 260.442 103.564 264.746C103.284 265.26 102.735 265.572 102.156 265.549C101.572 265.529 101.051 265.181 100.803 264.652C99.5805 261.995 97.1749 259.932 94.3632 259.122C91.5553 258.32 88.4202 258.802 85.9791 260.41C85.5098 260.723 84.9183 260.746 84.4293 260.497L84.4253 260.501ZM96.0747 244.834C93.2195 248.328 90.6799 252.071 88.4833 256.015C90.6878 255.494 93.0224 255.521 95.2071 256.146C98.0544 256.96 100.578 258.762 102.313 261.15C104.096 259.075 106.541 257.581 109.191 256.833C104.289 254.332 99.3005 250.77 96.0747 244.834Z" fill="#4B1738"/>
<path d="M115.734 250.838L115.694 250.818C115.177 250.533 114.862 249.98 114.89 249.391C115.174 242.581 117.559 235.818 121.613 230.344C121.933 229.913 122.449 229.68 122.982 229.723C123.514 229.767 123.984 230.083 124.232 230.557C126.283 234.537 128.779 237.399 132.088 239.565C135.175 241.581 138.74 242.941 142.191 244.249C142.881 244.51 143.291 245.225 143.169 245.952C143.047 246.68 142.432 247.225 141.694 247.249C139.498 247.32 137.23 247.395 135.258 248.162C133.728 248.755 131.961 250.063 131.595 251.948C131.476 252.553 131.015 253.027 130.419 253.166C129.82 253.3 129.201 253.067 128.834 252.577C126.298 249.134 120.817 248.257 117.335 250.727C116.865 251.059 116.254 251.106 115.741 250.846L115.734 250.838ZM122.726 234.202C120.348 238.016 118.79 242.363 118.21 246.826C122.004 245.522 126.468 246.316 129.564 248.881C130.565 247.324 132.17 246.031 134.134 245.269C134.552 245.107 134.974 244.968 135.396 244.854C133.681 244.079 131.997 243.209 130.392 242.162C127.269 240.122 124.792 237.557 122.726 234.202Z" fill="#4B1738"/>
<path d="M122.756 233.324C122.437 233.162 122.169 232.885 122.023 232.525C120.252 228.158 120.41 223.012 122.445 218.763C122.816 217.992 123.738 217.668 124.507 218.036L124.539 218.051C125.288 218.431 125.6 219.344 125.233 220.107C123.569 223.581 123.439 227.79 124.886 231.359C125.209 232.154 124.827 233.055 124.034 233.379C123.604 233.557 123.139 233.522 122.753 233.328L122.756 233.324Z" fill="#4B1738"/>
<path d="M215.964 97.0965C215.309 97.2863 214.584 97.0214 214.213 96.4128C212.663 93.8594 209.508 92.2626 206.539 92.5314C205.687 92.6104 204.938 91.978 204.859 91.1243C204.784 90.2745 205.407 89.5196 206.263 89.4405C210.427 89.065 214.682 91.2191 216.855 94.8001C217.301 95.5313 217.068 96.4879 216.338 96.9305C216.22 97.0056 216.094 97.057 215.964 97.0965Z" fill="#4B1738"/>
<path d="M162.24 216.957C161.553 220.194 160.863 223.479 161.254 226.621C161.644 229.763 163.261 232.795 166.388 234.32C167.114 234.676 167.993 234.945 168.884 234.712C170.509 234.285 171.12 232.55 171.132 231.19C171.152 228.324 170.001 225.656 168.34 223.34C166.68 221.024 164.523 219.02 162.243 216.957H162.24Z" fill="#51B8E2"/>
<path d="M164.582 231.178C165.355 232.004 167.216 231 166.818 229.988C166.459 229.261 166.108 228.526 165.757 227.794C165.631 227.411 165.189 227.119 164.681 227.158C163.809 227.119 163.005 227.992 163.265 228.656C163.73 229.482 164.022 230.415 164.582 231.182V231.178Z" fill="#D4DDE3"/>
<path d="M162.019 216.305H162.031C162.354 216.194 162.697 216.245 162.906 216.435C165.304 218.605 167.422 220.589 169.09 222.913C171.03 225.621 172.008 228.372 171.984 231.091C171.973 232.719 171.208 234.826 169.027 235.387C168.045 235.644 167.016 235.502 165.88 234.945C162.859 233.47 160.864 230.498 160.406 226.791C160 223.53 160.714 220.174 161.404 216.933C161.463 216.656 161.704 216.411 162.019 216.305ZM168.845 234.004C169.815 233.668 170.269 232.384 170.277 231.289C170.297 228.814 169.39 226.281 167.591 223.767C166.266 221.917 164.618 220.273 162.756 218.554C162.22 221.202 161.79 223.886 162.11 226.447C162.52 229.763 164.267 232.403 166.901 233.692C167.631 234.051 168.254 234.166 168.743 234.036C168.778 234.028 168.814 234.016 168.849 234.004H168.845Z" fill="#4B1738"/>
<path d="M211.463 167.87C214.685 172.416 216.807 177.736 217.6 183.253C217.824 184.807 217.939 186.411 217.544 187.929C217.15 189.447 216.172 190.882 214.725 191.486C212.489 192.415 209.776 190.996 208.663 188.842C207.551 186.688 207.752 184.064 208.494 181.751C209.235 179.439 210.474 177.325 211.416 175.091C212.359 172.858 213.021 170.388 211.463 167.87Z" fill="#51B8E2"/>
<path d="M213.704 186.084C213.672 188.23 210.466 188.099 210.596 185.961C210.644 183.819 213.83 183.949 213.704 186.084Z" fill="#D4DDE3"/>
<path d="M210.557 167.531C210.454 167.803 210.478 168.116 210.64 168.38C211.98 170.542 211.377 172.7 210.525 174.708C210.182 175.519 209.792 176.333 209.409 177.123C208.747 178.503 208.06 179.93 207.571 181.451C206.905 183.526 206.404 186.57 207.804 189.281C209.054 191.708 212.197 193.582 215.096 192.376C216.709 191.708 217.971 190.127 218.479 188.171C218.933 186.416 218.771 184.629 218.554 183.111C217.742 177.443 215.561 171.977 212.252 167.305C211.949 166.878 211.365 166.772 210.927 167.06C210.75 167.179 210.628 167.345 210.557 167.531ZM216.445 188.218C216.026 189.344 215.273 190.21 214.358 190.59C212.564 191.337 210.371 190.032 209.527 188.392C208.376 186.159 208.967 183.459 209.421 182.044C209.867 180.665 210.494 179.353 211.16 177.965C211.551 177.155 211.953 176.317 212.312 175.463C212.686 174.578 213.033 173.625 213.223 172.629C214.942 175.997 216.109 179.645 216.646 183.388C216.835 184.712 216.981 186.262 216.61 187.68C216.563 187.862 216.508 188.04 216.445 188.214V188.218Z" fill="#4B1738"/>
<path d="M170.013 274.746C171.558 273.991 175.017 272.608 176.874 273.948C178.215 274.916 179.02 276.857 180.077 278.379C181.867 280.964 184.489 282.359 186.753 282.513C189.017 282.667 190.984 281.738 192.739 280.545C194.581 279.292 196.316 277.62 196.853 274.908C197.389 272.197 196.324 268.229 193.993 266.292C191.876 264.533 189.092 264.604 187.569 261.984C186.161 259.565 187.08 256.964 188.153 255.241C189.222 253.517 190.409 251.304 189.348 248.711C188.709 247.142 187.38 245.968 186.126 245.47C184.872 244.972 183.669 245.035 182.514 245.162C172.781 246.201 163.241 251.846 155.685 257.751C150.843 261.533 149.403 269.106 153.544 274.414C157.46 279.43 163.502 277.928 170.013 274.746Z" fill="#51B8E2"/>
<path d="M186.551 259.399C186.658 257.924 186.76 256.418 186.453 254.822C186.145 253.225 185.36 251.486 184.181 250.502C182.58 249.166 180.873 249.592 179.425 250.09C172.299 252.533 165.173 254.972 158.047 257.414C164.168 250.604 172.95 248.138 181.504 245.802C183.523 245.253 186.074 244.928 188.003 247.26C189.533 249.11 189.892 251.92 189.32 253.806C188.748 255.691 187.462 256.869 186.551 259.403V259.399Z" fill="#2D97B5"/>
<path d="M159.747 272.529C160.232 272.94 160.776 272.948 161.269 273.051C162.141 273.193 162.977 273.153 163.742 272.916C164.448 272.612 165.619 272.481 166.116 271.893C166.77 270.944 165.437 268.948 164.495 269.45C162.334 270.217 162.63 270.292 160.488 270.375C160.149 270.418 159.723 270.276 159.463 270.513C158.954 270.833 159.14 271.987 159.747 272.533V272.529Z" fill="#D4DDE3"/>
<path d="M170.678 269.766C171.443 269.387 170.584 267.62 169.811 267.988C169.046 268.367 169.905 270.134 170.678 269.766Z" fill="#D4DDE3"/>
<path d="M192.061 276.11C192.459 275.466 192.503 274.489 192.396 273.537C192.317 273.086 192.215 272.588 191.998 272.153C191.947 272.019 191.864 271.821 191.765 271.592C191.323 270.632 190.247 270.347 189.963 271.11C189.805 271.493 189.892 271.983 190.089 272.47C190.117 272.616 190.156 272.766 190.192 272.916C190.2 273.153 190.215 273.391 190.223 273.402C190.223 273.418 190.223 273.434 190.223 273.446C190.223 273.493 190.211 273.655 190.188 273.809C190.14 273.948 190.077 274.07 190.006 274.193C189.446 275.62 191.458 277.481 192.065 276.106L192.061 276.11Z" fill="#D4DDE3"/>
<path d="M168.423 248.597C173.231 246.245 177.856 244.826 182.265 244.356C183.401 244.233 184.726 244.15 186.118 244.703C187.739 245.348 189.182 246.818 189.884 248.537C191.209 251.786 189.569 254.431 188.686 255.854C187.909 257.106 186.789 259.521 188.027 261.652C188.764 262.925 189.94 263.434 191.296 264.023C192.262 264.442 193.264 264.877 194.195 265.652C196.943 267.932 198.032 272.45 197.46 275.324C196.837 278.466 194.703 280.229 193.15 281.284C191.742 282.244 189.561 283.497 186.915 283.316C184.245 283.134 181.465 281.403 179.659 278.79C179.308 278.284 178.988 277.743 178.681 277.225C178.054 276.166 177.462 275.166 176.709 274.62C175.364 273.652 172.556 274.446 170.379 275.509C164.393 278.434 157.669 280.648 153.17 274.885C151.58 272.849 150.658 270.403 150.5 267.822C150.247 263.644 152.061 259.506 155.236 257.027C159.751 253.498 164.156 250.684 168.416 248.601L168.423 248.597ZM190.578 280.829C191.245 280.505 191.833 280.134 192.322 279.802C193.745 278.833 195.697 277.233 196.241 274.49C196.691 272.205 195.883 268.664 193.789 266.925C193.043 266.308 192.187 265.932 191.276 265.537C189.77 264.881 188.212 264.205 187.112 262.312C185.783 260.023 185.961 257.292 187.617 254.624C188.65 252.96 189.679 251.008 188.812 248.877C188.342 247.731 187.293 246.692 186.138 246.233C184.979 245.775 183.835 245.846 182.766 245.96C174.595 246.834 165.635 251.043 156.131 258.47C153.217 260.747 151.545 264.482 151.77 268.209C151.896 270.316 152.641 272.296 153.919 273.936C156.936 277.802 161.786 277.81 169.646 273.968C171.511 273.059 174.95 271.755 177.04 273.26C178.144 274.055 178.89 275.316 179.611 276.537C179.911 277.043 180.191 277.517 180.491 277.952C181.985 280.106 184.32 281.541 186.592 281.695C188.098 281.798 189.455 281.371 190.586 280.822L190.578 280.829Z" fill="#4B1738"/>
<path d="M212.094 205.716C209.877 206.747 208.126 209.467 208.872 211.965C209.152 212.905 209.759 213.811 209.578 214.779C209.313 216.182 207.681 216.593 206.368 216.712C202.799 217.032 199.23 217.352 195.661 217.672C194.083 217.814 192.474 217.965 191.027 218.66C189.58 219.356 188.302 220.716 188.069 222.419C187.774 224.546 189.197 226.601 190.96 227.565C192.723 228.534 194.766 228.656 196.737 228.759C207.062 229.304 217.39 229.854 227.714 230.399C229.97 230.518 232.36 230.609 234.343 229.431C236.327 228.253 237.609 225.312 236.382 223.249C235.341 221.498 233.164 221.19 231.299 220.704C229.434 220.214 227.312 218.814 227.517 216.739C227.667 215.218 229.02 214.202 229.619 212.819C230.644 210.439 229.11 207.483 226.941 206.321C222.067 203.708 214.314 204.684 212.098 205.72L212.094 205.716Z" fill="#50B8E2"/>
<path d="M216.172 209.913C216.121 209.921 216.081 209.933 216.065 209.957C216.109 209.941 216.144 209.925 216.172 209.913Z" fill="#D4DDE3"/>
<path d="M218.064 208.593C217.938 206.664 215.343 207.491 215.075 207.498C214.133 207.763 212.93 208.732 212.843 209.85C212.807 210.992 214.207 211.621 214.925 210.787C215.028 210.633 215.347 210.285 215.426 210.182C215.446 210.17 215.461 210.158 215.481 210.147C215.824 210.024 216.542 209.763 216.175 209.913C216.589 209.838 217.938 210.06 218.068 208.593H218.064Z" fill="#D4DDE3"/>
<path d="M221.476 207.348C220.336 207.352 220.34 209.237 221.476 209.245C222.615 209.241 222.611 207.356 221.476 207.348Z" fill="#D4DDE3"/>
<path d="M197.235 223.625C196.84 223.194 196.237 223.206 195.74 222.992C195.598 222.937 195.456 222.882 195.314 222.822C195.294 222.814 195.282 222.802 195.259 222.791C195.251 222.787 195.247 222.779 195.239 222.775C195.235 222.656 195.231 222.534 195.223 222.415C195.196 222.087 195.247 221.735 195.097 221.439C194.644 220.111 192.735 220.542 192.763 221.949C192.723 223.53 193.058 224.775 194.549 225.336C195.409 225.629 196.651 226.376 197.329 225.368C197.724 224.874 197.649 224.079 197.235 223.625Z" fill="#D4DDE3"/>
<path d="M200.59 229.348C208.6 227.099 216.936 226.241 225.19 226.822C229.185 227.103 233.574 227.609 236.418 225.237C236.796 227.123 235.456 229.012 233.823 229.763C232.19 230.514 230.345 230.407 228.574 230.285C220.178 229.711 211.786 229.134 200.59 229.348Z" fill="#2D97B5"/>
<path d="M229.675 231.213C228.981 231.213 228.306 231.178 227.679 231.146L196.702 229.506C194.766 229.403 192.574 229.285 190.649 228.233C188.823 227.229 187.021 224.949 187.388 222.308C187.636 220.518 188.926 218.858 190.748 217.98C192.317 217.226 194.064 217.067 195.602 216.929L206.309 215.969C207.397 215.87 208.73 215.562 208.908 214.633C208.991 214.182 208.786 213.68 208.549 213.095C208.427 212.799 208.308 212.498 208.218 212.198C207.33 209.226 209.397 206.166 211.822 205.036C214.106 203.973 222.103 202.898 227.238 205.653C229.627 206.933 231.445 210.324 230.231 213.139C229.963 213.763 229.58 214.293 229.209 214.803C228.72 215.479 228.263 216.115 228.192 216.822C228.042 218.364 229.777 219.542 231.453 219.98C231.694 220.044 231.938 220.103 232.187 220.166C233.926 220.589 235.894 221.071 236.951 222.85C237.526 223.822 237.688 225.04 237.4 226.277C237.034 227.846 235.985 229.308 234.667 230.091C233.11 231.016 231.331 231.221 229.675 231.221V231.213ZM212.362 206.4C210.485 207.277 208.896 209.625 209.523 211.732C209.598 211.984 209.701 212.237 209.803 212.486C210.091 213.202 210.422 214.008 210.249 214.925C209.973 216.399 208.683 217.249 206.423 217.451L195.717 218.411C194.214 218.546 192.66 218.684 191.304 219.34C190.207 219.87 188.957 220.984 188.744 222.526C188.492 224.348 189.821 226.103 191.264 226.897C192.928 227.81 194.967 227.917 196.766 228.012L227.742 229.652C229.805 229.763 232.14 229.885 234.009 228.771C234.991 228.19 235.799 227.059 236.071 225.897C236.209 225.308 236.272 224.443 235.799 223.648C235.046 222.38 233.441 221.988 231.887 221.609C231.631 221.546 231.378 221.486 231.13 221.419C228.815 220.814 226.587 219.103 226.828 216.652C226.938 215.518 227.573 214.641 228.133 213.87C228.472 213.403 228.787 212.965 228.993 212.494C229.872 210.463 228.452 207.957 226.634 206.981C221.945 204.463 214.409 205.443 212.362 206.396V206.4Z" fill="#4B1738"/>
<path d="M175.269 190.258C178.562 194.38 181.993 198.823 182.518 204.079C182.786 206.763 181.954 209.909 179.497 211.016C177.359 211.981 174.682 210.925 173.317 209.016C171.949 207.107 171.716 204.574 172.118 202.257C172.521 199.941 173.502 197.775 174.398 195.601C175.293 193.427 176.125 191.174 175.269 190.258Z" fill="#51B8E2"/>
<path d="M179.217 206.894C178.18 208.016 176.473 206.439 177.498 205.309C178.535 204.186 180.243 205.763 179.217 206.894Z" fill="#D4DDE3"/>
<path d="M174.591 189.633C174.287 189.965 174.264 190.475 174.552 190.831C174.579 190.866 174.611 190.906 174.642 190.941C174.911 191.392 174.544 192.839 173.55 195.246L173.227 196.02C172.422 197.953 171.586 199.953 171.211 202.091C170.707 204.973 171.188 207.621 172.568 209.546C174.295 211.961 177.438 212.953 179.875 211.85C182.936 210.467 183.705 206.748 183.433 203.981C182.873 198.36 179.158 193.645 176.117 189.839C176.062 189.764 176.007 189.692 175.94 189.621C175.601 189.258 175.041 189.23 174.666 189.554C174.638 189.578 174.615 189.602 174.591 189.629V189.633ZM180.246 209.352C179.931 209.696 179.556 209.981 179.118 210.178C177.3 211 175.12 209.961 174.063 208.483C172.596 206.431 172.781 203.803 173.022 202.42C173.361 200.483 174.153 198.578 174.922 196.74L175.246 195.957C175.664 194.945 176.05 193.953 176.287 193.048C178.744 196.258 181.185 200.016 181.599 204.174C181.78 206.001 181.402 208.095 180.246 209.356V209.352Z" fill="#4B1738"/>
<path d="M180.585 125.219C177.576 127.978 174.426 130.962 173.4 134.918C172.876 136.938 173.14 139.44 174.883 140.582C176.401 141.574 178.574 141.088 179.844 139.792C181.114 138.495 181.599 136.586 181.563 134.768C181.528 132.95 181.039 131.175 180.613 129.408C180.187 127.642 179.82 125.82 180.581 125.219H180.585Z" fill="#51B8E2"/>
<path d="M175.585 137.464C176.244 138.448 177.738 137.444 177.088 136.456C176.429 135.472 174.934 136.476 175.585 137.464Z" fill="#D4DDE3"/>
<path d="M181.177 124.824C181.37 125.112 181.327 125.504 181.066 125.745C181.039 125.768 181.011 125.796 180.984 125.82C180.727 126.132 180.834 127.282 181.307 129.243L181.461 129.875C181.847 131.448 182.246 133.077 182.277 134.756C182.32 137.017 181.634 138.986 180.353 140.294C178.744 141.934 176.224 142.314 174.492 141.179C172.32 139.756 172.174 136.82 172.71 134.741C173.806 130.511 177.206 127.349 179.986 124.804C180.037 124.753 180.088 124.705 180.148 124.662C180.447 124.424 180.881 124.468 181.13 124.76C181.149 124.78 181.165 124.804 181.177 124.824ZM174.508 139.219C174.709 139.519 174.962 139.78 175.273 139.986C176.563 140.831 178.353 140.298 179.339 139.294C180.708 137.903 180.877 135.871 180.857 134.784C180.83 133.262 180.451 131.713 180.081 130.215L179.927 129.579C179.73 128.756 179.552 127.95 179.477 127.231C177.217 129.389 174.903 131.97 174.094 135.1C173.739 136.476 173.779 138.12 174.512 139.223L174.508 139.219Z" fill="#4B1738"/>
<path d="M164.448 160.981C162.504 164.538 160.536 168.151 159.637 172.108C158.741 176.06 159.041 180.471 161.36 183.795C161.9 184.566 162.618 185.313 163.545 185.455C165.24 185.72 166.514 183.926 167.07 182.301C168.241 178.87 168.23 175.123 167.603 171.55C166.976 167.977 165.753 164.542 164.444 160.981H164.448Z" fill="#51B8E2"/>
<path d="M160.93 179.159C161.324 180.518 163.478 180.202 163.505 178.795C163.462 177.748 163.426 176.704 163.391 175.657C163.422 175.139 163.127 174.578 162.638 174.38C161.833 173.918 160.729 174.582 160.705 175.499C160.812 176.708 160.709 177.973 160.926 179.159H160.93Z" fill="#D4DDE3"/>
<path d="M164.503 160.092H164.519C164.866 160.12 165.166 160.345 165.288 160.673C166.668 164.42 167.859 167.811 168.49 171.392C169.224 175.57 169.035 179.337 167.922 182.586C167.256 184.534 165.69 186.696 163.419 186.333C162.394 186.175 161.483 185.507 160.643 184.301C158.399 181.092 157.72 176.574 158.777 171.906C159.708 167.799 161.723 164.116 163.675 160.55C163.841 160.246 164.164 160.068 164.507 160.088L164.503 160.092ZM163.801 184.586C164.846 184.649 165.789 183.317 166.235 182.013C167.248 179.052 167.414 175.582 166.735 171.708C166.235 168.859 165.347 166.096 164.29 163.147C162.721 166.068 161.242 169.088 160.508 172.309C159.562 176.487 160.142 180.487 162.094 183.285C162.638 184.064 163.174 184.499 163.687 184.578C163.726 184.582 163.762 184.586 163.801 184.59V184.586Z" fill="#4B1738"/>
<path d="M185.925 144.602C188.705 148.345 190.578 152.76 191.343 157.365C191.56 158.661 191.687 160.001 191.383 161.278C191.083 162.554 190.29 163.776 189.092 164.305C187.238 165.123 184.939 163.985 183.969 162.203C182.999 160.42 183.117 158.218 183.697 156.274C184.277 154.325 185.27 152.535 186.02 150.645C186.769 148.756 187.278 146.677 185.925 144.602Z" fill="#51B8E2"/>
<path d="M188.137 159.807C188.149 161.606 185.463 161.554 185.534 159.764C185.534 157.969 188.204 158.021 188.137 159.807Z" fill="#D4DDE3"/>
<path d="M185.16 144.337C185.081 144.566 185.104 144.827 185.246 145.049C186.41 146.831 185.944 148.653 185.266 150.349C184.994 151.033 184.682 151.724 184.379 152.392C183.85 153.562 183.302 154.768 182.92 156.049C182.399 157.8 182.036 160.353 183.259 162.598C184.351 164.606 187.017 166.116 189.419 165.052C190.756 164.463 191.785 163.12 192.175 161.467C192.522 159.993 192.357 158.499 192.144 157.234C191.359 152.503 189.431 147.97 186.575 144.12C186.315 143.768 185.822 143.689 185.463 143.938C185.317 144.041 185.215 144.179 185.164 144.337H185.16ZM190.468 161.543C190.14 162.491 189.521 163.23 188.764 163.566C187.273 164.222 185.416 163.175 184.678 161.819C183.673 159.973 184.119 157.701 184.469 156.507C184.817 155.345 185.317 154.234 185.85 153.06C186.161 152.373 186.485 151.665 186.769 150.946C187.068 150.199 187.336 149.393 187.478 148.559C188.981 151.345 190.022 154.377 190.543 157.499C190.728 158.606 190.878 159.898 190.594 161.092C190.558 161.246 190.515 161.396 190.464 161.539L190.468 161.543Z" fill="#4B1738"/>
</svg>