<svg width="75" height="75" viewBox="0 0 75 75" fill="none" xmlns="http://www.w3.org/2000/svg">
<mask id="mask0_954_2485" style="mask-type:alpha" maskUnits="userSpaceOnUse" x="0" y="0" width="75" height="75">
<rect width="75" height="75" rx="37.5" fill="#FFE6BD"/>
</mask>
<g mask="url(#mask0_954_2485)">
<rect x="-11.7188" y="-8.78906" width="115.43" height="100.195" fill="#ECECEC"/>
<path d="M35.1387 5.08027C37.4611 4.07894 38.7752 3.42004 41.3025 2.74978C42.371 2.45117 41.9238 0.826637 40.8504 1.11227C38.5345 1.72573 36.2869 2.58749 34.2149 3.79493C33.283 4.42462 34.2084 5.684 35.1387 5.07865L35.1387 5.08027Z" fill="#FFE0A3"/>
<path d="M70.733 32.0756C70.8729 31.9847 70.9428 31.9441 70.9184 31.9506C71.016 31.9051 71.112 31.8565 71.2095 31.8078C71.2242 31.8013 71.2404 31.7948 71.2551 31.7883C71.3006 31.7704 71.3657 31.7461 71.4421 31.7185C71.7625 31.5789 72.1642 31.6357 72.4293 31.3842C73.3352 30.7464 72.5854 29.2695 71.5299 29.5828C71.2144 29.6266 70.733 29.7191 69.9703 30.1589C69.8987 30.2482 69.5068 30.3179 69.2612 30.946C69.0026 31.7737 69.9979 32.5365 70.733 32.0756Z" fill="#FECA8B"/>
<path d="M87.3658 75.9053C88.3074 69.0664 87.1608 61.9548 84.1179 55.7553C81.075 49.5558 76.1472 44.2927 70.3021 40.7369C74.1321 33.3397 74.6526 24.3099 71.6975 16.5232C68.7424 8.73644 62.3574 2.31623 54.3557 -0.979896C56.1382 -2.84624 56.1285 -6.12938 53.8385 -8.35438C54.0549 -5.87296 52.0967 -3.39641 49.9418 -3.36232C49.8556 -5.7626 48.5301 -8.08336 46.1101 -9.55371C46.4744 -8.31057 46.842 -7.03334 46.7477 -5.74151C46.6533 -4.44967 45.9979 -3.11726 44.8172 -2.58008C43.817 -2.12567 42.6606 -2.30906 41.5629 -2.27822C39.325 -2.21493 37.2286 -1.23307 35.2087 -0.269066C32.5252 1.00978 29.8417 2.29026 27.181 3.92615C22.0336 7.12165 18.0003 12.0683 15.9137 17.7484C14.1751 22.4841 13.7897 27.7634 15.1737 32.6143C16.5577 37.4651 19.773 41.8389 24.2276 44.2456C24.613 44.4858 25.0001 44.7244 25.3856 44.9646C23.1542 46.0779 21.0969 47.5385 18.9501 49.7911C13.3717 55.1808 9.72543 62.5228 8.80491 70.217C8.61788 71.7815 8.62114 73.5813 9.76772 74.6638C10.7663 75.6067 12.3601 75.6667 13.6433 75.1717C14.9265 74.6768 15.9706 73.7274 17.2993 72.5572C15.9511 77.8463 16.1577 83.5184 17.8848 88.6954C19.612 93.8725 22.8549 98.5367 27.3242 102.05C31.9284 105.048 37.3978 106.705 43.4039 106.977C51.0266 107.58 58.8038 106.127 65.5792 102.643C70.9608 100.802 75.8187 97.4624 79.4584 93.1C83.0982 88.7376 86.32 83.52 87.3674 75.9069L87.3658 75.9053Z" fill="#FFD26F"/>
<path d="M61.0204 38.4391C60.7472 37.6925 60.0072 37.2089 59.251 36.9606C58.4947 36.7107 57.6913 36.6425 56.9237 36.4283C53.8824 35.5763 51.8706 32.5853 48.909 31.4898C46.7687 30.6978 44.3455 30.9997 42.2231 31.8387C40.1007 32.6778 38.2223 34.0183 36.3666 35.3442C34.5158 36.6669 32.6634 37.9912 30.8126 39.3138C30.4695 39.5589 30.0938 39.8575 30.0596 40.2778C30.0238 40.7047 30.3084 41.1299 30.6744 41.3538C35.2542 44.155 39.9218 47.1249 45.1733 46.6153C56.9172 45.476 61.2937 39.184 61.0204 38.4391Z" fill="#F58359"/>
<path d="M14.5101 27.2653C18.0474 26.9456 21.6758 29.0359 23.1704 32.2509C24.665 35.4659 23.9185 39.58 21.3912 42.0679C18.7419 40.9951 16.8211 38.5754 15.7234 35.9414C14.6239 33.3074 14.2418 30.4381 14.5101 27.2653Z" fill="#F58359"/>
<path d="M73.7401 27.6371C70.2419 27.3027 66.6688 29.6559 65.6019 32.9975C64.5366 36.3391 66.0882 40.3217 69.1359 42.0663C72.5529 38.2849 74.2687 33.0267 73.7401 27.6371Z" fill="#F58359"/>
<path d="M63.6097 24.1136C64.0683 22.4972 63.0128 20.6098 61.3929 20.1505C59.7731 19.6928 57.8817 20.7461 57.4214 22.3625C56.9628 23.9789 58.0183 25.8664 59.6381 26.3256C61.2579 26.7833 63.1494 25.73 63.6097 24.1136Z" fill="#531139"/>
<path d="M33.4994 25.9297C33.8572 24.6297 33.4766 23.1399 32.5025 22.2067C31.5266 21.2736 29.9865 20.962 28.7439 21.491C27.5014 22.0201 26.6541 23.3834 26.7809 24.7271C26.9224 26.2137 28.2381 27.4666 29.7214 27.6613C31.2046 27.8561 33.14 27.2394 33.4994 25.9297Z" fill="#531139"/>
<path d="M52.2805 44.8657C47.138 48.5254 39.9853 49.155 34.2801 46.4513C33.0408 45.8638 31.8438 45.1091 31.0144 44.0202C30.1849 42.9312 29.7734 41.456 30.2077 40.1577C35.521 45.9401 44.5423 47.9736 52.2805 44.8657Z" fill="#D1A037"/>
<path d="M43.3241 31.9247C40.6016 33.0088 38.1621 35.1219 37.305 37.9198C36.4479 40.7176 37.5294 44.1582 40.1397 45.4906C36.996 44.7181 34.0051 43.3386 31.3802 41.448C30.7427 40.9887 30.0596 40.346 30.1653 39.5686C30.31 38.5202 31.6485 38.2346 32.6618 37.9214C34.7744 37.269 36.3422 35.5438 38.0076 34.0929C39.6746 32.6404 41.8213 31.3454 43.3225 31.9264L43.3241 31.9247Z" fill="#D1704B"/>
<path d="M70.3882 32.0951C70.4874 32.0059 70.772 31.7738 70.8712 31.6926C70.9379 31.6472 70.9574 31.6326 70.9526 31.631C71.0875 31.5579 71.2128 31.467 71.3494 31.3973C71.4421 31.3129 71.4665 31.4346 71.9772 31.1116C72.8521 30.4949 72.1268 29.0668 71.1071 29.3703C70.2353 29.6088 69.6743 30.1622 69.4954 30.3294C69.2107 30.6556 68.8123 30.9786 68.8188 31.446C68.7911 32.2363 69.8466 32.6712 70.3882 32.0951Z" fill="#FECA8B"/>
<path d="M68.9034 33.8478C68.9001 32.7913 67.2884 32.7929 67.2819 33.8478C67.2852 34.9043 68.8969 34.9027 68.9034 33.8478Z" fill="#FECA8B"/>
<path d="M20.7472 31.2058C20.4983 30.7692 19.9779 30.6378 19.5551 30.4219C19.1826 30.2434 18.7858 30.0259 18.3613 30.1623C17.418 30.3878 17.2375 31.7706 18.0897 32.2331C18.6069 32.4213 19.0785 32.7865 19.6185 32.8855C20.5179 33.0689 21.2237 31.9686 20.7456 31.2058L20.7472 31.2058Z" fill="#FECA8B"/>
<path d="M53.3815 36.7382C52.3504 35.9121 51.2754 35.0212 49.9417 34.7729C49.0879 34.5116 48.4243 35.6508 49.0716 36.2659C49.8864 36.7836 49.8279 36.5353 50.4752 36.9102C51.5616 37.4523 51.5567 37.6503 52.4105 38.181C53.2644 38.598 54.0759 37.3809 53.3831 36.7398L53.3815 36.7382Z" fill="#FECA8B"/>
<path d="M47.2518 35.3296C47.2486 34.2731 45.6369 34.2747 45.6304 35.3296C45.6336 36.3861 47.2453 36.3845 47.2518 35.3296Z" fill="#FECA8B"/>
<path d="M35.4152 5.47301C36.6691 4.98451 37.9003 4.44246 39.1607 3.97182C39.8422 3.62614 40.7838 3.58719 41.2343 2.91855C41.758 2.08763 40.8944 0.964575 39.9527 1.25508C38.6419 1.76467 37.3132 2.24343 36.0609 2.88772C35.4396 3.30319 34.5061 3.53526 34.2247 4.28342C34.0182 4.98127 34.7159 5.68399 35.4169 5.47301L35.4152 5.47301Z" fill="#FFE0A3"/>
<path d="M30.9297 7.86348C31.9933 6.91408 30.5361 5.35285 29.5066 6.33308C28.4495 7.28897 29.8986 8.84047 30.9297 7.86348Z" fill="#FFE0A3"/>
<path d="M17.6506 59.9507C18.6085 58.6264 19.5306 57.2778 20.4316 55.9145C20.7341 55.439 21.2025 54.9456 21.0106 54.3387C20.7829 53.3974 19.4005 53.2172 18.937 54.0676C17.9563 55.5721 16.9822 57.0798 16.0909 58.6394C15.1086 59.8257 16.7431 61.2149 17.649 59.9491L17.6506 59.9507Z" fill="#FFE0A3"/>
<path d="M16.0699 79.4483C16.0699 73.6513 17.249 68.4158 17.9759 65.196C18.0524 64.8535 18.3939 64.6377 18.7387 64.714C19.0819 64.7902 19.2949 65.1343 19.2201 65.4751C17.7092 72.1793 14.1735 87.8793 24.0666 98.4802C32.5253 107.544 48.6814 107.646 57.4523 104.824C57.7874 104.717 58.1468 104.9 58.2558 105.235C58.3615 105.571 58.1793 105.928 57.8443 106.036C54.1346 107.231 47.7495 108.229 40.9579 107.452C35.7162 106.851 28.3683 104.957 23.1347 99.3484C17.6133 93.4329 16.0715 86.0747 16.0715 79.45L16.0699 79.4483Z" fill="#531139"/>
<path d="M69.7913 40.7338C69.7913 40.6137 69.8255 40.4937 69.8954 40.3849C70.089 40.0912 70.4842 40.0084 70.7785 40.2015C83.6072 48.592 89.7678 61.2182 88.1317 75.761C88.091 76.11 87.7771 76.3615 87.4259 76.3226C87.0746 76.2836 86.8225 75.9655 86.8631 75.6182C88.4472 61.5768 82.485 49.3791 70.0792 41.2645C69.8922 41.1428 69.7913 40.9383 69.7913 40.7322L69.7913 40.7338Z" fill="#531139"/>
<path d="M8.20313 71.8433C8.20313 71.6145 8.21126 71.3873 8.22101 71.1601C8.75446 60.1048 15.4257 49.5998 25.2164 44.3967C25.527 44.2312 25.9141 44.3497 26.0783 44.6596C26.2426 44.9712 26.1255 45.3559 25.8149 45.5214C16.4129 50.5167 10.0067 60.6047 9.49444 71.2218C9.44728 72.2215 9.47331 73.2471 9.99374 73.958C10.7549 74.9966 12.4105 75.0518 13.5701 74.5049C14.9118 73.8736 15.9315 72.5899 16.8293 71.4571C17.0472 71.1812 17.4489 71.1341 17.7254 71.3532C18.0019 71.5707 18.0474 71.9715 17.8295 72.2474C16.8439 73.489 15.7266 74.896 14.1149 75.6555C12.5097 76.4118 10.1596 76.3372 8.96425 74.7094C8.34786 73.8687 8.20313 72.8576 8.20313 71.8433Z" fill="#531139"/>
<path d="M29.5653 40.0571C29.5653 39.9679 29.5734 39.877 29.588 39.7861C29.7523 38.7994 30.7265 38.345 31.2502 38.1015C32.8212 37.3664 34.215 36.2855 35.6917 35.1397C38.4533 32.9975 41.3091 30.7806 45.5376 30.7806C48.2081 30.7806 50.7875 32.2721 53.2823 33.7148C55.2421 34.8476 57.0929 35.9171 58.9388 36.2952C59.4966 36.4088 60.1455 36.5419 60.6399 36.9963C61.3132 37.6163 61.4938 38.7231 61.0823 39.6823C60.7554 40.4466 60.1504 41.0195 59.5454 41.5243C55.6438 44.7814 50.698 46.7175 45.6173 46.9772C39.6779 47.2807 33.8686 44.0089 30.933 42.0306C30.0239 41.4171 29.5653 40.7534 29.5653 40.0539L29.5653 40.0571ZM60.0235 38.6128C60.0235 38.3515 59.9487 38.0967 59.7715 37.9328C59.5405 37.7185 59.1404 37.6374 58.7176 37.5514C56.631 37.1245 54.6029 35.9512 52.6415 34.8168C50.2915 33.4584 47.8633 32.0546 45.536 32.0546C41.745 32.0546 39.1851 34.041 36.474 36.1443C35.007 37.282 33.4913 38.4586 31.7901 39.2538C31.351 39.4583 30.894 39.7066 30.8468 39.9938C30.8127 40.2503 31.0892 40.6008 31.6486 40.9773C34.4508 42.8664 39.9837 45.9937 45.5539 45.7081C50.3582 45.4614 55.0372 43.6292 58.7273 40.5489C59.1778 40.1724 59.6771 39.7277 59.9097 39.184C59.9829 39.0136 60.0252 38.8107 60.0252 38.6111L60.0235 38.6128Z" fill="#531139"/>
<path d="M13.4025 26.6389C13.4025 19.5371 16.7756 12.1918 22.5459 6.82322C27.7762 1.95613 34.9322 -1.42926 43.2396 -2.96453C43.3193 -2.97913 43.399 -2.97913 43.4787 -2.96453C44.1129 -2.84119 44.6708 -2.93694 45.1343 -3.25016C45.7067 -3.63803 46.1296 -4.35211 46.2922 -5.21063C46.5898 -6.79621 46.0971 -8.43697 45.6336 -9.68985C45.5376 -9.94952 45.6206 -10.2416 45.8385 -10.412C46.0564 -10.5824 46.3622 -10.5922 46.5915 -10.4364C48.761 -8.96117 50.215 -6.44566 50.4671 -3.83603C52.0983 -4.79354 53.1798 -6.74265 53.0237 -8.6236C53.0009 -8.87677 53.1343 -9.11859 53.3587 -9.23868C53.5832 -9.35878 53.8596 -9.33281 54.0581 -9.17377C56.4098 -7.29119 57.0603 -3.65102 55.6356 -1.02678C64.1414 3.24796 70.5249 10.3839 73.2067 18.6477C76.2252 27.9486 73.9646 38.4569 67.5795 44.7927C67.3291 45.0411 66.9257 45.0394 66.6769 44.7895C66.4281 44.5396 66.4297 44.1371 66.6802 43.8888C72.7318 37.8824 74.8672 27.8967 71.9918 19.0388C69.388 11.0184 62.8273 3.82896 54.4419 -0.195846C54.2711 -0.276991 54.1459 -0.431168 54.1003 -0.614556C54.0548 -0.797944 54.0922 -0.991071 54.2028 -1.14525C55.4632 -2.87527 55.3949 -5.39402 54.2093 -7.14838C53.7995 -4.95908 52.2056 -3.00185 50.0735 -2.26343C49.8767 -2.19527 49.6571 -2.22773 49.488 -2.35107C49.3189 -2.47441 49.2327 -2.67565 49.2262 -2.88013C49.2798 -4.67994 48.6179 -6.47974 47.4892 -7.8868C47.6697 -6.96986 47.7348 -5.97989 47.5445 -4.98018C47.3201 -3.79221 46.7004 -2.77951 45.8499 -2.20176C45.1375 -1.71976 44.2788 -1.5461 43.3599 -1.69703C35.3404 -0.195847 28.4463 3.06944 23.416 7.74828C17.6701 13.0958 14.3979 20.467 14.6971 27.4877C15.0077 35.0991 19.8055 42.2172 26.3645 44.796C26.6914 44.9242 26.8525 45.2926 26.724 45.6221C26.5939 45.9483 26.2247 46.1089 25.8962 45.9807C18.8817 43.2218 13.7506 35.6379 13.4221 27.5396C13.4091 27.2378 13.4042 26.9359 13.4042 26.634L13.4025 26.6389Z" fill="#531139"/>
<path d="M61.3002 80.8229C61.3002 80.6282 61.3896 80.4351 61.5587 80.3101C63.2079 79.0962 64.33 77.16 64.561 75.1282C64.6 74.7792 64.9172 74.5277 65.2668 74.5683C65.6165 74.6088 65.8702 74.9253 65.8279 75.2726C65.5579 77.6502 64.2439 79.9157 62.315 81.3358C62.032 81.5451 61.6319 81.4851 61.4238 81.2011C61.3392 81.0875 61.2985 80.956 61.2985 80.8246L61.3002 80.8229Z" fill="#531139"/>
<path d="M56.7708 23.247C56.7708 22.8494 56.8358 22.4583 56.9676 22.0915C57.6165 20.282 59.8039 19.2108 61.6482 19.8C63.4844 20.3858 64.644 22.468 64.187 24.349C63.9674 25.2448 63.3526 26.0043 62.4565 26.4863C61.44 27.0333 60.1861 27.1517 59.1859 26.7963C58.3175 26.488 57.5742 25.7966 57.1497 24.8991C56.8993 24.3717 56.7724 23.8037 56.7724 23.2486L56.7708 23.247ZM63.0111 23.5034C63.0111 22.4258 62.2858 21.3417 61.2595 21.0139C60.0625 20.6309 58.5891 21.3498 58.1678 22.5216C57.9662 23.0831 58.015 23.7517 58.3012 24.3538C58.5826 24.9478 59.0623 25.4006 59.6137 25.597C60.2756 25.8323 61.1538 25.7414 61.8515 25.3665C62.4256 25.0582 62.8143 24.5892 62.9477 24.0471C62.9916 23.8686 63.0127 23.6852 63.0127 23.5034L63.0111 23.5034Z" fill="#531139"/>
<path d="M26.4458 24.2207C26.4458 23.8231 26.5109 23.432 26.6426 23.0652C27.2915 21.2557 29.479 20.1846 31.3233 20.7737C33.1594 21.3612 34.3222 23.4434 33.862 25.3227C33.6424 26.2185 33.0277 26.9781 32.1316 27.4601C31.1151 28.007 29.8612 28.1254 28.861 27.77C27.9925 27.4617 27.2493 26.7703 26.8248 25.8729C26.5743 25.3454 26.4474 24.7774 26.4474 24.2224L26.4458 24.2207ZM32.6861 24.4755C32.6861 23.3979 31.9608 22.3138 30.9346 21.986C29.7376 21.603 28.2641 22.3219 27.8429 23.4937C27.6412 24.0568 27.6884 24.7238 27.9762 25.3259C28.2576 25.9199 28.7374 26.3727 29.2887 26.5691C29.9506 26.8044 30.8289 26.7135 31.5266 26.3386C32.1007 26.0303 32.4894 25.5613 32.6227 25.0192C32.6666 24.8407 32.6878 24.6573 32.6878 24.4739L32.6861 24.4755Z" fill="#531139"/>
<path d="M59.7535 14.4022C59.7535 14.3876 59.7535 14.3714 59.7552 14.3567C59.7795 14.0062 60.0853 13.7417 60.4366 13.7676C62.1117 13.8861 63.7348 14.7397 64.779 16.0511C64.9969 16.3253 64.953 16.7262 64.6765 16.9453C64.4 17.1644 63.9999 17.1189 63.7804 16.843C62.9542 15.806 61.671 15.1309 60.3471 15.0367C60.0105 15.0124 59.7535 14.7333 59.7535 14.4022Z" fill="#531139"/>
<path d="M25.2944 17.1369C25.2944 17.0054 25.3351 16.8723 25.4197 16.7587C26.5386 15.2527 28.4008 14.3471 30.2792 14.3941C30.6305 14.4023 30.9151 14.7041 30.9005 15.0466C30.8923 15.3987 30.5996 15.6762 30.2467 15.6665C28.7764 15.6292 27.3193 16.3384 26.4426 17.5166C26.2329 17.799 25.8328 17.8574 25.5514 17.6481C25.3823 17.5231 25.2928 17.3316 25.2928 17.1369L25.2944 17.1369Z" fill="#531139"/>
</g>
</svg>
