<svg width="154" height="96" viewBox="0 0 154 96" fill="none" xmlns="http://www.w3.org/2000/svg">
<path d="M115.698 85.0415C115.389 88.6583 112.847 91.8458 109.638 93.5309C106.429 95.216 102.65 95.5442 99.053 95.1131C95.4563 94.6821 91.9888 93.5344 88.5514 92.3957C73.4566 93.2258 59.3635 85.4938 52.0267 73.3434C47.453 78.6133 41.6897 82.6274 35.2822 84.5874C33.9051 85.0096 32.3192 85.3129 31.0996 84.5466C29.4765 83.5267 29.3703 81.2261 29.5579 79.314C30.1774 72.9691 32.0076 66.7466 34.9211 61.0812C26.2373 61.2639 17.8704 55.1709 14.5604 47.0239C11.2504 38.8768 12.6983 29.2008 17.4332 21.7935C22.168 14.3861 29.8907 9.17472 38.2612 6.52467C36.8044 4.2826 34.6167 2.91677 32.5528 2.9895C34.3636 1.89684 36.5796 1.49597 38.6559 1.8862C40.7339 2.27644 42.6526 3.45425 43.7872 5.64843C43.8262 3.82143 43.0757 1.99264 41.9128 0.694222C45.1714 1.17669 48.2477 2.821 50.8744 5.57037C54.3773 3.2538 59.2361 4.07861 62.7124 6.43598C66.1888 8.79335 68.589 12.3959 70.8988 15.9063C72.9769 19.0636 75.0567 22.221 77.1559 24.91C83.4342 23.4094 89.3019 20.2237 93.9837 15.7732C94.7377 15.0548 95.4793 14.2939 96.4033 13.8167C97.3272 13.3396 98.499 13.1941 99.3876 13.7351C101.051 14.748 100.733 17.2259 100.154 19.0884C98.6565 23.8989 96.8281 28.6048 94.2031 33.0038C99.7256 31.9715 104.88 29.0642 108.627 24.871C110.898 22.3292 113.155 19.0618 116.555 18.9217C119.573 18.7958 122.017 21.2649 123.876 23.6524C131.169 33.0287 136.114 44.7002 135.445 56.5686C134.776 68.4389 127.699 80.2683 115.697 85.0433L115.698 85.0415Z" fill="#FFD26F"/>
<path d="M12.7054 33.7204L4.09773 32.3777C3.54193 32.2907 2.94897 32.2091 2.43566 32.4397C1.4409 32.8867 1.25859 34.2082 1.29045 35.2991C1.41081 39.4569 2.64099 43.6944 5.36861 46.8305C8.09624 49.9666 12.4576 51.8149 16.4526 50.7754C15.1427 50.3355 14.4949 48.8863 14.079 47.5666C12.6665 43.0807 12.1974 38.2986 12.7054 33.7204Z" fill="#F58359"/>
<path d="M33.8237 39.6236C30.9722 38.5221 27.5295 39.2422 25.2922 41.33C23.0548 43.4177 22.0902 46.7489 22.7752 49.7342C23.6425 53.5106 27.195 56.519 31.0572 56.6644C34.9212 56.8099 38.7232 54.0162 39.6684 50.2593C40.6136 46.5024 38.8294 41.5553 33.822 39.6236H33.8237Z" fill="#F58359"/>
<path d="M130.535 80.8944C129.099 85.4105 128.82 90.2902 129.729 94.9428C131.137 92.6351 133.884 91.2214 136.574 91.4165C136.739 90.1678 137.541 89.0769 138.528 88.2982C139.516 87.5195 140.682 87.0104 141.835 86.5102C139.353 85.8965 136.964 84.9138 134.769 83.603C134.22 83.2748 133.671 82.9147 133.289 82.4021C132.907 81.8895 132.719 81.1871 130.535 80.8944Z" fill="#F58359"/>
<path d="M146.888 55.1922C144.847 59.7526 142.807 64.3148 140.766 68.8752C142.428 67.4313 145.38 67.9812 146.417 69.9253C146.704 68.6517 147.665 67.614 148.78 66.94C149.896 66.2659 151.168 65.9059 152.421 65.5511C149.611 62.7982 147.798 59.0413 146.888 55.1922Z" fill="#F58359"/>
<path d="M115.937 79.1135C124.793 75.158 131.946 67.5307 135.339 58.4293C135.346 64.2669 133.063 69.982 129.492 74.5939C125.922 79.2058 121.12 82.764 115.925 85.4016C116.534 83.1524 116.676 80.7756 115.939 79.1135H115.937Z" fill="#D1A037"/>
<path d="M83.3139 88.3603C74.4549 87.7501 65.7357 85.2012 57.9387 80.9423C66.1464 89.0556 77.9631 93.3571 89.4524 92.4134C87.2239 90.8915 85.2698 88.4933 83.3139 88.3603Z" fill="#D1A037"/>
<path d="M1.98254 39.0294C2.42859 41.4382 4.03578 43.6022 6.20939 44.7232C8.38299 45.8443 11.0734 45.8957 13.2895 44.8616C13.8524 47.031 14.8383 49.0885 16.1765 50.8836C13.394 51.8149 10.2398 50.818 7.9688 48.9591C5.69608 47.1001 4.16854 44.4927 1.98431 39.0312L1.98254 39.0294Z" fill="#D1704B"/>
<path d="M5.80408 34.0823C5.16333 34.0699 4.46062 33.7949 3.84819 34.0273C2.71537 34.4495 3.08354 36.225 4.28362 36.1984C5.35272 36.1984 7.71218 36.7909 7.60421 35.0792C7.52632 34.1745 6.4997 34.1586 5.80408 34.0823Z" fill="#FECA8B"/>
<path d="M9.81314 34.8947C8.66085 34.8982 8.66262 36.6561 9.81314 36.6632C10.9654 36.6596 10.9637 34.9018 9.81314 34.8947Z" fill="#FECA8B"/>
<path d="M34.9795 42.334C34.6503 41.4134 33.5281 41.1012 32.6749 40.8564C31.9917 40.7872 31.2253 40.5442 30.5651 40.7872C29.3278 41.2484 29.7314 43.1854 31.0412 43.157C32.5316 43.3184 31.9404 43.102 33.1865 43.7175C34.0839 44.2869 35.2928 43.3504 34.9813 42.3357L34.9795 42.334Z" fill="#FECA8B"/>
<path d="M37.4771 44.2851C36.5035 43.3042 34.8928 44.5512 35.5955 45.7396C36.546 47.3112 38.7196 45.635 37.4771 44.2851Z" fill="#FECA8B"/>
<path d="M130.149 86.5386C130.213 87.1701 130.064 87.9275 130.558 88.4153C131.091 88.9758 132.078 88.8374 132.457 88.1705C132.701 87.7643 132.609 87.2747 132.622 86.8242C132.836 85.0185 130.264 84.7258 130.147 86.5404L130.149 86.5386Z" fill="#FECA8B"/>
<path d="M144.313 62.0621C143.608 63.827 145.922 64.8788 146.609 63.1086C147.334 61.3561 144.993 60.2847 144.313 62.0621Z" fill="#FECA8B"/>
<path d="M61.5319 12.4527C61.1903 11.6634 60.3991 11.1401 59.7919 10.5565C57.9865 8.86785 55.6766 7.93307 53.2623 7.54816C52.9454 7.45947 52.595 7.50558 52.31 7.67231C51.3825 8.17607 51.5772 9.68557 52.6056 9.93567C54.9987 10.3259 56.659 11.0922 57.8077 12.0926C58.691 12.7986 58.4857 12.6443 59.5477 13.4496C59.8574 13.6181 60.0026 14.0455 60.8911 13.7653C61.4098 13.5826 61.6717 12.9706 61.5337 12.4509L61.5319 12.4527Z" fill="#FFE0A3"/>
<path d="M66.0048 17.7918C65.7286 16.0286 63.1656 16.4703 63.5533 18.2157C63.8294 19.9789 66.3924 19.5372 66.0048 17.7918Z" fill="#FFE0A3"/>
<path d="M35.3317 68.9107C34.5104 70.2854 34.3334 70.8902 33.8307 72.8166C33.7493 73.4303 33.4378 74.115 33.7688 74.6968C34.2308 75.5535 35.6185 75.3726 35.8468 74.4254C36.199 73.3079 36.5123 72.1744 36.946 71.0836C37.1407 70.6082 37.5531 70.2162 37.6115 69.7C37.8469 68.3963 35.9689 67.7613 35.3317 68.9107Z" fill="#FFE0A3"/>
<path d="M100.207 87.5018C99.3114 86.8951 97.9343 86.8916 96.8971 86.512C96.6298 86.4641 95.4651 86.0721 95.5112 86.1058C94.5606 85.7102 94.527 85.7457 93.2898 85.0628C92.6667 84.7755 92.1056 84.2664 91.4295 84.1351C90.1285 83.8992 89.493 85.7794 90.6418 86.4198C91.9569 87.1577 93.2668 87.9204 94.6987 88.4135C96.1431 88.8853 97.6387 89.1833 99.1468 89.3625C100.209 89.6551 101.002 88.2805 100.209 87.5L100.207 87.5018Z" fill="#FFE0A3"/>
<path d="M107.622 86.6965C106.995 86.4339 105.942 86.3169 105.423 86.8455C104.646 87.5727 105.234 88.9935 106.296 88.958C106.839 89.0077 107.463 89.0858 107.87 88.6405C108.44 88.096 108.3 87.0849 107.62 86.6965H107.622Z" fill="#FFE0A3"/>
<path d="M114.707 94.1819C113.535 94.1819 112.36 94.0577 111.206 93.8041C110.831 93.7225 110.595 93.3517 110.677 92.9757C110.758 92.5996 111.128 92.3655 111.503 92.4453C115.431 93.3092 119.616 92.5411 122.982 90.3416C126.299 88.1758 128.749 84.591 129.705 80.5059C129.791 80.1317 130.165 79.9029 130.538 79.988C130.912 80.0749 131.144 80.4492 131.055 80.8234C130.018 85.2526 127.352 89.1461 123.74 91.507C121.053 93.263 117.888 94.1836 114.705 94.1836L114.707 94.1819Z" fill="#531139"/>
<path d="M87.1514 93.4014C73.1398 93.4014 59.2273 85.8645 51.6462 74.0458C48.0212 78.553 43.2332 82.223 38.0701 84.4402C36.8346 84.9706 35.3619 85.5133 33.806 85.5151H33.7972C32.0431 85.5151 30.4784 84.7843 29.6093 83.5551C28.5402 82.0438 28.6605 80.098 28.9207 78.3933C29.8181 72.5061 31.8962 66.8832 33.9777 61.4377C33.9264 61.4377 33.8768 61.4377 33.8255 61.4377C25.1842 61.4377 16.8155 55.5682 13.6046 47.0912C10.592 39.134 11.9373 29.2593 17.1181 21.3199C21.5556 14.5191 28.6623 9.0399 37.1992 5.81869C36.0292 4.53092 34.337 3.71319 32.6006 3.63337C32.2856 3.61918 32.0201 3.39392 31.9546 3.08528C31.8873 2.77841 32.036 2.46268 32.3157 2.31901C35.723 0.57005 40.1198 1.16604 43.0509 3.58195C42.7925 2.62232 42.1376 1.75848 41.249 1.32922C40.9623 1.19086 40.8065 0.873362 40.872 0.561175C40.9357 0.248988 41.2048 0.0219434 41.5216 0.00775309C44.8741 -0.128829 48.246 1.55273 50.6426 4.5398C56.004 2.20017 62.2841 4.75086 66.2295 8.42261C69.3112 11.2873 71.5591 14.9005 73.7327 18.3949C74.4974 19.6259 75.2904 20.8977 76.1028 22.1092C79.9721 27.8864 83.9653 31.1892 88.3125 32.2109C92.0933 33.0996 96.4812 32.2677 100.669 29.8677C104.356 27.7552 107.441 24.8 110.806 21.4369C112.208 20.0356 114.327 17.9195 116.982 17.8397C119.996 17.7616 122.262 20.1616 123.919 22.2688C132.466 33.1439 136.912 45.2554 136.438 56.3717C135.872 69.6556 127.703 81.6216 116.571 85.4708C116.208 85.5949 115.814 85.4034 115.688 85.0397C115.562 84.6761 115.755 84.2806 116.118 84.1546C126.722 80.4882 134.509 69.0384 135.05 56.3097C135.51 45.525 131.169 33.7417 122.826 23.1273C121.371 21.2755 119.378 19.1381 117.021 19.2285C115.075 19.2853 113.435 20.77 111.783 22.4196C108.346 25.8537 105.19 28.8762 101.354 31.0721C96.86 33.6459 92.1145 34.5293 87.9921 33.5626C83.2874 32.4575 79.0198 28.9631 74.947 22.8808C74.1221 21.648 73.3238 20.3673 72.5521 19.1274C70.4263 15.7111 68.2279 12.1777 65.2826 9.44076C61.5584 5.97655 55.6199 3.57661 50.7417 6.02621C50.4408 6.17699 50.0744 6.08831 49.8726 5.81692C48.2088 3.56243 45.9626 2.06181 43.6103 1.56692C44.4032 2.66845 44.7502 4.09457 44.4563 5.44265C44.3997 5.7034 44.1979 5.90915 43.9377 5.97124C43.6775 6.03332 43.4067 5.93931 43.2386 5.73355C41.357 3.40634 38.1568 2.31368 35.2274 2.80502C36.7071 3.39924 38.017 4.42804 38.909 5.74951C39.0294 5.92689 39.0613 6.15217 38.9922 6.35616C38.925 6.56014 38.7674 6.72333 38.5639 6.79428C29.9102 9.86294 22.7061 15.289 18.2775 22.0755C13.3356 29.6496 12.0417 39.0436 14.9003 46.5928C18.051 54.9119 26.4887 60.5472 34.953 60.0045C35.1884 59.9974 35.4168 60.0949 35.5566 60.2865C35.6964 60.478 35.7301 60.7264 35.6451 60.9481C33.468 66.6295 31.2182 72.5026 30.2872 78.5973C30.0695 80.0252 29.9527 81.6358 30.7368 82.7427C31.3368 83.5888 32.5068 84.1156 33.7919 84.1156H33.799C35.1052 84.1138 36.4133 83.6278 37.5196 83.1542C42.7642 80.9033 47.6052 77.0861 51.1524 72.4086C51.2922 72.2259 51.5064 72.1265 51.7418 72.1336C51.9719 72.146 52.179 72.2702 52.2994 72.4671C59.9176 85.0504 74.8868 92.8639 89.5427 91.9256C89.9356 91.9149 90.256 92.1917 90.2808 92.5748C90.3056 92.9579 90.0153 93.2896 89.6329 93.3145C88.8063 93.3677 87.9762 93.3943 87.1478 93.3943L87.1514 93.4014Z" fill="#531139"/>
<path d="M103.307 95.3579C102.303 95.3579 101.308 95.3082 100.349 95.2461C97.1858 95.0422 93.5253 94.7317 90.1304 93.616C87.5107 92.754 83.8981 91.0103 81.5617 87.5976C81.3439 87.2818 81.4254 86.849 81.7404 86.6308C82.0573 86.4127 82.4892 86.4943 82.7051 86.81C84.8221 89.9017 88.1462 91.4981 90.5623 92.2928C93.8015 93.3588 97.2158 93.6497 100.436 93.8573C103.93 94.0825 107.578 94.1482 110.397 92.3034C112.468 90.95 114.013 88.5394 114.748 85.5151C115.422 82.7374 115.387 79.7946 115.352 76.9477C115.346 76.5628 115.654 76.2488 116.037 76.2435H116.045C116.424 76.2435 116.734 76.5486 116.739 76.93C116.775 79.8638 116.814 82.897 116.097 85.8451C115.277 89.2153 113.523 91.9238 111.155 93.4706C108.833 94.9889 106.032 95.3596 103.303 95.3596L103.307 95.3579Z" fill="#531139"/>
<path d="M129.857 95.9982C129.848 95.9982 129.839 95.9982 129.829 95.9982C129.526 95.9858 129.268 95.7801 129.186 95.4874C127.853 90.6432 128.131 85.4016 129.972 80.7259C130.052 80.5219 130.223 80.3676 130.436 80.3108C130.646 80.2523 130.873 80.2984 131.046 80.435C134.62 83.2411 138.256 84.9759 141.849 85.5914C142.138 85.6411 142.362 85.8646 142.415 86.1519C142.467 86.4393 142.334 86.7302 142.083 86.8774C140.521 87.7909 139.105 88.9261 137.877 90.2529C137.435 90.7301 137.249 91.2391 137.378 91.3757C137.594 91.6028 137.631 91.9469 137.468 92.2165C137.305 92.4861 136.983 92.6103 136.682 92.5234C134.229 91.8103 131.347 93.2222 130.51 95.5406C130.411 95.8155 130.149 96 129.857 96V95.9982ZM130.946 82.1041C129.696 85.7315 129.416 89.6711 130.135 93.4351C131.494 91.7624 133.774 90.7762 135.965 90.9784C136.043 90.4427 136.344 89.8609 136.859 89.3057C137.794 88.2982 138.826 87.3918 139.946 86.6007C136.932 85.8167 133.914 84.3089 130.946 82.1041Z" fill="#531139"/>
<path d="M146.794 71.0162C146.462 71.0162 146.173 70.7785 146.113 70.4485C145.929 69.4641 145.086 68.602 144.106 68.4016C143.125 68.1994 142.014 68.6606 141.458 69.4925C141.26 69.7887 140.87 69.888 140.557 69.7213C140.242 69.5546 140.104 69.1767 140.238 68.8468L143.812 59.9654C141.461 61.9663 138.45 63.2079 135.385 63.2807C134.981 63.286 134.684 62.9844 134.675 62.6013C134.666 62.2164 134.969 61.8989 135.353 61.89C139.367 61.796 143.276 59.4652 145.391 56.0471L145.761 55.1283C145.823 54.974 145.934 54.8552 146.069 54.7807C146.113 54.6831 146.155 54.5855 146.196 54.488C146.322 54.19 146.639 54.0179 146.954 54.0729C147.272 54.1279 147.511 54.3957 147.529 54.7186C147.757 58.7291 149.837 62.5233 153.092 64.87C153.342 65.0491 153.443 65.372 153.344 65.6629C153.243 65.9538 152.947 66.1524 152.659 66.1311C150.189 66.0283 147.839 67.9918 147.487 70.4273C147.437 70.7643 147.154 71.0162 146.814 71.0233H146.8L146.794 71.0162ZM143.633 66.9613C143.884 66.9613 144.136 66.9861 144.384 67.0376C145.281 67.222 146.088 67.7417 146.662 68.4513C147.504 66.7431 149.127 65.4128 150.966 64.9267C148.704 62.8567 147.118 60.0949 146.458 57.1008L142.414 67.1529C142.808 67.0269 143.221 66.9613 143.635 66.9613H143.633Z" fill="#531139"/>
<path d="M94.474 33.371C94.3377 33.371 94.1997 33.3302 94.0793 33.2468C93.7642 33.0287 93.6846 32.5958 93.9041 32.2801C96.9574 27.8563 99.0974 22.7247 100.096 17.4406C100.255 16.5963 100.501 14.5724 99.3522 14.0225C98.3893 13.5613 97.1238 14.5138 96.1272 15.3918C90.7605 20.1279 84.2822 23.6542 77.3967 25.5876C77.0286 25.6905 76.6445 25.4741 76.5418 25.1051C76.4391 24.7362 76.6533 24.3513 77.0232 24.2484C83.7104 22.3717 89.9994 18.9483 95.2121 14.3489C96.0582 13.6021 98.0389 11.8531 99.9523 12.7684C101.375 13.4478 101.926 15.2464 101.462 17.6996C100.428 23.1735 98.2106 28.4895 95.0493 33.0712C94.9148 33.2663 94.6988 33.371 94.4776 33.371H94.474Z" fill="#531139"/>
<path d="M14.5179 51.9373C10.8681 51.9373 7.09972 50.0907 4.55972 46.9582C2.06397 43.8807 0.665638 39.5846 0.619617 34.861C0.614307 34.3147 0.598378 32.6508 1.83209 31.9502C2.54719 31.544 3.37556 31.6664 3.9225 31.7462L13.0877 33.1067C13.4665 33.1635 13.7285 33.5165 13.6736 33.8961C13.617 34.2756 13.2665 34.5328 12.886 34.4832L3.72072 33.1227C3.22688 33.0499 2.79676 33.0003 2.5171 33.1599C2.17017 33.3568 1.99848 33.9244 2.00733 34.8468C2.04981 39.2564 3.33662 43.2457 5.6359 46.0802C8.26263 49.3192 12.3196 51.0291 15.9747 50.4295C16.3535 50.3692 16.7092 50.6264 16.7712 51.0043C16.8331 51.3838 16.5765 51.7422 16.1977 51.8025C15.6437 51.8929 15.0808 51.9373 14.5162 51.9373H14.5179Z" fill="#531139"/>
<path d="M26.3647 36.2729C26.1382 36.2729 25.9169 36.1629 25.7824 35.9572L23.0565 31.7799C22.9344 31.5919 22.9096 31.356 22.9911 31.1467C23.0725 30.9374 23.2495 30.7813 23.4672 30.7245L28.857 29.3569C29.2269 29.2647 29.6057 29.4882 29.6995 29.8607C29.7933 30.2332 29.5685 30.611 29.1968 30.705L24.7505 31.8331L26.9453 35.1962C27.1559 35.5173 27.0657 35.9483 26.7435 36.1594C26.6267 36.2357 26.494 36.2729 26.3647 36.2729Z" fill="#531139"/>
<path d="M37.5957 24.6528C37.3249 24.6528 37.0664 24.4932 36.9549 24.2253C36.2682 22.581 34.6893 21.3305 32.9334 21.0396C32.5546 20.9775 32.2997 20.6192 32.3617 20.2396C32.4236 19.86 32.7776 19.601 33.16 19.6667C35.3743 20.0339 37.3656 21.6125 38.2347 23.6879C38.3834 24.0426 38.217 24.4506 37.863 24.5978C37.7745 24.6351 37.6842 24.6528 37.5957 24.6528Z" fill="#531139"/>
</svg>
