<svg xmlns="http://www.w3.org/2000/svg" width="98" height="98" viewBox="0 0 98 98" fill="none">
<g clip-path="url(#clip0_719_2512)">
<path d="M89.2544 95.1857C92.7988 94.2721 99.8476 91.1172 97.5481 85.2497C95.5315 80.1036 82.2857 76.5944 76.111 75.9677C64.6564 74.8051 50.4964 74.6167 40.1071 79.5813C30.6857 84.0832 32.1481 93.4785 44.6086 96.4322C58.75 96.0681 73.4017 99.2708 89.2544 95.1857Z" fill="#E3EEF1"/>
</g>
<path d="M55.6165 76.5925C55.441 76.5925 55.2729 76.497 55.187 76.3305C54.3343 74.6627 53.8853 72.7917 53.8902 70.9182C53.8902 70.6537 54.1061 70.4394 54.3711 70.4394H54.3724C54.6374 70.4394 54.8521 70.6561 54.8521 70.9206C54.8472 72.641 55.2594 74.3615 56.0434 75.8933C56.1637 76.1296 56.0704 76.4186 55.8336 76.5399C55.7637 76.5754 55.6889 76.5925 55.6152 76.5925H55.6165Z" fill="#531139"/>
<path d="M80.6004 0.628117C80.9072 2.68895 79.8201 4.88571 77.8521 6.35878C72.5015 2.85181 65.5485 1.89548 59.1181 4.16815C53.4742 5.94 48.6659 10.2 46.2317 15.5805C43.7974 20.961 43.7766 27.3786 46.2599 32.8166C44.4563 34.0913 42.957 35.7909 41.7534 37.4807C38.4284 39.6848 36.6223 43.5395 35.3451 47.3134C34.993 48.3543 34.6642 49.4245 34.6593 50.5229C34.6531 51.6212 35.0114 52.7698 35.8383 53.4947C36.6653 54.2209 38.01 54.3947 39.2271 53.4984C41.5313 61.2985 47.5371 67.9206 55.6165 70.9929C61.6321 73.2423 68.287 73.8104 74.575 72.4965C80.863 71.1826 86.7584 67.9757 91.1864 63.3312C92.1753 62.294 93.1262 61.1172 93.3765 59.7066C93.6268 58.2972 92.9286 56.627 91.6195 56.207C87.886 54.1302 85.0837 50.4494 83.4653 46.0522C90.4821 41.9416 94.7592 33.5917 94.0537 26.1896C93.5532 20.7283 91.2183 15.4495 87.2504 11.3817C87.9853 10.2307 88.2528 8.79064 87.978 7.45349C87.7032 6.11633 86.8922 4.89673 85.7621 4.12652C85.4235 5.81878 84.2628 7.32736 82.712 8.09145C83.9193 5.64612 83.166 2.39997 80.6017 0.626892L80.6004 0.628117Z" fill="#FFD26F"/>
<path d="M55.5318 75.8847C54.8889 78.6986 53.1835 81.2578 50.8315 82.9366C53.662 82.557 56.6446 83.5464 58.685 85.5412C59.8175 83.4032 61.6984 81.6693 63.9228 80.7117C60.9033 80.0468 58.0728 78.5517 55.5318 75.886V75.8847Z" fill="#F58359"/>
<path d="M70.0256 78.5823C68.5741 80.948 66.3165 82.8105 63.7155 83.7864C65.8258 83.9738 67.7447 85.5485 68.3373 87.5787C70.5151 86.1081 73.1346 85.2987 75.7627 85.284C74.0671 83.1277 72.3714 80.9713 70.0256 78.5811V78.5823Z" fill="#F58359"/>
<path d="M68.0134 34.3729C67.7471 32.7994 66.2405 31.6888 64.6896 31.3006C63.1388 30.9113 61.5119 31.0766 59.9132 31.079C58.3096 31.0815 56.7072 30.9162 55.138 30.588C54.246 30.4006 53.181 30.2084 52.5357 30.8513C51.9075 31.4782 52.0756 32.5264 52.3737 33.3615C53.5025 36.5244 55.8606 39.1754 58.7096 40.9607C61.5585 42.7461 64.8774 43.7012 68.2232 44.0502C69.1728 44.1493 70.1851 44.1897 71.0267 43.7391C71.8684 43.2897 72.4254 42.1816 71.9616 41.3489C71.65 40.7893 71.001 40.5199 70.5372 40.0779C70.0575 39.6199 69.79 38.9881 69.5348 38.3746C68.9937 37.0729 68.2563 35.8178 68.0122 34.3729H68.0134Z" fill="#F58359"/>
<path d="M45.4943 18.3907C48.5543 19.2038 50.9603 22.0446 51.256 25.1904C51.5517 28.3361 49.7149 31.5737 46.8255 33.086C43.741 29.0537 43.211 23.2349 45.4943 18.3895V18.3907Z" fill="#F58359"/>
<path d="M88.708 40.9093C86.5425 38.5448 82.7255 37.8909 79.8937 39.3983C77.062 40.9056 75.4805 44.4346 76.2657 47.7139C81.2409 47.5608 86.0799 44.9355 88.7068 40.9093H88.708Z" fill="#F58359"/>
<path d="M59.4973 14.8091C58.2679 14.4111 56.7968 14.9854 56.1649 16.1107C55.5331 17.236 55.8103 18.7875 56.7907 19.6262C57.7305 20.4295 59.2212 20.503 60.2347 19.7965C61.2481 19.0887 61.6898 17.6646 61.2518 16.5099C61.0076 15.8695 60.5794 15.1605 59.496 14.8103L59.4973 14.8091Z" fill="#531139"/>
<path d="M81.3624 29.7345C80.2888 29.2729 78.9539 29.4859 78.0865 30.2684C77.2191 31.0509 76.8743 32.3647 77.2559 33.4668C77.6387 34.5688 78.7319 35.3917 79.8999 35.4407C81.0679 35.4897 82.2323 34.7562 82.6789 33.6786C83.1255 32.5998 83.2924 30.5659 81.3624 29.7345Z" fill="#531139"/>
<path d="M49.7824 35.2876C44.0576 37.2738 39.6185 42.5587 38.6591 48.5306C39.2848 42.5722 41.8884 36.8378 45.9667 32.4407C46.9899 33.2501 48.0255 35.3121 49.7837 35.2876H49.7824Z" fill="#D9B871"/>
<path d="M52.435 32.7676C51.6805 34.095 51.7811 35.7799 52.37 37.1893C52.9589 38.5974 53.9834 39.7779 55.046 40.875C56.3416 42.2122 57.7403 43.4808 59.3795 44.3624C63.0235 46.3228 67.7471 46.0926 71.1322 43.7514C68.3582 44.562 65.4025 43.6252 62.6848 42.642C61.1168 42.075 59.5402 41.4811 58.1513 40.5591C56.6594 39.5697 55.4361 38.2362 54.2276 36.9162C53.4289 36.0431 52.6031 35.1235 52.4338 32.7676H52.435Z" fill="#D9B871"/>
<path d="M90.9091 55.4833C90.4086 60.8344 87.3694 65.8928 82.8777 68.8549C87.1057 67.732 90.8613 64.9316 93.1397 61.203C93.6464 60.374 94.0955 59.4164 93.9053 58.465C93.6133 56.9993 92.0134 56.2499 90.9091 55.4833Z" fill="#D9B871"/>
<path d="M73.18 54.216C73.3076 57.6837 74.5738 61.1013 76.7356 63.8185C77.6387 64.9536 79.019 66.0569 80.4029 65.6185C81.6998 65.2071 82.2262 63.6948 82.6126 62.3724C81.8851 63.4671 80.1968 63.5185 79.0729 62.8352C77.9491 62.1519 77.2571 60.9581 76.6117 59.8132C75.4756 57.7989 74.3407 55.7845 73.1788 54.216H73.18Z" fill="#D9B871"/>
<path d="M59.2629 40.8579C60.842 41.9624 62.8321 42.4681 64.7485 42.2514C66.665 42.0346 68.4907 41.0967 69.7826 39.6677C70.374 40.0264 70.9813 40.3975 71.396 40.9497C71.8107 41.502 71.9948 42.2856 71.661 42.8918C71.3003 43.5481 70.4832 43.7881 69.7421 43.8995C66.6871 44.3563 63.4664 43.6057 59.2629 40.8591V40.8579Z" fill="#D1704B"/>
<path d="M63.0897 32.8607C62.767 32.5411 62.2664 32.5937 61.8468 32.5349C61.4248 32.5068 61.0027 32.5349 60.5831 32.5851C60.2518 32.6243 59.8801 32.606 59.6359 32.8717C59.0973 33.3737 59.5034 34.3546 60.2408 34.3301C60.8604 34.2578 61.4849 34.1905 62.1082 34.2652C62.1266 34.2676 62.1388 34.2688 62.1523 34.2701C62.1867 34.275 62.221 34.2811 62.2554 34.286C62.5756 34.3754 62.967 34.2627 63.1547 33.9799C63.432 33.6627 63.378 33.1509 63.0873 32.8594L63.0897 32.8607Z" fill="#FECA8B"/>
<path d="M57.5538 32.7394C56.4226 32.1504 55.6803 33.9052 56.8949 34.3007C57.8532 34.5701 58.4139 33.2402 57.5538 32.7394Z" fill="#FECA8B"/>
<path d="M91.3054 21.0552C91.049 20.0965 90.611 19.1989 90.1914 18.3026C89.9914 17.9095 89.8662 17.3842 89.3767 17.2691C88.6688 17.0487 88.0148 17.896 88.4099 18.5242C89.0147 19.8026 89.3706 20.5434 89.73 21.4655C90.0564 22.0348 90.1178 23.3169 90.9864 23.2091C91.9937 23.0487 91.4257 21.7091 91.3054 21.0565V21.0552Z" fill="#FFE0A3"/>
<path d="M90.7374 26.3255C90.6674 27.4888 92.417 27.5549 92.4453 26.3928C92.5177 25.2296 90.7644 25.1634 90.7374 26.3255Z" fill="#FFE0A3"/>
<path d="M57.7796 79.2154C56.9821 78.4954 55.9919 79.7248 56.8864 80.3186C57.6888 81.0264 58.6691 79.8117 57.7796 79.2154Z" fill="#FECA8B"/>
<path d="M72.1997 82.2387C71.8647 81.8542 71.5997 81.2395 71.0095 81.2505C70.2734 81.2248 69.8673 82.2056 70.4047 82.7089C70.7053 83.0334 70.9776 83.5097 71.477 83.495C72.1027 83.5073 72.5297 82.7726 72.1997 82.2387Z" fill="#FECA8B"/>
<path d="M77.1859 48.3616C75.9173 48.3616 74.7137 48.113 73.6278 47.6073C73.3874 47.4947 73.2831 47.2094 73.3947 46.9694C73.5076 46.7294 73.7935 46.6265 74.0339 46.7367C76.9307 48.0873 80.8189 47.3575 84.4322 44.7873C89.6184 41.0991 92.9913 35.1125 93.4538 28.7733C93.9176 22.434 91.4515 16.0225 86.8554 11.6217C86.756 11.5262 86.702 11.3927 86.7081 11.2556C86.7143 11.1184 86.7781 10.9898 86.8848 10.9029C87.4971 10.4058 87.794 9.07718 87.5768 7.81227C87.3964 6.76899 86.8787 5.80286 86.1217 5.07061C85.6837 6.71756 84.4911 8.14533 82.9194 8.8384C82.7206 8.92534 82.4875 8.87024 82.3513 8.70126C82.2151 8.5335 82.2078 8.29472 82.3341 8.11839C82.955 7.25634 83.1549 6.08205 82.8985 4.80979C82.6445 3.54733 81.9783 2.38038 81.0569 1.53303C81.0679 3.55958 79.9907 5.58368 78.2386 6.63675C78.0816 6.73103 77.8853 6.72859 77.7307 6.6294C71.2672 2.48814 62.4247 2.23099 55.7294 5.98654C49.0328 9.74208 44.6575 17.4148 44.8416 25.0777C44.9275 28.668 46.2955 33.1533 49.8781 34.9766C50.1149 35.0966 50.2094 35.3856 50.0879 35.6219C49.9677 35.8582 49.6781 35.9525 49.4413 35.8313C45.482 33.817 43.9729 28.9668 43.8797 25.0998C43.6883 17.0915 48.261 9.0735 55.2582 5.14898C62.1658 1.27466 71.2586 1.48895 77.9883 5.65592C79.5735 4.55632 80.4103 2.47222 79.9895 0.584039C79.9478 0.395466 80.0226 0.20077 80.1796 0.0893405C80.3367 -0.0220891 80.5465 -0.0306606 80.7109 0.070973C82.2936 1.04078 83.4641 2.74161 83.8433 4.62122C84.0187 5.48939 84.0126 6.32695 83.8334 7.08614C84.6506 6.30981 85.2064 5.24327 85.3205 4.13387C85.3389 3.96489 85.4444 3.81672 85.599 3.74693C85.7536 3.67713 85.9352 3.69305 86.075 3.79101C87.3658 4.69469 88.259 6.10164 88.5265 7.65186C88.7657 9.03799 88.4946 10.4327 87.8639 11.2641C92.444 15.8474 94.8881 22.3838 94.4145 28.8467C93.9311 35.4676 90.4086 41.7199 84.9917 45.5734C82.409 47.4102 79.6729 48.3653 77.1859 48.3653V48.3616Z" fill="#531139"/>
<path d="M66.6466 73.5876C60.2138 73.5876 54.0779 71.7569 49.1518 68.3332C43.2073 64.2006 39.2112 57.7058 38.4615 50.9588C37.664 43.7881 40.6663 36.4509 46.1065 32.2656C46.3176 32.1027 46.6194 32.1431 46.7814 32.3525C46.9433 32.5619 46.904 32.8643 46.6942 33.026C41.5141 37.0117 38.6578 44.0085 39.4185 50.8523C40.1375 57.3274 43.9827 63.5675 49.7027 67.5447C55.0631 71.2696 61.9192 73.0439 68.9974 72.5431C74.2965 72.1672 81.8937 70.7039 88.0013 65.8695C91.1656 63.3642 93.0722 60.7597 93.1004 58.8997C93.1127 58.1417 92.8219 57.5246 92.2134 57.0115C91.8551 56.7103 91.3373 56.3686 90.7374 55.9731C88.1596 54.2735 83.8457 51.4302 83.5647 45.6273C83.5525 45.3628 83.7574 45.1375 84.0224 45.124C84.2641 45.1045 84.5131 45.3163 84.5266 45.5808C84.7831 50.8963 88.6859 53.469 91.2686 55.1711C91.8931 55.5837 92.4342 55.9388 92.8354 56.278C93.6673 56.9784 94.0808 57.8662 94.0648 58.9144C94.0304 61.0903 92.0391 63.8993 88.6013 66.6214C82.301 71.6088 74.5014 73.1149 69.0686 73.5006C68.2588 73.5582 67.4527 73.5864 66.6503 73.5864L66.6466 73.5876Z" fill="#531139"/>
<path d="M37.4101 54.3678C36.8555 54.3678 36.3132 54.2331 35.8568 53.9552C34.8544 53.3429 34.1979 52.1062 34.1427 50.7261C34.0949 49.5298 34.4531 48.3714 34.847 47.2975C36.5168 42.7473 39.0468 38.9342 42.162 36.2697C42.3632 36.0982 42.6674 36.1203 42.8404 36.3223C43.0134 36.5232 42.9901 36.8268 42.7877 36.9995C39.7977 39.5575 37.3634 43.2322 35.75 47.6282C35.3893 48.609 35.0617 49.6584 35.1034 50.6882C35.1464 51.7523 35.6273 52.6902 36.3586 53.136C37.1119 53.5951 38.3143 53.4482 39.0431 52.8115C39.2419 52.6376 39.5461 52.656 39.7216 52.8555C39.897 53.0551 39.8762 53.3588 39.6774 53.5327C39.0505 54.0813 38.2186 54.3678 37.4101 54.3678Z" fill="#531139"/>
<path d="M80.8778 64.1026C80.4729 64.1026 80.0483 63.9912 79.6533 63.772C79.0926 63.4597 78.6668 62.9969 78.2779 62.5487C76.0387 59.9699 74.2008 57.0801 72.8156 53.9576C72.7076 53.7151 72.818 53.4323 73.061 53.3245C73.3027 53.2168 73.5873 53.327 73.6953 53.5694C75.0412 56.6037 76.8277 59.414 79.0055 61.9205C79.3515 62.3197 79.6987 62.6981 80.122 62.9344C80.5281 63.1597 80.9784 63.2075 81.2998 63.0569C81.7329 62.8548 82.009 62.3209 82.1648 61.3793C82.5574 59.0246 82.4396 56.5621 81.8249 54.2551C81.7562 53.9992 81.9096 53.736 82.166 53.6674C82.4225 53.6013 82.6862 53.7519 82.755 54.0078C83.404 56.4446 83.5279 59.0478 83.1132 61.536C82.9783 62.343 82.6863 63.4683 81.7059 63.9263C81.452 64.045 81.1698 64.1038 80.8765 64.1038L80.8778 64.1026Z" fill="#531139"/>
<path d="M58.7955 86.0407C58.6826 86.0407 58.5709 86.0003 58.4838 85.9256C56.3072 84.0742 53.3197 83.2305 50.494 83.6762C50.2585 83.7093 50.0352 83.5746 49.9616 83.3505C49.8892 83.1264 49.9898 82.8827 50.1996 82.775C52.8632 81.4109 54.7073 78.6031 54.8975 75.6215C54.9098 75.4329 55.03 75.27 55.2067 75.2027C55.3834 75.1378 55.5834 75.1782 55.7171 75.3116C58.1305 77.7068 60.8861 79.3537 64.1412 80.3492C64.3338 80.408 64.47 80.5807 64.4811 80.7815C64.4921 80.9823 64.3768 81.1697 64.1915 81.2493C62.0775 82.1566 60.3119 83.7693 59.22 85.7897C59.1513 85.9171 59.0273 86.0077 58.885 86.0346C58.8556 86.0395 58.8261 86.0432 58.7967 86.0432L58.7955 86.0407ZM52.2191 82.6011C54.5282 82.6501 56.8176 83.4338 58.658 84.8334C59.6568 83.195 61.0714 81.8333 62.7425 80.8929C60.1156 79.9403 57.809 78.5456 55.7404 76.6598C55.3367 78.9766 54.0521 81.1268 52.2191 82.6011Z" fill="#531139"/>
<path d="M68.3017 88.1138C68.2489 88.1138 68.1974 88.1053 68.1471 88.0881C68.0011 88.0379 67.887 87.9216 67.8416 87.7734C67.2993 86.0003 65.7031 84.6044 63.8713 84.2995C63.6614 84.2652 63.4995 84.0975 63.4725 83.8869C63.4455 83.6775 63.5584 83.4742 63.7522 83.3873C66.2098 82.2852 68.3532 80.424 69.7875 78.1464C69.8673 78.019 70.0022 77.937 70.1531 77.9235C70.3004 77.9101 70.4501 77.9676 70.5519 78.079C72.9051 80.664 74.6793 82.9023 76.1344 85.1211C76.2326 85.2718 76.2387 85.4628 76.1516 85.6195C76.0633 85.7763 75.8903 85.8742 75.716 85.8644C73.1886 85.7824 70.6464 86.5514 68.5814 88.0244C68.4992 88.0832 68.4011 88.1138 68.3017 88.1138ZM65.2614 83.7044C66.7067 84.2971 67.9152 85.4616 68.5397 86.893C70.4169 85.6905 72.6058 85.0024 74.8339 84.9093C73.5861 83.0897 72.1371 81.2799 70.255 79.1835C68.9679 81.0374 67.2367 82.6036 65.2614 83.7032V83.7044Z" fill="#531139"/>
<path d="M68.6085 44.513C65.281 44.513 61.2358 42.991 58.4924 41.3244C54.1834 38.7077 51.8817 35.6611 51.6535 32.268C51.6241 31.8247 51.5738 31.0839 52.0032 30.5219C52.635 29.6953 53.8239 29.5594 54.6754 29.8545C57.7698 30.9272 60.0383 30.8023 61.8603 30.7006C63.4001 30.6162 64.7314 30.5427 65.9865 31.2358C67.8674 32.2729 68.4011 34.188 68.9164 36.0395C69.3274 37.515 69.7151 38.9072 70.7531 39.7632C71.5273 40.4011 72.9677 41.5901 72.4107 42.9836C72.1445 43.6473 71.4954 44.0979 70.4807 44.322C69.8955 44.4518 69.2661 44.5106 68.6085 44.5106V44.513ZM53.8055 30.6737C53.4043 30.6737 52.9945 30.8072 52.7676 31.1047C52.5737 31.3582 52.5847 31.7868 52.613 32.2031C52.8203 35.2656 54.9662 38.0587 58.9918 40.504C62.2174 42.462 67.1251 44.0808 70.2734 43.3853C70.7445 43.2812 71.3433 43.0657 71.5175 42.6273C71.7923 41.9416 70.9507 41.1714 70.1409 40.5028C68.8698 39.4546 68.422 37.8493 67.9901 36.2954C67.5067 34.559 67.049 32.9182 65.5215 32.0758C64.5081 31.5162 63.3633 31.5811 61.9131 31.6594C60.0064 31.7647 57.6336 31.8958 54.3601 30.7606C54.192 30.7031 54.0006 30.6713 53.8068 30.6713L53.8055 30.6737Z" fill="#531139"/>
<path d="M58.7206 20.9426C58.0519 20.9426 57.3833 20.7516 56.8275 20.3561C55.4484 19.374 55.0411 17.334 55.9392 15.9001C56.8361 14.4674 58.8519 13.936 60.3402 14.7442C61.2285 15.2254 61.8198 16.0066 62.0063 16.9446C62.2014 17.9193 61.9438 18.9907 61.3364 19.7414C60.7009 20.525 59.7095 20.9414 58.7194 20.9414L58.7206 20.9426ZM58.8139 15.3295C58.0053 15.3295 57.1845 15.725 56.7551 16.4107C56.1281 17.4111 56.4238 18.8903 57.3857 19.5748C58.3476 20.2593 59.8445 20.0561 60.5892 19.1389C61.015 18.6136 61.2015 17.8262 61.0641 17.1344C60.972 16.6728 60.6923 16.0299 59.8813 15.5903C59.5537 15.4128 59.1856 15.3295 58.8139 15.3295Z" fill="#531139"/>
<path d="M80.0054 35.9342C79.3367 35.9342 78.668 35.7444 78.1122 35.3476C76.7332 34.3656 76.3271 32.3256 77.224 30.8917C78.1208 29.459 80.1367 28.9288 81.625 29.7357C82.5132 30.217 83.1046 30.9994 83.2911 31.9362C83.4862 32.9109 83.2285 33.9823 82.62 34.7317C81.9844 35.5154 80.9931 35.9317 80.0042 35.9317L80.0054 35.9342ZM80.0986 30.3198C79.2901 30.3198 78.4693 30.7153 78.0399 31.4023C77.4129 32.4027 77.7086 33.8807 78.6705 34.5664C79.6312 35.2509 81.1293 35.0476 81.8728 34.1305C82.2985 33.6052 82.485 32.8178 82.3476 32.126C82.2556 31.6643 81.9759 31.0215 81.1649 30.5819C80.8373 30.4043 80.4692 30.3211 80.0974 30.3211L80.0986 30.3198Z" fill="#531139"/>
<path d="M61.7867 9.44207C61.664 9.44207 61.5413 9.39554 61.4481 9.30248C60.8272 8.68778 59.6678 8.65961 59.0175 9.2437C58.82 9.42125 58.5157 9.40534 58.3378 9.20819C58.1599 9.01105 58.1758 8.70737 58.3734 8.52982C59.4138 7.5943 61.1328 7.63593 62.1253 8.62043C62.3143 8.80655 62.3155 9.11145 62.1278 9.30003C62.0333 9.39431 61.9094 9.44207 61.7867 9.44207Z" fill="#531139"/>
<path d="M86.8517 27.5635C86.8198 27.5635 86.7866 27.5598 86.7547 27.5537C86.4946 27.4998 86.3265 27.2463 86.3805 26.9867C86.5609 26.1136 86.1903 25.1279 85.4812 24.5879C85.2701 24.4275 85.2284 24.1263 85.3892 23.9144C85.5511 23.7038 85.8517 23.6622 86.064 23.8226C87.0737 24.5891 87.5792 25.9385 87.324 27.179C87.2774 27.4067 87.0774 27.5622 86.8529 27.5622L86.8517 27.5635Z" fill="#531139"/>
<path d="M70.1053 79.4039C70.0808 79.4039 70.055 79.4015 70.0305 79.3978C69.7679 79.3562 69.5888 79.1113 69.6293 78.8492C69.9262 76.9537 69.9912 75.0251 69.8194 73.1174C69.7961 72.8529 69.9912 72.6202 70.2562 72.5957C70.5298 72.5712 70.7544 72.7684 70.7789 73.0316C70.9568 75.0178 70.8893 77.0247 70.5801 78.9974C70.5433 79.2337 70.3384 79.4039 70.1053 79.4039Z" fill="#531139"/>
<g clip-path="url(#clip1_719_2512)">
<path d="M20.5493 84.8077C22.6342 85.2776 25.3048 86.208 24.9718 88.4506C24.3026 92.9599 5.99368 93.9186 0.561666 89.0034C-0.787202 87.7835 -0.0167192 84.7616 6.36013 84.1794C11.3077 84.343 16.3503 83.8595 20.5493 84.8077Z" fill="#7CCCDF"/>
<path d="M13.6547 79.9649C12.1795 78.8898 11.3516 76.9797 11.574 75.1619C11.622 74.7707 11.718 74.3763 11.9394 74.0511C12.1596 73.726 12.523 73.4795 12.9145 73.4784C13.4125 73.4784 13.8426 73.8707 14.042 74.3291C14.2414 74.7875 14.2581 75.3014 14.2706 75.8007C14.3625 75.3245 14.5014 74.8368 14.824 74.477C15.1476 74.1172 15.7009 73.9263 16.129 74.1508C16.4986 74.3448 16.6781 74.7959 16.6614 75.2144C16.6458 75.6329 16.4683 76.0262 16.2772 76.3986C15.6362 77.6489 14.802 78.7996 13.6536 79.9638L13.6547 79.9649Z" fill="#F58359"/>
<path d="M16.1488 77.3877C19.5857 79.8548 21.2071 84.6063 19.9981 88.673C15.3428 89.6002 10.4412 89.2436 5.96758 87.6513C5.68674 85.2409 5.97802 83.0277 6.9333 81.147C7.88962 79.2663 9.50262 77.7318 11.5593 76.9021C11.9665 78.1251 12.7015 79.2369 13.6662 80.0887C14.5379 79.345 15.2572 78.4219 16.1488 77.3877Z" fill="#A0BBD4"/>
<path d="M12.5522 75.1105C11.8725 75.1126 11.8736 76.1521 12.5522 76.1563C13.2319 76.1542 13.2308 75.1147 12.5522 75.1105Z" fill="#FECA8B"/>
<path d="M4.82438 87.8611C4.71685 87.7164 4.47672 87.3954 4.43079 87.3283C4.36188 87.2527 4.27001 87.065 4.2982 87.1363C4.28671 87.1101 4.27732 87.0818 4.26479 87.0566C4.26166 87.0493 4.26061 87.0409 4.25748 87.0325C4.32221 86.787 4.41408 86.5321 4.26374 86.3003C4.01318 85.8346 3.26149 85.9332 3.13725 86.4482C2.89817 87.0167 3.05895 87.602 3.46716 88.0447C3.73547 88.3583 3.99334 88.7244 4.36188 88.9205C4.70014 89.0936 5.13237 88.7915 5.12088 88.4181C5.12401 88.1863 4.96219 88.0268 4.82438 87.8611Z" fill="#D2DDE4"/>
<path d="M7.43757 89.0579C6.75792 89.06 6.75896 90.0995 7.43757 90.1037C8.11723 90.1016 8.11618 89.0621 7.43757 89.0579Z" fill="#D2DDE4"/>
<path d="M22.391 87.5527C22.0381 88.1254 20.8803 89.0107 21.6508 89.6526C22.1081 90.0292 22.5789 89.6117 22.8702 89.2415C23.0999 88.9467 23.4048 88.6866 23.5708 88.352C23.9059 87.6408 22.9287 86.9895 22.391 87.5527Z" fill="#D2DDE4"/>
<path d="M18.4644 82.0166C18.2859 81.5236 18.2713 80.8166 17.8119 80.504C17.2774 80.1663 16.5549 80.7243 16.7418 81.3306C16.8796 81.7501 17.0154 82.1718 17.1793 82.5819C17.2262 82.754 17.3421 82.905 17.4956 82.9952C18.1481 83.3487 18.7338 82.6617 18.4634 82.0166H18.4644Z" fill="#AFC1D6"/>
<path d="M18.5699 84.814C17.8902 84.8161 17.8913 85.8556 18.5699 85.8598C19.2496 85.8577 19.2485 84.8182 18.5699 84.814Z" fill="#AFC1D6"/>
<path d="M13.6348 80.3551C13.567 80.3551 13.4981 80.3383 13.4365 80.3037C11.7942 79.3943 10.8807 77.2776 11.2127 75.1577C11.2681 74.8084 11.3787 74.2955 11.7097 73.8791C12.0751 73.4186 12.6409 73.1963 13.1483 73.3148C13.8624 73.4795 14.2947 74.1948 14.3677 75.3287C14.468 76.9031 14.3563 78.4838 14.0347 80.0268C14.0086 80.1548 13.923 80.2617 13.805 80.3173C13.7507 80.3425 13.6923 80.3551 13.6338 80.3551H13.6348ZM12.8748 74.1078C12.6952 74.1078 12.4906 74.2169 12.3497 74.3941C12.1899 74.5945 12.0866 74.8787 12.0218 75.2868C11.7775 76.8433 12.3142 78.3884 13.3488 79.2516C13.5659 77.9751 13.6338 76.6766 13.5503 75.3822C13.5336 75.1126 13.4407 74.2273 12.9646 74.1172C12.9354 74.1099 12.9051 74.1067 12.8738 74.1067L12.8748 74.1078Z" fill="#531139"/>
<path d="M13.6484 80.3928C13.5722 80.3928 13.496 80.3719 13.4292 80.3288C13.2861 80.2365 13.2131 80.0656 13.2475 79.8977C13.5847 78.2593 13.7643 77.0867 13.9376 75.9528C14.0159 75.4451 14.112 74.8158 14.5087 74.3228C14.7645 74.0039 15.156 73.7889 15.5548 73.748C15.8826 73.7134 16.1937 73.8025 16.4307 73.9976C16.7314 74.2452 17.0425 74.7539 16.8149 75.7724C16.4161 77.5587 15.3512 79.2128 13.8938 80.311C13.8217 80.3656 13.7351 80.3939 13.6484 80.3939V80.3928ZM15.6947 74.563C15.6769 74.563 15.6581 74.563 15.6394 74.5661C15.4577 74.585 15.2646 74.692 15.1455 74.8399C14.8877 75.1609 14.8125 75.6476 14.7467 76.0766C14.6173 76.9241 14.4836 77.7905 14.2863 78.8551C15.1341 77.9457 15.7458 76.8024 16.0152 75.592C16.0768 75.3171 16.1447 74.8263 15.9108 74.6343C15.8544 74.5882 15.7813 74.564 15.6936 74.564L15.6947 74.563Z" fill="#531139"/>
<path d="M14.8355 89.5928C11.7796 89.5928 8.7332 89.0715 5.83083 88.0394C5.68363 87.987 5.57922 87.8558 5.56043 87.6996C5.2608 85.1318 5.6001 82.8641 6.56895 80.9603C7.57329 78.9841 9.23954 77.4003 11.2587 76.5003C11.4664 76.407 11.7076 76.5024 11.7984 76.7101C11.8903 76.9178 11.7963 77.1611 11.5896 77.2524C9.74067 78.0758 8.21641 79.5254 7.29663 81.3348C6.43532 83.0287 6.1148 85.0521 6.34449 87.3492C10.626 88.825 15.2228 89.1596 19.6713 88.3174C20.7018 84.4658 19.1441 80.0456 15.9087 77.7223C15.725 77.5901 15.6822 77.3332 15.8137 77.1485C15.9453 76.9639 16.2021 76.9209 16.3848 77.0531C19.9626 79.6208 21.6466 84.5581 20.3886 88.7904C20.3458 88.9362 20.2247 89.0464 20.0754 89.0757C18.3434 89.4208 16.5863 89.5928 14.8334 89.5928H14.8355Z" fill="#531139"/>
<path d="M10.7064 85.1098C10.6531 85.1098 10.6009 85.0993 10.5487 85.0783C9.98078 84.8402 9.62372 84.1993 9.71873 83.5889C9.81373 82.9784 10.3472 82.477 10.959 82.4225C11.1918 82.4005 11.3829 82.5704 11.4027 82.7959C11.4226 83.0225 11.2555 83.2218 11.0311 83.2417C10.7899 83.2627 10.5644 83.4756 10.5278 83.7147C10.4903 83.9549 10.6416 84.2256 10.864 84.3189C11.0728 84.406 11.172 84.6472 11.0843 84.857C11.0185 85.0154 10.8661 85.1098 10.7064 85.1098Z" fill="#531139"/>
</g>
<defs>
<clipPath id="clip0_719_2512">
<rect width="64" height="22" fill="white" transform="matrix(1 0 0 -1 34 97.2844)"/>
</clipPath>
<clipPath id="clip1_719_2512">
<rect width="25" height="19" fill="white" transform="translate(0 73.2844)"/>
</clipPath>
</defs>
</svg>